<svg width="375" height="780" viewBox="0 0 375 780" fill="none" xmlns="http://www.w3.org/2000/svg">
<g clip-path="url(#clip0_1412_25236)">
<path opacity="0.54" d="M-84.9658 392.16C-98.0958 375.1 -91.5358 348.92 -76.0758 334.18C-74.6958 332.86 -73.2558 331.62 -71.7758 330.45C-56.6558 318.5 -36.9558 313.72 -17.7458 310.82C-14.0458 310.26 -10.3258 309.76 -6.60577 309.27C10.8742 306.97 28.5742 304.8 44.8442 297.89C50.1142 295.66 55.0842 292.99 59.7842 289.92C91.5342 269.1 109.174 230.46 121.724 193.85C122.634 191.19 123.544 188.52 124.444 185.84C137.834 146.25 153.184 107.1 181.044 80.49C190.554 71.41 200.334 62.32 213.784 57.56C229.764 51.88 248.124 52.72 264.754 54.87C276.094 56.33 287.094 58.34 298.174 59.27C303.384 59.7 308.614 59.89 313.914 59.71C347.664 58.55 381.834 41.25 406.544 15.98C431.284 -9.33 447.494 -41.8 456.384 -76" stroke="url(#paint0_linear_1412_25236)" stroke-width="0.8669" stroke-miterlimit="10"/>
<path opacity="0.54" d="M-82.5748 397.501C-95.7148 380.461 -89.3248 354.351 -74.0548 339.461C-72.6848 338.131 -71.2648 336.871 -69.8048 335.691C-54.8348 323.601 -35.2448 318.591 -16.0948 315.471C-12.4048 314.871 -8.69478 314.331 -4.98478 313.801C12.4352 311.311 30.0852 308.981 46.3052 301.991C51.5552 299.731 56.5152 297.051 61.1952 293.961C92.8752 273.021 110.365 234.391 122.625 197.711C123.515 195.051 124.395 192.371 125.275 189.691C138.295 150.051 153.115 110.931 179.835 83.5905C189.215 73.9905 198.825 64.2105 212.525 59.1205C228.805 53.0405 247.705 54.1105 264.675 56.7105C276.245 58.4805 287.425 60.8705 298.735 62.1505C304.045 62.7505 309.395 63.0906 314.825 63.0406C349.385 62.7206 384.685 45.1105 409.915 19.1305C435.175 -6.87945 451.425 -40.3495 460.315 -75.4395" stroke="url(#paint1_linear_1412_25236)" stroke-width="0.8669" stroke-miterlimit="10"/>
<path opacity="0.54" d="M-80.1843 402.84C-93.3243 385.83 -87.1243 359.77 -72.0343 344.75C-70.6843 343.41 -69.2843 342.14 -67.8243 340.94C-52.9943 328.7 -33.5243 323.46 -14.4343 320.12C-10.7643 319.48 -7.06433 318.9 -3.36433 318.33C13.9957 315.66 31.6057 313.15 47.7657 306.09C52.9957 303.81 57.9357 301.11 62.6057 298C94.2157 276.94 111.556 238.32 123.516 201.57C124.386 198.9 125.246 196.22 126.096 193.54C138.746 153.85 153.016 114.72 178.616 86.6801C187.866 76.5501 197.306 66.1001 211.256 60.6801C227.836 54.2001 247.276 55.5101 264.576 58.5601C276.376 60.6301 287.736 63.4101 299.266 65.0401C304.686 65.8001 310.136 66.3001 315.696 66.3801C351.066 66.8901 387.496 48.9701 413.246 22.2801C439.026 -4.43989 455.306 -38.8999 464.206 -74.8799" stroke="url(#paint2_linear_1412_25236)" stroke-width="0.8669" stroke-miterlimit="10"/>
<path opacity="0.54" d="M-77.8044 408.18C-90.9544 391.19 -84.9344 365.2 -70.0144 350.03C-68.6844 348.67 -67.2944 347.39 -65.8544 346.18C-51.1744 333.79 -31.8144 328.33 -12.7944 324.77C-9.1344 324.09 -5.4444 323.46 -1.7644 322.85C15.5356 319.99 33.1056 317.32 49.2156 310.18C54.4256 307.87 59.3556 305.16 64.0156 302.03C95.5556 280.84 112.736 242.23 124.406 205.42C125.256 202.75 126.086 200.06 126.916 197.37C139.196 157.63 152.886 118.47 177.396 89.7602C186.506 79.0902 195.786 67.9702 209.976 62.2202C226.856 55.3502 246.836 56.8902 264.466 60.3802C276.486 62.7502 288.036 65.9202 299.786 67.9002C305.306 68.8302 310.876 69.4802 316.566 69.6902C352.746 71.0302 390.306 52.8002 416.576 25.4102C442.876 -2.00984 459.186 -37.4698 468.096 -74.3398" stroke="url(#paint3_linear_1412_25236)" stroke-width="0.8669" stroke-miterlimit="10"/>
<path opacity="0.54" d="M-75.4141 413.53C-88.5641 396.57 -82.7241 370.64 -67.9941 355.32C-66.6741 353.95 -65.3041 352.65 -63.8741 351.42C-49.3441 338.88 -30.0941 333.19 -11.1341 329.41C-7.48411 328.68 -3.8141 328.02 -0.144104 327.37C17.0959 324.32 34.6159 321.49 50.6759 314.27C55.8659 311.94 60.7859 309.2 65.4259 306.06C96.8959 284.75 113.926 246.15 125.296 209.27C126.126 206.59 126.936 203.9 127.736 201.21C139.646 161.41 152.726 122.19 176.176 92.84C185.146 81.62 194.276 69.85 208.706 63.77C225.886 56.5 246.406 58.28 264.376 62.21C276.626 64.88 288.366 68.45 300.336 70.77C305.966 71.86 311.646 72.67 317.456 73.01C354.446 75.19 393.136 56.65 419.926 28.55C446.746 0.419958 463.086 -36.03 471.996 -73.79" stroke="url(#paint4_linear_1412_25236)" stroke-width="0.8669" stroke-miterlimit="10"/>
<path opacity="0.54" d="M-73.0238 418.869C-86.1838 401.929 -80.5238 376.069 -65.9638 360.599C-64.6638 359.219 -63.3038 357.909 -61.8938 356.659C-47.5038 343.979 -28.3738 338.059 -9.47379 334.059C-5.83379 333.289 -2.1838 332.579 1.4762 331.899C18.6562 328.659 36.1362 325.659 52.1362 318.369C57.3062 316.019 62.2062 313.259 66.8362 310.099C98.2262 288.669 115.116 250.069 126.186 213.129C126.986 210.449 127.776 207.749 128.556 205.059C140.096 165.209 152.546 125.909 174.966 95.9393C183.776 84.1593 192.766 71.7393 207.446 65.3293C224.926 57.6593 245.986 59.6793 264.286 64.0593C276.756 67.0393 288.686 70.9893 300.876 73.6593C306.606 74.9093 312.396 75.8693 318.336 76.3493C356.136 79.3593 395.956 60.5093 423.266 31.7093C450.606 2.8793 466.976 -34.5707 475.896 -73.2207" stroke="url(#paint5_linear_1412_25236)" stroke-width="0.8669" stroke-miterlimit="10"/>
<path opacity="0.54" d="M-70.6476 424.21C-83.8076 407.3 -78.3376 381.5 -63.9576 365.89C-62.6776 364.5 -61.3276 363.17 -59.9376 361.91C-45.6976 349.08 -26.6776 342.93 -7.83761 338.71C-4.21761 337.9 -0.56761 337.15 3.08239 336.42C20.2124 333 37.6424 329.83 53.5824 322.46C58.7324 320.08 63.6224 317.31 68.2424 314.14C99.5624 292.59 116.302 254 127.082 216.99C127.862 214.3 128.632 211.6 129.382 208.91C140.552 169.01 152.352 129.6 173.752 99.0298C182.402 86.6798 191.252 73.6298 206.172 66.8898C223.952 58.8298 245.542 61.0798 264.182 65.8998C276.882 69.1798 288.992 73.5199 301.412 76.5399C307.242 77.9599 313.152 79.0698 319.222 79.6798C357.832 83.5198 398.782 64.3698 426.612 34.8598C454.472 5.31984 470.872 -33.1202 479.802 -72.6602" stroke="url(#paint6_linear_1412_25236)" stroke-width="0.8669" stroke-miterlimit="10"/>
<path opacity="0.54" d="M-68.2568 429.55C-81.4268 412.66 -76.1268 386.93 -61.9368 371.17C-60.6668 369.76 -59.3368 368.42 -57.9568 367.15C-43.8568 354.17 -24.9568 347.8 -6.18679 343.35C-2.57679 342.5 1.0532 341.71 4.6932 340.94C21.7632 337.33 39.1432 334 55.0332 326.55C60.1632 324.15 65.0332 321.36 69.6432 318.17C100.893 296.49 117.483 257.91 127.963 220.84C128.723 218.15 129.463 215.45 130.193 212.74C140.993 172.79 152.103 133.25 172.523 102.11C180.993 89.1899 189.723 75.4999 204.893 68.4299C222.973 59.9699 245.103 62.4599 264.073 67.7199C276.993 71.2999 289.293 76.0299 301.933 79.3999C307.873 80.9799 313.883 82.2499 320.083 82.9899C359.503 87.6699 401.583 68.1999 429.933 37.9899C458.313 7.74988 474.743 -31.6901 483.683 -72.1201" stroke="url(#paint7_linear_1412_25236)" stroke-width="0.8669" stroke-miterlimit="10"/>
<path opacity="0.54" d="M-65.8667 434.899C-79.0367 418.039 -73.9267 392.359 -59.9067 376.459C-58.6567 375.039 -57.3467 373.689 -55.9767 372.399C-42.0267 359.269 -23.2367 352.679 -4.52671 348.009C-0.926711 347.109 2.6933 346.279 6.3133 345.469C23.3233 341.669 40.6633 338.169 56.4933 330.649C61.6033 328.219 66.4633 325.419 71.0533 322.209C102.233 300.409 118.673 261.839 128.853 224.699C129.593 221.999 130.313 219.299 131.013 216.589C141.443 176.589 151.853 136.919 171.303 105.199C179.583 91.6995 188.213 77.3895 203.623 69.9895C222.003 61.1295 244.673 63.8595 263.983 69.5595C277.133 73.4395 289.613 78.5694 302.473 82.2794C308.513 84.0294 314.643 85.4495 320.963 86.3195C361.193 91.8295 404.403 72.0595 433.273 41.1395C462.173 10.1894 478.633 -30.2405 487.583 -71.5605" stroke="url(#paint8_linear_1412_25236)" stroke-width="0.8669" stroke-miterlimit="10"/>
<path opacity="0.54" d="M-63.4745 440.24C-76.6445 423.4 -71.7245 397.79 -57.8845 381.75C-56.6445 380.32 -55.3545 378.95 -53.9945 377.65C-40.1945 364.38 -21.5145 357.55 -2.86449 352.66C0.725506 351.72 4.32551 350.85 7.93551 350C24.8855 346.01 42.1855 342.35 57.9555 334.75C63.0455 332.3 67.8955 329.48 72.4755 326.25C103.586 304.33 119.876 265.77 129.756 228.56C130.476 225.86 131.166 223.15 131.846 220.44C141.906 180.39 151.576 140.58 170.096 108.3C178.176 94.2095 186.705 79.2795 202.355 71.5595C221.035 62.3095 244.245 65.2695 263.885 71.4195C277.255 75.5995 289.926 81.1195 303.016 85.1795C309.166 87.0895 315.405 88.6695 321.855 89.6695C362.896 96.0195 407.235 75.9295 436.625 44.3095C466.045 12.6595 482.535 -28.7705 491.485 -70.9805" stroke="url(#paint9_linear_1412_25236)" stroke-width="0.8669" stroke-miterlimit="10"/>
<path opacity="0.54" d="M-61.0957 445.58C-74.2757 428.77 -69.5258 403.22 -55.8658 387.03C-54.6458 385.58 -53.3657 384.2 -52.0257 382.89C-38.3657 369.47 -19.8057 362.42 -1.21574 357.31C2.35426 356.33 5.95425 355.41 9.54425 354.53C26.4342 350.35 43.6842 346.53 59.4142 338.85C64.4842 336.38 69.3142 333.53 73.8842 330.29C104.914 308.24 121.064 269.69 130.644 232.42C131.344 229.71 132.014 227 132.664 224.29C142.354 184.19 151.274 144.22 168.874 111.39C176.744 96.7103 185.184 81.1703 201.084 73.1103C220.064 63.4603 243.814 66.6503 263.784 73.2503C277.384 77.7403 290.244 83.6403 303.544 88.0603C309.794 90.1303 316.144 91.8703 322.724 93.0003C364.584 100.18 410.044 79.7903 439.954 47.4503C469.894 15.1003 486.414 -27.3297 495.374 -70.4297" stroke="url(#paint10_linear_1412_25236)" stroke-width="0.8669" stroke-miterlimit="10"/>
<path opacity="0.54" d="M-58.7044 450.919C-71.8844 434.129 -67.3244 408.649 -53.8444 392.309C-52.6444 390.849 -51.3744 389.459 -50.0544 388.129C-36.5444 374.559 -18.0944 367.279 0.435585 361.949C3.99558 360.929 7.57558 359.969 11.1656 359.039C27.9956 354.679 45.2056 350.679 60.8756 342.919C65.9256 340.419 70.7456 337.559 75.2956 334.309C106.256 312.139 122.246 273.599 131.546 236.259C132.216 233.549 132.876 230.829 133.506 228.109C142.826 187.959 150.966 147.839 167.676 114.459C175.316 99.1894 183.686 83.0294 199.836 74.6494C219.116 64.5994 243.406 68.0294 263.706 75.0694C277.536 79.8594 290.576 86.1494 304.096 90.9194C310.456 93.1594 316.916 95.0494 323.626 96.3094C366.296 104.319 412.886 83.6194 443.316 50.5794C473.776 17.5194 490.336 -25.9006 499.296 -69.8906" stroke="url(#paint11_linear_1412_25236)" stroke-width="0.8669" stroke-miterlimit="10"/>
<path opacity="0.54" d="M-56.315 456.27C-69.505 439.51 -65.125 414.09 -51.825 397.6C-50.635 396.13 -49.385 394.72 -48.075 393.38C-34.705 379.67 -16.375 372.16 2.08497 366.6C5.63497 365.53 9.20497 364.54 12.775 363.57C29.545 359.02 46.715 354.86 62.325 347.02C67.355 344.5 72.155 341.62 76.695 338.35C107.585 316.06 123.425 277.52 132.425 240.12C133.075 237.4 133.705 234.68 134.315 231.96C143.255 191.76 150.605 151.49 166.445 117.56C173.855 101.7 182.165 84.9297 198.545 76.2097C218.125 65.7697 242.955 69.4297 263.595 76.9197C277.645 82.0097 290.875 88.6897 304.625 93.8097C311.085 96.2097 317.665 98.2597 324.495 99.6497C367.975 108.5 415.695 87.4897 446.645 53.7397C477.625 19.9797 494.215 -24.4503 503.185 -69.3203" stroke="url(#paint12_linear_1412_25236)" stroke-width="0.8669" stroke-miterlimit="10"/>
<path opacity="0.54" d="M-53.9243 461.61C-67.1143 444.87 -62.9143 419.51 -49.7943 402.89C-48.6243 401.41 -47.3843 399.98 -46.0943 398.63C-32.8743 384.77 -14.6543 377.03 3.7457 371.26C7.2857 370.15 10.8357 369.11 14.3957 368.1C31.1157 363.36 48.2257 359.04 63.7857 351.12C68.7957 348.57 73.5857 345.68 78.1157 342.39C108.936 319.97 124.626 281.45 133.326 243.98C133.956 241.26 134.566 238.53 135.146 235.81C143.716 195.55 150.246 155.13 165.236 120.65C172.396 104.19 180.656 86.8102 197.286 77.7702C217.166 66.9302 242.536 70.8302 263.506 78.7602C277.786 84.1502 291.196 91.2302 305.166 96.6902C311.726 99.2502 318.416 101.46 325.376 102.98C369.666 112.66 418.506 91.3402 449.986 56.8902C481.486 22.4202 498.106 -22.9998 507.086 -68.7598" stroke="url(#paint13_linear_1412_25236)" stroke-width="0.8669" stroke-miterlimit="10"/>
<path opacity="0.54" d="M-51.5473 466.95C-64.7473 450.24 -60.7273 424.94 -47.7873 408.17C-46.6273 406.67 -45.4073 405.24 -44.1373 403.87C-31.0673 389.86 -12.9573 381.9 5.38268 375.9C8.90268 374.75 12.4527 373.67 15.9927 372.62C32.6527 367.69 49.7227 363.21 65.2227 355.21C70.2127 352.64 74.9927 349.73 79.5027 346.42C110.253 323.88 125.793 285.36 134.193 247.83C134.803 245.1 135.383 242.37 135.943 239.65C144.143 199.34 149.823 158.77 163.993 123.74C170.893 106.69 179.113 88.7 195.993 79.32C216.183 68.08 242.083 72.22 263.383 80.59C277.883 86.29 291.483 93.75 305.683 99.56C312.353 102.29 319.153 104.65 326.243 106.3C371.343 116.81 421.313 95.19 453.313 60.03C485.333 24.86 501.983 -21.56 510.963 -68.21" stroke="url(#paint14_linear_1412_25236)" stroke-width="0.8669" stroke-miterlimit="10"/>
<path opacity="0.54" d="M-49.1541 472.29C-62.3541 455.6 -58.5241 430.37 -45.7541 413.45C-44.6141 411.94 -43.4141 410.49 -42.1441 409.11C-29.2141 394.95 -11.2241 386.76 7.0559 380.55C10.5659 379.36 14.0959 378.23 17.6259 377.15C34.2259 372.04 51.2559 367.38 66.6959 359.31C71.6659 356.71 76.4259 353.79 80.9259 350.46C111.596 327.8 126.996 289.29 135.096 251.69C135.686 248.96 136.246 246.22 136.776 243.49C144.606 203.13 149.436 162.42 162.786 126.82C169.406 109.17 177.606 90.5698 194.726 80.8698C215.216 69.2398 241.656 73.6098 263.296 82.4198C278.026 88.4198 291.806 96.2698 306.226 102.43C312.996 105.32 319.906 107.83 327.126 109.62C373.036 120.97 424.136 99.0298 456.656 63.1698C489.186 27.2898 505.876 -20.1202 514.866 -67.6602" stroke="url(#paint15_linear_1412_25236)" stroke-width="0.8669" stroke-miterlimit="10"/>
<path opacity="0.54" d="M-46.7652 477.64C-59.9752 460.98 -56.3152 435.81 -43.7352 418.75C-42.6152 417.23 -41.4252 415.76 -40.1752 414.37C-27.3952 400.07 -9.5152 391.65 8.6948 385.21C12.1948 383.98 15.7148 382.81 19.2348 381.68C35.7748 376.38 52.7548 371.56 68.1448 363.41C73.0948 360.79 77.8448 357.85 82.3348 354.5C112.935 331.71 128.185 293.22 135.985 255.55C136.555 252.81 137.085 250.07 137.595 247.34C145.055 206.93 149.005 166.08 161.575 129.92C167.915 111.68 176.105 92.4602 193.465 82.4302C214.255 70.4002 241.235 75.0102 263.205 84.2702C278.155 90.5702 292.125 98.8102 306.765 105.32C313.645 108.38 320.665 111.04 328.015 112.96C374.735 125.14 426.965 102.9 460.005 66.3302C493.055 29.7502 509.775 -18.6598 518.775 -67.0898" stroke="url(#paint16_linear_1412_25236)" stroke-width="0.8669" stroke-miterlimit="10"/>
<path opacity="0.54" d="M-44.3763 482.98C-57.5863 466.34 -54.1163 441.24 -41.7063 424.03C-40.5963 422.49 -39.4263 421.02 -38.1863 419.6C-25.5463 405.15 -7.78633 396.5 10.3637 389.84C13.8437 388.56 17.3537 387.36 20.8637 386.19C37.3437 380.7 54.2837 375.72 69.6237 367.49C74.5537 364.85 79.2837 361.88 83.7637 358.53C114.294 335.62 129.394 297.13 136.904 259.4C137.454 256.66 137.964 253.92 138.444 251.18C145.534 210.72 148.594 169.74 160.384 133C166.424 114.16 174.614 94.3402 192.224 83.9802C213.314 71.5502 240.834 76.4002 263.134 86.1002C278.314 92.7002 292.474 101.34 307.334 108.19C314.314 111.41 321.454 114.23 328.924 116.28C376.454 129.3 429.814 106.74 463.384 69.4602C496.954 32.1802 513.704 -17.2298 522.714 -66.5498" stroke="url(#paint17_linear_1412_25236)" stroke-width="0.8669" stroke-miterlimit="10"/>
<path opacity="0.54" d="M-41.9957 488.32C-55.2157 471.71 -51.9157 446.66 -39.6957 429.31C-38.6057 427.76 -37.4457 426.27 -36.2257 424.84C-23.7357 410.24 -6.08568 401.37 12.0043 394.49C15.4743 393.17 18.9743 391.92 22.4643 390.72C38.8843 385.04 55.7843 379.89 71.0643 371.59C75.9743 368.92 80.6943 365.94 85.1543 362.57C115.614 339.54 130.564 301.06 137.774 263.26C138.294 260.51 138.784 257.77 139.244 255.02C145.964 214.51 148.124 173.41 159.144 136.09C164.884 116.66 173.074 96.22 190.924 85.53C212.314 72.71 240.374 77.79 263.004 87.93C278.404 94.83 292.754 103.86 307.834 111.06C314.914 114.44 322.164 117.42 329.764 119.6C378.104 133.45 432.594 110.58 466.684 72.6C500.774 34.61 517.554 -15.79 526.574 -66" stroke="url(#paint18_linear_1412_25236)" stroke-width="0.8669" stroke-miterlimit="10"/>
<path opacity="0.54" d="M-39.6062 493.66C-52.8262 477.07 -49.7162 452.09 -37.6762 434.59C-36.5962 433.03 -35.4562 431.52 -34.2562 430.08C-21.9062 415.34 -4.37615 406.24 13.6538 399.13C17.1138 397.77 20.5938 396.48 24.0738 395.23C40.4338 389.36 57.2838 384.05 72.5138 375.67C77.4038 372.98 82.1139 369.98 86.5639 366.59C116.954 343.44 131.744 304.96 138.664 267.1C139.164 264.35 139.634 261.6 140.064 258.85C146.414 218.29 147.654 177.08 157.924 139.16C163.344 119.14 171.564 98.0898 189.654 87.0698C211.344 73.8498 239.944 79.1598 262.914 89.7598C278.544 96.9698 293.074 106.38 308.384 113.93C315.574 117.48 322.934 120.61 330.664 122.92C379.814 137.6 435.434 114.43 470.044 75.7398C504.654 37.0498 521.464 -14.3502 530.494 -65.4502" stroke="url(#paint19_linear_1412_25236)" stroke-width="0.8669" stroke-miterlimit="10"/>
<path opacity="0.54" d="M-37.2155 499.01C-50.4455 482.45 -47.5155 457.53 -35.6455 439.89C-34.5855 438.32 -33.4555 436.8 -32.2655 435.34C-20.0655 420.45 -2.64547 411.12 15.3245 403.8C18.7745 402.4 22.2445 401.06 25.7045 399.78C42.0145 393.73 58.8145 388.25 73.9845 379.79C78.8545 377.07 83.5445 374.06 87.9845 370.65C118.295 347.37 132.945 308.91 139.565 270.98C140.045 268.22 140.485 265.47 140.895 262.72C146.875 222.11 147.185 180.8 156.715 142.28C161.815 121.67 170.055 99.9999 188.395 88.6499C210.385 75.0299 239.525 80.5799 262.825 91.6199C278.685 99.1299 293.395 108.93 308.925 116.83C316.215 120.54 323.695 123.83 331.545 126.27C381.505 141.79 438.255 118.3 473.385 78.9099C508.515 39.5099 525.355 -12.8801 534.385 -64.8701" stroke="url(#paint20_linear_1412_25236)" stroke-width="0.8669" stroke-miterlimit="10"/>
<path opacity="0.54" d="M-34.8372 504.35C-48.0672 487.81 -45.3172 462.96 -33.6372 445.17C-32.5972 443.58 -31.4772 442.05 -30.3072 440.58C-18.2572 425.54 -0.947172 415.99 16.9528 408.44C20.3828 406.99 23.8428 405.62 27.3028 404.29C43.5528 398.05 60.3128 392.4 75.4228 383.87C80.2728 381.13 84.9528 378.1 89.3728 374.67C119.613 351.27 134.113 312.81 140.433 274.82C140.893 272.06 141.313 269.3 141.693 266.55C147.303 225.89 146.673 184.49 155.473 145.35C160.233 124.16 168.513 101.87 187.093 90.1897C209.383 76.1797 239.063 81.9597 262.693 93.4397C278.773 101.25 293.673 111.44 309.423 119.7C316.823 123.57 324.403 127.02 332.383 129.59C383.153 145.94 441.033 122.15 476.683 82.0497C512.333 41.9497 529.203 -11.4403 538.243 -64.3203" stroke="url(#paint21_linear_1412_25236)" stroke-width="0.8669" stroke-miterlimit="10"/>
<path opacity="0.54" d="M-32.4466 509.69C-45.6766 493.18 -43.1166 468.39 -31.6066 450.45C-30.5766 448.85 -29.4866 447.3 -28.3166 445.82C-16.4066 430.63 0.783379 420.85 18.6234 413.09C22.0434 411.6 25.4934 410.19 28.9334 408.82C45.1234 402.39 61.8334 396.58 76.8934 387.97C81.7334 385.21 86.3834 382.16 90.8034 378.72C120.973 355.2 135.323 316.75 141.353 278.69C141.793 275.92 142.183 273.16 142.543 270.4C147.783 229.68 146.213 188.21 154.283 148.45C158.703 126.68 167.023 103.76 185.853 91.7502C208.443 77.3402 238.663 83.3602 262.623 95.2802C278.933 103.39 294.013 113.98 309.993 122.58C317.493 126.62 325.193 130.22 333.303 132.92C384.883 150.1 443.893 126 480.063 85.2002C516.233 44.3902 533.143 -9.98977 542.183 -63.7598" stroke="url(#paint22_linear_1412_25236)" stroke-width="0.8669" stroke-miterlimit="10"/>
<path opacity="0.54" d="M-30.0575 515.031C-44.4775 497.071 -40.3675 469.341 -26.3475 451.061C-12.3275 432.791 9.23246 422.081 30.5425 413.341C51.8525 404.601 74.1025 396.971 92.2125 382.751C124.492 357.391 138.492 315.001 143.352 274.241C148.222 233.471 145.692 191.931 153.052 151.541C157.122 129.191 165.502 105.651 184.572 93.3105C207.462 78.5005 238.222 84.7606 262.522 97.1306C286.822 109.501 308.392 127.391 334.172 136.261C386.562 154.281 446.702 129.871 483.392 88.3605C520.082 46.8505 537.022 -8.52945 546.072 -63.1895" stroke="url(#paint23_linear_1412_25236)" stroke-width="0.8669" stroke-miterlimit="10"/>
</g>
<defs>
<linearGradient id="paint0_linear_1412_25236" x1="446.693" y1="-87.3221" x2="-89.1383" y2="388.105" gradientUnits="userSpaceOnUse">
<stop stop-color="#7ED4EF"/>
<stop offset="0.2294" stop-color="#66BFE6"/>
<stop offset="0.711" stop-color="#298BD0"/>
<stop offset="1" stop-color="#0169C2"/>
</linearGradient>
<linearGradient id="paint1_linear_1412_25236" x1="450.462" y1="-86.9144" x2="-88.5918" y2="391.372" gradientUnits="userSpaceOnUse">
<stop stop-color="#7ED4EF"/>
<stop offset="0.2294" stop-color="#66BFE6"/>
<stop offset="0.711" stop-color="#298BD0"/>
<stop offset="1" stop-color="#0169C2"/>
</linearGradient>
<linearGradient id="paint2_linear_1412_25236" x1="454.18" y1="-86.5652" x2="-88.0969" y2="394.581" gradientUnits="userSpaceOnUse">
<stop stop-color="#7ED4EF"/>
<stop offset="0.2294" stop-color="#66BFE6"/>
<stop offset="0.711" stop-color="#298BD0"/>
<stop offset="1" stop-color="#0169C2"/>
</linearGradient>
<linearGradient id="paint3_linear_1412_25236" x1="457.862" y1="-86.2552" x2="-87.6378" y2="397.751" gradientUnits="userSpaceOnUse">
<stop stop-color="#7ED4EF"/>
<stop offset="0.2294" stop-color="#66BFE6"/>
<stop offset="0.711" stop-color="#298BD0"/>
<stop offset="1" stop-color="#0169C2"/>
</linearGradient>
<linearGradient id="paint4_linear_1412_25236" x1="461.519" y1="-85.9742" x2="-87.2039" y2="400.891" gradientUnits="userSpaceOnUse">
<stop stop-color="#7ED4EF"/>
<stop offset="0.2294" stop-color="#66BFE6"/>
<stop offset="0.711" stop-color="#298BD0"/>
<stop offset="1" stop-color="#0169C2"/>
</linearGradient>
<linearGradient id="paint5_linear_1412_25236" x1="465.156" y1="-85.7152" x2="-86.7891" y2="404.01" gradientUnits="userSpaceOnUse">
<stop stop-color="#7ED4EF"/>
<stop offset="0.2294" stop-color="#66BFE6"/>
<stop offset="0.711" stop-color="#298BD0"/>
<stop offset="1" stop-color="#0169C2"/>
</linearGradient>
<linearGradient id="paint6_linear_1412_25236" x1="468.774" y1="-85.4716" x2="-86.3933" y2="407.112" gradientUnits="userSpaceOnUse">
<stop stop-color="#7ED4EF"/>
<stop offset="0.2294" stop-color="#66BFE6"/>
<stop offset="0.711" stop-color="#298BD0"/>
<stop offset="1" stop-color="#0169C2"/>
</linearGradient>
<linearGradient id="paint7_linear_1412_25236" x1="472.386" y1="-85.2416" x2="-86.0044" y2="410.202" gradientUnits="userSpaceOnUse">
<stop stop-color="#7ED4EF"/>
<stop offset="0.2294" stop-color="#66BFE6"/>
<stop offset="0.711" stop-color="#298BD0"/>
<stop offset="1" stop-color="#0169C2"/>
</linearGradient>
<linearGradient id="paint8_linear_1412_25236" x1="475.987" y1="-85.0224" x2="-85.6255" y2="413.28" gradientUnits="userSpaceOnUse">
<stop stop-color="#7ED4EF"/>
<stop offset="0.2294" stop-color="#66BFE6"/>
<stop offset="0.711" stop-color="#298BD0"/>
<stop offset="1" stop-color="#0169C2"/>
</linearGradient>
<linearGradient id="paint9_linear_1412_25236" x1="479.583" y1="-84.8113" x2="-85.2522" y2="416.35" gradientUnits="userSpaceOnUse">
<stop stop-color="#7ED4EF"/>
<stop offset="0.2294" stop-color="#66BFE6"/>
<stop offset="0.711" stop-color="#298BD0"/>
<stop offset="1" stop-color="#0169C2"/>
</linearGradient>
<linearGradient id="paint10_linear_1412_25236" x1="483.169" y1="-84.6065" x2="-84.8884" y2="419.414" gradientUnits="userSpaceOnUse">
<stop stop-color="#7ED4EF"/>
<stop offset="0.2294" stop-color="#66BFE6"/>
<stop offset="0.711" stop-color="#298BD0"/>
<stop offset="1" stop-color="#0169C2"/>
</linearGradient>
<linearGradient id="paint11_linear_1412_25236" x1="486.752" y1="-84.4091" x2="-84.5274" y2="422.471" gradientUnits="userSpaceOnUse">
<stop stop-color="#7ED4EF"/>
<stop offset="0.2294" stop-color="#66BFE6"/>
<stop offset="0.711" stop-color="#298BD0"/>
<stop offset="1" stop-color="#0169C2"/>
</linearGradient>
<linearGradient id="paint12_linear_1412_25236" x1="490.329" y1="-84.2152" x2="-84.1726" y2="425.523" gradientUnits="userSpaceOnUse">
<stop stop-color="#7ED4EF"/>
<stop offset="0.2294" stop-color="#66BFE6"/>
<stop offset="0.711" stop-color="#298BD0"/>
<stop offset="1" stop-color="#0169C2"/>
</linearGradient>
<linearGradient id="paint13_linear_1412_25236" x1="493.904" y1="-84.0254" x2="-83.8201" y2="428.572" gradientUnits="userSpaceOnUse">
<stop stop-color="#7ED4EF"/>
<stop offset="0.2294" stop-color="#66BFE6"/>
<stop offset="0.711" stop-color="#298BD0"/>
<stop offset="1" stop-color="#0169C2"/>
</linearGradient>
<linearGradient id="paint14_linear_1412_25236" x1="497.472" y1="-83.8399" x2="-83.4746" y2="431.617" gradientUnits="userSpaceOnUse">
<stop stop-color="#7ED4EF"/>
<stop offset="0.2294" stop-color="#66BFE6"/>
<stop offset="0.711" stop-color="#298BD0"/>
<stop offset="1" stop-color="#0169C2"/>
</linearGradient>
<linearGradient id="paint15_linear_1412_25236" x1="501.043" y1="-83.6574" x2="-83.1256" y2="434.658" gradientUnits="userSpaceOnUse">
<stop stop-color="#7ED4EF"/>
<stop offset="0.2294" stop-color="#66BFE6"/>
<stop offset="0.711" stop-color="#298BD0"/>
<stop offset="1" stop-color="#0169C2"/>
</linearGradient>
<linearGradient id="paint16_linear_1412_25236" x1="504.608" y1="-83.477" x2="-82.7832" y2="437.698" gradientUnits="userSpaceOnUse">
<stop stop-color="#7ED4EF"/>
<stop offset="0.2294" stop-color="#66BFE6"/>
<stop offset="0.711" stop-color="#298BD0"/>
<stop offset="1" stop-color="#0169C2"/>
</linearGradient>
<linearGradient id="paint17_linear_1412_25236" x1="508.17" y1="-83.2992" x2="-82.4429" y2="440.734" gradientUnits="userSpaceOnUse">
<stop stop-color="#7ED4EF"/>
<stop offset="0.2294" stop-color="#66BFE6"/>
<stop offset="0.711" stop-color="#298BD0"/>
<stop offset="1" stop-color="#0169C2"/>
</linearGradient>
<linearGradient id="paint18_linear_1412_25236" x1="511.732" y1="-83.1237" x2="-82.1028" y2="443.769" gradientUnits="userSpaceOnUse">
<stop stop-color="#7ED4EF"/>
<stop offset="0.2294" stop-color="#66BFE6"/>
<stop offset="0.711" stop-color="#298BD0"/>
<stop offset="1" stop-color="#0169C2"/>
</linearGradient>
<linearGradient id="paint19_linear_1412_25236" x1="515.292" y1="-82.9502" x2="-81.7654" y2="446.801" gradientUnits="userSpaceOnUse">
<stop stop-color="#7ED4EF"/>
<stop offset="0.2294" stop-color="#66BFE6"/>
<stop offset="0.711" stop-color="#298BD0"/>
<stop offset="1" stop-color="#0169C2"/>
</linearGradient>
<linearGradient id="paint20_linear_1412_25236" x1="518.851" y1="-82.7778" x2="-81.4284" y2="449.832" gradientUnits="userSpaceOnUse">
<stop stop-color="#7ED4EF"/>
<stop offset="0.2294" stop-color="#66BFE6"/>
<stop offset="0.711" stop-color="#298BD0"/>
<stop offset="1" stop-color="#0169C2"/>
</linearGradient>
<linearGradient id="paint21_linear_1412_25236" x1="522.406" y1="-82.6072" x2="-81.095" y2="452.861" gradientUnits="userSpaceOnUse">
<stop stop-color="#7ED4EF"/>
<stop offset="0.2294" stop-color="#66BFE6"/>
<stop offset="0.711" stop-color="#298BD0"/>
<stop offset="1" stop-color="#0169C2"/>
</linearGradient>
<linearGradient id="paint22_linear_1412_25236" x1="525.962" y1="-82.4372" x2="-80.7605" y2="455.89" gradientUnits="userSpaceOnUse">
<stop stop-color="#7ED4EF"/>
<stop offset="0.2294" stop-color="#66BFE6"/>
<stop offset="0.711" stop-color="#298BD0"/>
<stop offset="1" stop-color="#0169C2"/>
</linearGradient>
<linearGradient id="paint23_linear_1412_25236" x1="529.516" y1="-82.2686" x2="-80.4285" y2="458.917" gradientUnits="userSpaceOnUse">
<stop stop-color="#7ED4EF"/>
<stop offset="0.2294" stop-color="#66BFE6"/>
<stop offset="0.711" stop-color="#298BD0"/>
<stop offset="1" stop-color="#0169C2"/>
</linearGradient>
<clipPath id="clip0_1412_25236">
<rect width="375" height="780" fill="white"/>
</clipPath>
</defs>
</svg>
