<svg width="375" height="472" viewBox="0 0 375 472" fill="none" xmlns="http://www.w3.org/2000/svg">
<path opacity="0.54" d="M-42.9658 392.16C-56.0958 375.1 -49.5358 348.92 -34.0758 334.18C-32.6958 332.86 -31.2558 331.62 -29.7758 330.45C-14.6558 318.5 5.04423 313.72 24.2542 310.82C27.9542 310.26 31.6742 309.76 35.3942 309.27C52.8742 306.97 70.5742 304.8 86.8442 297.89C92.1142 295.66 97.0842 292.99 101.784 289.92C133.534 269.1 151.174 230.46 163.724 193.85C164.634 191.19 165.544 188.52 166.444 185.84C179.834 146.25 195.184 107.1 223.044 80.49C232.554 71.41 242.334 62.32 255.784 57.56C271.764 51.88 290.124 52.72 306.754 54.87C318.094 56.33 329.094 58.34 340.174 59.27C345.384 59.7 350.614 59.89 355.914 59.71C389.664 58.55 423.834 41.25 448.544 15.98C473.284 -9.33 489.494 -41.8 498.384 -76" stroke="url(#paint0_linear_348_5035)" stroke-width="0.8669" stroke-miterlimit="10"/>
<path opacity="0.54" d="M-40.5748 397.501C-53.7148 380.461 -47.3248 354.351 -32.0548 339.461C-30.6848 338.131 -29.2648 336.871 -27.8048 335.691C-12.8348 323.601 6.75522 318.591 25.9052 315.471C29.5952 314.871 33.3052 314.331 37.0152 313.801C54.4352 311.311 72.0852 308.981 88.3052 301.991C93.5552 299.731 98.5152 297.051 103.195 293.961C134.875 273.021 152.365 234.391 164.625 197.711C165.515 195.051 166.395 192.371 167.275 189.691C180.295 150.051 195.115 110.931 221.835 83.5905C231.215 73.9905 240.825 64.2105 254.525 59.1205C270.805 53.0405 289.705 54.1105 306.675 56.7105C318.245 58.4805 329.425 60.8705 340.735 62.1505C346.045 62.7505 351.395 63.0906 356.825 63.0406C391.385 62.7206 426.685 45.1105 451.915 19.1305C477.175 -6.87945 493.425 -40.3495 502.315 -75.4395" stroke="url(#paint1_linear_348_5035)" stroke-width="0.8669" stroke-miterlimit="10"/>
<path opacity="0.54" d="M-38.1843 402.84C-51.3243 385.83 -45.1243 359.77 -30.0343 344.75C-28.6843 343.41 -27.2843 342.14 -25.8243 340.94C-10.9943 328.7 8.47567 323.46 27.5657 320.12C31.2357 319.48 34.9357 318.9 38.6357 318.33C55.9957 315.66 73.6057 313.15 89.7657 306.09C94.9957 303.81 99.9357 301.11 104.606 298C136.216 276.94 153.556 238.32 165.516 201.57C166.386 198.9 167.246 196.22 168.096 193.54C180.746 153.85 195.016 114.72 220.616 86.6801C229.866 76.5501 239.306 66.1001 253.256 60.6801C269.836 54.2001 289.276 55.5101 306.576 58.5601C318.376 60.6301 329.736 63.4101 341.266 65.0401C346.686 65.8001 352.136 66.3001 357.696 66.3801C393.066 66.8901 429.496 48.9701 455.246 22.2801C481.026 -4.43989 497.306 -38.8999 506.206 -74.8799" stroke="url(#paint2_linear_348_5035)" stroke-width="0.8669" stroke-miterlimit="10"/>
<path opacity="0.54" d="M-35.8044 408.18C-48.9544 391.19 -42.9344 365.2 -28.0144 350.03C-26.6844 348.67 -25.2944 347.39 -23.8544 346.18C-9.1744 333.79 10.1856 328.33 29.2056 324.77C32.8656 324.09 36.5556 323.46 40.2356 322.85C57.5356 319.99 75.1056 317.32 91.2156 310.18C96.4256 307.87 101.356 305.16 106.016 302.03C137.556 280.84 154.736 242.23 166.406 205.42C167.256 202.75 168.086 200.06 168.916 197.37C181.196 157.63 194.886 118.47 219.396 89.7602C228.506 79.0902 237.786 67.9702 251.976 62.2202C268.856 55.3502 288.836 56.8902 306.466 60.3802C318.486 62.7502 330.036 65.9202 341.786 67.9002C347.306 68.8302 352.876 69.4802 358.566 69.6902C394.746 71.0302 432.306 52.8002 458.576 25.4102C484.876 -2.00984 501.186 -37.4698 510.096 -74.3398" stroke="url(#paint3_linear_348_5035)" stroke-width="0.8669" stroke-miterlimit="10"/>
<path opacity="0.54" d="M-33.4141 413.53C-46.5641 396.57 -40.7241 370.64 -25.9941 355.32C-24.6741 353.95 -23.3041 352.65 -21.8741 351.42C-7.3441 338.88 11.9059 333.19 30.8659 329.41C34.5159 328.68 38.1859 328.02 41.8559 327.37C59.0959 324.32 76.6159 321.49 92.6759 314.27C97.8659 311.94 102.786 309.2 107.426 306.06C138.896 284.75 155.926 246.15 167.296 209.27C168.126 206.59 168.936 203.9 169.736 201.21C181.646 161.41 194.726 122.19 218.176 92.84C227.146 81.62 236.276 69.85 250.706 63.77C267.886 56.5 288.406 58.28 306.376 62.21C318.626 64.88 330.366 68.45 342.336 70.77C347.966 71.86 353.646 72.67 359.456 73.01C396.446 75.19 435.136 56.65 461.926 28.55C488.746 0.419958 505.086 -36.03 513.996 -73.79" stroke="url(#paint4_linear_348_5035)" stroke-width="0.8669" stroke-miterlimit="10"/>
<path opacity="0.54" d="M-31.0238 418.869C-44.1838 401.929 -38.5238 376.069 -23.9638 360.599C-22.6638 359.219 -21.3038 357.909 -19.8938 356.659C-5.50379 343.979 13.6262 338.059 32.5262 334.059C36.1662 333.289 39.8162 332.579 43.4762 331.899C60.6562 328.659 78.1362 325.659 94.1362 318.369C99.3062 316.019 104.206 313.259 108.836 310.099C140.226 288.669 157.116 250.069 168.186 213.129C168.986 210.449 169.776 207.749 170.556 205.059C182.096 165.209 194.546 125.909 216.966 95.9393C225.776 84.1593 234.766 71.7393 249.446 65.3293C266.926 57.6593 287.986 59.6793 306.286 64.0593C318.756 67.0393 330.686 70.9893 342.876 73.6593C348.606 74.9093 354.396 75.8693 360.336 76.3493C398.136 79.3593 437.956 60.5093 465.266 31.7093C492.606 2.8793 508.976 -34.5707 517.896 -73.2207" stroke="url(#paint5_linear_348_5035)" stroke-width="0.8669" stroke-miterlimit="10"/>
<path opacity="0.54" d="M-28.6476 424.21C-41.8076 407.3 -36.3376 381.5 -21.9576 365.89C-20.6776 364.5 -19.3276 363.17 -17.9376 361.91C-3.69761 349.08 15.3224 342.93 34.1624 338.71C37.7824 337.9 41.4324 337.15 45.0824 336.42C62.2124 333 79.6424 329.83 95.5824 322.46C100.732 320.08 105.622 317.31 110.242 314.14C141.562 292.59 158.302 254 169.082 216.99C169.862 214.3 170.632 211.6 171.382 208.91C182.552 169.01 194.352 129.6 215.752 99.0298C224.402 86.6798 233.252 73.6298 248.172 66.8898C265.952 58.8298 287.542 61.0798 306.182 65.8998C318.882 69.1798 330.992 73.5199 343.412 76.5399C349.242 77.9599 355.152 79.0698 361.222 79.6798C399.832 83.5198 440.782 64.3698 468.612 34.8598C496.472 5.31984 512.872 -33.1202 521.802 -72.6602" stroke="url(#paint6_linear_348_5035)" stroke-width="0.8669" stroke-miterlimit="10"/>
<path opacity="0.54" d="M-26.2568 429.55C-39.4268 412.66 -34.1268 386.93 -19.9368 371.17C-18.6668 369.76 -17.3368 368.42 -15.9568 367.15C-1.8568 354.17 17.0432 347.8 35.8132 343.35C39.4232 342.5 43.0532 341.71 46.6932 340.94C63.7632 337.33 81.1432 334 97.0332 326.55C102.163 324.15 107.033 321.36 111.643 318.17C142.893 296.49 159.483 257.91 169.963 220.84C170.723 218.15 171.463 215.45 172.193 212.74C182.993 172.79 194.103 133.25 214.523 102.11C222.993 89.1899 231.723 75.4999 246.893 68.4299C264.973 59.9699 287.103 62.4599 306.073 67.7199C318.993 71.2999 331.293 76.0299 343.933 79.3999C349.873 80.9799 355.883 82.2499 362.083 82.9899C401.503 87.6699 443.583 68.1999 471.933 37.9899C500.313 7.74988 516.743 -31.6901 525.683 -72.1201" stroke="url(#paint7_linear_348_5035)" stroke-width="0.8669" stroke-miterlimit="10"/>
<path opacity="0.54" d="M-23.8667 434.899C-37.0367 418.039 -31.9267 392.359 -17.9067 376.459C-16.6567 375.039 -15.3467 373.689 -13.9767 372.399C-0.0267076 359.269 18.7633 352.679 37.4733 348.009C41.0733 347.109 44.6933 346.279 48.3133 345.469C65.3233 341.669 82.6633 338.169 98.4933 330.649C103.603 328.219 108.463 325.419 113.053 322.209C144.233 300.409 160.673 261.839 170.853 224.699C171.593 221.999 172.313 219.299 173.013 216.589C183.443 176.589 193.853 136.919 213.303 105.199C221.583 91.6995 230.213 77.3895 245.623 69.9895C264.003 61.1295 286.673 63.8595 305.983 69.5595C319.133 73.4395 331.613 78.5694 344.473 82.2794C350.513 84.0294 356.643 85.4495 362.963 86.3195C403.193 91.8295 446.403 72.0595 475.273 41.1395C504.173 10.1894 520.633 -30.2405 529.583 -71.5605" stroke="url(#paint8_linear_348_5035)" stroke-width="0.8669" stroke-miterlimit="10"/>
<path opacity="0.54" d="M-21.4745 440.24C-34.6445 423.4 -29.7245 397.79 -15.8845 381.75C-14.6445 380.32 -13.3545 378.95 -11.9945 377.65C1.80551 364.38 20.4855 357.55 39.1355 352.66C42.7255 351.72 46.3255 350.85 49.9355 350C66.8855 346.01 84.1855 342.35 99.9555 334.75C105.046 332.3 109.896 329.48 114.476 326.25C145.586 304.33 161.876 265.77 171.756 228.56C172.476 225.86 173.166 223.15 173.846 220.44C183.906 180.39 193.576 140.58 212.096 108.3C220.176 94.2095 228.705 79.2795 244.355 71.5595C263.035 62.3095 286.245 65.2695 305.885 71.4195C319.255 75.5995 331.926 81.1195 345.016 85.1795C351.166 87.0895 357.405 88.6695 363.855 89.6695C404.896 96.0195 449.235 75.9295 478.625 44.3095C508.045 12.6595 524.535 -28.7705 533.485 -70.9805" stroke="url(#paint9_linear_348_5035)" stroke-width="0.8669" stroke-miterlimit="10"/>
<path opacity="0.54" d="M-19.0957 445.58C-32.2757 428.77 -27.5258 403.22 -13.8658 387.03C-12.6458 385.58 -11.3657 384.2 -10.0257 382.89C3.63425 369.47 22.1943 362.42 40.7843 357.31C44.3543 356.33 47.9543 355.41 51.5443 354.53C68.4342 350.35 85.6842 346.53 101.414 338.85C106.484 336.38 111.314 333.53 115.884 330.29C146.914 308.24 163.064 269.69 172.644 232.42C173.344 229.71 174.014 227 174.664 224.29C184.354 184.19 193.274 144.22 210.874 111.39C218.744 96.7103 227.184 81.1703 243.084 73.1103C262.064 63.4603 285.814 66.6503 305.784 73.2503C319.384 77.7403 332.244 83.6403 345.544 88.0603C351.794 90.1303 358.144 91.8703 364.724 93.0003C406.584 100.18 452.044 79.7903 481.954 47.4503C511.894 15.1003 528.414 -27.3297 537.374 -70.4297" stroke="url(#paint10_linear_348_5035)" stroke-width="0.8669" stroke-miterlimit="10"/>
<path opacity="0.54" d="M-16.7044 450.919C-29.8844 434.129 -25.3244 408.649 -11.8444 392.309C-10.6444 390.849 -9.37441 389.459 -8.05441 388.129C5.45559 374.559 23.9056 367.279 42.4356 361.949C45.9956 360.929 49.5756 359.969 53.1656 359.039C69.9956 354.679 87.2056 350.679 102.876 342.919C107.926 340.419 112.746 337.559 117.296 334.309C148.256 312.139 164.246 273.599 173.546 236.259C174.216 233.549 174.876 230.829 175.506 228.109C184.826 187.959 192.966 147.839 209.676 114.459C217.316 99.1894 225.686 83.0294 241.836 74.6494C261.116 64.5994 285.406 68.0294 305.706 75.0694C319.536 79.8594 332.576 86.1494 346.096 90.9194C352.456 93.1594 358.916 95.0494 365.626 96.3094C408.296 104.319 454.886 83.6194 485.316 50.5794C515.776 17.5194 532.336 -25.9006 541.296 -69.8906" stroke="url(#paint11_linear_348_5035)" stroke-width="0.8669" stroke-miterlimit="10"/>
<path opacity="0.54" d="M-14.315 456.27C-27.505 439.51 -23.125 414.09 -9.82503 397.6C-8.63503 396.13 -7.38503 394.72 -6.07503 393.38C7.29497 379.67 25.625 372.16 44.085 366.6C47.635 365.53 51.205 364.54 54.775 363.57C71.545 359.02 88.715 354.86 104.325 347.02C109.355 344.5 114.155 341.62 118.695 338.35C149.585 316.06 165.425 277.52 174.425 240.12C175.075 237.4 175.705 234.68 176.315 231.96C185.255 191.76 192.605 151.49 208.445 117.56C215.855 101.7 224.165 84.9297 240.545 76.2097C260.125 65.7697 284.955 69.4297 305.595 76.9197C319.645 82.0097 332.875 88.6897 346.625 93.8097C353.085 96.2097 359.665 98.2597 366.495 99.6497C409.975 108.5 457.695 87.4897 488.645 53.7397C519.625 19.9797 536.215 -24.4503 545.185 -69.3203" stroke="url(#paint12_linear_348_5035)" stroke-width="0.8669" stroke-miterlimit="10"/>
<path opacity="0.54" d="M-11.9243 461.61C-25.1143 444.87 -20.9143 419.51 -7.7943 402.89C-6.6243 401.41 -5.38429 399.98 -4.09429 398.63C9.12571 384.77 27.3457 377.03 45.7457 371.26C49.2857 370.15 52.8357 369.11 56.3957 368.1C73.1157 363.36 90.2257 359.04 105.786 351.12C110.796 348.57 115.586 345.68 120.116 342.39C150.936 319.97 166.626 281.45 175.326 243.98C175.956 241.26 176.566 238.53 177.146 235.81C185.716 195.55 192.246 155.13 207.236 120.65C214.396 104.19 222.656 86.8102 239.286 77.7702C259.166 66.9302 284.536 70.8302 305.506 78.7602C319.786 84.1502 333.196 91.2302 347.166 96.6902C353.726 99.2502 360.416 101.46 367.376 102.98C411.666 112.66 460.506 91.3402 491.986 56.8902C523.486 22.4202 540.106 -22.9998 549.086 -68.7598" stroke="url(#paint13_linear_348_5035)" stroke-width="0.8669" stroke-miterlimit="10"/>
<path opacity="0.54" d="M-9.54732 466.95C-22.7473 450.24 -18.7273 424.94 -5.78731 408.17C-4.62731 406.67 -3.40731 405.24 -2.13731 403.87C10.9327 389.86 29.0427 381.9 47.3827 375.9C50.9027 374.75 54.4527 373.67 57.9927 372.62C74.6527 367.69 91.7227 363.21 107.223 355.21C112.213 352.64 116.993 349.73 121.503 346.42C152.253 323.88 167.793 285.36 176.193 247.83C176.803 245.1 177.383 242.37 177.943 239.65C186.143 199.34 191.823 158.77 205.993 123.74C212.893 106.69 221.113 88.7 237.993 79.32C258.183 68.08 284.083 72.22 305.383 80.59C319.883 86.29 333.483 93.75 347.683 99.56C354.353 102.29 361.153 104.65 368.243 106.3C413.343 116.81 463.313 95.19 495.313 60.03C527.333 24.86 543.983 -21.56 552.963 -68.21" stroke="url(#paint14_linear_348_5035)" stroke-width="0.8669" stroke-miterlimit="10"/>
<path opacity="0.54" d="M-7.1541 472.29C-20.3541 455.6 -16.5241 430.37 -3.7541 413.45C-2.6141 411.94 -1.4141 410.49 -0.144095 409.11C12.7859 394.95 30.7759 386.76 49.0559 380.55C52.5659 379.36 56.0959 378.23 59.6259 377.15C76.2259 372.04 93.2559 367.38 108.696 359.31C113.666 356.71 118.426 353.79 122.926 350.46C153.596 327.8 168.996 289.29 177.096 251.69C177.686 248.96 178.246 246.22 178.776 243.49C186.606 203.13 191.436 162.42 204.786 126.82C211.406 109.17 219.606 90.5698 236.726 80.8698C257.216 69.2398 283.656 73.6098 305.296 82.4198C320.026 88.4198 333.806 96.2698 348.226 102.43C354.996 105.32 361.906 107.83 369.126 109.62C415.036 120.97 466.136 99.0298 498.656 63.1698C531.186 27.2898 547.876 -20.1202 556.866 -67.6602" stroke="url(#paint15_linear_348_5035)" stroke-width="0.8669" stroke-miterlimit="10"/>
<path opacity="0.54" d="M-4.76519 477.64C-17.9752 460.98 -14.3152 435.81 -1.73519 418.75C-0.615193 417.23 0.574804 415.76 1.8248 414.37C14.6048 400.07 32.4848 391.65 50.6948 385.21C54.1948 383.98 57.7148 382.81 61.2348 381.68C77.7748 376.38 94.7548 371.56 110.145 363.41C115.095 360.79 119.845 357.85 124.335 354.5C154.935 331.71 170.185 293.22 177.985 255.55C178.555 252.81 179.085 250.07 179.595 247.34C187.055 206.93 191.005 166.08 203.575 129.92C209.915 111.68 218.105 92.4602 235.465 82.4302C256.255 70.4002 283.235 75.0102 305.205 84.2702C320.155 90.5702 334.125 98.8102 348.765 105.32C355.645 108.38 362.665 111.04 370.015 112.96C416.735 125.14 468.965 102.9 502.005 66.3302C535.055 29.7502 551.775 -18.6598 560.775 -67.0898" stroke="url(#paint16_linear_348_5035)" stroke-width="0.8669" stroke-miterlimit="10"/>
<path opacity="0.54" d="M-2.37632 482.98C-15.5863 466.34 -12.1163 441.24 0.293674 424.03C1.40367 422.49 2.57367 421.02 3.81367 419.6C16.4537 405.15 34.2137 396.5 52.3637 389.84C55.8437 388.56 59.3537 387.36 62.8637 386.19C79.3437 380.7 96.2837 375.72 111.624 367.49C116.554 364.85 121.284 361.88 125.764 358.53C156.294 335.62 171.394 297.13 178.904 259.4C179.454 256.66 179.964 253.92 180.444 251.18C187.534 210.72 190.594 169.74 202.384 133C208.424 114.16 216.614 94.3402 234.224 83.9802C255.314 71.5502 282.834 76.4002 305.134 86.1002C320.314 92.7002 334.474 101.34 349.334 108.19C356.314 111.41 363.454 114.23 370.924 116.28C418.454 129.3 471.814 106.74 505.384 69.4602C538.954 32.1802 555.704 -17.2298 564.714 -66.5498" stroke="url(#paint17_linear_348_5035)" stroke-width="0.8669" stroke-miterlimit="10"/>
<path opacity="0.54" d="M0.00432873 488.32C-13.2157 471.71 -9.91567 446.66 2.30433 429.31C3.39433 427.76 4.55433 426.27 5.77433 424.84C18.2643 410.24 35.9143 401.37 54.0043 394.49C57.4743 393.17 60.9743 391.92 64.4643 390.72C80.8843 385.04 97.7843 379.89 113.064 371.59C117.974 368.92 122.694 365.94 127.154 362.57C157.614 339.54 172.564 301.06 179.774 263.26C180.294 260.51 180.784 257.77 181.244 255.02C187.964 214.51 190.124 173.41 201.144 136.09C206.884 116.66 215.074 96.22 232.924 85.53C254.314 72.71 282.374 77.79 305.004 87.93C320.404 94.83 334.754 103.86 349.834 111.06C356.914 114.44 364.164 117.42 371.764 119.6C420.104 133.45 474.594 110.58 508.684 72.6C542.774 34.61 559.554 -15.79 568.574 -66" stroke="url(#paint18_linear_348_5035)" stroke-width="0.8669" stroke-miterlimit="10"/>
<path opacity="0.54" d="M2.39385 493.66C-10.8262 477.07 -7.71615 452.09 4.32385 434.59C5.40385 433.03 6.54384 431.52 7.74384 430.08C20.0938 415.34 37.6238 406.24 55.6538 399.13C59.1138 397.77 62.5938 396.48 66.0738 395.23C82.4338 389.36 99.2838 384.05 114.514 375.67C119.404 372.98 124.114 369.98 128.564 366.59C158.954 343.44 173.744 304.96 180.664 267.1C181.164 264.35 181.634 261.6 182.064 258.85C188.414 218.29 189.654 177.08 199.924 139.16C205.344 119.14 213.564 98.0898 231.654 87.0698C253.344 73.8498 281.944 79.1598 304.914 89.7598C320.544 96.9698 335.074 106.38 350.384 113.93C357.574 117.48 364.934 120.61 372.664 122.92C421.814 137.6 477.434 114.43 512.044 75.7398C546.654 37.0498 563.464 -14.3502 572.494 -65.4502" stroke="url(#paint19_linear_348_5035)" stroke-width="0.8669" stroke-miterlimit="10"/>
<path opacity="0.54" d="M4.78453 499.01C-8.44547 482.45 -5.51547 457.53 6.35453 439.89C7.41453 438.32 8.54453 436.8 9.73453 435.34C21.9345 420.45 39.3545 411.12 57.3245 403.8C60.7745 402.4 64.2445 401.06 67.7045 399.78C84.0145 393.73 100.815 388.25 115.985 379.79C120.855 377.07 125.545 374.06 129.985 370.65C160.295 347.37 174.945 308.91 181.565 270.98C182.045 268.22 182.485 265.47 182.895 262.72C188.875 222.11 189.185 180.8 198.715 142.28C203.815 121.67 212.055 99.9999 230.395 88.6499C252.385 75.0299 281.525 80.5799 304.825 91.6199C320.685 99.1299 335.395 108.93 350.925 116.83C358.215 120.54 365.695 123.83 373.545 126.27C423.505 141.79 480.255 118.3 515.385 78.9099C550.515 39.5099 567.355 -12.8801 576.385 -64.8701" stroke="url(#paint20_linear_348_5035)" stroke-width="0.8669" stroke-miterlimit="10"/>
<path opacity="0.54" d="M7.16282 504.35C-6.06718 487.81 -3.31718 462.96 8.36282 445.17C9.40282 443.58 10.5228 442.05 11.6928 440.58C23.7428 425.54 41.0528 415.99 58.9528 408.44C62.3828 406.99 65.8428 405.62 69.3028 404.29C85.5528 398.05 102.313 392.4 117.423 383.87C122.273 381.13 126.953 378.1 131.373 374.67C161.613 351.27 176.113 312.81 182.433 274.82C182.893 272.06 183.313 269.3 183.693 266.55C189.303 225.89 188.673 184.49 197.473 145.35C202.233 124.16 210.513 101.87 229.093 90.1897C251.383 76.1797 281.063 81.9597 304.693 93.4397C320.773 101.25 335.673 111.44 351.423 119.7C358.823 123.57 366.403 127.02 374.383 129.59C425.153 145.94 483.033 122.15 518.683 82.0497C554.333 41.9497 571.203 -11.4403 580.243 -64.3203" stroke="url(#paint21_linear_348_5035)" stroke-width="0.8669" stroke-miterlimit="10"/>
<path opacity="0.54" d="M9.55338 509.69C-3.67662 493.18 -1.11663 468.39 10.3934 450.45C11.4234 448.85 12.5134 447.3 13.6834 445.82C25.5934 430.63 42.7834 420.85 60.6234 413.09C64.0434 411.6 67.4934 410.19 70.9334 408.82C87.1234 402.39 103.833 396.58 118.893 387.97C123.733 385.21 128.383 382.16 132.803 378.72C162.973 355.2 177.323 316.75 183.353 278.69C183.793 275.92 184.183 273.16 184.543 270.4C189.783 229.68 188.213 188.21 196.283 148.45C200.703 126.68 209.023 103.76 227.853 91.7502C250.443 77.3402 280.663 83.3602 304.623 95.2802C320.933 103.39 336.013 113.98 351.993 122.58C359.493 126.62 367.193 130.22 375.303 132.92C426.883 150.1 485.893 126 522.063 85.2002C558.233 44.3902 575.143 -9.98977 584.183 -63.7598" stroke="url(#paint22_linear_348_5035)" stroke-width="0.8669" stroke-miterlimit="10"/>
<path opacity="0.54" d="M11.9425 515.031C-2.47754 497.071 1.63246 469.341 15.6525 451.061C29.6725 432.791 51.2325 422.081 72.5425 413.341C93.8525 404.601 116.102 396.971 134.212 382.751C166.492 357.391 180.492 315.001 185.352 274.241C190.222 233.471 187.692 191.931 195.052 151.541C199.122 129.191 207.502 105.651 226.572 93.3105C249.462 78.5005 280.222 84.7606 304.522 97.1306C328.822 109.501 350.392 127.391 376.172 136.261C428.562 154.281 488.702 129.871 525.392 88.3605C562.082 46.8505 579.022 -8.52945 588.072 -63.1895" stroke="url(#paint23_linear_348_5035)" stroke-width="0.8669" stroke-miterlimit="10"/>
<defs>
<linearGradient id="paint0_linear_348_5035" x1="488.693" y1="-87.3221" x2="-47.1383" y2="388.105" gradientUnits="userSpaceOnUse">
<stop stop-color="#7ED4EF"/>
<stop offset="0.2294" stop-color="#66BFE6"/>
<stop offset="0.711" stop-color="#298BD0"/>
<stop offset="1" stop-color="#0169C2"/>
</linearGradient>
<linearGradient id="paint1_linear_348_5035" x1="492.462" y1="-86.9144" x2="-46.5918" y2="391.372" gradientUnits="userSpaceOnUse">
<stop stop-color="#7ED4EF"/>
<stop offset="0.2294" stop-color="#66BFE6"/>
<stop offset="0.711" stop-color="#298BD0"/>
<stop offset="1" stop-color="#0169C2"/>
</linearGradient>
<linearGradient id="paint2_linear_348_5035" x1="496.18" y1="-86.5652" x2="-46.0969" y2="394.581" gradientUnits="userSpaceOnUse">
<stop stop-color="#7ED4EF"/>
<stop offset="0.2294" stop-color="#66BFE6"/>
<stop offset="0.711" stop-color="#298BD0"/>
<stop offset="1" stop-color="#0169C2"/>
</linearGradient>
<linearGradient id="paint3_linear_348_5035" x1="499.862" y1="-86.2552" x2="-45.6378" y2="397.751" gradientUnits="userSpaceOnUse">
<stop stop-color="#7ED4EF"/>
<stop offset="0.2294" stop-color="#66BFE6"/>
<stop offset="0.711" stop-color="#298BD0"/>
<stop offset="1" stop-color="#0169C2"/>
</linearGradient>
<linearGradient id="paint4_linear_348_5035" x1="503.519" y1="-85.9742" x2="-45.2039" y2="400.891" gradientUnits="userSpaceOnUse">
<stop stop-color="#7ED4EF"/>
<stop offset="0.2294" stop-color="#66BFE6"/>
<stop offset="0.711" stop-color="#298BD0"/>
<stop offset="1" stop-color="#0169C2"/>
</linearGradient>
<linearGradient id="paint5_linear_348_5035" x1="507.156" y1="-85.7152" x2="-44.7891" y2="404.01" gradientUnits="userSpaceOnUse">
<stop stop-color="#7ED4EF"/>
<stop offset="0.2294" stop-color="#66BFE6"/>
<stop offset="0.711" stop-color="#298BD0"/>
<stop offset="1" stop-color="#0169C2"/>
</linearGradient>
<linearGradient id="paint6_linear_348_5035" x1="510.774" y1="-85.4716" x2="-44.3933" y2="407.112" gradientUnits="userSpaceOnUse">
<stop stop-color="#7ED4EF"/>
<stop offset="0.2294" stop-color="#66BFE6"/>
<stop offset="0.711" stop-color="#298BD0"/>
<stop offset="1" stop-color="#0169C2"/>
</linearGradient>
<linearGradient id="paint7_linear_348_5035" x1="514.386" y1="-85.2416" x2="-44.0044" y2="410.202" gradientUnits="userSpaceOnUse">
<stop stop-color="#7ED4EF"/>
<stop offset="0.2294" stop-color="#66BFE6"/>
<stop offset="0.711" stop-color="#298BD0"/>
<stop offset="1" stop-color="#0169C2"/>
</linearGradient>
<linearGradient id="paint8_linear_348_5035" x1="517.987" y1="-85.0224" x2="-43.6255" y2="413.28" gradientUnits="userSpaceOnUse">
<stop stop-color="#7ED4EF"/>
<stop offset="0.2294" stop-color="#66BFE6"/>
<stop offset="0.711" stop-color="#298BD0"/>
<stop offset="1" stop-color="#0169C2"/>
</linearGradient>
<linearGradient id="paint9_linear_348_5035" x1="521.583" y1="-84.8113" x2="-43.2522" y2="416.35" gradientUnits="userSpaceOnUse">
<stop stop-color="#7ED4EF"/>
<stop offset="0.2294" stop-color="#66BFE6"/>
<stop offset="0.711" stop-color="#298BD0"/>
<stop offset="1" stop-color="#0169C2"/>
</linearGradient>
<linearGradient id="paint10_linear_348_5035" x1="525.169" y1="-84.6065" x2="-42.8884" y2="419.414" gradientUnits="userSpaceOnUse">
<stop stop-color="#7ED4EF"/>
<stop offset="0.2294" stop-color="#66BFE6"/>
<stop offset="0.711" stop-color="#298BD0"/>
<stop offset="1" stop-color="#0169C2"/>
</linearGradient>
<linearGradient id="paint11_linear_348_5035" x1="528.752" y1="-84.4091" x2="-42.5274" y2="422.471" gradientUnits="userSpaceOnUse">
<stop stop-color="#7ED4EF"/>
<stop offset="0.2294" stop-color="#66BFE6"/>
<stop offset="0.711" stop-color="#298BD0"/>
<stop offset="1" stop-color="#0169C2"/>
</linearGradient>
<linearGradient id="paint12_linear_348_5035" x1="532.329" y1="-84.2152" x2="-42.1726" y2="425.523" gradientUnits="userSpaceOnUse">
<stop stop-color="#7ED4EF"/>
<stop offset="0.2294" stop-color="#66BFE6"/>
<stop offset="0.711" stop-color="#298BD0"/>
<stop offset="1" stop-color="#0169C2"/>
</linearGradient>
<linearGradient id="paint13_linear_348_5035" x1="535.904" y1="-84.0254" x2="-41.8201" y2="428.572" gradientUnits="userSpaceOnUse">
<stop stop-color="#7ED4EF"/>
<stop offset="0.2294" stop-color="#66BFE6"/>
<stop offset="0.711" stop-color="#298BD0"/>
<stop offset="1" stop-color="#0169C2"/>
</linearGradient>
<linearGradient id="paint14_linear_348_5035" x1="539.472" y1="-83.8399" x2="-41.4746" y2="431.617" gradientUnits="userSpaceOnUse">
<stop stop-color="#7ED4EF"/>
<stop offset="0.2294" stop-color="#66BFE6"/>
<stop offset="0.711" stop-color="#298BD0"/>
<stop offset="1" stop-color="#0169C2"/>
</linearGradient>
<linearGradient id="paint15_linear_348_5035" x1="543.043" y1="-83.6574" x2="-41.1256" y2="434.658" gradientUnits="userSpaceOnUse">
<stop stop-color="#7ED4EF"/>
<stop offset="0.2294" stop-color="#66BFE6"/>
<stop offset="0.711" stop-color="#298BD0"/>
<stop offset="1" stop-color="#0169C2"/>
</linearGradient>
<linearGradient id="paint16_linear_348_5035" x1="546.608" y1="-83.477" x2="-40.7832" y2="437.698" gradientUnits="userSpaceOnUse">
<stop stop-color="#7ED4EF"/>
<stop offset="0.2294" stop-color="#66BFE6"/>
<stop offset="0.711" stop-color="#298BD0"/>
<stop offset="1" stop-color="#0169C2"/>
</linearGradient>
<linearGradient id="paint17_linear_348_5035" x1="550.17" y1="-83.2992" x2="-40.4429" y2="440.734" gradientUnits="userSpaceOnUse">
<stop stop-color="#7ED4EF"/>
<stop offset="0.2294" stop-color="#66BFE6"/>
<stop offset="0.711" stop-color="#298BD0"/>
<stop offset="1" stop-color="#0169C2"/>
</linearGradient>
<linearGradient id="paint18_linear_348_5035" x1="553.732" y1="-83.1237" x2="-40.1028" y2="443.769" gradientUnits="userSpaceOnUse">
<stop stop-color="#7ED4EF"/>
<stop offset="0.2294" stop-color="#66BFE6"/>
<stop offset="0.711" stop-color="#298BD0"/>
<stop offset="1" stop-color="#0169C2"/>
</linearGradient>
<linearGradient id="paint19_linear_348_5035" x1="557.292" y1="-82.9502" x2="-39.7654" y2="446.801" gradientUnits="userSpaceOnUse">
<stop stop-color="#7ED4EF"/>
<stop offset="0.2294" stop-color="#66BFE6"/>
<stop offset="0.711" stop-color="#298BD0"/>
<stop offset="1" stop-color="#0169C2"/>
</linearGradient>
<linearGradient id="paint20_linear_348_5035" x1="560.851" y1="-82.7778" x2="-39.4284" y2="449.832" gradientUnits="userSpaceOnUse">
<stop stop-color="#7ED4EF"/>
<stop offset="0.2294" stop-color="#66BFE6"/>
<stop offset="0.711" stop-color="#298BD0"/>
<stop offset="1" stop-color="#0169C2"/>
</linearGradient>
<linearGradient id="paint21_linear_348_5035" x1="564.406" y1="-82.6072" x2="-39.095" y2="452.861" gradientUnits="userSpaceOnUse">
<stop stop-color="#7ED4EF"/>
<stop offset="0.2294" stop-color="#66BFE6"/>
<stop offset="0.711" stop-color="#298BD0"/>
<stop offset="1" stop-color="#0169C2"/>
</linearGradient>
<linearGradient id="paint22_linear_348_5035" x1="567.962" y1="-82.4372" x2="-38.7605" y2="455.89" gradientUnits="userSpaceOnUse">
<stop stop-color="#7ED4EF"/>
<stop offset="0.2294" stop-color="#66BFE6"/>
<stop offset="0.711" stop-color="#298BD0"/>
<stop offset="1" stop-color="#0169C2"/>
</linearGradient>
<linearGradient id="paint23_linear_348_5035" x1="571.516" y1="-82.2686" x2="-38.4285" y2="458.917" gradientUnits="userSpaceOnUse">
<stop stop-color="#7ED4EF"/>
<stop offset="0.2294" stop-color="#66BFE6"/>
<stop offset="0.711" stop-color="#298BD0"/>
<stop offset="1" stop-color="#0169C2"/>
</linearGradient>
</defs>
</svg>
