<svg width="1440" height="677" viewBox="0 0 1440 677" fill="none" xmlns="http://www.w3.org/2000/svg">
<path opacity="0.54" d="M107.245 1037.84C71.3226 991.165 89.2701 919.539 131.567 879.212C135.343 875.601 139.282 872.208 143.331 869.007C184.698 836.313 238.596 823.235 291.152 815.301C301.275 813.769 311.453 812.401 321.63 811.061C369.454 804.768 417.879 798.831 462.392 779.926C476.811 773.825 490.408 766.52 503.267 758.121C590.132 701.16 638.393 595.444 672.728 495.283C675.218 488.005 677.708 480.701 680.17 473.368C716.804 365.054 758.8 257.944 835.022 185.141C861.04 160.299 887.798 135.43 924.595 122.407C968.315 106.867 1018.55 109.165 1064.04 115.047C1095.07 119.042 1125.16 124.541 1155.48 127.085C1169.73 128.262 1184.04 128.782 1198.54 128.289C1290.88 125.116 1384.36 77.7844 1451.97 8.64822C1519.65 -60.5974 1564 -149.432 1588.33 -243" stroke="url(#paint0_linear_1202_6357)" stroke-width="2.37175" stroke-miterlimit="10"/>
<path opacity="0.54" d="M113.786 1052.45C77.8362 1005.83 95.3187 934.395 137.096 893.658C140.844 890.019 144.729 886.572 148.723 883.343C189.68 850.266 243.276 836.559 295.669 828.023C305.764 826.382 315.914 824.904 326.065 823.454C373.724 816.642 422.013 810.267 466.389 791.143C480.752 784.96 494.323 777.628 507.127 769.174C593.8 711.884 641.651 606.197 675.193 505.844C677.628 498.566 680.036 491.234 682.443 483.902C718.065 375.451 758.611 268.422 831.714 193.623C857.377 167.358 883.669 140.601 921.151 126.675C965.691 110.041 1017.4 112.968 1063.83 120.082C1095.48 124.924 1126.07 131.463 1157.01 134.965C1171.54 136.606 1186.18 137.537 1201.03 137.4C1295.59 136.524 1392.16 88.3451 1461.19 17.2664C1530.3 -53.8944 1574.76 -145.465 1599.08 -241.468" stroke="url(#paint1_linear_1202_6357)" stroke-width="2.37175" stroke-miterlimit="10"/>
<path opacity="0.54" d="M120.318 1067.06C84.368 1020.52 101.331 949.224 142.615 908.131C146.309 904.465 150.139 900.99 154.133 897.707C194.707 864.22 247.975 849.883 300.203 840.745C310.244 838.995 320.367 837.408 330.49 835.848C377.985 828.543 426.164 821.676 470.376 802.361C484.685 796.123 498.2 788.736 510.977 780.227C597.459 722.609 644.899 616.949 677.621 516.404C680.001 509.099 682.354 501.767 684.679 494.435C719.289 385.847 758.33 278.791 828.369 202.077C853.676 174.362 879.503 145.772 917.669 130.943C963.03 113.215 1016.22 116.799 1063.55 125.143C1095.83 130.806 1126.91 138.412 1158.46 142.872C1173.28 144.951 1188.19 146.319 1203.41 146.538C1300.18 147.933 1399.84 98.9058 1470.29 25.8846C1540.83 -47.2187 1585.37 -141.498 1609.72 -239.936" stroke="url(#paint2_linear_1202_6357)" stroke-width="2.37175" stroke-miterlimit="10"/>
<path opacity="0.54" d="M126.832 1081.67C90.8551 1035.19 107.325 964.08 148.145 922.576C151.784 918.856 155.586 915.354 159.526 912.043C199.689 878.145 252.656 863.207 304.693 853.468C314.707 851.607 324.802 849.884 334.87 848.215C382.201 840.39 430.271 833.085 474.346 813.551C488.6 807.231 502.088 799.817 514.838 791.253C601.128 733.279 648.131 627.646 680.059 526.938C682.384 519.633 684.655 512.273 686.926 504.914C720.523 396.189 757.977 289.051 825.034 210.503C849.958 181.311 875.347 150.888 914.17 135.157C960.352 116.361 1015.02 120.574 1063.25 130.123C1096.13 136.607 1127.73 145.28 1159.88 150.697C1174.98 153.241 1190.22 155.019 1205.79 155.594C1304.77 159.26 1407.53 109.384 1479.41 34.4482C1551.36 -40.5703 1595.98 -137.585 1620.36 -238.458" stroke="url(#paint3_linear_1202_6357)" stroke-width="2.37175" stroke-miterlimit="10"/>
<path opacity="0.54" d="M133.375 1096.31C97.3981 1049.9 113.376 978.962 153.676 937.048C157.287 933.3 161.035 929.744 164.948 926.378C204.7 892.07 257.366 876.503 309.239 866.161C319.225 864.164 329.266 862.358 339.306 860.58C386.473 852.236 434.406 844.493 478.345 824.74C492.544 818.365 506.005 810.869 518.7 802.278C604.798 743.976 651.391 638.37 682.498 537.47C684.769 530.138 686.985 522.778 689.174 515.419C721.758 406.53 757.544 299.228 821.701 218.929C846.242 188.232 871.22 156.031 910.7 139.396C957.702 119.506 1013.84 124.376 1063.01 135.128C1096.52 142.433 1128.64 152.201 1161.39 158.548C1176.79 161.53 1192.33 163.746 1208.23 164.676C1309.43 170.64 1415.28 119.917 1488.58 43.038C1561.95 -33.9229 1606.66 -133.646 1631.03 -236.954" stroke="url(#paint4_linear_1202_6357)" stroke-width="2.37175" stroke-miterlimit="10"/>
<path opacity="0.54" d="M139.912 1110.92C103.908 1064.57 119.393 993.819 159.228 951.494C162.784 947.719 166.505 944.135 170.363 940.715C209.732 906.024 262.07 889.827 313.779 878.883C323.737 876.777 333.724 874.834 343.737 872.974C390.74 864.109 438.563 855.902 482.338 835.957C496.482 829.528 509.888 821.977 522.555 813.331C608.435 754.701 654.645 649.095 684.931 548.031C687.12 540.699 689.281 533.312 691.415 525.952C722.988 416.926 757.05 309.406 818.388 227.411C842.492 195.182 867.087 161.202 907.25 143.665C955.074 122.68 1012.69 128.207 1062.76 140.19C1096.88 148.343 1129.52 159.15 1162.87 166.455C1178.54 169.875 1194.38 172.501 1210.63 173.814C1314.05 182.049 1423 130.478 1497.71 51.6836C1572.51 -27.1924 1617.3 -129.652 1641.7 -235.395" stroke="url(#paint5_linear_1202_6357)" stroke-width="2.37175" stroke-miterlimit="10"/>
<path opacity="0.54" d="M146.419 1125.52C110.415 1079.26 125.38 1008.67 164.723 965.966C168.225 962.163 171.918 958.525 175.721 955.077C214.68 919.976 266.717 903.15 318.261 891.604C328.165 889.388 338.151 887.336 348.137 885.339C395.003 875.982 442.69 867.31 486.3 847.146C500.39 840.635 513.769 833.056 526.409 824.383C612.097 765.425 657.896 659.846 687.389 558.591C689.523 551.231 691.63 543.844 693.682 536.484C724.242 427.322 756.525 319.5 815.074 235.864C838.739 202.075 862.952 166.372 903.772 147.932C952.416 125.88 1011.48 132.036 1062.48 145.223C1097.23 154.197 1130.36 166.071 1164.34 174.333C1180.29 178.218 1196.46 181.255 1213.07 182.924C1318.7 193.43 1430.73 141.037 1506.87 60.3008C1583.1 -20.5177 1627.96 -125.686 1652.4 -233.863" stroke="url(#paint6_linear_1202_6357)" stroke-width="2.37175" stroke-miterlimit="10"/>
<path opacity="0.54" d="M152.958 1140.13C116.926 1093.93 131.426 1023.53 170.249 980.413C173.723 976.555 177.362 972.889 181.138 969.415C219.714 933.903 271.422 916.475 322.775 904.3C332.652 901.975 342.583 899.813 352.542 897.707C399.244 887.83 446.794 878.72 490.267 858.337C504.302 851.771 517.626 844.138 530.239 835.41C615.736 776.096 661.124 670.545 689.796 569.125C691.876 561.765 693.9 554.378 695.897 546.964C725.445 437.665 755.841 329.487 811.708 244.291C834.881 208.944 858.766 171.489 900.269 152.146C949.734 129 1010.28 135.813 1062.18 150.204C1097.53 159.998 1131.18 172.939 1165.76 182.159C1182.01 186.482 1198.46 189.956 1215.42 191.981C1323.27 204.785 1438.39 151.517 1515.96 68.8654C1593.6 -13.8683 1638.55 -121.772 1663.01 -232.385" stroke="url(#paint7_linear_1202_6357)" stroke-width="2.37175" stroke-miterlimit="10"/>
<path opacity="0.54" d="M159.494 1154.77C123.463 1108.64 137.443 1038.39 175.8 994.885C179.22 991 182.804 987.306 186.552 983.777C224.718 947.855 276.126 929.825 327.315 917.049C337.164 914.586 347.068 912.316 356.972 910.1C403.509 899.703 450.95 890.127 494.259 869.553C508.24 862.905 521.536 855.245 534.094 846.462C619.399 786.82 664.378 681.296 692.229 579.685C694.254 572.298 696.223 564.911 698.139 557.497C726.674 448.06 755.155 339.527 808.368 252.744C831.021 215.81 854.632 176.659 896.792 156.413C947.078 132.173 1009.1 139.642 1061.93 155.237C1097.91 165.852 1132.05 179.887 1167.24 190.038C1183.76 194.825 1200.53 198.71 1217.82 201.091C1327.89 216.165 1446.11 162.077 1525.09 77.4826C1604.16 -7.19359 1649.19 -117.806 1673.68 -230.854" stroke="url(#paint8_linear_1202_6357)" stroke-width="2.37175" stroke-miterlimit="10"/>
<path opacity="0.54" d="M166.037 1169.38C130.005 1123.31 143.465 1053.24 181.33 1009.36C184.723 1005.45 188.252 1001.7 191.973 998.142C229.728 961.836 280.835 943.15 331.86 929.772C341.682 927.2 351.531 924.82 361.407 922.494C407.781 911.578 455.112 901.565 498.257 880.772C512.183 874.069 525.452 866.354 537.982 857.517C623.096 797.546 667.664 692.049 694.695 590.246C696.665 582.859 698.552 575.445 700.413 568.031C727.936 458.458 754.392 349.542 805.061 261.227C827.167 222.678 850.504 181.831 893.321 160.71C944.428 135.403 1007.93 143.501 1061.66 160.327C1098.24 171.763 1132.9 186.865 1168.72 197.973C1185.54 203.198 1202.61 207.521 1220.26 210.257C1332.54 227.63 1453.85 172.666 1534.26 86.1565C1614.75 -0.434791 1659.87 -113.783 1684.35 -229.266" stroke="url(#paint9_linear_1202_6357)" stroke-width="2.37175" stroke-miterlimit="10"/>
<path opacity="0.54" d="M172.55 1183.99C136.491 1138 149.486 1068.1 186.858 1023.8C190.196 1019.84 193.698 1016.06 197.364 1012.48C234.737 975.761 285.515 956.473 336.375 942.493C346.143 939.812 355.992 937.295 365.814 934.887C412.023 923.451 459.217 913 502.253 891.988C516.124 885.23 529.339 877.433 541.842 868.569C626.737 808.242 670.921 702.773 697.131 600.806C699.047 593.392 700.88 585.977 702.658 578.563C729.169 468.853 753.573 359.5 801.725 269.68C823.256 229.517 846.347 187.001 889.848 164.95C941.776 138.548 1006.75 147.276 1061.39 165.333C1098.6 177.617 1133.78 193.759 1170.17 205.851C1187.27 211.515 1204.64 216.275 1222.64 219.367C1337.17 239.01 1461.54 183.225 1543.37 94.7464C1625.29 6.23996 1670.48 -109.844 1695 -227.762" stroke="url(#paint10_linear_1202_6357)" stroke-width="2.37175" stroke-miterlimit="10"/>
<path opacity="0.54" d="M179.089 1198.6C143.029 1152.66 155.505 1082.95 192.385 1038.25C195.668 1034.26 199.143 1030.45 202.754 1026.81C239.716 989.687 290.194 969.77 340.89 955.187C350.63 952.397 360.424 949.77 370.246 947.226C416.291 935.297 463.376 924.354 506.248 903.123C520.064 896.283 533.251 888.459 545.699 879.567C630.403 818.912 674.15 713.471 699.594 611.312C701.427 603.898 703.233 596.456 704.956 589.014C730.455 479.168 752.725 369.404 798.442 278.079C819.344 236.302 842.244 192.09 886.429 169.163C939.177 141.667 1005.63 151.051 1061.17 170.312C1099.01 183.417 1134.68 200.626 1171.67 213.676C1189.07 219.805 1206.75 224.975 1225.11 228.423C1341.85 250.337 1469.31 193.704 1552.57 103.31C1635.9 12.8609 1681.21 -105.932 1705.72 -226.284" stroke="url(#paint11_linear_1202_6357)" stroke-width="2.37175" stroke-miterlimit="10"/>
<path opacity="0.54" d="M185.632 1213.24C149.545 1167.39 161.528 1097.84 197.916 1052.72C201.172 1048.7 204.592 1044.84 208.176 1041.18C244.755 1003.67 294.904 983.122 345.408 967.91C355.121 964.983 364.888 962.274 374.655 959.621C420.536 947.172 467.512 935.791 510.219 914.341C523.981 907.447 537.113 899.568 549.534 890.621C634.046 829.638 677.383 724.196 702.006 621.874C703.784 614.432 705.508 606.99 707.177 599.549C731.636 489.565 751.744 379.391 795.081 286.562C815.354 243.17 838.09 197.289 882.904 173.432C936.473 144.869 1004.4 154.883 1060.87 175.375C1099.31 189.3 1135.51 207.576 1173.13 221.584C1190.8 228.15 1208.8 233.759 1227.49 237.562C1346.45 261.774 1477 204.293 1561.68 111.956C1646.44 19.5923 1691.83 -101.964 1716.37 -224.724" stroke="url(#paint12_linear_1202_6357)" stroke-width="2.37175" stroke-miterlimit="10"/>
<path opacity="0.54" d="M192.169 1227.85C156.082 1182.05 167.573 1112.67 203.468 1067.2C206.669 1063.15 210.062 1059.23 213.591 1055.54C249.76 1017.62 299.608 996.446 349.948 980.66C359.634 977.623 369.346 974.778 379.086 972.014C424.83 959.046 471.641 947.227 514.212 925.559C527.919 918.582 541.024 910.675 553.417 901.674C637.738 840.335 680.664 734.949 704.467 632.434C706.19 624.993 707.859 617.524 709.446 610.082C732.893 499.935 750.758 389.35 791.769 295.016C811.358 249.983 833.957 202.433 879.455 177.7C933.844 148.043 1003.25 158.713 1060.63 180.409C1099.69 195.155 1136.38 214.525 1174.6 229.463C1192.55 236.467 1210.85 242.514 1229.9 246.672C1351.07 273.156 1484.69 214.826 1570.82 120.575C1657 26.268 1702.47 -97.9966 1727.04 -223.191" stroke="url(#paint13_linear_1202_6357)" stroke-width="2.37175" stroke-miterlimit="10"/>
<path opacity="0.54" d="M198.678 1242.46C162.564 1196.74 173.562 1127.52 208.965 1081.64C212.139 1077.54 215.476 1073.63 218.951 1069.88C254.709 1031.55 304.256 1009.77 354.433 993.354C364.063 990.207 373.776 987.253 383.461 984.38C429.041 970.892 475.743 958.635 518.149 936.748C531.801 929.717 544.879 921.755 557.218 912.699C641.347 851.032 683.863 745.645 706.844 642.967C708.513 635.498 710.1 628.029 711.632 620.587C734.067 510.303 749.607 399.307 788.374 303.469C807.252 256.822 829.741 207.603 875.923 181.94C931.161 151.188 1002.02 162.515 1060.3 185.415C1099.97 201.009 1137.17 221.419 1176.02 237.315C1194.27 244.784 1212.88 251.24 1232.27 255.755C1355.66 284.509 1492.38 225.359 1579.93 129.164C1667.53 32.9428 1713.08 -94.0577 1737.65 -221.688" stroke="url(#paint14_linear_1202_6357)" stroke-width="2.37175" stroke-miterlimit="10"/>
<path opacity="0.54" d="M205.217 1257.07C169.103 1211.4 179.582 1142.38 214.519 1096.09C217.638 1091.95 220.921 1087.99 224.396 1084.21C259.771 1045.47 308.99 1023.06 359.002 1006.07C368.605 1002.82 378.263 999.727 387.921 996.773C433.337 982.792 479.929 970.043 522.171 947.964C535.769 940.851 548.792 932.862 561.103 923.751C645.013 861.756 687.146 756.396 709.307 653.527C710.921 646.058 712.453 638.561 713.903 631.092C735.325 520.671 748.54 409.293 785.064 311.894C803.176 263.606 825.61 212.718 872.449 186.18C928.507 154.361 1000.84 166.317 1060.05 190.42C1100.35 206.836 1138.05 228.313 1177.5 245.166C1196.02 253.073 1214.93 259.94 1234.68 264.837C1360.29 295.889 1500.09 235.864 1589.06 137.754C1678.06 39.5902 1723.72 -90.1188 1748.32 -220.184" stroke="url(#paint15_linear_1202_6357)" stroke-width="2.37175" stroke-miterlimit="10"/>
<path opacity="0.54" d="M211.754 1271.7C175.613 1226.12 185.626 1157.26 220.044 1110.59C223.108 1106.43 226.364 1102.41 229.784 1098.6C264.748 1059.48 313.666 1036.44 363.487 1018.83C373.063 1015.46 382.693 1012.26 392.324 1009.17C437.575 994.667 484.031 981.48 526.136 959.182C539.679 952.014 552.675 943.971 564.959 934.806C648.677 872.454 690.4 767.15 711.74 664.088C713.299 656.592 714.749 649.095 716.145 641.626C736.555 531.069 747.361 419.307 781.752 320.377C799.097 270.474 821.504 217.89 869 190.449C925.879 157.536 999.694 170.149 1059.8 195.483C1100.7 212.719 1138.92 235.263 1178.98 253.074C1197.8 261.446 1217.01 268.723 1237.12 273.976C1364.94 307.299 1507.83 246.453 1598.23 146.401C1688.65 46.3216 1734.39 -86.1233 1759.02 -218.623" stroke="url(#paint16_linear_1202_6357)" stroke-width="2.37175" stroke-miterlimit="10"/>
<path opacity="0.54" d="M218.295 1286.32C182.154 1240.79 191.647 1172.12 225.6 1125.03C228.637 1120.82 231.837 1116.8 235.23 1112.91C269.812 1073.38 318.401 1049.71 368.058 1031.49C377.579 1027.99 387.182 1024.71 396.785 1021.51C441.873 1006.49 488.219 992.862 530.188 970.346C543.676 963.123 556.616 954.998 568.873 945.832C652.4 883.153 693.712 777.848 714.259 674.622C715.764 667.126 717.159 659.63 718.472 652.133C737.87 541.439 746.242 429.322 778.498 328.805C795.023 277.26 817.43 223.035 865.609 194.691C923.309 160.683 998.601 173.953 1059.61 200.491C1101.14 218.548 1139.88 242.186 1180.54 260.927C1199.64 269.736 1219.17 277.452 1239.61 283.06C1369.64 318.682 1515.63 256.96 1607.48 154.965C1699.32 52.971 1745.15 -82.2099 1769.8 -217.145" stroke="url(#paint17_linear_1202_6357)" stroke-width="2.37175" stroke-miterlimit="10"/>
<path opacity="0.54" d="M224.806 1300.92C188.637 1255.48 197.666 1186.95 231.099 1139.48C234.081 1135.24 237.254 1131.16 240.592 1127.25C274.764 1087.31 323.052 1063.04 372.545 1044.21C382.038 1040.6 391.614 1037.18 401.162 1033.9C446.086 1018.36 492.323 1004.27 534.127 981.562C547.56 974.258 560.474 966.105 572.676 956.885C656.011 893.877 696.913 788.599 716.639 685.182C718.062 677.659 719.402 670.162 720.661 662.638C739.046 551.807 744.956 439.362 775.105 337.258C790.809 284.099 813.216 228.177 862.052 198.931C920.573 163.856 997.343 177.755 1059.26 205.497C1101.39 224.374 1140.65 249.08 1181.91 268.778C1201.28 278.025 1221.11 286.178 1241.9 292.143C1374.16 330.035 1523.24 267.465 1616.5 163.555C1709.77 59.6184 1755.68 -78.271 1780.36 -215.641" stroke="url(#paint18_linear_1202_6357)" stroke-width="2.37175" stroke-miterlimit="10"/>
<path opacity="0.54" d="M231.348 1315.53C195.179 1270.14 203.688 1201.8 236.628 1153.92C239.583 1149.66 242.702 1145.52 245.985 1141.58C279.773 1101.26 327.733 1076.36 377.062 1056.91C386.528 1053.19 396.049 1049.66 405.57 1046.24C450.329 1030.18 496.429 1015.65 538.097 992.724C551.475 985.364 564.362 977.157 576.536 967.882C659.68 904.546 700.144 799.268 719.077 695.687C720.445 688.163 721.731 680.64 722.907 673.116C740.28 562.148 743.672 449.401 771.77 345.656C786.599 290.883 809.088 233.293 858.58 203.143C917.922 166.974 996.169 181.502 1059.01 210.503C1101.77 230.228 1141.53 255.973 1183.41 276.629C1203.09 286.342 1223.22 294.905 1244.37 301.225C1378.84 341.388 1531.01 277.997 1625.7 172.145C1720.39 66.2932 1766.38 -74.3322 1791.08 -214.137" stroke="url(#paint19_linear_1202_6357)" stroke-width="2.37175" stroke-miterlimit="10"/>
<path opacity="0.54" d="M237.883 1330.17C201.687 1284.86 209.704 1216.68 242.179 1168.42C245.079 1164.13 248.17 1159.97 251.426 1155.98C284.804 1115.24 332.464 1089.71 381.628 1069.68C391.067 1065.85 400.56 1062.19 410.026 1058.69C454.649 1042.13 500.612 1027.14 542.116 1004C555.439 996.554 568.271 988.319 580.418 978.99C663.343 915.298 703.424 810.075 721.536 706.303C722.849 698.751 724.053 691.228 725.175 683.704C741.535 572.599 742.384 459.579 768.457 354.192C782.41 297.805 804.954 238.518 855.13 207.466C915.293 170.203 995.017 185.387 1058.76 215.591C1102.15 236.138 1142.4 262.95 1184.89 284.563C1204.83 294.714 1225.3 303.715 1246.77 310.39C1383.46 352.852 1538.72 288.585 1634.83 180.818C1730.95 73.0235 1777.02 -70.3103 1801.72 -212.55" stroke="url(#paint20_linear_1202_6357)" stroke-width="2.37175" stroke-miterlimit="10"/>
<path opacity="0.54" d="M244.395 1344.78C208.199 1299.53 215.723 1231.54 247.678 1182.87C250.523 1178.52 253.588 1174.33 256.789 1170.31C289.756 1129.16 337.115 1103.04 386.087 1082.38C395.471 1078.41 404.938 1074.67 414.404 1071.03C458.862 1053.95 504.716 1038.5 546.055 1015.16C559.325 1007.66 572.129 999.374 584.221 989.989C666.955 925.969 706.625 820.746 723.916 716.81C725.175 709.259 726.324 701.707 727.364 694.184C742.712 582.942 740.988 469.676 765.064 362.592C778.087 304.619 800.74 243.635 851.574 211.68C912.557 173.35 993.758 189.164 1058.41 220.572C1102.4 241.939 1143.17 269.818 1186.26 292.417C1206.5 303.005 1227.24 312.443 1249.07 319.475C1387.97 364.207 1546.33 299.12 1643.86 189.41C1741.4 79.7003 1787.55 -66.3695 1812.29 -211.044" stroke="url(#paint21_linear_1202_6357)" stroke-width="2.37175" stroke-miterlimit="10"/>
<path opacity="0.54" d="M250.934 1359.39C214.738 1314.22 221.742 1246.4 253.233 1197.32C256.051 1192.94 259.033 1188.7 262.234 1184.65C294.818 1143.09 341.848 1116.33 390.657 1095.1C400.014 1091.03 409.452 1087.17 418.864 1083.42C463.158 1065.83 508.875 1049.93 550.078 1026.38C563.32 1018.83 576.042 1010.48 588.134 1001.07C670.676 936.721 709.937 831.526 726.434 727.398C727.638 719.819 728.705 712.268 729.69 704.717C744.026 593.311 739.73 479.853 761.809 371.074C773.902 311.513 796.665 248.806 848.182 215.948C909.986 176.524 992.664 192.994 1058.22 225.606C1102.84 247.794 1144.1 276.767 1187.82 300.296C1208.34 311.349 1229.4 321.198 1251.59 328.585C1392.71 375.588 1554.15 309.653 1653.11 198.028C1752.07 86.376 1798.33 -62.4023 1823.07 -209.512" stroke="url(#paint22_linear_1202_6357)" stroke-width="2.37175" stroke-miterlimit="10"/>
<path opacity="0.54" d="M257.475 1374C218.024 1324.86 229.268 1249 267.626 1198.98C305.983 1149 364.969 1119.7 423.271 1095.79C481.573 1071.87 542.447 1051 591.994 1012.09C680.309 942.712 718.612 826.737 731.908 715.222C745.232 603.679 738.31 490.03 758.446 379.527C769.582 318.38 792.508 253.976 844.682 220.215C907.307 179.697 991.463 196.824 1057.95 230.667C1124.43 264.51 1183.44 313.455 1253.97 337.722C1397.31 387.023 1561.84 320.24 1662.22 206.673C1762.6 93.1054 1808.95 -58.4088 1833.71 -207.953" stroke="url(#paint23_linear_1202_6357)" stroke-width="2.37175" stroke-miterlimit="10"/>
<path opacity="0.54" d="M1320.47 1037.84C1356.39 991.165 1338.44 919.539 1296.14 879.212C1292.37 875.601 1288.43 872.208 1284.38 869.007C1243.01 836.313 1189.12 823.235 1136.56 815.301C1126.44 813.769 1116.26 812.401 1106.08 811.061C1058.26 804.768 1009.83 798.831 965.319 779.926C950.9 773.825 937.303 766.52 924.444 758.121C837.579 701.16 789.318 595.444 754.983 495.283C752.493 488.005 750.003 480.701 747.541 473.368C710.907 365.054 668.911 257.944 592.689 185.141C566.67 160.299 539.913 135.43 503.116 122.407C459.396 106.867 409.165 109.165 363.667 115.047C332.641 119.042 302.547 124.541 272.233 127.085C257.979 128.262 243.67 128.782 229.17 128.289C136.833 125.116 43.3473 77.7844 -24.2568 8.64822C-91.943 -60.5974 -136.292 -149.432 -160.614 -243" stroke="url(#paint24_linear_1202_6357)" stroke-width="2.37175" stroke-miterlimit="10"/>
<path opacity="0.54" d="M1313.92 1052.45C1349.87 1005.83 1332.39 934.395 1290.62 893.658C1286.87 890.019 1282.98 886.572 1278.99 883.343C1238.03 850.266 1184.43 836.559 1132.04 828.023C1121.95 826.382 1111.8 824.904 1101.65 823.454C1053.99 816.642 1005.7 810.267 961.322 791.143C946.959 784.96 933.388 777.628 920.584 769.174C833.911 711.884 786.06 606.197 752.518 505.844C750.083 498.566 747.675 491.234 745.268 483.902C709.646 375.451 669.1 268.422 595.997 193.623C570.334 167.358 544.042 140.601 506.56 126.675C462.02 110.041 410.311 112.968 363.883 120.082C332.229 124.924 301.641 131.463 270.698 134.965C256.171 136.606 241.534 137.537 226.678 137.4C132.125 136.524 35.5476 88.3451 -33.4792 17.2664C-102.588 -53.8944 -147.046 -145.465 -171.368 -241.468" stroke="url(#paint25_linear_1202_6357)" stroke-width="2.37175" stroke-miterlimit="10"/>
<path opacity="0.54" d="M1307.39 1067.06C1343.34 1020.52 1326.38 949.224 1285.1 908.131C1281.4 904.465 1277.57 900.99 1273.58 897.707C1233 864.22 1179.74 849.883 1127.51 840.745C1117.47 838.995 1107.34 837.408 1097.22 835.848C1049.73 828.543 1001.55 821.676 957.335 802.361C943.026 796.123 929.511 788.736 916.734 780.227C830.252 722.609 782.811 616.949 750.09 516.404C747.71 509.099 745.357 501.767 743.032 494.435C708.422 385.847 669.381 278.791 599.342 202.077C574.035 174.362 548.208 145.772 510.042 130.943C464.681 113.215 411.495 116.799 364.164 125.143C331.88 130.806 300.8 138.412 269.255 142.872C254.427 144.951 239.516 146.319 224.305 146.538C127.536 147.933 27.8669 98.9058 -42.5826 25.8846C-113.114 -47.2187 -157.655 -141.498 -182.004 -239.936" stroke="url(#paint26_linear_1202_6357)" stroke-width="2.37175" stroke-miterlimit="10"/>
<path opacity="0.54" d="M1300.88 1081.67C1336.86 1035.19 1320.39 964.08 1279.57 922.576C1275.93 918.856 1272.12 915.354 1268.18 912.043C1228.02 878.145 1175.05 863.207 1123.02 853.468C1113 851.607 1102.91 849.884 1092.84 848.215C1045.51 840.39 997.44 833.085 953.365 813.551C939.111 807.231 925.623 799.817 912.873 791.253C826.583 733.279 779.58 627.646 747.652 526.938C745.327 519.633 743.056 512.273 740.785 504.914C707.188 396.189 669.734 289.051 602.677 210.503C577.753 181.311 552.364 150.888 513.541 135.157C467.359 116.361 412.696 120.574 364.462 130.123C331.576 136.607 299.977 145.28 267.83 150.697C252.728 153.241 237.489 155.019 221.921 155.594C122.936 159.26 20.176 109.384 -51.6961 34.4482C-123.65 -40.5703 -168.273 -137.585 -192.65 -238.458" stroke="url(#paint27_linear_1202_6357)" stroke-width="2.37175" stroke-miterlimit="10"/>
<path opacity="0.54" d="M1294.34 1096.31C1330.31 1049.9 1314.34 978.962 1274.04 937.048C1270.42 933.3 1266.68 929.744 1262.76 926.378C1223.01 892.07 1170.34 876.503 1118.47 866.161C1108.49 864.164 1098.45 862.358 1088.4 860.58C1041.24 852.236 993.304 844.493 949.366 824.74C935.167 818.365 921.706 810.869 909.011 802.278C822.913 743.976 776.32 638.37 745.213 537.47C742.942 530.138 740.726 522.778 738.537 515.419C705.953 406.53 670.167 299.228 606.01 218.929C581.469 188.232 556.49 156.031 517.011 139.396C470.009 119.506 413.868 124.376 364.704 135.128C331.189 142.433 299.07 152.201 266.321 158.548C250.918 161.53 235.378 163.746 219.482 164.676C118.281 170.64 12.4292 119.917 -60.8656 43.038C-134.242 -33.9229 -178.947 -133.646 -203.324 -236.954" stroke="url(#paint28_linear_1202_6357)" stroke-width="2.37175" stroke-miterlimit="10"/>
<path opacity="0.54" d="M1287.8 1110.92C1323.8 1064.57 1308.32 993.819 1268.48 951.494C1264.93 947.719 1261.21 944.135 1257.35 940.715C1217.98 906.024 1165.64 889.827 1113.93 878.883C1103.97 876.777 1093.99 874.834 1083.97 872.974C1036.97 864.109 989.148 855.902 945.373 835.957C931.229 829.528 917.823 821.977 905.156 813.331C819.276 754.701 773.066 649.095 742.78 548.031C740.591 540.699 738.43 533.312 736.296 525.952C704.723 416.926 670.661 309.406 609.322 227.411C585.219 195.182 560.624 161.202 520.46 143.665C472.637 122.68 415.019 128.207 364.952 140.19C330.835 148.343 298.196 159.15 264.845 166.455C249.169 169.875 233.328 172.501 217.076 173.814C113.659 182.049 4.71574 130.478 -70.0017 51.6836C-144.801 -27.1924 -189.588 -129.652 -213.992 -235.395" stroke="url(#paint29_linear_1202_6357)" stroke-width="2.37175" stroke-miterlimit="10"/>
<path opacity="0.54" d="M1281.29 1125.52C1317.3 1079.26 1302.33 1008.67 1262.99 965.966C1259.49 962.163 1255.79 958.525 1251.99 955.077C1213.03 919.976 1160.99 903.15 1109.45 891.604C1099.55 889.388 1089.56 887.336 1079.57 885.339C1032.71 875.982 985.021 867.31 941.411 847.146C927.321 840.635 913.942 833.056 901.302 824.383C815.614 765.425 769.815 659.846 740.322 558.591C738.188 551.231 736.081 543.844 734.029 536.484C703.469 427.322 671.186 319.5 612.637 235.864C588.972 202.075 564.759 166.372 523.939 147.932C475.295 125.88 416.227 132.036 365.23 145.223C330.484 154.197 297.352 166.071 263.372 174.333C247.422 178.218 231.253 181.255 214.646 182.924C109.013 193.43 -3.02254 141.037 -79.1627 60.3008C-155.385 -20.5177 -200.254 -125.686 -224.685 -233.863" stroke="url(#paint30_linear_1202_6357)" stroke-width="2.37175" stroke-miterlimit="10"/>
<path opacity="0.54" d="M1274.75 1140.13C1310.78 1093.93 1296.28 1023.53 1257.46 980.413C1253.99 976.555 1250.35 972.889 1246.57 969.415C1208 933.903 1156.29 916.475 1104.94 904.3C1095.06 901.975 1085.13 899.813 1075.17 897.707C1028.47 887.83 980.917 878.72 937.444 858.337C923.409 851.771 910.085 844.138 897.472 835.41C811.975 776.096 766.587 670.545 737.915 569.125C735.835 561.765 733.811 554.378 731.813 546.964C702.266 437.665 671.87 329.487 616.003 244.291C592.83 208.944 568.945 171.489 527.442 152.146C477.976 129 417.431 135.813 365.531 150.204C330.183 159.998 296.532 172.939 261.95 182.159C245.699 186.482 229.256 189.956 212.293 191.981C104.444 204.785 -10.6828 151.517 -88.2456 68.8654C-165.89 -13.8683 -210.841 -121.772 -235.3 -232.385" stroke="url(#paint31_linear_1202_6357)" stroke-width="2.37175" stroke-miterlimit="10"/>
<path opacity="0.54" d="M1268.22 1154.77C1304.25 1108.64 1290.27 1038.39 1251.91 994.885C1248.49 991 1244.91 987.306 1241.16 983.777C1202.99 947.855 1151.59 929.825 1100.4 917.049C1090.55 914.586 1080.64 912.316 1070.74 910.1C1024.2 899.703 976.761 890.127 933.452 869.553C919.471 862.905 906.175 855.245 893.617 846.462C808.312 786.82 763.333 681.296 735.482 579.685C733.457 572.298 731.487 564.911 729.572 557.497C701.037 448.06 672.556 339.527 619.343 252.744C596.69 215.81 573.079 176.659 530.919 156.413C480.633 132.173 418.61 139.642 365.779 155.237C329.802 165.852 295.658 179.887 260.475 190.038C243.95 194.825 227.179 198.71 209.888 201.091C99.8225 216.165 -18.3958 162.077 -97.3813 77.4826C-176.449 -7.19359 -221.482 -117.806 -245.968 -230.854" stroke="url(#paint32_linear_1202_6357)" stroke-width="2.37175" stroke-miterlimit="10"/>
<path opacity="0.54" d="M1261.67 1169.38C1297.71 1123.31 1284.25 1053.24 1246.38 1009.36C1242.99 1005.45 1239.46 1001.7 1235.74 998.142C1197.98 961.836 1146.88 943.15 1095.85 929.772C1086.03 927.2 1076.18 924.82 1066.3 922.494C1019.93 911.578 972.599 901.565 929.454 880.772C915.528 874.069 902.259 866.354 889.728 857.517C804.615 797.546 760.047 692.049 733.016 590.246C731.046 582.859 729.158 575.445 727.298 568.031C699.775 458.458 673.319 349.542 622.65 261.227C600.544 222.678 577.207 181.831 534.39 160.71C483.283 135.403 419.783 143.501 366.05 160.327C329.471 171.763 294.807 186.865 258.994 197.973C242.168 203.198 225.096 207.521 207.449 210.257C95.168 227.63 -26.1418 172.666 -106.55 86.1565C-187.04 -0.434791 -232.155 -113.783 -256.641 -229.266" stroke="url(#paint33_linear_1202_6357)" stroke-width="2.37175" stroke-miterlimit="10"/>
<path opacity="0.54" d="M1255.16 1183.99C1291.22 1138 1278.22 1068.1 1240.85 1023.8C1237.51 1019.84 1234.01 1016.06 1230.35 1012.48C1192.97 975.761 1142.2 956.473 1091.34 942.493C1081.57 939.812 1071.72 937.295 1061.9 934.887C1015.69 923.451 968.494 913 925.458 891.988C911.587 885.23 898.372 877.433 885.869 868.569C800.974 808.242 756.789 702.773 730.58 600.806C728.664 593.392 726.831 585.977 725.053 578.563C698.542 468.853 674.138 359.5 625.986 269.68C604.455 229.517 581.363 187.001 537.863 164.95C485.935 138.548 420.958 147.276 366.322 165.333C329.113 177.617 293.93 193.759 257.542 205.851C240.443 211.515 223.07 216.275 205.068 219.367C90.5429 239.01 -33.8312 183.225 -115.662 94.7464C-197.575 6.23996 -242.772 -109.844 -267.286 -227.762" stroke="url(#paint34_linear_1202_6357)" stroke-width="2.37175" stroke-miterlimit="10"/>
<path opacity="0.54" d="M1248.62 1198.6C1284.68 1152.66 1272.21 1082.95 1235.33 1038.25C1232.04 1034.26 1228.57 1030.45 1224.96 1026.81C1187.99 989.687 1137.52 969.77 1086.82 955.187C1077.08 952.397 1067.29 949.77 1057.46 947.226C1011.42 935.297 964.335 924.354 921.463 903.123C907.647 896.283 894.46 888.459 882.012 879.567C797.308 818.912 753.561 713.471 728.117 611.312C726.284 603.898 724.478 596.456 722.755 589.014C697.256 479.168 674.986 369.404 629.269 278.079C608.367 236.302 585.467 192.09 541.282 169.163C488.534 141.667 422.079 151.051 366.54 170.312C328.703 183.417 293.027 200.626 256.037 213.676C238.637 219.805 220.963 224.975 202.605 228.423C85.8643 250.337 -41.6013 193.704 -124.855 103.31C-208.19 12.8609 -253.497 -105.932 -278.01 -226.284" stroke="url(#paint35_linear_1202_6357)" stroke-width="2.37175" stroke-miterlimit="10"/>
<path opacity="0.54" d="M1242.08 1213.24C1278.17 1167.39 1266.18 1097.84 1229.79 1052.72C1226.54 1048.7 1223.12 1044.84 1219.54 1041.18C1182.96 1003.67 1132.81 983.122 1082.3 967.91C1072.59 964.983 1062.82 962.274 1053.06 959.621C1007.17 947.172 960.199 935.791 917.492 914.341C903.73 907.447 890.598 899.568 878.177 890.621C793.665 829.638 750.328 724.196 725.705 621.874C723.927 614.432 722.203 606.99 720.534 599.549C696.075 489.565 675.966 379.391 632.63 286.562C612.357 243.17 589.621 197.289 544.807 173.432C491.238 144.869 423.306 154.883 366.837 175.375C328.398 189.3 292.202 207.576 254.583 221.584C236.909 228.15 218.907 233.759 200.221 237.562C81.2635 261.774 -49.2937 204.293 -133.97 111.956C-218.728 19.5923 -264.117 -101.964 -288.658 -224.724" stroke="url(#paint36_linear_1202_6357)" stroke-width="2.37175" stroke-miterlimit="10"/>
<path opacity="0.54" d="M1235.54 1227.85C1271.63 1182.05 1260.14 1112.67 1224.24 1067.2C1221.04 1063.15 1217.65 1059.23 1214.12 1055.54C1177.95 1017.62 1128.1 996.446 1077.76 980.66C1068.08 977.623 1058.36 974.778 1048.63 972.014C1002.88 959.046 956.07 947.227 913.499 925.559C899.792 918.582 886.687 910.675 874.294 901.674C789.973 840.335 747.047 734.949 723.244 632.434C721.521 624.993 719.852 617.524 718.265 610.082C694.818 499.935 676.953 389.35 635.942 295.016C616.353 249.983 593.754 202.433 548.256 177.7C493.866 148.043 424.457 158.713 367.085 180.409C328.016 195.155 291.328 214.525 253.107 229.463C235.16 236.467 216.856 242.514 197.815 246.672C76.6415 273.156 -56.9799 214.826 -143.106 120.575C-229.287 26.268 -274.758 -97.9966 -299.326 -223.191" stroke="url(#paint37_linear_1202_6357)" stroke-width="2.37175" stroke-miterlimit="10"/>
<path opacity="0.54" d="M1229.03 1242.46C1265.15 1196.74 1254.15 1127.52 1218.75 1081.64C1215.57 1077.54 1212.23 1073.63 1208.76 1069.88C1173 1031.55 1123.45 1009.77 1073.28 993.354C1063.65 990.207 1053.94 987.253 1044.25 984.38C998.67 970.892 951.968 958.635 909.562 936.748C895.91 929.717 882.832 921.755 870.493 912.699C786.364 851.032 743.848 745.645 720.867 642.967C719.198 635.498 717.611 628.029 716.079 620.587C693.644 510.303 678.104 399.307 639.337 303.469C620.459 256.822 597.97 207.603 551.788 181.94C496.55 151.188 425.69 162.515 367.415 185.415C327.745 201.009 290.537 221.419 251.687 237.315C233.438 244.784 214.834 251.24 195.437 255.755C72.0475 284.509 -64.6654 225.359 -152.214 129.164C-239.818 32.9428 -285.371 -94.0577 -309.939 -221.688" stroke="url(#paint38_linear_1202_6357)" stroke-width="2.37175" stroke-miterlimit="10"/>
<path opacity="0.54" d="M1222.49 1257.07C1258.61 1211.4 1248.13 1142.38 1213.19 1096.09C1210.07 1091.95 1206.79 1087.99 1203.32 1084.21C1167.94 1045.47 1118.72 1023.06 1068.71 1006.07C1059.11 1002.82 1049.45 999.727 1039.79 996.773C994.374 982.792 947.782 970.043 905.54 947.964C891.942 940.851 878.919 932.862 866.608 923.751C782.698 861.756 740.565 756.396 718.404 653.527C716.79 646.058 715.258 638.561 713.808 631.092C692.386 520.671 679.171 409.293 642.647 311.894C624.535 263.606 602.101 212.718 555.262 186.18C499.204 154.361 426.866 166.317 367.661 190.42C327.362 206.836 289.661 228.313 250.209 245.166C231.687 253.073 212.782 259.94 193.029 264.837C67.4237 295.889 -72.381 235.864 -161.353 137.754C-250.351 39.5902 -296.014 -90.1188 -320.609 -220.184" stroke="url(#paint39_linear_1202_6357)" stroke-width="2.37175" stroke-miterlimit="10"/>
<path opacity="0.54" d="M1215.96 1271.7C1252.1 1226.12 1242.08 1157.26 1207.67 1110.59C1204.6 1106.43 1201.35 1102.41 1197.93 1098.6C1162.96 1059.48 1114.04 1036.44 1064.22 1018.83C1054.65 1015.46 1045.02 1012.26 1035.39 1009.17C990.136 994.667 943.68 981.48 901.574 959.182C888.032 952.014 875.036 943.971 862.752 934.806C779.033 872.454 737.311 767.15 715.971 664.088C714.411 656.592 712.961 649.095 711.566 641.626C691.156 531.069 680.35 419.307 645.959 320.377C628.614 270.474 606.207 217.89 558.711 190.449C501.832 157.536 428.017 170.149 367.91 195.483C327.008 212.719 288.787 235.263 248.734 253.074C229.911 261.446 210.705 268.723 190.596 273.976C62.7745 307.299 -80.1217 246.453 -170.516 146.401C-260.937 46.3216 -306.682 -86.1233 -331.305 -218.623" stroke="url(#paint40_linear_1202_6357)" stroke-width="2.37175" stroke-miterlimit="10"/>
<path opacity="0.54" d="M1209.42 1286.32C1245.56 1240.79 1236.06 1172.12 1202.11 1125.03C1199.07 1120.82 1195.87 1116.8 1192.48 1112.91C1157.9 1073.38 1109.31 1049.71 1059.65 1031.49C1050.13 1027.99 1040.53 1024.71 1030.93 1021.51C985.838 1006.49 939.492 992.862 897.523 970.346C884.035 963.123 871.095 954.998 858.838 945.832C775.311 883.153 733.999 777.848 713.452 674.622C711.947 667.126 710.552 659.63 709.239 652.133C689.841 541.439 681.469 429.322 649.213 328.805C632.688 277.26 610.281 223.035 562.102 194.691C504.402 160.683 429.11 173.953 368.099 200.491C326.568 218.548 287.828 242.186 247.172 260.927C228.076 269.736 208.541 277.452 188.104 283.06C58.0667 318.682 -87.921 256.96 -179.765 154.965C-271.609 52.971 -317.436 -82.2099 -342.086 -217.145" stroke="url(#paint41_linear_1202_6357)" stroke-width="2.37175" stroke-miterlimit="10"/>
<path opacity="0.54" d="M1202.9 1300.92C1239.07 1255.48 1230.05 1186.95 1196.61 1139.48C1193.63 1135.24 1190.46 1131.16 1187.12 1127.25C1152.95 1087.31 1104.66 1063.04 1055.17 1044.21C1045.67 1040.6 1036.1 1037.18 1026.55 1033.9C981.625 1018.36 935.388 1004.27 893.584 981.562C880.151 974.258 867.237 966.105 855.035 956.885C771.699 893.877 730.798 788.599 711.072 685.182C709.649 677.659 708.309 670.162 707.05 662.638C688.665 551.807 682.755 439.362 652.606 337.258C636.902 284.099 614.495 228.177 565.659 198.931C507.138 163.856 430.368 177.755 368.455 205.497C326.322 224.374 287.062 249.08 245.804 268.778C226.434 278.025 206.599 286.178 185.806 292.143C53.5527 330.035 -95.5265 267.465 -188.793 163.555C-282.06 59.6184 -327.969 -78.271 -352.647 -215.641" stroke="url(#paint42_linear_1202_6357)" stroke-width="2.37175" stroke-miterlimit="10"/>
<path opacity="0.54" d="M1196.36 1315.53C1232.53 1270.14 1224.02 1201.8 1191.08 1153.92C1188.13 1149.66 1185.01 1145.52 1181.73 1141.58C1147.94 1101.26 1099.98 1076.36 1050.65 1056.91C1041.18 1053.19 1031.66 1049.66 1022.14 1046.24C977.382 1030.18 931.282 1015.65 889.614 992.724C876.236 985.364 863.349 977.157 851.175 967.882C768.031 904.546 727.567 799.268 708.634 695.687C707.266 688.163 705.98 680.64 704.804 673.116C687.431 562.148 684.038 449.401 655.941 345.656C641.112 290.883 618.623 233.293 569.131 203.143C509.789 166.974 431.542 181.502 368.698 210.503C325.936 230.228 286.184 255.973 244.297 276.629C224.626 286.342 204.49 294.905 183.341 301.225C48.8716 341.388 -103.299 277.997 -197.989 172.145C-292.678 66.2932 -338.669 -74.3322 -363.374 -214.137" stroke="url(#paint43_linear_1202_6357)" stroke-width="2.37175" stroke-miterlimit="10"/>
<path opacity="0.54" d="M1189.83 1330.17C1226.02 1284.86 1218.01 1216.68 1185.53 1168.42C1182.63 1164.13 1179.54 1159.97 1176.28 1155.98C1142.91 1115.24 1095.25 1089.71 1046.08 1069.68C1036.64 1065.85 1027.15 1062.19 1017.68 1058.69C973.062 1042.13 927.099 1027.14 885.595 1004C872.271 996.554 859.44 988.319 847.293 978.99C764.368 915.298 724.287 810.075 706.175 706.303C704.862 698.751 703.658 691.228 702.536 683.704C686.175 572.599 685.327 459.579 659.254 354.192C645.301 297.805 622.757 238.518 572.581 207.466C512.418 170.203 432.694 185.387 368.948 215.591C325.556 236.138 285.311 262.95 242.823 284.563C222.878 294.714 202.413 303.715 180.937 310.39C44.2509 352.852 -111.011 288.585 -207.124 180.818C-303.236 73.0235 -349.308 -70.3103 -374.014 -212.55" stroke="url(#paint44_linear_1202_6357)" stroke-width="2.37175" stroke-miterlimit="10"/>
<path opacity="0.54" d="M1183.32 1344.78C1219.51 1299.53 1211.99 1231.54 1180.03 1182.87C1177.19 1178.52 1174.12 1174.33 1170.92 1170.31C1137.95 1129.16 1090.6 1103.04 1041.62 1082.38C1032.24 1078.41 1022.77 1074.67 1013.31 1071.03C968.849 1053.95 922.995 1038.5 881.655 1015.16C868.386 1007.66 855.582 999.374 843.49 989.989C760.756 925.969 721.085 820.746 703.795 716.81C702.536 709.259 701.387 701.707 700.347 694.184C684.999 582.942 686.723 469.676 662.647 362.592C649.624 304.619 626.97 243.635 576.137 211.68C515.154 173.35 433.953 189.164 369.303 220.572C325.31 241.939 284.545 269.818 241.455 292.417C221.209 303.005 200.471 312.443 178.638 319.475C39.7366 364.207 -118.617 299.12 -216.152 189.41C-313.687 79.7003 -359.842 -66.3695 -384.574 -211.044" stroke="url(#paint45_linear_1202_6357)" stroke-width="2.37175" stroke-miterlimit="10"/>
<path opacity="0.54" d="M1176.78 1359.39C1212.97 1314.22 1205.97 1246.4 1174.48 1197.32C1171.66 1192.94 1168.68 1188.7 1165.48 1184.65C1132.89 1143.09 1085.86 1116.33 1037.05 1095.1C1027.7 1091.03 1018.26 1087.17 1008.85 1083.42C964.553 1065.83 918.836 1049.93 877.633 1026.38C864.391 1018.83 851.669 1010.48 839.577 1001.07C757.035 936.721 717.774 831.526 701.277 727.398C700.073 719.819 699.006 712.268 698.021 704.717C683.685 593.311 687.98 479.853 665.902 371.074C653.809 311.513 631.046 248.806 579.529 215.948C517.725 176.524 435.046 192.994 369.494 225.606C324.872 247.794 283.614 276.767 239.895 300.296C219.375 311.349 198.309 321.198 176.121 328.585C35.0029 375.588 -126.443 309.653 -225.4 198.028C-324.358 86.376 -370.622 -62.4023 -395.354 -209.512" stroke="url(#paint46_linear_1202_6357)" stroke-width="2.37175" stroke-miterlimit="10"/>
<path opacity="0.54" d="M1170.24 1374C1209.69 1324.86 1198.44 1249 1160.09 1198.98C1121.73 1149 1062.74 1119.7 1004.44 1095.79C946.138 1071.87 885.264 1051 835.717 1012.09C747.402 942.712 709.099 826.737 695.803 715.222C682.479 603.679 689.401 490.03 669.265 379.527C658.129 318.38 635.203 253.976 583.029 220.215C520.404 179.697 436.248 196.824 369.765 230.667C303.283 264.51 244.27 313.455 173.738 337.722C30.4043 387.023 -134.133 320.24 -234.513 206.673C-334.893 93.1054 -381.239 -58.4088 -405.999 -207.953" stroke="url(#paint47_linear_1202_6357)" stroke-width="2.37175" stroke-miterlimit="10"/>
<defs>
<linearGradient id="paint0_linear_1202_6357" x1="1561.81" y1="-273.976" x2="95.8294" y2="1026.75" gradientUnits="userSpaceOnUse">
<stop stop-color="#7ED4EF"/>
<stop offset="0.2294" stop-color="#66BFE6"/>
<stop offset="0.711" stop-color="#298BD0"/>
<stop offset="1" stop-color="#0169C2"/>
</linearGradient>
<linearGradient id="paint1_linear_1202_6357" x1="1572.12" y1="-272.862" x2="97.3239" y2="1035.68" gradientUnits="userSpaceOnUse">
<stop stop-color="#7ED4EF"/>
<stop offset="0.2294" stop-color="#66BFE6"/>
<stop offset="0.711" stop-color="#298BD0"/>
<stop offset="1" stop-color="#0169C2"/>
</linearGradient>
<linearGradient id="paint2_linear_1202_6357" x1="1582.29" y1="-271.906" x2="98.6697" y2="1044.46" gradientUnits="userSpaceOnUse">
<stop stop-color="#7ED4EF"/>
<stop offset="0.2294" stop-color="#66BFE6"/>
<stop offset="0.711" stop-color="#298BD0"/>
<stop offset="1" stop-color="#0169C2"/>
</linearGradient>
<linearGradient id="paint3_linear_1202_6357" x1="1592.36" y1="-271.057" x2="99.9289" y2="1053.14" gradientUnits="userSpaceOnUse">
<stop stop-color="#7ED4EF"/>
<stop offset="0.2294" stop-color="#66BFE6"/>
<stop offset="0.711" stop-color="#298BD0"/>
<stop offset="1" stop-color="#0169C2"/>
</linearGradient>
<linearGradient id="paint4_linear_1202_6357" x1="1602.37" y1="-270.289" x2="101.12" y2="1061.73" gradientUnits="userSpaceOnUse">
<stop stop-color="#7ED4EF"/>
<stop offset="0.2294" stop-color="#66BFE6"/>
<stop offset="0.711" stop-color="#298BD0"/>
<stop offset="1" stop-color="#0169C2"/>
</linearGradient>
<linearGradient id="paint5_linear_1202_6357" x1="1612.32" y1="-269.578" x2="102.252" y2="1070.26" gradientUnits="userSpaceOnUse">
<stop stop-color="#7ED4EF"/>
<stop offset="0.2294" stop-color="#66BFE6"/>
<stop offset="0.711" stop-color="#298BD0"/>
<stop offset="1" stop-color="#0169C2"/>
</linearGradient>
<linearGradient id="paint6_linear_1202_6357" x1="1622.22" y1="-268.914" x2="103.341" y2="1078.75" gradientUnits="userSpaceOnUse">
<stop stop-color="#7ED4EF"/>
<stop offset="0.2294" stop-color="#66BFE6"/>
<stop offset="0.711" stop-color="#298BD0"/>
<stop offset="1" stop-color="#0169C2"/>
</linearGradient>
<linearGradient id="paint7_linear_1202_6357" x1="1632.1" y1="-268.284" x2="104.402" y2="1087.2" gradientUnits="userSpaceOnUse">
<stop stop-color="#7ED4EF"/>
<stop offset="0.2294" stop-color="#66BFE6"/>
<stop offset="0.711" stop-color="#298BD0"/>
<stop offset="1" stop-color="#0169C2"/>
</linearGradient>
<linearGradient id="paint8_linear_1202_6357" x1="1641.95" y1="-267.684" x2="105.436" y2="1095.62" gradientUnits="userSpaceOnUse">
<stop stop-color="#7ED4EF"/>
<stop offset="0.2294" stop-color="#66BFE6"/>
<stop offset="0.711" stop-color="#298BD0"/>
<stop offset="1" stop-color="#0169C2"/>
</linearGradient>
<linearGradient id="paint9_linear_1202_6357" x1="1651.79" y1="-267.105" x2="106.455" y2="1104.02" gradientUnits="userSpaceOnUse">
<stop stop-color="#7ED4EF"/>
<stop offset="0.2294" stop-color="#66BFE6"/>
<stop offset="0.711" stop-color="#298BD0"/>
<stop offset="1" stop-color="#0169C2"/>
</linearGradient>
<linearGradient id="paint10_linear_1202_6357" x1="1661.6" y1="-266.548" x2="107.455" y2="1112.4" gradientUnits="userSpaceOnUse">
<stop stop-color="#7ED4EF"/>
<stop offset="0.2294" stop-color="#66BFE6"/>
<stop offset="0.711" stop-color="#298BD0"/>
<stop offset="1" stop-color="#0169C2"/>
</linearGradient>
<linearGradient id="paint11_linear_1202_6357" x1="1671.4" y1="-266.005" x2="108.439" y2="1120.77" gradientUnits="userSpaceOnUse">
<stop stop-color="#7ED4EF"/>
<stop offset="0.2294" stop-color="#66BFE6"/>
<stop offset="0.711" stop-color="#298BD0"/>
<stop offset="1" stop-color="#0169C2"/>
</linearGradient>
<linearGradient id="paint12_linear_1202_6357" x1="1681.2" y1="-265.475" x2="109.416" y2="1129.12" gradientUnits="userSpaceOnUse">
<stop stop-color="#7ED4EF"/>
<stop offset="0.2294" stop-color="#66BFE6"/>
<stop offset="0.711" stop-color="#298BD0"/>
<stop offset="1" stop-color="#0169C2"/>
</linearGradient>
<linearGradient id="paint13_linear_1202_6357" x1="1690.97" y1="-264.957" x2="110.377" y2="1137.46" gradientUnits="userSpaceOnUse">
<stop stop-color="#7ED4EF"/>
<stop offset="0.2294" stop-color="#66BFE6"/>
<stop offset="0.711" stop-color="#298BD0"/>
<stop offset="1" stop-color="#0169C2"/>
</linearGradient>
<linearGradient id="paint14_linear_1202_6357" x1="1700.74" y1="-264.449" x2="111.328" y2="1145.79" gradientUnits="userSpaceOnUse">
<stop stop-color="#7ED4EF"/>
<stop offset="0.2294" stop-color="#66BFE6"/>
<stop offset="0.711" stop-color="#298BD0"/>
<stop offset="1" stop-color="#0169C2"/>
</linearGradient>
<linearGradient id="paint15_linear_1202_6357" x1="1710.5" y1="-263.95" x2="112.274" y2="1154.11" gradientUnits="userSpaceOnUse">
<stop stop-color="#7ED4EF"/>
<stop offset="0.2294" stop-color="#66BFE6"/>
<stop offset="0.711" stop-color="#298BD0"/>
<stop offset="1" stop-color="#0169C2"/>
</linearGradient>
<linearGradient id="paint16_linear_1202_6357" x1="1720.26" y1="-263.457" x2="113.212" y2="1162.43" gradientUnits="userSpaceOnUse">
<stop stop-color="#7ED4EF"/>
<stop offset="0.2294" stop-color="#66BFE6"/>
<stop offset="0.711" stop-color="#298BD0"/>
<stop offset="1" stop-color="#0169C2"/>
</linearGradient>
<linearGradient id="paint17_linear_1202_6357" x1="1730.01" y1="-262.969" x2="114.148" y2="1170.73" gradientUnits="userSpaceOnUse">
<stop stop-color="#7ED4EF"/>
<stop offset="0.2294" stop-color="#66BFE6"/>
<stop offset="0.711" stop-color="#298BD0"/>
<stop offset="1" stop-color="#0169C2"/>
</linearGradient>
<linearGradient id="paint18_linear_1202_6357" x1="1739.75" y1="-262.489" x2="115.077" y2="1179.04" gradientUnits="userSpaceOnUse">
<stop stop-color="#7ED4EF"/>
<stop offset="0.2294" stop-color="#66BFE6"/>
<stop offset="0.711" stop-color="#298BD0"/>
<stop offset="1" stop-color="#0169C2"/>
</linearGradient>
<linearGradient id="paint19_linear_1202_6357" x1="1749.49" y1="-262.015" x2="116.004" y2="1187.33" gradientUnits="userSpaceOnUse">
<stop stop-color="#7ED4EF"/>
<stop offset="0.2294" stop-color="#66BFE6"/>
<stop offset="0.711" stop-color="#298BD0"/>
<stop offset="1" stop-color="#0169C2"/>
</linearGradient>
<linearGradient id="paint20_linear_1202_6357" x1="1759.23" y1="-261.544" x2="116.921" y2="1195.62" gradientUnits="userSpaceOnUse">
<stop stop-color="#7ED4EF"/>
<stop offset="0.2294" stop-color="#66BFE6"/>
<stop offset="0.711" stop-color="#298BD0"/>
<stop offset="1" stop-color="#0169C2"/>
</linearGradient>
<linearGradient id="paint21_linear_1202_6357" x1="1768.96" y1="-261.075" x2="117.838" y2="1203.91" gradientUnits="userSpaceOnUse">
<stop stop-color="#7ED4EF"/>
<stop offset="0.2294" stop-color="#66BFE6"/>
<stop offset="0.711" stop-color="#298BD0"/>
<stop offset="1" stop-color="#0169C2"/>
</linearGradient>
<linearGradient id="paint22_linear_1202_6357" x1="1778.69" y1="-260.611" x2="118.752" y2="1212.2" gradientUnits="userSpaceOnUse">
<stop stop-color="#7ED4EF"/>
<stop offset="0.2294" stop-color="#66BFE6"/>
<stop offset="0.711" stop-color="#298BD0"/>
<stop offset="1" stop-color="#0169C2"/>
</linearGradient>
<linearGradient id="paint23_linear_1202_6357" x1="1788.41" y1="-260.152" x2="119.666" y2="1220.48" gradientUnits="userSpaceOnUse">
<stop stop-color="#7ED4EF"/>
<stop offset="0.2294" stop-color="#66BFE6"/>
<stop offset="0.711" stop-color="#298BD0"/>
<stop offset="1" stop-color="#0169C2"/>
</linearGradient>
<linearGradient id="paint24_linear_1202_6357" x1="-134.1" y1="-273.976" x2="1331.88" y2="1026.75" gradientUnits="userSpaceOnUse">
<stop stop-color="#7ED4EF"/>
<stop offset="0.2294" stop-color="#66BFE6"/>
<stop offset="0.711" stop-color="#298BD0"/>
<stop offset="1" stop-color="#0169C2"/>
</linearGradient>
<linearGradient id="paint25_linear_1202_6357" x1="-144.412" y1="-272.862" x2="1330.39" y2="1035.68" gradientUnits="userSpaceOnUse">
<stop stop-color="#7ED4EF"/>
<stop offset="0.2294" stop-color="#66BFE6"/>
<stop offset="0.711" stop-color="#298BD0"/>
<stop offset="1" stop-color="#0169C2"/>
</linearGradient>
<linearGradient id="paint26_linear_1202_6357" x1="-154.575" y1="-271.906" x2="1329.04" y2="1044.46" gradientUnits="userSpaceOnUse">
<stop stop-color="#7ED4EF"/>
<stop offset="0.2294" stop-color="#66BFE6"/>
<stop offset="0.711" stop-color="#298BD0"/>
<stop offset="1" stop-color="#0169C2"/>
</linearGradient>
<linearGradient id="paint27_linear_1202_6357" x1="-164.652" y1="-271.057" x2="1327.78" y2="1053.14" gradientUnits="userSpaceOnUse">
<stop stop-color="#7ED4EF"/>
<stop offset="0.2294" stop-color="#66BFE6"/>
<stop offset="0.711" stop-color="#298BD0"/>
<stop offset="1" stop-color="#0169C2"/>
</linearGradient>
<linearGradient id="paint28_linear_1202_6357" x1="-174.659" y1="-270.289" x2="1326.59" y2="1061.73" gradientUnits="userSpaceOnUse">
<stop stop-color="#7ED4EF"/>
<stop offset="0.2294" stop-color="#66BFE6"/>
<stop offset="0.711" stop-color="#298BD0"/>
<stop offset="1" stop-color="#0169C2"/>
</linearGradient>
<linearGradient id="paint29_linear_1202_6357" x1="-184.608" y1="-269.578" x2="1325.46" y2="1070.26" gradientUnits="userSpaceOnUse">
<stop stop-color="#7ED4EF"/>
<stop offset="0.2294" stop-color="#66BFE6"/>
<stop offset="0.711" stop-color="#298BD0"/>
<stop offset="1" stop-color="#0169C2"/>
</linearGradient>
<linearGradient id="paint30_linear_1202_6357" x1="-194.514" y1="-268.914" x2="1324.37" y2="1078.75" gradientUnits="userSpaceOnUse">
<stop stop-color="#7ED4EF"/>
<stop offset="0.2294" stop-color="#66BFE6"/>
<stop offset="0.711" stop-color="#298BD0"/>
<stop offset="1" stop-color="#0169C2"/>
</linearGradient>
<linearGradient id="paint31_linear_1202_6357" x1="-204.391" y1="-268.284" x2="1323.31" y2="1087.2" gradientUnits="userSpaceOnUse">
<stop stop-color="#7ED4EF"/>
<stop offset="0.2294" stop-color="#66BFE6"/>
<stop offset="0.711" stop-color="#298BD0"/>
<stop offset="1" stop-color="#0169C2"/>
</linearGradient>
<linearGradient id="paint32_linear_1202_6357" x1="-214.242" y1="-267.684" x2="1322.27" y2="1095.62" gradientUnits="userSpaceOnUse">
<stop stop-color="#7ED4EF"/>
<stop offset="0.2294" stop-color="#66BFE6"/>
<stop offset="0.711" stop-color="#298BD0"/>
<stop offset="1" stop-color="#0169C2"/>
</linearGradient>
<linearGradient id="paint33_linear_1202_6357" x1="-224.077" y1="-267.105" x2="1321.26" y2="1104.02" gradientUnits="userSpaceOnUse">
<stop stop-color="#7ED4EF"/>
<stop offset="0.2294" stop-color="#66BFE6"/>
<stop offset="0.711" stop-color="#298BD0"/>
<stop offset="1" stop-color="#0169C2"/>
</linearGradient>
<linearGradient id="paint34_linear_1202_6357" x1="-233.893" y1="-266.548" x2="1320.26" y2="1112.4" gradientUnits="userSpaceOnUse">
<stop stop-color="#7ED4EF"/>
<stop offset="0.2294" stop-color="#66BFE6"/>
<stop offset="0.711" stop-color="#298BD0"/>
<stop offset="1" stop-color="#0169C2"/>
</linearGradient>
<linearGradient id="paint35_linear_1202_6357" x1="-243.694" y1="-266.005" x2="1319.27" y2="1120.77" gradientUnits="userSpaceOnUse">
<stop stop-color="#7ED4EF"/>
<stop offset="0.2294" stop-color="#66BFE6"/>
<stop offset="0.711" stop-color="#298BD0"/>
<stop offset="1" stop-color="#0169C2"/>
</linearGradient>
<linearGradient id="paint36_linear_1202_6357" x1="-253.486" y1="-265.475" x2="1318.29" y2="1129.12" gradientUnits="userSpaceOnUse">
<stop stop-color="#7ED4EF"/>
<stop offset="0.2294" stop-color="#66BFE6"/>
<stop offset="0.711" stop-color="#298BD0"/>
<stop offset="1" stop-color="#0169C2"/>
</linearGradient>
<linearGradient id="paint37_linear_1202_6357" x1="-263.263" y1="-264.957" x2="1317.33" y2="1137.46" gradientUnits="userSpaceOnUse">
<stop stop-color="#7ED4EF"/>
<stop offset="0.2294" stop-color="#66BFE6"/>
<stop offset="0.711" stop-color="#298BD0"/>
<stop offset="1" stop-color="#0169C2"/>
</linearGradient>
<linearGradient id="paint38_linear_1202_6357" x1="-273.029" y1="-264.449" x2="1316.38" y2="1145.79" gradientUnits="userSpaceOnUse">
<stop stop-color="#7ED4EF"/>
<stop offset="0.2294" stop-color="#66BFE6"/>
<stop offset="0.711" stop-color="#298BD0"/>
<stop offset="1" stop-color="#0169C2"/>
</linearGradient>
<linearGradient id="paint39_linear_1202_6357" x1="-282.791" y1="-263.95" x2="1315.44" y2="1154.11" gradientUnits="userSpaceOnUse">
<stop stop-color="#7ED4EF"/>
<stop offset="0.2294" stop-color="#66BFE6"/>
<stop offset="0.711" stop-color="#298BD0"/>
<stop offset="1" stop-color="#0169C2"/>
</linearGradient>
<linearGradient id="paint40_linear_1202_6357" x1="-292.544" y1="-263.457" x2="1314.5" y2="1162.43" gradientUnits="userSpaceOnUse">
<stop stop-color="#7ED4EF"/>
<stop offset="0.2294" stop-color="#66BFE6"/>
<stop offset="0.711" stop-color="#298BD0"/>
<stop offset="1" stop-color="#0169C2"/>
</linearGradient>
<linearGradient id="paint41_linear_1202_6357" x1="-302.296" y1="-262.969" x2="1313.56" y2="1170.73" gradientUnits="userSpaceOnUse">
<stop stop-color="#7ED4EF"/>
<stop offset="0.2294" stop-color="#66BFE6"/>
<stop offset="0.711" stop-color="#298BD0"/>
<stop offset="1" stop-color="#0169C2"/>
</linearGradient>
<linearGradient id="paint42_linear_1202_6357" x1="-312.04" y1="-262.489" x2="1312.63" y2="1179.04" gradientUnits="userSpaceOnUse">
<stop stop-color="#7ED4EF"/>
<stop offset="0.2294" stop-color="#66BFE6"/>
<stop offset="0.711" stop-color="#298BD0"/>
<stop offset="1" stop-color="#0169C2"/>
</linearGradient>
<linearGradient id="paint43_linear_1202_6357" x1="-321.782" y1="-262.015" x2="1311.71" y2="1187.33" gradientUnits="userSpaceOnUse">
<stop stop-color="#7ED4EF"/>
<stop offset="0.2294" stop-color="#66BFE6"/>
<stop offset="0.711" stop-color="#298BD0"/>
<stop offset="1" stop-color="#0169C2"/>
</linearGradient>
<linearGradient id="paint44_linear_1202_6357" x1="-331.514" y1="-261.544" x2="1310.79" y2="1195.62" gradientUnits="userSpaceOnUse">
<stop stop-color="#7ED4EF"/>
<stop offset="0.2294" stop-color="#66BFE6"/>
<stop offset="0.711" stop-color="#298BD0"/>
<stop offset="1" stop-color="#0169C2"/>
</linearGradient>
<linearGradient id="paint45_linear_1202_6357" x1="-341.247" y1="-261.075" x2="1309.87" y2="1203.91" gradientUnits="userSpaceOnUse">
<stop stop-color="#7ED4EF"/>
<stop offset="0.2294" stop-color="#66BFE6"/>
<stop offset="0.711" stop-color="#298BD0"/>
<stop offset="1" stop-color="#0169C2"/>
</linearGradient>
<linearGradient id="paint46_linear_1202_6357" x1="-350.975" y1="-260.611" x2="1308.96" y2="1212.2" gradientUnits="userSpaceOnUse">
<stop stop-color="#7ED4EF"/>
<stop offset="0.2294" stop-color="#66BFE6"/>
<stop offset="0.711" stop-color="#298BD0"/>
<stop offset="1" stop-color="#0169C2"/>
</linearGradient>
<linearGradient id="paint47_linear_1202_6357" x1="-360.703" y1="-260.152" x2="1308.05" y2="1220.48" gradientUnits="userSpaceOnUse">
<stop stop-color="#7ED4EF"/>
<stop offset="0.2294" stop-color="#66BFE6"/>
<stop offset="0.711" stop-color="#298BD0"/>
<stop offset="1" stop-color="#0169C2"/>
</linearGradient>
</defs>
</svg>
