<svg width="375" height="746" viewBox="0 0 375 746" fill="none" xmlns="http://www.w3.org/2000/svg">
<path opacity="0.54" d="M-84.9658 267.16C-98.0958 250.1 -91.5358 223.92 -76.0758 209.18C-74.6958 207.86 -73.2558 206.62 -71.7758 205.45C-56.6558 193.5 -36.9558 188.72 -17.7458 185.82C-14.0458 185.26 -10.3258 184.76 -6.60577 184.27C10.8742 181.97 28.5742 179.8 44.8442 172.89C50.1142 170.66 55.0842 167.99 59.7842 164.92C91.5342 144.1 109.174 105.46 121.724 68.85C122.634 66.19 123.544 63.52 124.444 60.84C137.834 21.25 153.184 -17.9 181.044 -44.51C190.554 -53.59 200.334 -62.68 213.784 -67.44C229.764 -73.12 248.124 -72.28 264.754 -70.13C276.094 -68.67 287.094 -66.66 298.174 -65.73C303.384 -65.3 308.614 -65.11 313.914 -65.29C347.664 -66.45 381.834 -83.75 406.544 -109.02C431.284 -134.33 447.494 -166.8 456.384 -201" stroke="url(#paint0_linear_979_6382)" stroke-width="0.8669" stroke-miterlimit="10"/>
<path opacity="0.54" d="M-82.5748 272.5C-95.7148 255.46 -89.3248 229.35 -74.0548 214.46C-72.6848 213.13 -71.2648 211.87 -69.8048 210.69C-54.8348 198.6 -35.2448 193.59 -16.0948 190.47C-12.4048 189.87 -8.69478 189.33 -4.98478 188.8C12.4352 186.31 30.0852 183.98 46.3052 176.99C51.5552 174.73 56.5152 172.05 61.1952 168.96C92.8752 148.02 110.365 109.39 122.625 72.7101C123.515 70.0501 124.395 67.3701 125.275 64.6901C138.295 25.0501 153.115 -14.0699 179.835 -41.4099C189.215 -51.0099 198.825 -60.7899 212.525 -65.8799C228.805 -71.9599 247.705 -70.8899 264.675 -68.2899C276.245 -66.5199 287.425 -64.1299 298.735 -62.8499C304.045 -62.2499 309.395 -61.9099 314.825 -61.9599C349.385 -62.2799 384.685 -79.8899 409.915 -105.87C435.175 -131.88 451.425 -165.35 460.315 -200.44" stroke="url(#paint1_linear_979_6382)" stroke-width="0.8669" stroke-miterlimit="10"/>
<path opacity="0.54" d="M-80.1843 277.84C-93.3243 260.83 -87.1243 234.77 -72.0343 219.75C-70.6843 218.41 -69.2843 217.14 -67.8243 215.94C-52.9943 203.7 -33.5243 198.46 -14.4343 195.12C-10.7643 194.48 -7.06433 193.9 -3.36433 193.33C13.9957 190.66 31.6057 188.15 47.7657 181.09C52.9957 178.81 57.9357 176.11 62.6057 173C94.2157 151.94 111.556 113.32 123.516 76.5701C124.386 73.9001 125.246 71.2201 126.096 68.5401C138.746 28.8501 153.016 -10.2799 178.616 -38.3199C187.866 -48.4499 197.306 -58.8999 211.256 -64.3199C227.836 -70.7999 247.276 -69.4899 264.576 -66.4399C276.376 -64.3699 287.736 -61.5899 299.266 -59.9599C304.686 -59.1999 310.136 -58.6999 315.696 -58.6199C351.066 -58.1099 387.496 -76.0299 413.246 -102.72C439.026 -129.44 455.306 -163.9 464.206 -199.88" stroke="url(#paint2_linear_979_6382)" stroke-width="0.8669" stroke-miterlimit="10"/>
<path opacity="0.54" d="M-77.8044 283.18C-90.9544 266.19 -84.9344 240.2 -70.0144 225.03C-68.6844 223.67 -67.2944 222.39 -65.8544 221.18C-51.1744 208.79 -31.8144 203.33 -12.7944 199.77C-9.1344 199.09 -5.4444 198.46 -1.7644 197.85C15.5356 194.99 33.1056 192.32 49.2156 185.18C54.4256 182.87 59.3556 180.16 64.0156 177.03C95.5556 155.84 112.736 117.23 124.406 80.4202C125.256 77.7502 126.086 75.0602 126.916 72.3702C139.196 32.6302 152.886 -6.52984 177.396 -35.2398C186.506 -45.9098 195.786 -57.0298 209.976 -62.7798C226.856 -69.6498 246.836 -68.1098 264.466 -64.6198C276.486 -62.2498 288.036 -59.0798 299.786 -57.0998C305.306 -56.1698 310.876 -55.5198 316.566 -55.3098C352.746 -53.9698 390.306 -72.1998 416.576 -99.5898C442.876 -127.01 459.186 -162.47 468.096 -199.34" stroke="url(#paint3_linear_979_6382)" stroke-width="0.8669" stroke-miterlimit="10"/>
<path opacity="0.54" d="M-75.4141 288.53C-88.5641 271.57 -82.7241 245.64 -67.9941 230.32C-66.6741 228.95 -65.3041 227.65 -63.8741 226.42C-49.3441 213.88 -30.0941 208.19 -11.1341 204.41C-7.48411 203.68 -3.8141 203.02 -0.144104 202.37C17.0959 199.32 34.6159 196.49 50.6759 189.27C55.8659 186.94 60.7859 184.2 65.4259 181.06C96.8959 159.75 113.926 121.15 125.296 84.27C126.126 81.59 126.936 78.9 127.736 76.21C139.646 36.41 152.726 -2.81003 176.176 -32.16C185.146 -43.38 194.276 -55.15 208.706 -61.23C225.886 -68.5 246.406 -66.72 264.376 -62.79C276.626 -60.12 288.366 -56.55 300.336 -54.23C305.966 -53.14 311.646 -52.33 317.456 -51.99C354.446 -49.81 393.136 -68.35 419.926 -96.45C446.746 -124.58 463.086 -161.03 471.996 -198.79" stroke="url(#paint4_linear_979_6382)" stroke-width="0.8669" stroke-miterlimit="10"/>
<path opacity="0.54" d="M-73.0238 293.87C-86.1838 276.93 -80.5238 251.07 -65.9638 235.6C-64.6638 234.22 -63.3038 232.91 -61.8938 231.66C-47.5038 218.98 -28.3738 213.06 -9.47379 209.06C-5.83379 208.29 -2.1838 207.58 1.4762 206.9C18.6562 203.66 36.1362 200.66 52.1362 193.37C57.3062 191.02 62.2062 188.26 66.8362 185.1C98.2262 163.67 115.116 125.07 126.186 88.1298C126.986 85.4498 127.776 82.7498 128.556 80.0598C140.096 40.2098 152.546 0.909788 174.966 -29.0602C183.776 -40.8402 192.766 -53.2602 207.446 -59.6702C224.926 -67.3402 245.986 -65.3202 264.286 -60.9402C276.756 -57.9602 288.686 -54.0102 300.876 -51.3402C306.606 -50.0902 312.396 -49.1302 318.336 -48.6502C356.136 -45.6402 395.956 -64.4902 423.266 -93.2902C450.606 -122.12 466.976 -159.57 475.896 -198.22" stroke="url(#paint5_linear_979_6382)" stroke-width="0.8669" stroke-miterlimit="10"/>
<path opacity="0.54" d="M-70.6476 299.21C-83.8076 282.3 -78.3376 256.5 -63.9576 240.89C-62.6776 239.5 -61.3276 238.17 -59.9376 236.91C-45.6976 224.08 -26.6776 217.93 -7.83761 213.71C-4.21761 212.9 -0.56761 212.15 3.08239 211.42C20.2124 208 37.6424 204.83 53.5824 197.46C58.7324 195.08 63.6224 192.31 68.2424 189.14C99.5624 167.59 116.302 129 127.082 91.9898C127.862 89.2998 128.632 86.5999 129.382 83.9099C140.552 44.0098 152.352 4.59985 173.752 -25.9702C182.402 -38.3202 191.252 -51.3702 206.172 -58.1102C223.952 -66.1702 245.542 -63.9202 264.182 -59.1002C276.882 -55.8202 288.992 -51.4801 301.412 -48.4601C307.242 -47.0401 313.152 -45.9302 319.222 -45.3202C357.832 -41.4802 398.782 -60.6302 426.612 -90.1402C454.472 -119.68 470.872 -158.12 479.802 -197.66" stroke="url(#paint6_linear_979_6382)" stroke-width="0.8669" stroke-miterlimit="10"/>
<path opacity="0.54" d="M-68.2568 304.55C-81.4268 287.66 -76.1268 261.93 -61.9368 246.17C-60.6668 244.76 -59.3368 243.42 -57.9568 242.15C-43.8568 229.17 -24.9568 222.8 -6.18679 218.35C-2.57679 217.5 1.0532 216.71 4.6932 215.94C21.7632 212.33 39.1432 209 55.0332 201.55C60.1632 199.15 65.0332 196.36 69.6432 193.17C100.893 171.49 117.483 132.91 127.963 95.8399C128.723 93.1499 129.463 90.4499 130.193 87.7399C140.993 47.7899 152.103 8.24988 172.523 -22.8901C180.993 -35.8101 189.723 -49.5001 204.893 -56.5701C222.973 -65.0301 245.103 -62.5401 264.073 -57.2801C276.993 -53.7001 289.293 -48.9701 301.933 -45.6001C307.873 -44.0201 313.883 -42.7501 320.083 -42.0101C359.503 -37.3301 401.583 -56.8001 429.933 -87.0101C458.313 -117.25 474.743 -156.69 483.683 -197.12" stroke="url(#paint7_linear_979_6382)" stroke-width="0.8669" stroke-miterlimit="10"/>
<path opacity="0.54" d="M-65.8667 309.9C-79.0367 293.04 -73.9267 267.36 -59.9067 251.46C-58.6567 250.04 -57.3467 248.69 -55.9767 247.4C-42.0267 234.27 -23.2367 227.68 -4.52671 223.01C-0.926711 222.11 2.6933 221.28 6.3133 220.47C23.3233 216.67 40.6633 213.17 56.4933 205.65C61.6033 203.22 66.4633 200.42 71.0533 197.21C102.233 175.41 118.673 136.84 128.853 99.7C129.593 97 130.313 94.3 131.013 91.59C141.443 51.59 151.853 11.92 171.303 -19.8C179.583 -33.3 188.213 -47.6101 203.623 -55.0101C222.003 -63.8701 244.673 -61.14 263.983 -55.44C277.133 -51.56 289.613 -46.4301 302.473 -42.7201C308.513 -40.9701 314.643 -39.5501 320.963 -38.6801C361.193 -33.1701 404.403 -52.9401 433.273 -83.8601C462.173 -114.81 478.633 -155.24 487.583 -196.56" stroke="url(#paint8_linear_979_6382)" stroke-width="0.8669" stroke-miterlimit="10"/>
<path opacity="0.54" d="M-63.4745 315.24C-76.6445 298.4 -71.7245 272.79 -57.8845 256.75C-56.6445 255.32 -55.3545 253.95 -53.9945 252.65C-40.1945 239.38 -21.5145 232.55 -2.86449 227.66C0.725506 226.72 4.32551 225.85 7.93551 225C24.8855 221.01 42.1855 217.35 57.9555 209.75C63.0455 207.3 67.8955 204.48 72.4755 201.25C103.586 179.33 119.876 140.77 129.756 103.56C130.476 100.86 131.166 98.15 131.846 95.44C141.906 55.39 151.576 15.58 170.096 -16.7C178.176 -30.79 186.705 -45.72 202.355 -53.44C221.035 -62.69 244.245 -59.73 263.885 -53.58C277.255 -49.4 289.926 -43.88 303.016 -39.82C309.166 -37.91 315.405 -36.33 321.855 -35.33C362.896 -28.98 407.235 -49.07 436.625 -80.69C466.045 -112.34 482.535 -153.77 491.485 -195.98" stroke="url(#paint9_linear_979_6382)" stroke-width="0.8669" stroke-miterlimit="10"/>
<path opacity="0.54" d="M-61.0957 320.58C-74.2757 303.77 -69.5258 278.22 -55.8658 262.03C-54.6458 260.58 -53.3657 259.2 -52.0257 257.89C-38.3657 244.47 -19.8057 237.42 -1.21574 232.31C2.35426 231.33 5.95425 230.41 9.54425 229.53C26.4342 225.35 43.6842 221.53 59.4142 213.85C64.4842 211.38 69.3142 208.53 73.8842 205.29C104.914 183.24 121.064 144.69 130.644 107.42C131.344 104.71 132.014 102 132.664 99.2898C142.354 59.1898 151.274 19.2198 168.874 -13.6102C176.744 -28.2902 185.184 -43.8302 201.084 -51.8902C220.064 -61.5402 243.814 -58.3502 263.784 -51.7502C277.384 -47.2602 290.244 -41.3602 303.544 -36.9402C309.794 -34.8702 316.144 -33.1302 322.724 -32.0002C364.584 -24.8202 410.044 -45.2102 439.954 -77.5502C469.894 -109.9 486.414 -152.33 495.374 -195.43" stroke="url(#paint10_linear_979_6382)" stroke-width="0.8669" stroke-miterlimit="10"/>
<path opacity="0.54" d="M-58.7044 325.92C-71.8844 309.13 -67.3244 283.65 -53.8444 267.31C-52.6444 265.85 -51.3744 264.46 -50.0544 263.13C-36.5444 249.56 -18.0944 242.28 0.435585 236.95C3.99558 235.93 7.57558 234.97 11.1656 234.04C27.9956 229.68 45.2056 225.68 60.8756 217.92C65.9256 215.42 70.7456 212.56 75.2956 209.31C106.256 187.14 122.246 148.6 131.546 111.26C132.216 108.55 132.876 105.83 133.506 103.11C142.826 62.9599 150.966 22.8399 167.676 -10.5401C175.316 -25.8101 183.686 -41.9701 199.836 -50.3501C219.116 -60.4001 243.406 -56.9701 263.706 -49.9301C277.536 -45.1401 290.576 -38.8501 304.096 -34.0801C310.456 -31.8401 316.916 -29.9501 323.626 -28.6901C366.296 -20.6801 412.886 -41.3801 443.316 -74.4201C473.776 -107.48 490.336 -150.9 499.296 -194.89" stroke="url(#paint11_linear_979_6382)" stroke-width="0.8669" stroke-miterlimit="10"/>
<path opacity="0.54" d="M-56.315 331.27C-69.505 314.51 -65.125 289.09 -51.825 272.6C-50.635 271.13 -49.385 269.72 -48.075 268.38C-34.705 254.67 -16.375 247.16 2.08497 241.6C5.63497 240.53 9.20497 239.54 12.775 238.57C29.545 234.02 46.715 229.86 62.325 222.02C67.355 219.5 72.155 216.62 76.695 213.35C107.585 191.06 123.425 152.52 132.425 115.12C133.075 112.4 133.705 109.68 134.315 106.96C143.255 66.7602 150.605 26.4902 166.445 -7.43982C173.855 -23.2998 182.165 -40.0698 198.545 -48.7898C218.125 -59.2298 242.955 -55.5698 263.595 -48.0798C277.645 -42.9898 290.875 -36.3098 304.625 -31.1898C311.085 -28.7898 317.665 -26.7398 324.495 -25.3498C367.975 -16.4998 415.695 -37.5098 446.645 -71.2598C477.625 -105.02 494.215 -149.45 503.185 -194.32" stroke="url(#paint12_linear_979_6382)" stroke-width="0.8669" stroke-miterlimit="10"/>
<path opacity="0.54" d="M-53.9243 336.61C-67.1143 319.87 -62.9143 294.51 -49.7943 277.89C-48.6243 276.41 -47.3843 274.98 -46.0943 273.63C-32.8743 259.77 -14.6543 252.03 3.7457 246.26C7.2857 245.15 10.8357 244.11 14.3957 243.1C31.1157 238.36 48.2257 234.04 63.7857 226.12C68.7957 223.57 73.5857 220.68 78.1157 217.39C108.936 194.97 124.626 156.45 133.326 118.98C133.956 116.26 134.566 113.53 135.146 110.81C143.716 70.5502 150.246 30.1302 165.236 -4.34976C172.396 -20.8098 180.656 -38.1898 197.286 -47.2298C217.166 -58.0698 242.536 -54.1698 263.506 -46.2398C277.786 -40.8498 291.196 -33.7698 305.166 -28.3098C311.726 -25.7498 318.416 -23.5398 325.376 -22.0198C369.666 -12.3398 418.506 -33.6598 449.986 -68.1098C481.486 -102.58 498.106 -148 507.086 -193.76" stroke="url(#paint13_linear_979_6382)" stroke-width="0.8669" stroke-miterlimit="10"/>
<path opacity="0.54" d="M-51.5473 341.95C-64.7473 325.24 -60.7273 299.94 -47.7873 283.17C-46.6273 281.67 -45.4073 280.24 -44.1373 278.87C-31.0673 264.86 -12.9573 256.9 5.38268 250.9C8.90268 249.75 12.4527 248.67 15.9927 247.62C32.6527 242.69 49.7227 238.21 65.2227 230.21C70.2127 227.64 74.9927 224.73 79.5027 221.42C110.253 198.88 125.793 160.36 134.193 122.83C134.803 120.1 135.383 117.37 135.943 114.65C144.143 74.34 149.823 33.77 163.993 -1.25996C170.893 -18.31 179.113 -36.3 195.993 -45.68C216.183 -56.92 242.083 -52.78 263.383 -44.41C277.883 -38.71 291.483 -31.25 305.683 -25.44C312.353 -22.71 319.153 -20.35 326.243 -18.7C371.343 -8.18997 421.313 -29.81 453.313 -64.97C485.333 -100.14 501.983 -146.56 510.963 -193.21" stroke="url(#paint14_linear_979_6382)" stroke-width="0.8669" stroke-miterlimit="10"/>
<path opacity="0.54" d="M-49.1541 347.29C-62.3541 330.6 -58.5241 305.37 -45.7541 288.45C-44.6141 286.94 -43.4141 285.49 -42.1441 284.11C-29.2141 269.95 -11.2241 261.76 7.0559 255.55C10.5659 254.36 14.0959 253.23 17.6259 252.15C34.2259 247.04 51.2559 242.38 66.6959 234.31C71.6659 231.71 76.4259 228.79 80.9259 225.46C111.596 202.8 126.996 164.29 135.096 126.69C135.686 123.96 136.246 121.22 136.776 118.49C144.606 78.1298 149.436 37.4198 162.786 1.81982C169.406 -15.8302 177.606 -34.4302 194.726 -44.1302C215.216 -55.7602 241.656 -51.3902 263.296 -42.5802C278.026 -36.5802 291.806 -28.7302 306.226 -22.5702C312.996 -19.6802 319.906 -17.1702 327.126 -15.3802C373.036 -4.03016 424.136 -25.9702 456.656 -61.8302C489.186 -97.7102 505.876 -145.12 514.866 -192.66" stroke="url(#paint15_linear_979_6382)" stroke-width="0.8669" stroke-miterlimit="10"/>
<path opacity="0.54" d="M-46.7652 352.64C-59.9752 335.98 -56.3152 310.81 -43.7352 293.75C-42.6152 292.23 -41.4252 290.76 -40.1752 289.37C-27.3952 275.07 -9.5152 266.65 8.6948 260.21C12.1948 258.98 15.7148 257.81 19.2348 256.68C35.7748 251.38 52.7548 246.56 68.1448 238.41C73.0948 235.79 77.8448 232.85 82.3348 229.5C112.935 206.71 128.185 168.22 135.985 130.55C136.555 127.81 137.085 125.07 137.595 122.34C145.055 81.9301 149.005 41.0802 161.575 4.92015C167.915 -13.3198 176.105 -32.5398 193.465 -42.5698C214.255 -54.5998 241.235 -49.9898 263.205 -40.7298C278.155 -34.4298 292.125 -26.1898 306.765 -19.6798C313.645 -16.6198 320.665 -13.9598 328.015 -12.0398C374.735 0.14016 426.965 -22.0998 460.005 -58.6698C493.055 -95.2498 509.775 -143.66 518.775 -192.09" stroke="url(#paint16_linear_979_6382)" stroke-width="0.8669" stroke-miterlimit="10"/>
<path opacity="0.54" d="M-44.3763 357.98C-57.5863 341.34 -54.1163 316.24 -41.7063 299.03C-40.5963 297.49 -39.4263 296.02 -38.1863 294.6C-25.5463 280.15 -7.78633 271.5 10.3637 264.84C13.8437 263.56 17.3537 262.36 20.8637 261.19C37.3437 255.7 54.2837 250.72 69.6237 242.49C74.5537 239.85 79.2837 236.88 83.7637 233.53C114.294 210.62 129.394 172.13 136.904 134.4C137.454 131.66 137.964 128.92 138.444 126.18C145.534 85.7202 148.594 44.7402 160.384 8.00021C166.424 -10.8398 174.614 -30.6598 192.224 -41.0198C213.314 -53.4498 240.834 -48.5998 263.134 -38.8998C278.314 -32.2998 292.474 -23.6598 307.334 -16.8098C314.314 -13.5898 321.454 -10.7698 328.924 -8.71979C376.454 4.30021 429.814 -18.2598 463.384 -55.5398C496.954 -92.8198 513.704 -142.23 522.714 -191.55" stroke="url(#paint17_linear_979_6382)" stroke-width="0.8669" stroke-miterlimit="10"/>
<path opacity="0.54" d="M-41.9957 363.32C-55.2157 346.71 -51.9157 321.66 -39.6957 304.31C-38.6057 302.76 -37.4457 301.27 -36.2257 299.84C-23.7357 285.24 -6.08568 276.37 12.0043 269.49C15.4743 268.17 18.9743 266.92 22.4643 265.72C38.8843 260.04 55.7843 254.89 71.0643 246.59C75.9743 243.92 80.6943 240.94 85.1543 237.57C115.614 214.54 130.564 176.06 137.774 138.26C138.294 135.51 138.784 132.77 139.244 130.02C145.964 89.51 148.124 48.41 159.144 11.09C164.884 -8.34 173.074 -28.78 190.924 -39.47C212.314 -52.29 240.374 -47.21 263.004 -37.07C278.404 -30.17 292.754 -21.14 307.834 -13.94C314.914 -10.56 322.164 -7.58002 329.764 -5.40002C378.104 8.44998 432.594 -14.42 466.684 -52.4C500.774 -90.39 517.554 -140.79 526.574 -191" stroke="url(#paint18_linear_979_6382)" stroke-width="0.8669" stroke-miterlimit="10"/>
<path opacity="0.54" d="M-39.6062 368.66C-52.8262 352.07 -49.7162 327.09 -37.6762 309.59C-36.5962 308.03 -35.4562 306.52 -34.2562 305.08C-21.9062 290.34 -4.37615 281.24 13.6538 274.13C17.1138 272.77 20.5938 271.48 24.0738 270.23C40.4338 264.36 57.2838 259.05 72.5138 250.67C77.4038 247.98 82.1139 244.98 86.5639 241.59C116.954 218.44 131.744 179.96 138.664 142.1C139.164 139.35 139.634 136.6 140.064 133.85C146.414 93.2898 147.654 52.0798 157.924 14.1598C163.344 -5.86018 171.564 -26.9102 189.654 -37.9302C211.344 -51.1502 239.944 -45.8402 262.914 -35.2402C278.544 -28.0302 293.074 -18.6202 308.384 -11.0702C315.574 -7.52019 322.934 -4.3902 330.664 -2.0802C379.814 12.5998 435.434 -10.5702 470.044 -49.2602C504.654 -87.9502 521.464 -139.35 530.494 -190.45" stroke="url(#paint19_linear_979_6382)" stroke-width="0.8669" stroke-miterlimit="10"/>
<path opacity="0.54" d="M-37.2155 374.01C-50.4455 357.45 -47.5155 332.53 -35.6455 314.89C-34.5855 313.32 -33.4555 311.8 -32.2655 310.34C-20.0655 295.45 -2.64547 286.12 15.3245 278.8C18.7745 277.4 22.2445 276.06 25.7045 274.78C42.0145 268.73 58.8145 263.25 73.9845 254.79C78.8545 252.07 83.5445 249.06 87.9845 245.65C118.295 222.37 132.945 183.91 139.565 145.98C140.045 143.22 140.485 140.47 140.895 137.72C146.875 97.1099 147.185 55.7999 156.715 17.2799C161.815 -3.33011 170.055 -25.0001 188.395 -36.3501C210.385 -49.9701 239.525 -44.4201 262.825 -33.3801C278.685 -25.8701 293.395 -16.0701 308.925 -8.17012C316.215 -4.46012 323.695 -1.17012 331.545 1.26988C381.505 16.7899 438.255 -6.70012 473.385 -46.0901C508.515 -85.4901 525.355 -137.88 534.385 -189.87" stroke="url(#paint20_linear_979_6382)" stroke-width="0.8669" stroke-miterlimit="10"/>
<path opacity="0.54" d="M-34.8372 379.35C-48.0672 362.81 -45.3172 337.96 -33.6372 320.17C-32.5972 318.58 -31.4772 317.05 -30.3072 315.58C-18.2572 300.54 -0.947172 290.99 16.9528 283.44C20.3828 281.99 23.8428 280.62 27.3028 279.29C43.5528 273.05 60.3128 267.4 75.4228 258.87C80.2728 256.13 84.9528 253.1 89.3728 249.67C119.613 226.27 134.113 187.81 140.433 149.82C140.893 147.06 141.313 144.3 141.693 141.55C147.303 100.89 146.673 59.4902 155.473 20.3502C160.233 -0.839842 168.513 -23.1298 187.093 -34.8098C209.383 -48.8198 239.063 -43.0398 262.693 -31.5598C278.773 -23.7498 293.673 -13.5598 309.423 -5.29984C316.823 -1.42984 324.403 2.02018 332.383 4.59018C383.153 20.9402 441.033 -2.84983 476.683 -42.9498C512.333 -83.0498 529.203 -136.44 538.243 -189.32" stroke="url(#paint21_linear_979_6382)" stroke-width="0.8669" stroke-miterlimit="10"/>
<path opacity="0.54" d="M-32.4466 384.69C-45.6766 368.18 -43.1166 343.39 -31.6066 325.45C-30.5766 323.85 -29.4866 322.3 -28.3166 320.82C-16.4066 305.63 0.783379 295.85 18.6234 288.09C22.0434 286.6 25.4934 285.19 28.9334 283.82C45.1234 277.39 61.8334 271.58 76.8934 262.97C81.7334 260.21 86.3834 257.16 90.8034 253.72C120.973 230.2 135.323 191.75 141.353 153.69C141.793 150.92 142.183 148.16 142.543 145.4C147.783 104.68 146.213 63.2102 154.283 23.4502C158.703 1.68023 167.023 -21.2398 185.853 -33.2498C208.443 -47.6598 238.663 -41.6398 262.623 -29.7198C278.933 -21.6098 294.013 -11.0198 309.993 -2.41977C317.493 1.62023 325.193 5.22023 333.303 7.92023C384.883 25.1002 443.893 1.00024 480.063 -39.7998C516.233 -80.6098 533.143 -134.99 542.183 -188.76" stroke="url(#paint22_linear_979_6382)" stroke-width="0.8669" stroke-miterlimit="10"/>
<path opacity="0.54" d="M-30.0575 390.03C-44.4775 372.07 -40.3675 344.34 -26.3475 326.06C-12.3275 307.79 9.23246 297.08 30.5425 288.34C51.8525 279.6 74.1025 271.97 92.2125 257.75C124.492 232.39 138.492 190 143.352 149.24C148.222 108.47 145.692 66.93 153.052 26.54C157.122 4.19004 165.502 -19.3499 184.572 -31.6899C207.462 -46.4999 238.222 -40.2399 262.522 -27.8699C286.822 -15.4999 308.392 2.39004 334.172 11.26C386.562 29.28 446.702 4.87004 483.392 -36.64C520.082 -78.15 537.022 -133.53 546.072 -188.19" stroke="url(#paint23_linear_979_6382)" stroke-width="0.8669" stroke-miterlimit="10"/>
<path opacity="0.54" d="M-72.9658 746.16C-86.0958 729.1 -79.5358 702.92 -64.0758 688.18C-62.6958 686.86 -61.2558 685.62 -59.7758 684.45C-44.6558 672.5 -24.9558 667.72 -5.74577 664.82C-2.04577 664.26 1.67423 663.76 5.39423 663.27C22.8742 660.97 40.5742 658.8 56.8442 651.89C62.1142 649.66 67.0842 646.99 71.7842 643.92C103.534 623.1 121.174 584.46 133.724 547.85C134.634 545.19 135.544 542.52 136.444 539.84C149.834 500.25 165.184 461.1 193.044 434.49C202.554 425.41 212.334 416.32 225.784 411.56C241.764 405.88 260.124 406.72 276.754 408.87C288.094 410.33 299.094 412.34 310.174 413.27C315.384 413.7 320.614 413.89 325.914 413.71C359.664 412.55 393.834 395.25 418.544 369.98C443.284 344.67 459.494 312.2 468.384 278" stroke="url(#paint24_linear_979_6382)" stroke-width="0.8669" stroke-miterlimit="10"/>
<path opacity="0.54" d="M-70.5748 751.5C-83.7148 734.46 -77.3248 708.35 -62.0548 693.46C-60.6848 692.13 -59.2648 690.87 -57.8048 689.69C-42.8348 677.6 -23.2448 672.59 -4.09478 669.47C-0.40478 668.87 3.30522 668.33 7.01522 667.8C24.4352 665.31 42.0852 662.98 58.3052 655.99C63.5552 653.73 68.5152 651.05 73.1952 647.96C104.875 627.02 122.365 588.39 134.625 551.71C135.515 549.05 136.395 546.37 137.275 543.69C150.295 504.05 165.115 464.93 191.835 437.59C201.215 427.99 210.825 418.21 224.525 413.12C240.805 407.04 259.705 408.11 276.675 410.71C288.245 412.48 299.425 414.87 310.735 416.15C316.045 416.75 321.395 417.09 326.825 417.04C361.385 416.72 396.685 399.11 421.915 373.13C447.175 347.12 463.425 313.65 472.315 278.56" stroke="url(#paint25_linear_979_6382)" stroke-width="0.8669" stroke-miterlimit="10"/>
<path opacity="0.54" d="M-68.1843 756.84C-81.3243 739.83 -75.1243 713.77 -60.0343 698.75C-58.6843 697.41 -57.2843 696.14 -55.8243 694.94C-40.9943 682.7 -21.5243 677.46 -2.43433 674.12C1.23567 673.48 4.93567 672.9 8.63567 672.33C25.9957 669.66 43.6057 667.15 59.7657 660.09C64.9957 657.81 69.9357 655.11 74.6057 652C106.216 630.94 123.556 592.32 135.516 555.57C136.386 552.9 137.246 550.22 138.096 547.54C150.746 507.85 165.016 468.72 190.616 440.68C199.866 430.55 209.306 420.1 223.256 414.68C239.836 408.2 259.276 409.51 276.576 412.56C288.376 414.63 299.736 417.41 311.266 419.04C316.686 419.8 322.136 420.3 327.696 420.38C363.066 420.89 399.496 402.97 425.246 376.28C451.026 349.56 467.306 315.1 476.206 279.12" stroke="url(#paint26_linear_979_6382)" stroke-width="0.8669" stroke-miterlimit="10"/>
<path opacity="0.54" d="M-65.8044 762.18C-78.9544 745.19 -72.9344 719.2 -58.0144 704.03C-56.6844 702.67 -55.2944 701.39 -53.8544 700.18C-39.1744 687.79 -19.8144 682.33 -0.794395 678.77C2.8656 678.09 6.5556 677.46 10.2356 676.85C27.5356 673.99 45.1056 671.32 61.2156 664.18C66.4256 661.87 71.3556 659.16 76.0156 656.03C107.556 634.84 124.736 596.23 136.406 559.42C137.256 556.75 138.086 554.06 138.916 551.37C151.196 511.63 164.886 472.47 189.396 443.76C198.506 433.09 207.786 421.97 221.976 416.22C238.856 409.35 258.836 410.89 276.466 414.38C288.486 416.75 300.036 419.92 311.786 421.9C317.306 422.83 322.876 423.48 328.566 423.69C364.746 425.03 402.306 406.8 428.576 379.41C454.876 351.99 471.186 316.53 480.096 279.66" stroke="url(#paint27_linear_979_6382)" stroke-width="0.8669" stroke-miterlimit="10"/>
<path opacity="0.54" d="M-63.4141 767.53C-76.5641 750.57 -70.7241 724.64 -55.9941 709.32C-54.6741 707.95 -53.3041 706.65 -51.8741 705.42C-37.3441 692.88 -18.0941 687.19 0.865891 683.41C4.51589 682.68 8.1859 682.02 11.8559 681.37C29.0959 678.32 46.6159 675.49 62.6759 668.27C67.8659 665.94 72.7859 663.2 77.4259 660.06C108.896 638.75 125.926 600.15 137.296 563.27C138.126 560.59 138.936 557.9 139.736 555.21C151.646 515.41 164.726 476.19 188.176 446.84C197.146 435.62 206.276 423.85 220.706 417.77C237.886 410.5 258.406 412.28 276.376 416.21C288.626 418.88 300.366 422.45 312.336 424.77C317.966 425.86 323.646 426.67 329.456 427.01C366.446 429.19 405.136 410.65 431.926 382.55C458.746 354.42 475.086 317.97 483.996 280.21" stroke="url(#paint28_linear_979_6382)" stroke-width="0.8669" stroke-miterlimit="10"/>
<path opacity="0.54" d="M-61.0238 772.87C-74.1838 755.93 -68.5238 730.07 -53.9638 714.6C-52.6638 713.22 -51.3038 711.91 -49.8938 710.66C-35.5038 697.98 -16.3738 692.06 2.52621 688.06C6.16621 687.29 9.8162 686.58 13.4762 685.9C30.6562 682.66 48.1362 679.66 64.1362 672.37C69.3062 670.02 74.2062 667.26 78.8362 664.1C110.226 642.67 127.116 604.07 138.186 567.13C138.986 564.45 139.776 561.75 140.556 559.06C152.096 519.21 164.546 479.91 186.966 449.94C195.776 438.16 204.766 425.74 219.446 419.33C236.926 411.66 257.986 413.68 276.286 418.06C288.756 421.04 300.686 424.99 312.876 427.66C318.606 428.91 324.396 429.87 330.336 430.35C368.136 433.36 407.956 414.51 435.266 385.71C462.606 356.88 478.976 319.43 487.896 280.78" stroke="url(#paint29_linear_979_6382)" stroke-width="0.8669" stroke-miterlimit="10"/>
<path opacity="0.54" d="M-58.6476 778.21C-71.8076 761.3 -66.3376 735.5 -51.9576 719.89C-50.6776 718.5 -49.3276 717.17 -47.9376 715.91C-33.6976 703.08 -14.6776 696.93 4.16239 692.71C7.78239 691.9 11.4324 691.15 15.0824 690.42C32.2124 687 49.6424 683.83 65.5824 676.46C70.7324 674.08 75.6224 671.31 80.2424 668.14C111.562 646.59 128.302 608 139.082 570.99C139.862 568.3 140.632 565.6 141.382 562.91C152.552 523.01 164.352 483.6 185.752 453.03C194.402 440.68 203.252 427.63 218.172 420.89C235.952 412.83 257.542 415.08 276.182 419.9C288.882 423.18 300.992 427.52 313.412 430.54C319.242 431.96 325.152 433.07 331.222 433.68C369.832 437.52 410.782 418.37 438.612 388.86C466.472 359.32 482.872 320.88 491.802 281.34" stroke="url(#paint30_linear_979_6382)" stroke-width="0.8669" stroke-miterlimit="10"/>
<path opacity="0.54" d="M-56.2568 783.55C-69.4268 766.66 -64.1268 740.93 -49.9368 725.17C-48.6668 723.76 -47.3368 722.42 -45.9568 721.15C-31.8568 708.17 -12.9568 701.8 5.81321 697.35C9.42321 696.5 13.0532 695.71 16.6932 694.94C33.7632 691.33 51.1432 688 67.0332 680.55C72.1632 678.15 77.0332 675.36 81.6432 672.17C112.893 650.49 129.483 611.91 139.963 574.84C140.723 572.15 141.463 569.45 142.193 566.74C152.993 526.79 164.103 487.25 184.523 456.11C192.993 443.19 201.723 429.5 216.893 422.43C234.973 413.97 257.103 416.46 276.073 421.72C288.993 425.3 301.293 430.03 313.933 433.4C319.873 434.98 325.883 436.25 332.083 436.99C371.503 441.67 413.583 422.2 441.933 391.99C470.313 361.75 486.743 322.31 495.683 281.88" stroke="url(#paint31_linear_979_6382)" stroke-width="0.8669" stroke-miterlimit="10"/>
<path opacity="0.54" d="M-53.8667 788.9C-67.0367 772.04 -61.9267 746.36 -47.9067 730.46C-46.6567 729.04 -45.3467 727.69 -43.9767 726.4C-30.0267 713.27 -11.2367 706.68 7.47329 702.01C11.0733 701.11 14.6933 700.28 18.3133 699.47C35.3233 695.67 52.6633 692.17 68.4933 684.65C73.6033 682.22 78.4633 679.42 83.0533 676.21C114.233 654.41 130.673 615.84 140.853 578.7C141.593 576 142.313 573.3 143.013 570.59C153.443 530.59 163.853 490.92 183.303 459.2C191.583 445.7 200.213 431.39 215.623 423.99C234.003 415.13 256.673 417.86 275.983 423.56C289.133 427.44 301.613 432.57 314.473 436.28C320.513 438.03 326.643 439.45 332.963 440.32C373.193 445.83 416.403 426.06 445.273 395.14C474.173 364.19 490.633 323.76 499.583 282.44" stroke="url(#paint32_linear_979_6382)" stroke-width="0.8669" stroke-miterlimit="10"/>
<path opacity="0.54" d="M-51.4745 794.24C-64.6445 777.4 -59.7245 751.79 -45.8845 735.75C-44.6445 734.32 -43.3545 732.95 -41.9945 731.65C-28.1945 718.38 -9.51449 711.55 9.13551 706.66C12.7255 705.72 16.3255 704.85 19.9355 704C36.8855 700.01 54.1855 696.35 69.9555 688.75C75.0455 686.3 79.8955 683.48 84.4755 680.25C115.586 658.33 131.876 619.77 141.756 582.56C142.476 579.86 143.166 577.15 143.846 574.44C153.906 534.39 163.576 494.58 182.096 462.3C190.176 448.21 198.705 433.28 214.355 425.56C233.035 416.31 256.245 419.27 275.885 425.42C289.255 429.6 301.926 435.12 315.016 439.18C321.166 441.09 327.405 442.67 333.855 443.67C374.896 450.02 419.235 429.93 448.625 398.31C478.045 366.66 494.535 325.23 503.485 283.02" stroke="url(#paint33_linear_979_6382)" stroke-width="0.8669" stroke-miterlimit="10"/>
<path opacity="0.54" d="M-49.0957 799.58C-62.2757 782.77 -57.5258 757.22 -43.8658 741.03C-42.6458 739.58 -41.3657 738.2 -40.0257 736.89C-26.3657 723.47 -7.80574 716.42 10.7843 711.31C14.3543 710.33 17.9543 709.41 21.5443 708.53C38.4342 704.35 55.6842 700.53 71.4142 692.85C76.4842 690.38 81.3142 687.53 85.8842 684.29C116.914 662.24 133.064 623.69 142.644 586.42C143.344 583.71 144.014 581 144.664 578.29C154.354 538.19 163.274 498.22 180.874 465.39C188.744 450.71 197.184 435.17 213.084 427.11C232.064 417.46 255.814 420.65 275.784 427.25C289.384 431.74 302.244 437.64 315.544 442.06C321.794 444.13 328.144 445.87 334.724 447C376.584 454.18 422.044 433.79 451.954 401.45C481.894 369.1 498.414 326.67 507.374 283.57" stroke="url(#paint34_linear_979_6382)" stroke-width="0.8669" stroke-miterlimit="10"/>
<path opacity="0.54" d="M-46.7044 804.92C-59.8844 788.13 -55.3244 762.65 -41.8444 746.31C-40.6444 744.85 -39.3744 743.46 -38.0544 742.13C-24.5444 728.56 -6.09442 721.28 12.4356 715.95C15.9956 714.93 19.5756 713.97 23.1656 713.04C39.9956 708.68 57.2056 704.68 72.8756 696.92C77.9256 694.42 82.7456 691.56 87.2956 688.31C118.256 666.14 134.246 627.6 143.546 590.26C144.216 587.55 144.876 584.83 145.506 582.11C154.826 541.96 162.966 501.84 179.676 468.46C187.316 453.19 195.686 437.03 211.836 428.65C231.116 418.6 255.406 422.03 275.706 429.07C289.536 433.86 302.576 440.15 316.096 444.92C322.456 447.16 328.916 449.05 335.626 450.31C378.296 458.32 424.886 437.62 455.316 404.58C485.776 371.52 502.336 328.1 511.296 284.11" stroke="url(#paint35_linear_979_6382)" stroke-width="0.8669" stroke-miterlimit="10"/>
<path opacity="0.54" d="M-44.315 810.27C-57.505 793.51 -53.125 768.09 -39.825 751.6C-38.635 750.13 -37.385 748.72 -36.075 747.38C-22.705 733.67 -4.37503 726.16 14.085 720.6C17.635 719.53 21.205 718.54 24.775 717.57C41.545 713.02 58.715 708.86 74.325 701.02C79.355 698.5 84.155 695.62 88.695 692.35C119.585 670.06 135.425 631.52 144.425 594.12C145.075 591.4 145.705 588.68 146.315 585.96C155.255 545.76 162.605 505.49 178.445 471.56C185.855 455.7 194.165 438.93 210.545 430.21C230.125 419.77 254.955 423.43 275.595 430.92C289.645 436.01 302.875 442.69 316.625 447.81C323.085 450.21 329.665 452.26 336.495 453.65C379.975 462.5 427.695 441.49 458.645 407.74C489.625 373.98 506.215 329.55 515.185 284.68" stroke="url(#paint36_linear_979_6382)" stroke-width="0.8669" stroke-miterlimit="10"/>
<path opacity="0.54" d="M-41.9243 815.61C-55.1143 798.87 -50.9143 773.51 -37.7943 756.89C-36.6243 755.41 -35.3843 753.98 -34.0943 752.63C-20.8743 738.77 -2.65429 731.03 15.7457 725.26C19.2857 724.15 22.8357 723.11 26.3957 722.1C43.1157 717.36 60.2257 713.04 75.7857 705.12C80.7957 702.57 85.5857 699.68 90.1157 696.39C120.936 673.97 136.626 635.45 145.326 597.98C145.956 595.26 146.566 592.53 147.146 589.81C155.716 549.55 162.246 509.13 177.236 474.65C184.396 458.19 192.656 440.81 209.286 431.77C229.166 420.93 254.536 424.83 275.506 432.76C289.786 438.15 303.196 445.23 317.166 450.69C323.726 453.25 330.416 455.46 337.376 456.98C381.666 466.66 430.506 445.34 461.986 410.89C493.486 376.42 510.106 331 519.086 285.24" stroke="url(#paint37_linear_979_6382)" stroke-width="0.8669" stroke-miterlimit="10"/>
<path opacity="0.54" d="M-39.5473 820.95C-52.7473 804.24 -48.7273 778.94 -35.7873 762.17C-34.6273 760.67 -33.4073 759.24 -32.1373 757.87C-19.0673 743.86 -0.957317 735.9 17.3827 729.9C20.9027 728.75 24.4527 727.67 27.9927 726.62C44.6527 721.69 61.7227 717.21 77.2227 709.21C82.2127 706.64 86.9927 703.73 91.5027 700.42C122.253 677.88 137.793 639.36 146.193 601.83C146.803 599.1 147.383 596.37 147.943 593.65C156.143 553.34 161.823 512.77 175.993 477.74C182.893 460.69 191.113 442.7 207.993 433.32C228.183 422.08 254.083 426.22 275.383 434.59C289.883 440.29 303.483 447.75 317.683 453.56C324.353 456.29 331.153 458.65 338.243 460.3C383.343 470.81 433.313 449.19 465.313 414.03C497.333 378.86 513.983 332.44 522.963 285.79" stroke="url(#paint38_linear_979_6382)" stroke-width="0.8669" stroke-miterlimit="10"/>
<path opacity="0.54" d="M-37.1541 826.29C-50.3541 809.6 -46.5241 784.37 -33.7541 767.45C-32.6141 765.94 -31.4141 764.49 -30.1441 763.11C-17.2141 748.95 0.7759 740.76 19.0559 734.55C22.5659 733.36 26.0959 732.23 29.6259 731.15C46.2259 726.04 63.2559 721.38 78.6959 713.31C83.6659 710.71 88.4259 707.79 92.9259 704.46C123.596 681.8 138.996 643.29 147.096 605.69C147.686 602.96 148.246 600.22 148.776 597.49C156.606 557.13 161.436 516.42 174.786 480.82C181.406 463.17 189.606 444.57 206.726 434.87C227.216 423.24 253.656 427.61 275.296 436.42C290.026 442.42 303.806 450.27 318.226 456.43C324.996 459.32 331.906 461.83 339.126 463.62C385.036 474.97 436.136 453.03 468.656 417.17C501.186 381.29 517.876 333.88 526.866 286.34" stroke="url(#paint39_linear_979_6382)" stroke-width="0.8669" stroke-miterlimit="10"/>
<path opacity="0.54" d="M-34.7652 831.64C-47.9752 814.98 -44.3152 789.81 -31.7352 772.75C-30.6152 771.23 -29.4252 769.76 -28.1752 768.37C-15.3952 754.07 2.4848 745.65 20.6948 739.21C24.1948 737.98 27.7148 736.81 31.2348 735.68C47.7748 730.38 64.7548 725.56 80.1448 717.41C85.0948 714.79 89.8448 711.85 94.3348 708.5C124.935 685.71 140.185 647.22 147.985 609.55C148.555 606.81 149.085 604.07 149.595 601.34C157.055 560.93 161.005 520.08 173.575 483.92C179.915 465.68 188.105 446.46 205.465 436.43C226.255 424.4 253.235 429.01 275.205 438.27C290.155 444.57 304.125 452.81 318.765 459.32C325.645 462.38 332.665 465.04 340.015 466.96C386.735 479.14 438.965 456.9 472.005 420.33C505.055 383.75 521.775 335.34 530.775 286.91" stroke="url(#paint40_linear_979_6382)" stroke-width="0.8669" stroke-miterlimit="10"/>
<path opacity="0.54" d="M-32.3763 836.98C-45.5863 820.34 -42.1163 795.24 -29.7063 778.03C-28.5963 776.49 -27.4263 775.02 -26.1863 773.6C-13.5463 759.15 4.21367 750.5 22.3637 743.84C25.8437 742.56 29.3537 741.36 32.8637 740.19C49.3437 734.7 66.2837 729.72 81.6237 721.49C86.5537 718.85 91.2837 715.88 95.7637 712.53C126.294 689.62 141.394 651.13 148.904 613.4C149.454 610.66 149.964 607.92 150.444 605.18C157.534 564.72 160.594 523.74 172.384 487C178.424 468.16 186.614 448.34 204.224 437.98C225.314 425.55 252.834 430.4 275.134 440.1C290.314 446.7 304.474 455.34 319.334 462.19C326.314 465.41 333.454 468.23 340.924 470.28C388.454 483.3 441.814 460.74 475.384 423.46C508.954 386.18 525.704 336.77 534.714 287.45" stroke="url(#paint41_linear_979_6382)" stroke-width="0.8669" stroke-miterlimit="10"/>
<path opacity="0.54" d="M-29.9957 842.32C-43.2157 825.71 -39.9157 800.66 -27.6957 783.31C-26.6057 781.76 -25.4457 780.27 -24.2257 778.84C-11.7357 764.24 5.91432 755.37 24.0043 748.49C27.4743 747.17 30.9743 745.92 34.4643 744.72C50.8843 739.04 67.7843 733.89 83.0643 725.59C87.9743 722.92 92.6943 719.94 97.1543 716.57C127.614 693.54 142.564 655.06 149.774 617.26C150.294 614.51 150.784 611.77 151.244 609.02C157.964 568.51 160.124 527.41 171.144 490.09C176.884 470.66 185.074 450.22 202.924 439.53C224.314 426.71 252.374 431.79 275.004 441.93C290.404 448.83 304.754 457.86 319.834 465.06C326.914 468.44 334.164 471.42 341.764 473.6C390.104 487.45 444.594 464.58 478.684 426.6C512.774 388.61 529.554 338.21 538.574 288" stroke="url(#paint42_linear_979_6382)" stroke-width="0.8669" stroke-miterlimit="10"/>
<path opacity="0.54" d="M-27.6062 847.66C-40.8262 831.07 -37.7162 806.09 -25.6762 788.59C-24.5962 787.03 -23.4562 785.52 -22.2562 784.08C-9.90616 769.34 7.62385 760.24 25.6538 753.13C29.1138 751.77 32.5938 750.48 36.0738 749.23C52.4338 743.36 69.2838 738.05 84.5138 729.67C89.4038 726.98 94.1139 723.98 98.5639 720.59C128.954 697.44 143.744 658.96 150.664 621.1C151.164 618.35 151.634 615.6 152.064 612.85C158.414 572.29 159.654 531.08 169.924 493.16C175.344 473.14 183.564 452.09 201.654 441.07C223.344 427.85 251.944 433.16 274.914 443.76C290.544 450.97 305.074 460.38 320.384 467.93C327.574 471.48 334.934 474.61 342.664 476.92C391.814 491.6 447.434 468.43 482.044 429.74C516.654 391.05 533.464 339.65 542.494 288.55" stroke="url(#paint43_linear_979_6382)" stroke-width="0.8669" stroke-miterlimit="10"/>
<path opacity="0.54" d="M-25.2155 853.01C-38.4455 836.45 -35.5155 811.53 -23.6455 793.89C-22.5855 792.32 -21.4555 790.8 -20.2655 789.34C-8.06547 774.45 9.35453 765.12 27.3245 757.8C30.7745 756.4 34.2445 755.06 37.7045 753.78C54.0145 747.73 70.8145 742.25 85.9845 733.79C90.8545 731.07 95.5445 728.06 99.9845 724.65C130.295 701.37 144.945 662.91 151.565 624.98C152.045 622.22 152.485 619.47 152.895 616.72C158.875 576.11 159.185 534.8 168.715 496.28C173.815 475.67 182.055 454 200.395 442.65C222.385 429.03 251.525 434.58 274.825 445.62C290.685 453.13 305.395 462.93 320.925 470.83C328.215 474.54 335.695 477.83 343.545 480.27C393.505 495.79 450.255 472.3 485.385 432.91C520.515 393.51 537.355 341.12 546.385 289.13" stroke="url(#paint44_linear_979_6382)" stroke-width="0.8669" stroke-miterlimit="10"/>
<path opacity="0.54" d="M-22.8372 858.35C-36.0672 841.81 -33.3172 816.96 -21.6372 799.17C-20.5972 797.58 -19.4772 796.05 -18.3072 794.58C-6.25718 779.54 11.0528 769.99 28.9528 762.44C32.3828 760.99 35.8428 759.62 39.3028 758.29C55.5528 752.05 72.3128 746.4 87.4228 737.87C92.2728 735.13 96.9528 732.1 101.373 728.67C131.613 705.27 146.113 666.81 152.433 628.82C152.893 626.06 153.313 623.3 153.693 620.55C159.303 579.89 158.673 538.49 167.473 499.35C172.233 478.16 180.513 455.87 199.093 444.19C221.383 430.18 251.063 435.96 274.693 447.44C290.773 455.25 305.673 465.44 321.423 473.7C328.823 477.57 336.403 481.02 344.383 483.59C395.153 499.94 453.033 476.15 488.683 436.05C524.333 395.95 541.203 342.56 550.243 289.68" stroke="url(#paint45_linear_979_6382)" stroke-width="0.8669" stroke-miterlimit="10"/>
<path opacity="0.54" d="M-20.4466 863.69C-33.6766 847.18 -31.1166 822.39 -19.6066 804.45C-18.5766 802.85 -17.4866 801.3 -16.3166 799.82C-4.40663 784.63 12.7834 774.85 30.6234 767.09C34.0434 765.6 37.4934 764.19 40.9334 762.82C57.1234 756.39 73.8334 750.58 88.8934 741.97C93.7334 739.21 98.3834 736.16 102.803 732.72C132.973 709.2 147.323 670.75 153.353 632.69C153.793 629.92 154.183 627.16 154.543 624.4C159.783 583.68 158.213 542.21 166.283 502.45C170.703 480.68 179.023 457.76 197.853 445.75C220.443 431.34 250.663 437.36 274.623 449.28C290.933 457.39 306.013 467.98 321.993 476.58C329.493 480.62 337.193 484.22 345.303 486.92C396.883 504.1 455.893 480 492.063 439.2C528.233 398.39 545.143 344.01 554.183 290.24" stroke="url(#paint46_linear_979_6382)" stroke-width="0.8669" stroke-miterlimit="10"/>
<path opacity="0.54" d="M-18.0575 869.03C-32.4775 851.07 -28.3675 823.34 -14.3475 805.06C-0.327538 786.79 21.2325 776.08 42.5425 767.34C63.8525 758.6 86.1025 750.97 104.212 736.75C136.492 711.39 150.492 669 155.352 628.24C160.222 587.47 157.692 545.93 165.052 505.54C169.122 483.19 177.502 459.65 196.572 447.31C219.462 432.5 250.222 438.76 274.522 451.13C298.822 463.5 320.392 481.39 346.172 490.26C398.562 508.28 458.702 483.87 495.392 442.36C532.082 400.85 549.022 345.47 558.072 290.81" stroke="url(#paint47_linear_979_6382)" stroke-width="0.8669" stroke-miterlimit="10"/>
<defs>
<linearGradient id="paint0_linear_979_6382" x1="446.693" y1="-212.322" x2="-89.1383" y2="263.105" gradientUnits="userSpaceOnUse">
<stop stop-color="#7ED4EF"/>
<stop offset="0.2294" stop-color="#66BFE6"/>
<stop offset="0.711" stop-color="#298BD0"/>
<stop offset="1" stop-color="#0169C2"/>
</linearGradient>
<linearGradient id="paint1_linear_979_6382" x1="450.462" y1="-211.915" x2="-88.5918" y2="266.372" gradientUnits="userSpaceOnUse">
<stop stop-color="#7ED4EF"/>
<stop offset="0.2294" stop-color="#66BFE6"/>
<stop offset="0.711" stop-color="#298BD0"/>
<stop offset="1" stop-color="#0169C2"/>
</linearGradient>
<linearGradient id="paint2_linear_979_6382" x1="454.18" y1="-211.565" x2="-88.0969" y2="269.581" gradientUnits="userSpaceOnUse">
<stop stop-color="#7ED4EF"/>
<stop offset="0.2294" stop-color="#66BFE6"/>
<stop offset="0.711" stop-color="#298BD0"/>
<stop offset="1" stop-color="#0169C2"/>
</linearGradient>
<linearGradient id="paint3_linear_979_6382" x1="457.862" y1="-211.255" x2="-87.6378" y2="272.751" gradientUnits="userSpaceOnUse">
<stop stop-color="#7ED4EF"/>
<stop offset="0.2294" stop-color="#66BFE6"/>
<stop offset="0.711" stop-color="#298BD0"/>
<stop offset="1" stop-color="#0169C2"/>
</linearGradient>
<linearGradient id="paint4_linear_979_6382" x1="461.519" y1="-210.974" x2="-87.2039" y2="275.891" gradientUnits="userSpaceOnUse">
<stop stop-color="#7ED4EF"/>
<stop offset="0.2294" stop-color="#66BFE6"/>
<stop offset="0.711" stop-color="#298BD0"/>
<stop offset="1" stop-color="#0169C2"/>
</linearGradient>
<linearGradient id="paint5_linear_979_6382" x1="465.156" y1="-210.715" x2="-86.7891" y2="279.01" gradientUnits="userSpaceOnUse">
<stop stop-color="#7ED4EF"/>
<stop offset="0.2294" stop-color="#66BFE6"/>
<stop offset="0.711" stop-color="#298BD0"/>
<stop offset="1" stop-color="#0169C2"/>
</linearGradient>
<linearGradient id="paint6_linear_979_6382" x1="468.774" y1="-210.472" x2="-86.3933" y2="282.112" gradientUnits="userSpaceOnUse">
<stop stop-color="#7ED4EF"/>
<stop offset="0.2294" stop-color="#66BFE6"/>
<stop offset="0.711" stop-color="#298BD0"/>
<stop offset="1" stop-color="#0169C2"/>
</linearGradient>
<linearGradient id="paint7_linear_979_6382" x1="472.386" y1="-210.242" x2="-86.0044" y2="285.202" gradientUnits="userSpaceOnUse">
<stop stop-color="#7ED4EF"/>
<stop offset="0.2294" stop-color="#66BFE6"/>
<stop offset="0.711" stop-color="#298BD0"/>
<stop offset="1" stop-color="#0169C2"/>
</linearGradient>
<linearGradient id="paint8_linear_979_6382" x1="475.987" y1="-210.022" x2="-85.6255" y2="288.28" gradientUnits="userSpaceOnUse">
<stop stop-color="#7ED4EF"/>
<stop offset="0.2294" stop-color="#66BFE6"/>
<stop offset="0.711" stop-color="#298BD0"/>
<stop offset="1" stop-color="#0169C2"/>
</linearGradient>
<linearGradient id="paint9_linear_979_6382" x1="479.583" y1="-209.811" x2="-85.2522" y2="291.351" gradientUnits="userSpaceOnUse">
<stop stop-color="#7ED4EF"/>
<stop offset="0.2294" stop-color="#66BFE6"/>
<stop offset="0.711" stop-color="#298BD0"/>
<stop offset="1" stop-color="#0169C2"/>
</linearGradient>
<linearGradient id="paint10_linear_979_6382" x1="483.169" y1="-209.607" x2="-84.8884" y2="294.414" gradientUnits="userSpaceOnUse">
<stop stop-color="#7ED4EF"/>
<stop offset="0.2294" stop-color="#66BFE6"/>
<stop offset="0.711" stop-color="#298BD0"/>
<stop offset="1" stop-color="#0169C2"/>
</linearGradient>
<linearGradient id="paint11_linear_979_6382" x1="486.752" y1="-209.409" x2="-84.5274" y2="297.471" gradientUnits="userSpaceOnUse">
<stop stop-color="#7ED4EF"/>
<stop offset="0.2294" stop-color="#66BFE6"/>
<stop offset="0.711" stop-color="#298BD0"/>
<stop offset="1" stop-color="#0169C2"/>
</linearGradient>
<linearGradient id="paint12_linear_979_6382" x1="490.329" y1="-209.215" x2="-84.1726" y2="300.524" gradientUnits="userSpaceOnUse">
<stop stop-color="#7ED4EF"/>
<stop offset="0.2294" stop-color="#66BFE6"/>
<stop offset="0.711" stop-color="#298BD0"/>
<stop offset="1" stop-color="#0169C2"/>
</linearGradient>
<linearGradient id="paint13_linear_979_6382" x1="493.904" y1="-209.025" x2="-83.8201" y2="303.572" gradientUnits="userSpaceOnUse">
<stop stop-color="#7ED4EF"/>
<stop offset="0.2294" stop-color="#66BFE6"/>
<stop offset="0.711" stop-color="#298BD0"/>
<stop offset="1" stop-color="#0169C2"/>
</linearGradient>
<linearGradient id="paint14_linear_979_6382" x1="497.472" y1="-208.84" x2="-83.4746" y2="306.617" gradientUnits="userSpaceOnUse">
<stop stop-color="#7ED4EF"/>
<stop offset="0.2294" stop-color="#66BFE6"/>
<stop offset="0.711" stop-color="#298BD0"/>
<stop offset="1" stop-color="#0169C2"/>
</linearGradient>
<linearGradient id="paint15_linear_979_6382" x1="501.043" y1="-208.657" x2="-83.1256" y2="309.658" gradientUnits="userSpaceOnUse">
<stop stop-color="#7ED4EF"/>
<stop offset="0.2294" stop-color="#66BFE6"/>
<stop offset="0.711" stop-color="#298BD0"/>
<stop offset="1" stop-color="#0169C2"/>
</linearGradient>
<linearGradient id="paint16_linear_979_6382" x1="504.608" y1="-208.477" x2="-82.7832" y2="312.698" gradientUnits="userSpaceOnUse">
<stop stop-color="#7ED4EF"/>
<stop offset="0.2294" stop-color="#66BFE6"/>
<stop offset="0.711" stop-color="#298BD0"/>
<stop offset="1" stop-color="#0169C2"/>
</linearGradient>
<linearGradient id="paint17_linear_979_6382" x1="508.17" y1="-208.299" x2="-82.4429" y2="315.734" gradientUnits="userSpaceOnUse">
<stop stop-color="#7ED4EF"/>
<stop offset="0.2294" stop-color="#66BFE6"/>
<stop offset="0.711" stop-color="#298BD0"/>
<stop offset="1" stop-color="#0169C2"/>
</linearGradient>
<linearGradient id="paint18_linear_979_6382" x1="511.732" y1="-208.124" x2="-82.1028" y2="318.769" gradientUnits="userSpaceOnUse">
<stop stop-color="#7ED4EF"/>
<stop offset="0.2294" stop-color="#66BFE6"/>
<stop offset="0.711" stop-color="#298BD0"/>
<stop offset="1" stop-color="#0169C2"/>
</linearGradient>
<linearGradient id="paint19_linear_979_6382" x1="515.292" y1="-207.95" x2="-81.7654" y2="321.801" gradientUnits="userSpaceOnUse">
<stop stop-color="#7ED4EF"/>
<stop offset="0.2294" stop-color="#66BFE6"/>
<stop offset="0.711" stop-color="#298BD0"/>
<stop offset="1" stop-color="#0169C2"/>
</linearGradient>
<linearGradient id="paint20_linear_979_6382" x1="518.851" y1="-207.778" x2="-81.4284" y2="324.832" gradientUnits="userSpaceOnUse">
<stop stop-color="#7ED4EF"/>
<stop offset="0.2294" stop-color="#66BFE6"/>
<stop offset="0.711" stop-color="#298BD0"/>
<stop offset="1" stop-color="#0169C2"/>
</linearGradient>
<linearGradient id="paint21_linear_979_6382" x1="522.406" y1="-207.607" x2="-81.095" y2="327.862" gradientUnits="userSpaceOnUse">
<stop stop-color="#7ED4EF"/>
<stop offset="0.2294" stop-color="#66BFE6"/>
<stop offset="0.711" stop-color="#298BD0"/>
<stop offset="1" stop-color="#0169C2"/>
</linearGradient>
<linearGradient id="paint22_linear_979_6382" x1="525.962" y1="-207.437" x2="-80.7605" y2="330.89" gradientUnits="userSpaceOnUse">
<stop stop-color="#7ED4EF"/>
<stop offset="0.2294" stop-color="#66BFE6"/>
<stop offset="0.711" stop-color="#298BD0"/>
<stop offset="1" stop-color="#0169C2"/>
</linearGradient>
<linearGradient id="paint23_linear_979_6382" x1="529.516" y1="-207.269" x2="-80.4285" y2="333.917" gradientUnits="userSpaceOnUse">
<stop stop-color="#7ED4EF"/>
<stop offset="0.2294" stop-color="#66BFE6"/>
<stop offset="0.711" stop-color="#298BD0"/>
<stop offset="1" stop-color="#0169C2"/>
</linearGradient>
<linearGradient id="paint24_linear_979_6382" x1="458.693" y1="266.678" x2="-77.1383" y2="742.105" gradientUnits="userSpaceOnUse">
<stop stop-color="#7ED4EF"/>
<stop offset="0.2294" stop-color="#66BFE6"/>
<stop offset="0.711" stop-color="#298BD0"/>
<stop offset="1" stop-color="#0169C2"/>
</linearGradient>
<linearGradient id="paint25_linear_979_6382" x1="462.462" y1="267.085" x2="-76.5918" y2="745.372" gradientUnits="userSpaceOnUse">
<stop stop-color="#7ED4EF"/>
<stop offset="0.2294" stop-color="#66BFE6"/>
<stop offset="0.711" stop-color="#298BD0"/>
<stop offset="1" stop-color="#0169C2"/>
</linearGradient>
<linearGradient id="paint26_linear_979_6382" x1="466.18" y1="267.435" x2="-76.0969" y2="748.581" gradientUnits="userSpaceOnUse">
<stop stop-color="#7ED4EF"/>
<stop offset="0.2294" stop-color="#66BFE6"/>
<stop offset="0.711" stop-color="#298BD0"/>
<stop offset="1" stop-color="#0169C2"/>
</linearGradient>
<linearGradient id="paint27_linear_979_6382" x1="469.862" y1="267.745" x2="-75.6378" y2="751.751" gradientUnits="userSpaceOnUse">
<stop stop-color="#7ED4EF"/>
<stop offset="0.2294" stop-color="#66BFE6"/>
<stop offset="0.711" stop-color="#298BD0"/>
<stop offset="1" stop-color="#0169C2"/>
</linearGradient>
<linearGradient id="paint28_linear_979_6382" x1="473.519" y1="268.026" x2="-75.2039" y2="754.891" gradientUnits="userSpaceOnUse">
<stop stop-color="#7ED4EF"/>
<stop offset="0.2294" stop-color="#66BFE6"/>
<stop offset="0.711" stop-color="#298BD0"/>
<stop offset="1" stop-color="#0169C2"/>
</linearGradient>
<linearGradient id="paint29_linear_979_6382" x1="477.156" y1="268.285" x2="-74.7891" y2="758.01" gradientUnits="userSpaceOnUse">
<stop stop-color="#7ED4EF"/>
<stop offset="0.2294" stop-color="#66BFE6"/>
<stop offset="0.711" stop-color="#298BD0"/>
<stop offset="1" stop-color="#0169C2"/>
</linearGradient>
<linearGradient id="paint30_linear_979_6382" x1="480.774" y1="268.528" x2="-74.3933" y2="761.112" gradientUnits="userSpaceOnUse">
<stop stop-color="#7ED4EF"/>
<stop offset="0.2294" stop-color="#66BFE6"/>
<stop offset="0.711" stop-color="#298BD0"/>
<stop offset="1" stop-color="#0169C2"/>
</linearGradient>
<linearGradient id="paint31_linear_979_6382" x1="484.386" y1="268.758" x2="-74.0044" y2="764.202" gradientUnits="userSpaceOnUse">
<stop stop-color="#7ED4EF"/>
<stop offset="0.2294" stop-color="#66BFE6"/>
<stop offset="0.711" stop-color="#298BD0"/>
<stop offset="1" stop-color="#0169C2"/>
</linearGradient>
<linearGradient id="paint32_linear_979_6382" x1="487.987" y1="268.978" x2="-73.6255" y2="767.28" gradientUnits="userSpaceOnUse">
<stop stop-color="#7ED4EF"/>
<stop offset="0.2294" stop-color="#66BFE6"/>
<stop offset="0.711" stop-color="#298BD0"/>
<stop offset="1" stop-color="#0169C2"/>
</linearGradient>
<linearGradient id="paint33_linear_979_6382" x1="491.583" y1="269.189" x2="-73.2522" y2="770.351" gradientUnits="userSpaceOnUse">
<stop stop-color="#7ED4EF"/>
<stop offset="0.2294" stop-color="#66BFE6"/>
<stop offset="0.711" stop-color="#298BD0"/>
<stop offset="1" stop-color="#0169C2"/>
</linearGradient>
<linearGradient id="paint34_linear_979_6382" x1="495.169" y1="269.393" x2="-72.8884" y2="773.414" gradientUnits="userSpaceOnUse">
<stop stop-color="#7ED4EF"/>
<stop offset="0.2294" stop-color="#66BFE6"/>
<stop offset="0.711" stop-color="#298BD0"/>
<stop offset="1" stop-color="#0169C2"/>
</linearGradient>
<linearGradient id="paint35_linear_979_6382" x1="498.752" y1="269.591" x2="-72.5274" y2="776.471" gradientUnits="userSpaceOnUse">
<stop stop-color="#7ED4EF"/>
<stop offset="0.2294" stop-color="#66BFE6"/>
<stop offset="0.711" stop-color="#298BD0"/>
<stop offset="1" stop-color="#0169C2"/>
</linearGradient>
<linearGradient id="paint36_linear_979_6382" x1="502.329" y1="269.785" x2="-72.1726" y2="779.524" gradientUnits="userSpaceOnUse">
<stop stop-color="#7ED4EF"/>
<stop offset="0.2294" stop-color="#66BFE6"/>
<stop offset="0.711" stop-color="#298BD0"/>
<stop offset="1" stop-color="#0169C2"/>
</linearGradient>
<linearGradient id="paint37_linear_979_6382" x1="505.904" y1="269.975" x2="-71.8201" y2="782.572" gradientUnits="userSpaceOnUse">
<stop stop-color="#7ED4EF"/>
<stop offset="0.2294" stop-color="#66BFE6"/>
<stop offset="0.711" stop-color="#298BD0"/>
<stop offset="1" stop-color="#0169C2"/>
</linearGradient>
<linearGradient id="paint38_linear_979_6382" x1="509.472" y1="270.16" x2="-71.4746" y2="785.617" gradientUnits="userSpaceOnUse">
<stop stop-color="#7ED4EF"/>
<stop offset="0.2294" stop-color="#66BFE6"/>
<stop offset="0.711" stop-color="#298BD0"/>
<stop offset="1" stop-color="#0169C2"/>
</linearGradient>
<linearGradient id="paint39_linear_979_6382" x1="513.043" y1="270.343" x2="-71.1256" y2="788.658" gradientUnits="userSpaceOnUse">
<stop stop-color="#7ED4EF"/>
<stop offset="0.2294" stop-color="#66BFE6"/>
<stop offset="0.711" stop-color="#298BD0"/>
<stop offset="1" stop-color="#0169C2"/>
</linearGradient>
<linearGradient id="paint40_linear_979_6382" x1="516.608" y1="270.523" x2="-70.7832" y2="791.698" gradientUnits="userSpaceOnUse">
<stop stop-color="#7ED4EF"/>
<stop offset="0.2294" stop-color="#66BFE6"/>
<stop offset="0.711" stop-color="#298BD0"/>
<stop offset="1" stop-color="#0169C2"/>
</linearGradient>
<linearGradient id="paint41_linear_979_6382" x1="520.17" y1="270.701" x2="-70.4429" y2="794.734" gradientUnits="userSpaceOnUse">
<stop stop-color="#7ED4EF"/>
<stop offset="0.2294" stop-color="#66BFE6"/>
<stop offset="0.711" stop-color="#298BD0"/>
<stop offset="1" stop-color="#0169C2"/>
</linearGradient>
<linearGradient id="paint42_linear_979_6382" x1="523.732" y1="270.876" x2="-70.1028" y2="797.769" gradientUnits="userSpaceOnUse">
<stop stop-color="#7ED4EF"/>
<stop offset="0.2294" stop-color="#66BFE6"/>
<stop offset="0.711" stop-color="#298BD0"/>
<stop offset="1" stop-color="#0169C2"/>
</linearGradient>
<linearGradient id="paint43_linear_979_6382" x1="527.292" y1="271.05" x2="-69.7654" y2="800.801" gradientUnits="userSpaceOnUse">
<stop stop-color="#7ED4EF"/>
<stop offset="0.2294" stop-color="#66BFE6"/>
<stop offset="0.711" stop-color="#298BD0"/>
<stop offset="1" stop-color="#0169C2"/>
</linearGradient>
<linearGradient id="paint44_linear_979_6382" x1="530.851" y1="271.222" x2="-69.4284" y2="803.832" gradientUnits="userSpaceOnUse">
<stop stop-color="#7ED4EF"/>
<stop offset="0.2294" stop-color="#66BFE6"/>
<stop offset="0.711" stop-color="#298BD0"/>
<stop offset="1" stop-color="#0169C2"/>
</linearGradient>
<linearGradient id="paint45_linear_979_6382" x1="534.406" y1="271.393" x2="-69.095" y2="806.862" gradientUnits="userSpaceOnUse">
<stop stop-color="#7ED4EF"/>
<stop offset="0.2294" stop-color="#66BFE6"/>
<stop offset="0.711" stop-color="#298BD0"/>
<stop offset="1" stop-color="#0169C2"/>
</linearGradient>
<linearGradient id="paint46_linear_979_6382" x1="537.962" y1="271.563" x2="-68.7605" y2="809.89" gradientUnits="userSpaceOnUse">
<stop stop-color="#7ED4EF"/>
<stop offset="0.2294" stop-color="#66BFE6"/>
<stop offset="0.711" stop-color="#298BD0"/>
<stop offset="1" stop-color="#0169C2"/>
</linearGradient>
<linearGradient id="paint47_linear_979_6382" x1="541.516" y1="271.731" x2="-68.4285" y2="812.917" gradientUnits="userSpaceOnUse">
<stop stop-color="#7ED4EF"/>
<stop offset="0.2294" stop-color="#66BFE6"/>
<stop offset="0.711" stop-color="#298BD0"/>
<stop offset="1" stop-color="#0169C2"/>
</linearGradient>
</defs>
</svg>
