<svg width="47" height="46" viewBox="0 0 47 46" fill="none" xmlns="http://www.w3.org/2000/svg">
<rect x="23.4453" width="24" height="24" rx="5" transform="rotate(10.8612 23.4453 0)" fill="#FF9F31"/>
<g filter="url(#filter0_d_607_6287)">
<rect x="3.92188" y="17" width="24" height="24" rx="5" fill="url(#paint0_linear_607_6287)" shape-rendering="crispEdges"/>
<path d="M19.8924 25.4683C19.8924 27.6711 18.1262 29.4373 15.9219 29.4373C13.7183 29.4373 11.9514 27.6711 11.9514 25.4683C11.9514 23.2655 13.7183 21.5 15.9219 21.5C18.1262 21.5 19.8924 23.2655 19.8924 25.4683Z" fill="url(#paint1_linear_607_6287)"/>
<path d="M15.9219 36.5C12.6687 36.5 9.92188 35.9712 9.92188 33.9312C9.92188 31.8905 12.6859 31.3804 15.9219 31.3804C19.1758 31.3804 21.9219 31.9092 21.9219 33.9492C21.9219 35.99 19.1578 36.5 15.9219 36.5Z" fill="url(#paint2_linear_607_6287)"/>
</g>
<defs>
<filter id="filter0_d_607_6287" x="0.921875" y="12" width="34" height="34" filterUnits="userSpaceOnUse" color-interpolation-filters="sRGB">
<feFlood flood-opacity="0" result="BackgroundImageFix"/>
<feColorMatrix in="SourceAlpha" type="matrix" values="0 0 0 0 0 0 0 0 0 0 0 0 0 0 0 0 0 0 127 0" result="hardAlpha"/>
<feOffset dx="2"/>
<feGaussianBlur stdDeviation="2.5"/>
<feComposite in2="hardAlpha" operator="out"/>
<feColorMatrix type="matrix" values="0 0 0 0 0.929412 0 0 0 0 0.694118 0 0 0 0 0.32549 0 0 0 1 0"/>
<feBlend mode="normal" in2="BackgroundImageFix" result="effect1_dropShadow_607_6287"/>
<feBlend mode="normal" in="SourceGraphic" in2="effect1_dropShadow_607_6287" result="shape"/>
</filter>
<linearGradient id="paint0_linear_607_6287" x1="6.92188" y1="39.2222" x2="26.8903" y2="17.7562" gradientUnits="userSpaceOnUse">
<stop stop-color="#F1BF7B"/>
<stop offset="1" stop-color="white" stop-opacity="0.4"/>
</linearGradient>
<linearGradient id="paint1_linear_607_6287" x1="15.9219" y1="21.5" x2="15.9219" y2="36.5" gradientUnits="userSpaceOnUse">
<stop stop-color="white" stop-opacity="0.6"/>
<stop offset="1" stop-color="white" stop-opacity="0.4"/>
</linearGradient>
<linearGradient id="paint2_linear_607_6287" x1="15.9219" y1="21.5" x2="15.9219" y2="36.5" gradientUnits="userSpaceOnUse">
<stop stop-color="white" stop-opacity="0.6"/>
<stop offset="1" stop-color="white" stop-opacity="0.4"/>
</linearGradient>
</defs>
</svg>
