<svg width="1440" height="1567" viewBox="0 0 1440 1567" fill="none" xmlns="http://www.w3.org/2000/svg">
<path opacity="0.54" d="M1759.07 1406.05C1799.46 1353.58 1779.28 1273.05 1731.73 1227.71C1727.48 1223.65 1723.05 1219.83 1718.5 1216.23C1671.99 1179.48 1611.4 1164.77 1552.31 1155.85C1540.92 1154.13 1529.48 1152.59 1518.04 1151.08C1464.27 1144.01 1409.83 1137.34 1359.78 1116.08C1343.57 1109.22 1328.28 1101.01 1313.82 1091.56C1216.16 1027.52 1161.9 908.666 1123.3 796.055C1120.5 787.872 1117.7 779.66 1114.93 771.416C1073.74 649.638 1026.53 529.213 940.831 447.361C911.578 419.431 881.495 391.47 840.123 376.829C790.969 359.357 734.494 361.941 683.34 368.554C648.459 373.045 614.623 379.228 580.541 382.089C564.515 383.411 548.428 383.996 532.125 383.442C428.31 379.874 323.204 326.659 247.196 248.929C171.097 171.076 121.235 71.1987 93.8892 -34" stroke="url(#paint0_linear_1050_6353)" stroke-width="2.66657" stroke-miterlimit="10"/>
<path opacity="0.54" d="M1751.72 1422.48C1792.14 1370.06 1772.48 1289.75 1725.51 1243.95C1721.3 1239.86 1716.93 1235.98 1712.44 1232.35C1666.39 1195.16 1606.13 1179.75 1547.23 1170.16C1535.88 1168.31 1524.47 1166.65 1513.05 1165.02C1459.47 1157.36 1405.18 1150.19 1355.29 1128.69C1339.14 1121.74 1323.88 1113.5 1309.49 1103.99C1212.04 1039.58 1158.24 920.755 1120.53 807.928C1117.79 799.746 1115.08 791.502 1112.38 783.259C1072.33 661.327 1026.74 540.994 944.55 456.897C915.698 427.367 886.137 397.284 843.996 381.627C793.919 362.925 735.783 366.217 683.584 374.214C647.995 379.659 613.605 387.01 578.816 390.947C562.482 392.793 546.026 393.839 529.323 393.685C423.017 392.701 314.435 338.533 236.828 258.619C159.128 178.612 109.144 75.659 81.7981 -32.2773" stroke="url(#paint1_linear_1050_6353)" stroke-width="2.66657" stroke-miterlimit="10"/>
<path opacity="0.54" d="M1744.38 1438.91C1784.8 1386.58 1765.72 1306.42 1719.31 1260.22C1715.16 1256.1 1710.85 1252.19 1706.36 1248.5C1660.74 1210.85 1600.85 1194.73 1542.13 1184.46C1530.84 1182.49 1519.46 1180.71 1508.08 1178.95C1454.68 1170.74 1400.51 1163.02 1350.8 1141.3C1334.72 1134.29 1319.52 1125.99 1305.16 1116.42C1207.93 1051.64 1154.59 932.844 1117.8 819.802C1115.12 811.589 1112.48 803.345 1109.86 795.102C1070.95 673.016 1027.06 552.653 948.312 466.402C919.859 435.242 890.822 403.098 847.912 386.426C796.912 366.494 737.115 370.524 683.9 379.905C647.604 386.273 612.66 394.824 577.194 399.838C560.522 402.175 543.758 403.713 526.656 403.96C417.858 405.528 305.8 350.407 226.593 268.309C147.295 186.118 97.2174 80.1198 69.8412 -30.5542" stroke="url(#paint2_linear_1050_6353)" stroke-width="2.66657" stroke-miterlimit="10"/>
<path opacity="0.54" d="M1737.05 1455.33C1777.5 1403.07 1758.98 1323.12 1713.09 1276.46C1709 1272.28 1704.72 1268.34 1700.29 1264.62C1655.14 1226.51 1595.59 1209.71 1537.08 1198.76C1525.82 1196.67 1514.47 1194.73 1503.15 1192.86C1449.94 1184.06 1395.89 1175.85 1346.34 1153.88C1330.31 1146.78 1315.15 1138.44 1300.82 1128.81C1203.8 1063.63 1150.95 944.871 1115.06 831.644C1112.44 823.431 1109.89 815.157 1107.34 806.882C1069.56 684.643 1027.45 564.187 952.06 475.876C924.038 443.055 895.493 408.85 851.845 391.163C799.922 370.031 738.464 374.768 684.234 385.503C647.261 392.793 611.733 402.544 575.59 408.635C558.611 411.495 541.478 413.495 523.975 414.141C412.686 418.262 297.152 362.187 216.346 277.936C135.448 193.592 85.2782 84.518 57.8712 -28.8936" stroke="url(#paint3_linear_1050_6353)" stroke-width="2.66657" stroke-miterlimit="10"/>
<path opacity="0.54" d="M1729.7 1471.79C1770.15 1419.62 1752.18 1339.86 1706.87 1292.73C1702.81 1288.52 1698.6 1284.52 1694.2 1280.74C1649.5 1242.16 1590.29 1224.66 1531.97 1213.03C1520.74 1210.79 1509.46 1208.76 1498.17 1206.76C1445.14 1197.38 1391.25 1188.67 1341.84 1166.46C1325.88 1159.3 1310.75 1150.87 1296.47 1141.21C1199.67 1075.66 1147.29 956.928 1112.31 843.486C1109.76 835.242 1107.27 826.968 1104.81 818.693C1068.17 696.269 1027.94 575.629 955.809 485.349C928.217 450.836 900.133 414.632 855.747 395.93C802.901 373.567 739.782 379.043 684.507 391.131C646.826 399.344 610.714 410.326 573.894 417.462C556.576 420.815 539.105 423.306 521.233 424.352C407.453 431.058 288.443 374.029 206.037 287.594C123.539 201.066 73.2776 88.9466 45.8706 -27.2026" stroke="url(#paint4_linear_1050_6353)" stroke-width="2.66657" stroke-miterlimit="10"/>
<path opacity="0.54" d="M1722.35 1488.21C1762.83 1436.1 1745.42 1356.56 1700.63 1308.97C1696.63 1304.73 1692.45 1300.7 1688.11 1296.85C1643.85 1257.85 1585 1239.64 1526.87 1227.34C1515.67 1224.97 1504.44 1222.79 1493.18 1220.69C1440.34 1210.73 1386.57 1201.5 1337.35 1179.08C1321.45 1171.85 1306.38 1163.36 1292.14 1153.64C1195.58 1087.72 1143.63 968.986 1109.58 855.359C1107.12 847.115 1104.69 838.81 1102.29 830.536C1066.79 707.958 1028.5 587.071 959.532 494.884C932.432 458.649 904.779 420.445 859.624 400.728C805.855 377.135 741.075 383.349 684.785 396.822C646.427 405.988 609.731 418.138 572.234 426.351C554.609 430.196 536.799 433.149 518.528 434.625C402.255 443.884 279.77 385.902 195.765 297.313C111.667 208.633 61.3132 93.4371 33.8754 -25.4497" stroke="url(#paint5_linear_1050_6353)" stroke-width="2.66657" stroke-miterlimit="10"/>
<path opacity="0.54" d="M1715.03 1504.64C1755.51 1452.62 1738.68 1373.26 1694.45 1325.25C1690.51 1320.97 1686.36 1316.88 1682.09 1313C1638.28 1273.54 1579.78 1254.62 1521.83 1241.64C1510.69 1239.15 1499.46 1236.84 1488.24 1234.6C1435.55 1224.08 1381.93 1214.33 1332.9 1191.66C1317.06 1184.34 1302.02 1175.81 1287.81 1166.06C1191.47 1099.78 1139.97 981.074 1106.81 867.232C1104.42 858.958 1102.05 850.653 1099.74 842.378C1065.38 719.646 1029.08 598.422 963.258 504.389C936.651 466.4 909.429 426.259 863.535 405.527C808.844 380.734 742.433 387.655 685.097 402.481C646.032 412.571 608.782 425.921 570.578 435.21C552.645 439.578 534.466 442.992 515.795 444.869C397.031 456.68 271.069 397.775 185.465 307.003C99.7679 216.138 49.3217 97.8974 21.8531 -23.7271" stroke="url(#paint6_linear_1050_6353)" stroke-width="2.66657" stroke-miterlimit="10"/>
<path opacity="0.54" d="M1707.68 1521.06C1748.19 1469.11 1731.89 1389.97 1688.24 1341.49C1684.33 1337.15 1680.24 1333.03 1676 1329.12C1632.62 1289.2 1574.49 1269.6 1516.75 1255.91C1505.65 1253.3 1494.48 1250.87 1483.29 1248.5C1430.78 1237.4 1377.32 1227.15 1328.44 1204.24C1312.66 1196.85 1297.68 1188.27 1283.5 1178.46C1187.38 1111.77 1136.35 993.102 1104.11 879.075C1101.77 870.801 1099.5 862.495 1097.25 854.159C1064.03 731.274 1029.85 609.649 967.043 513.863C940.99 474.121 914.136 432.011 867.474 410.264C811.86 384.241 743.788 391.9 685.437 408.08C645.695 419.092 607.861 433.641 568.98 444.007C550.709 448.868 532.222 452.774 513.151 455.05C391.896 469.446 262.458 409.556 175.254 316.631C87.9575 223.613 37.4191 102.296 9.91983 -22.0659" stroke="url(#paint7_linear_1050_6353)" stroke-width="2.66657" stroke-miterlimit="10"/>
<path opacity="0.54" d="M1700.33 1537.52C1740.84 1485.66 1725.12 1406.67 1682 1357.76C1678.15 1353.39 1674.12 1349.24 1669.91 1345.27C1627 1304.88 1569.2 1284.61 1511.65 1270.25C1500.57 1267.48 1489.44 1264.93 1478.3 1262.44C1425.98 1250.75 1372.64 1239.98 1323.95 1216.85C1308.23 1209.37 1293.28 1200.76 1279.17 1190.89C1183.26 1123.83 1132.69 1005.19 1101.37 890.948C1099.1 882.643 1096.88 874.338 1094.73 866.002C1062.65 742.963 1030.63 620.938 970.798 523.368C945.328 481.842 918.783 437.825 871.382 415.062C814.845 387.809 745.113 396.207 685.715 413.74C645.266 425.675 606.878 441.454 567.321 452.866C548.742 458.249 529.886 462.617 510.446 465.293C386.699 482.242 253.785 421.43 164.982 326.32C76.0857 231.119 25.455 106.756 -2.07507 -20.3433" stroke="url(#paint8_linear_1050_6353)" stroke-width="2.66657" stroke-miterlimit="10"/>
<path opacity="0.54" d="M1692.97 1553.95C1733.49 1502.15 1718.35 1423.37 1675.78 1374.03C1671.97 1369.63 1668 1365.42 1663.81 1361.42C1621.37 1320.6 1563.91 1299.59 1506.54 1284.55C1495.5 1281.66 1484.42 1278.98 1473.32 1276.37C1421.18 1264.1 1367.97 1252.84 1319.46 1229.46C1303.8 1221.92 1288.88 1213.25 1274.79 1203.32C1179.1 1135.89 1128.99 1017.28 1098.6 902.822C1096.39 894.517 1094.26 886.181 1092.17 877.845C1061.23 754.652 1031.48 632.197 974.517 532.904C949.663 489.563 923.424 443.639 875.285 419.892C817.826 391.44 746.432 400.544 686.02 419.462C644.894 432.319 605.921 449.299 565.657 461.787C546.739 467.662 527.545 472.522 507.705 475.598C381.467 495.131 245.077 433.334 154.674 336.072C64.1787 238.717 13.4557 111.279 -14.0744 -18.5586" stroke="url(#paint9_linear_1050_6353)" stroke-width="2.66657" stroke-miterlimit="10"/>
<path opacity="0.54" d="M1685.65 1570.37C1726.19 1518.66 1711.58 1440.07 1669.56 1390.27C1665.81 1385.81 1661.87 1381.57 1657.75 1377.54C1615.74 1336.26 1558.64 1314.57 1501.46 1298.85C1490.48 1295.84 1479.41 1293.01 1468.36 1290.3C1416.41 1277.45 1363.35 1265.7 1314.97 1242.07C1299.37 1234.47 1284.51 1225.71 1270.46 1215.74C1175.01 1147.92 1125.33 1029.34 1095.86 914.694C1093.71 906.359 1091.65 898.023 1089.65 889.687C1059.84 766.34 1032.41 643.393 978.268 542.408C954.06 497.253 928.099 449.452 879.19 424.659C820.808 394.976 747.754 404.788 686.326 425.09C644.493 438.901 604.936 457.049 564.025 470.645C544.8 477.013 525.268 482.365 505.028 485.841C376.267 507.926 236.433 445.207 144.43 345.73C52.3349 246.221 1.51958 115.707 -26.0413 -16.8677" stroke="url(#paint10_linear_1050_6353)" stroke-width="2.66657" stroke-miterlimit="10"/>
<path opacity="0.54" d="M1678.3 1586.8C1718.84 1535.15 1704.82 1456.78 1663.35 1406.51C1659.66 1402.02 1655.75 1397.75 1651.69 1393.66C1610.14 1351.92 1553.38 1329.52 1496.39 1313.13C1485.44 1309.99 1474.42 1307.04 1463.38 1304.18C1411.61 1290.76 1358.67 1278.46 1310.47 1254.59C1294.94 1246.9 1280.11 1238.1 1266.12 1228.11C1170.89 1159.91 1121.7 1041.36 1093.09 926.506C1091.03 918.17 1089 909.804 1087.06 901.437C1058.4 777.936 1033.36 654.528 981.958 551.851C958.458 504.881 932.712 455.173 883.035 429.396C823.73 398.483 749.014 409.033 686.572 430.688C644.031 445.422 603.92 464.77 562.333 479.443C542.769 486.333 522.898 492.147 502.259 496.022C371.006 520.661 227.696 456.988 134.094 355.357C40.3994 253.665 -10.5388 120.106 -38.0996 -15.2065" stroke="url(#paint11_linear_1050_6353)" stroke-width="2.66657" stroke-miterlimit="10"/>
<path opacity="0.54" d="M1670.94 1603.26C1711.52 1551.7 1698.04 1473.51 1657.13 1422.79C1653.47 1418.27 1649.63 1413.93 1645.6 1409.81C1604.47 1367.63 1548.09 1344.53 1491.31 1327.43C1480.39 1324.14 1469.41 1321.1 1458.42 1318.11C1406.84 1304.12 1354.02 1291.32 1306.01 1267.2C1290.54 1259.45 1275.77 1250.59 1261.81 1240.54C1166.79 1171.97 1118.07 1053.42 1090.38 938.381C1088.38 930.015 1086.44 921.648 1084.57 913.281C1057.07 789.627 1034.46 665.757 985.737 561.388C962.944 512.603 937.383 461.019 886.998 434.196C826.77 402.083 750.393 413.341 686.905 436.38C643.687 452.037 602.992 472.585 560.697 488.334C540.827 495.716 520.586 502.022 499.577 506.298C365.834 533.52 219.048 468.894 123.846 365.079C28.5519 261.234 -22.4786 124.568 -50.0702 -13.4517" stroke="url(#paint12_linear_1050_6353)" stroke-width="2.66657" stroke-miterlimit="10"/>
<path opacity="0.54" d="M1663.59 1619.68C1704.17 1568.19 1691.25 1490.18 1650.89 1439.06C1647.29 1434.51 1643.48 1430.11 1639.51 1425.96C1598.84 1383.32 1542.8 1359.51 1486.2 1341.77C1475.31 1338.35 1464.39 1335.15 1453.44 1332.05C1402.01 1317.47 1349.38 1304.18 1301.52 1279.82C1286.11 1271.97 1271.37 1263.08 1257.44 1252.96C1162.64 1184 1114.38 1065.51 1087.62 950.255C1085.68 941.888 1083.8 933.491 1082.02 925.124C1055.66 801.285 1035.57 676.954 989.46 570.894C967.436 520.263 942.029 466.802 890.875 438.996C829.724 405.652 751.687 417.648 687.183 442.041C643.258 458.62 602.009 480.398 559.038 497.193C538.859 505.068 518.281 511.866 496.872 516.541C360.637 546.317 210.406 480.737 113.574 374.769C16.6801 268.74 -34.4428 129.029 -62.0652 -11.7285" stroke="url(#paint13_linear_1050_6353)" stroke-width="2.66657" stroke-miterlimit="10"/>
<path opacity="0.54" d="M1656.28 1636.11C1696.88 1584.71 1684.51 1506.88 1644.71 1455.3C1641.14 1450.69 1637.39 1446.29 1633.48 1442.07C1593.28 1398.98 1537.57 1374.49 1481.16 1356.04C1470.33 1352.5 1459.41 1349.18 1448.52 1345.95C1397.28 1330.78 1344.77 1317 1297.09 1292.4C1281.74 1284.49 1267.04 1275.54 1253.17 1265.36C1158.58 1196.03 1110.78 1077.54 1084.94 962.097C1083.07 953.699 1081.28 945.302 1079.56 936.935C1054.34 812.942 1036.86 688.15 993.278 580.398C972.053 527.952 946.769 472.615 894.846 443.763C832.742 409.188 753.074 421.923 687.556 447.669C642.954 465.202 601.12 488.149 557.441 506.02C536.925 514.418 516.008 521.677 494.199 526.753C355.472 559.081 201.765 492.578 103.334 384.427C4.84074 276.244 -46.3745 133.457 -73.9968 -10.0376" stroke="url(#paint14_linear_1050_6353)" stroke-width="2.66657" stroke-miterlimit="10"/>
<path opacity="0.54" d="M1648.92 1652.53C1689.53 1601.19 1677.75 1523.59 1638.46 1471.54C1634.96 1466.9 1631.27 1462.44 1627.36 1458.19C1587.59 1414.63 1532.25 1389.44 1476.02 1370.34C1465.23 1366.68 1454.37 1363.2 1443.51 1359.88C1392.45 1344.16 1340.06 1329.83 1292.57 1305.01C1277.28 1297.01 1262.64 1288.03 1248.8 1277.78C1154.46 1208.08 1107.09 1089.63 1082.17 973.969C1080.36 965.572 1078.64 957.144 1077.01 948.746C1052.92 824.599 1038.06 699.376 996.999 589.871C976.636 535.58 951.413 478.366 898.752 448.529C835.725 412.756 754.396 426.198 687.832 453.297C642.522 471.753 600.135 495.9 555.78 514.848C534.955 523.737 513.7 531.458 491.492 536.964C350.273 571.876 193.09 504.389 93.0589 394.084C-7.00286 283.718 -58.3409 137.886 -85.994 -8.34668" stroke="url(#paint15_linear_1050_6353)" stroke-width="2.66657" stroke-miterlimit="10"/>
<path opacity="0.54" d="M1641.57 1668.99C1682.21 1617.74 1670.95 1540.32 1632.25 1487.84C1628.81 1483.17 1625.15 1478.65 1621.3 1474.37C1581.99 1430.39 1526.99 1404.49 1470.98 1384.68C1460.21 1380.89 1449.39 1377.29 1438.56 1373.82C1387.68 1357.51 1335.45 1342.69 1288.11 1317.62C1272.89 1309.56 1258.28 1300.52 1244.46 1290.21C1150.34 1220.11 1103.43 1101.72 1079.44 985.844C1077.68 977.415 1076.05 968.987 1074.49 960.59C1051.54 836.289 1039.39 710.635 1000.72 599.408C981.221 543.302 956.029 484.181 902.63 453.329C838.68 416.325 755.69 430.505 688.111 458.989C642.125 478.368 599.153 503.714 554.121 523.738C532.958 533.151 511.365 541.333 488.756 547.239C345.046 584.704 184.387 516.294 82.7567 403.806C-18.9046 291.286 -70.3351 142.378 -98.019 -6.59229" stroke="url(#paint16_linear_1050_6353)" stroke-width="2.66657" stroke-miterlimit="10"/>
<path opacity="0.54" d="M1634.22 1685.41C1674.85 1634.23 1664.18 1557.02 1626.01 1504.09C1622.59 1499.35 1618.99 1494.83 1615.18 1490.46C1576.3 1446.01 1521.67 1419.4 1465.84 1398.92C1455.14 1394.98 1444.34 1391.29 1433.54 1387.69C1382.85 1370.8 1330.74 1355.48 1283.56 1330.17C1268.39 1322.05 1253.84 1312.91 1240.06 1302.61C1146.15 1232.14 1099.71 1113.74 1076.61 997.686C1074.91 989.258 1073.35 980.83 1071.87 972.402C1050.06 847.947 1040.65 721.893 1004.38 608.882C985.803 550.93 960.61 489.964 906.442 458.097C841.57 419.862 756.919 434.781 688.324 464.618C641.631 484.919 598.075 511.496 552.366 532.566C530.895 542.471 508.933 551.146 485.955 557.451C339.754 597.501 175.619 528.106 72.3582 413.434C-30.9027 298.761 -82.4255 146.776 -110.14 -4.93115" stroke="url(#paint17_linear_1050_6353)" stroke-width="2.66657" stroke-miterlimit="10"/>
<path opacity="0.54" d="M1626.9 1701.84C1667.56 1650.75 1657.41 1573.69 1619.82 1520.33C1616.47 1515.56 1612.9 1510.98 1609.15 1506.58C1570.73 1461.67 1516.44 1434.38 1460.8 1413.22C1450.12 1409.16 1439.36 1405.31 1428.62 1401.62C1378.11 1384.15 1326.13 1368.31 1279.13 1342.78C1264.03 1334.57 1249.51 1325.4 1235.79 1315.03C1142.09 1244.19 1096.11 1125.83 1073.93 1009.56C1072.33 1001.1 1070.82 992.672 1069.41 984.213C1048.74 859.604 1042.09 733.181 1008.2 618.386C990.54 558.619 965.347 495.746 910.441 462.864C844.646 423.43 758.333 439.056 688.724 470.246C641.354 491.47 597.213 519.247 550.827 541.394C529.049 551.791 506.749 560.957 483.371 567.663C334.678 610.265 167.067 539.917 62.2071 423.091C-42.6532 306.235 -94.2683 151.205 -122.014 -3.24023" stroke="url(#paint18_linear_1050_6353)" stroke-width="2.66657" stroke-miterlimit="10"/>
<path opacity="0.54" d="M1619.54 1718.27C1660.21 1667.23 1650.64 1590.4 1613.61 1536.57C1610.29 1531.77 1606.78 1527.12 1603.09 1522.69C1565.1 1477.35 1511.18 1449.36 1455.72 1427.49C1445.07 1423.31 1434.37 1419.34 1423.67 1415.5C1373.34 1397.44 1321.51 1381.11 1274.66 1355.33C1259.62 1347.06 1245.13 1337.83 1231.45 1327.4C1137.97 1256.19 1092.47 1137.83 1071.19 1021.37C1069.65 1012.91 1068.2 1004.45 1066.88 995.993C1047.35 871.231 1043.53 744.47 1011.94 627.829C995.273 566.247 969.988 501.498 914.343 467.6C847.625 426.936 759.652 443.269 688.997 475.875C640.919 498.053 596.225 526.998 549.132 550.221C527.015 561.141 504.376 570.769 480.599 577.874C329.414 623.03 158.328 551.759 51.8679 432.749C-54.5919 313.74 -106.299 155.634 -134.075 -1.54883" stroke="url(#paint19_linear_1050_6353)" stroke-width="2.66657" stroke-miterlimit="10"/>
<path opacity="0.54" d="M1612.2 1734.72C1652.89 1683.78 1643.88 1607.13 1607.37 1552.87C1604.11 1548.04 1600.63 1543.36 1596.97 1538.87C1559.44 1493.07 1505.86 1464.37 1450.58 1441.86C1439.97 1437.55 1429.3 1433.43 1418.66 1429.49C1368.49 1410.88 1316.81 1394.03 1270.15 1368C1255.17 1359.64 1240.74 1350.38 1227.08 1339.89C1133.85 1268.28 1088.79 1149.98 1068.42 1033.3C1066.95 1024.82 1065.59 1016.36 1064.33 1007.9C1045.94 882.982 1044.98 755.913 1015.67 637.426C999.983 574.03 974.637 507.373 918.223 472.461C850.582 430.566 760.948 447.637 689.277 481.596C640.492 504.697 595.245 534.842 547.474 559.142C525.051 570.554 502.042 580.674 477.896 588.179C324.219 635.918 149.657 563.664 41.5979 442.5C-66.4614 321.307 -118.261 160.156 -146.037 0.235352" stroke="url(#paint20_linear_1050_6353)" stroke-width="2.66657" stroke-miterlimit="10"/>
<path opacity="0.54" d="M1604.88 1751.15C1645.57 1700.27 1637.11 1623.83 1601.18 1569.11C1597.99 1564.22 1594.54 1559.51 1590.94 1554.99C1553.88 1508.73 1500.63 1479.35 1445.57 1456.13C1435.02 1451.67 1424.38 1447.46 1413.73 1443.37C1363.75 1424.17 1312.2 1406.79 1265.72 1380.55C1250.8 1372.13 1236.4 1362.81 1222.81 1352.25C1129.79 1280.28 1085.19 1161.97 1065.75 1045.12C1064.33 1036.63 1063.04 1028.14 1061.87 1019.68C1044.62 894.61 1046.55 767.264 1019.49 646.87C1004.84 581.69 979.375 513.126 922.223 477.199C853.659 434.104 762.364 451.883 689.678 487.196C640.216 511.219 594.384 542.563 545.937 567.971C523.175 579.875 499.859 590.487 475.313 598.393C319.145 648.685 141.107 575.507 31.4481 452.16C-78.2108 328.813 -130.103 164.586 -157.91 1.92822" stroke="url(#paint21_linear_1050_6353)" stroke-width="2.66657" stroke-miterlimit="10"/>
<path opacity="0.54" d="M1597.52 1767.57C1638.22 1716.79 1630.34 1640.54 1594.94 1585.35C1591.77 1580.43 1588.42 1575.66 1584.82 1571.11C1548.18 1524.39 1495.31 1494.3 1440.43 1470.43C1429.91 1465.85 1419.3 1461.51 1408.72 1457.3C1358.92 1437.52 1307.52 1419.65 1261.19 1393.17C1246.31 1384.68 1232 1375.29 1218.41 1364.71C1125.61 1292.37 1081.46 1174.09 1062.92 1057.02C1061.56 1048.5 1060.36 1040.01 1059.26 1031.52C1043.14 906.268 1047.97 778.707 1023.14 656.406C1009.55 589.441 983.956 518.94 926.035 481.997C856.549 437.672 763.593 456.19 689.892 492.856C639.723 517.802 593.337 550.376 544.183 576.83C521.113 589.257 497.428 600.33 472.481 608.636C313.822 661.481 132.308 587.35 21.0498 461.85C-90.2086 336.319 -142.223 169.047 -170.03 3.65088" stroke="url(#paint22_linear_1050_6353)" stroke-width="2.66657" stroke-miterlimit="10"/>
<path opacity="0.54" d="M1590.17 1784C1634.53 1728.76 1621.88 1643.46 1578.76 1587.23C1535.63 1531.03 1469.31 1498.09 1403.77 1471.2C1338.22 1444.32 1269.78 1420.85 1214.07 1377.11C1114.78 1299.1 1071.71 1168.71 1056.76 1043.33C1041.78 917.926 1049.57 790.149 1026.93 665.91C1014.41 597.162 988.63 524.753 929.971 486.795C859.562 441.24 764.944 460.496 690.198 498.546C615.452 536.596 549.103 591.625 469.804 618.909C308.653 674.338 123.663 599.253 10.8051 471.569C-102.053 343.885 -154.16 173.537 -181.998 5.40381" stroke="url(#paint23_linear_1050_6353)" stroke-width="2.66657" stroke-miterlimit="10"/>
<defs>
<linearGradient id="paint0_linear_1050_6353" x1="123.699" y1="-68.8266" x2="1771.91" y2="1393.58" gradientUnits="userSpaceOnUse">
<stop stop-color="#7ED4EF"/>
<stop offset="0.2294" stop-color="#66BFE6"/>
<stop offset="0.711" stop-color="#298BD0"/>
<stop offset="1" stop-color="#0169C2"/>
</linearGradient>
<linearGradient id="paint1_linear_1050_6353" x1="112.105" y1="-67.574" x2="1770.23" y2="1403.63" gradientUnits="userSpaceOnUse">
<stop stop-color="#7ED4EF"/>
<stop offset="0.2294" stop-color="#66BFE6"/>
<stop offset="0.711" stop-color="#298BD0"/>
<stop offset="1" stop-color="#0169C2"/>
</linearGradient>
<linearGradient id="paint2_linear_1050_6353" x1="100.68" y1="-66.4982" x2="1768.72" y2="1413.5" gradientUnits="userSpaceOnUse">
<stop stop-color="#7ED4EF"/>
<stop offset="0.2294" stop-color="#66BFE6"/>
<stop offset="0.711" stop-color="#298BD0"/>
<stop offset="1" stop-color="#0169C2"/>
</linearGradient>
<linearGradient id="paint3_linear_1050_6353" x1="89.3497" y1="-65.545" x2="1767.3" y2="1423.25" gradientUnits="userSpaceOnUse">
<stop stop-color="#7ED4EF"/>
<stop offset="0.2294" stop-color="#66BFE6"/>
<stop offset="0.711" stop-color="#298BD0"/>
<stop offset="1" stop-color="#0169C2"/>
</linearGradient>
<linearGradient id="paint4_linear_1050_6353" x1="78.0986" y1="-64.681" x2="1765.96" y2="1432.91" gradientUnits="userSpaceOnUse">
<stop stop-color="#7ED4EF"/>
<stop offset="0.2294" stop-color="#66BFE6"/>
<stop offset="0.711" stop-color="#298BD0"/>
<stop offset="1" stop-color="#0169C2"/>
</linearGradient>
<linearGradient id="paint5_linear_1050_6353" x1="66.9123" y1="-63.8827" x2="1764.69" y2="1442.5" gradientUnits="userSpaceOnUse">
<stop stop-color="#7ED4EF"/>
<stop offset="0.2294" stop-color="#66BFE6"/>
<stop offset="0.711" stop-color="#298BD0"/>
<stop offset="1" stop-color="#0169C2"/>
</linearGradient>
<linearGradient id="paint6_linear_1050_6353" x1="55.7749" y1="-63.1348" x2="1763.46" y2="1452.05" gradientUnits="userSpaceOnUse">
<stop stop-color="#7ED4EF"/>
<stop offset="0.2294" stop-color="#66BFE6"/>
<stop offset="0.711" stop-color="#298BD0"/>
<stop offset="1" stop-color="#0169C2"/>
</linearGradient>
<linearGradient id="paint7_linear_1050_6353" x1="44.6707" y1="-62.4274" x2="1762.27" y2="1461.55" gradientUnits="userSpaceOnUse">
<stop stop-color="#7ED4EF"/>
<stop offset="0.2294" stop-color="#66BFE6"/>
<stop offset="0.711" stop-color="#298BD0"/>
<stop offset="1" stop-color="#0169C2"/>
</linearGradient>
<linearGradient id="paint8_linear_1050_6353" x1="33.5946" y1="-61.7518" x2="1761.11" y2="1471.02" gradientUnits="userSpaceOnUse">
<stop stop-color="#7ED4EF"/>
<stop offset="0.2294" stop-color="#66BFE6"/>
<stop offset="0.711" stop-color="#298BD0"/>
<stop offset="1" stop-color="#0169C2"/>
</linearGradient>
<linearGradient id="paint9_linear_1050_6353" x1="22.538" y1="-61.102" x2="1759.96" y2="1480.46" gradientUnits="userSpaceOnUse">
<stop stop-color="#7ED4EF"/>
<stop offset="0.2294" stop-color="#66BFE6"/>
<stop offset="0.711" stop-color="#298BD0"/>
<stop offset="1" stop-color="#0169C2"/>
</linearGradient>
<linearGradient id="paint10_linear_1050_6353" x1="11.502" y1="-60.4753" x2="1758.84" y2="1489.89" gradientUnits="userSpaceOnUse">
<stop stop-color="#7ED4EF"/>
<stop offset="0.2294" stop-color="#66BFE6"/>
<stop offset="0.711" stop-color="#298BD0"/>
<stop offset="1" stop-color="#0169C2"/>
</linearGradient>
<linearGradient id="paint11_linear_1050_6353" x1="0.483099" y1="-59.8652" x2="1757.73" y2="1499.29" gradientUnits="userSpaceOnUse">
<stop stop-color="#7ED4EF"/>
<stop offset="0.2294" stop-color="#66BFE6"/>
<stop offset="0.711" stop-color="#298BD0"/>
<stop offset="1" stop-color="#0169C2"/>
</linearGradient>
<linearGradient id="paint12_linear_1050_6353" x1="-10.5269" y1="-59.2682" x2="1756.63" y2="1508.68" gradientUnits="userSpaceOnUse">
<stop stop-color="#7ED4EF"/>
<stop offset="0.2294" stop-color="#66BFE6"/>
<stop offset="0.711" stop-color="#298BD0"/>
<stop offset="1" stop-color="#0169C2"/>
</linearGradient>
<linearGradient id="paint13_linear_1050_6353" x1="-21.5189" y1="-58.6855" x2="1755.55" y2="1518.06" gradientUnits="userSpaceOnUse">
<stop stop-color="#7ED4EF"/>
<stop offset="0.2294" stop-color="#66BFE6"/>
<stop offset="0.711" stop-color="#298BD0"/>
<stop offset="1" stop-color="#0169C2"/>
</linearGradient>
<linearGradient id="paint14_linear_1050_6353" x1="-32.4993" y1="-58.1149" x2="1754.48" y2="1527.42" gradientUnits="userSpaceOnUse">
<stop stop-color="#7ED4EF"/>
<stop offset="0.2294" stop-color="#66BFE6"/>
<stop offset="0.711" stop-color="#298BD0"/>
<stop offset="1" stop-color="#0169C2"/>
</linearGradient>
<linearGradient id="paint15_linear_1050_6353" x1="-43.475" y1="-57.5539" x2="1753.42" y2="1536.78" gradientUnits="userSpaceOnUse">
<stop stop-color="#7ED4EF"/>
<stop offset="0.2294" stop-color="#66BFE6"/>
<stop offset="0.711" stop-color="#298BD0"/>
<stop offset="1" stop-color="#0169C2"/>
</linearGradient>
<linearGradient id="paint16_linear_1050_6353" x1="-54.4405" y1="-56.9989" x2="1752.36" y2="1546.13" gradientUnits="userSpaceOnUse">
<stop stop-color="#7ED4EF"/>
<stop offset="0.2294" stop-color="#66BFE6"/>
<stop offset="0.711" stop-color="#298BD0"/>
<stop offset="1" stop-color="#0169C2"/>
</linearGradient>
<linearGradient id="paint17_linear_1050_6353" x1="-65.4034" y1="-56.4521" x2="1751.31" y2="1555.47" gradientUnits="userSpaceOnUse">
<stop stop-color="#7ED4EF"/>
<stop offset="0.2294" stop-color="#66BFE6"/>
<stop offset="0.711" stop-color="#298BD0"/>
<stop offset="1" stop-color="#0169C2"/>
</linearGradient>
<linearGradient id="paint18_linear_1050_6353" x1="-76.3589" y1="-55.9124" x2="1750.27" y2="1564.8" gradientUnits="userSpaceOnUse">
<stop stop-color="#7ED4EF"/>
<stop offset="0.2294" stop-color="#66BFE6"/>
<stop offset="0.711" stop-color="#298BD0"/>
<stop offset="1" stop-color="#0169C2"/>
</linearGradient>
<linearGradient id="paint19_linear_1050_6353" x1="-87.3133" y1="-55.3785" x2="1749.22" y2="1574.13" gradientUnits="userSpaceOnUse">
<stop stop-color="#7ED4EF"/>
<stop offset="0.2294" stop-color="#66BFE6"/>
<stop offset="0.711" stop-color="#298BD0"/>
<stop offset="1" stop-color="#0169C2"/>
</linearGradient>
<linearGradient id="paint20_linear_1050_6353" x1="-98.2551" y1="-54.8485" x2="1748.19" y2="1583.45" gradientUnits="userSpaceOnUse">
<stop stop-color="#7ED4EF"/>
<stop offset="0.2294" stop-color="#66BFE6"/>
<stop offset="0.711" stop-color="#298BD0"/>
<stop offset="1" stop-color="#0169C2"/>
</linearGradient>
<linearGradient id="paint21_linear_1050_6353" x1="-109.196" y1="-54.3219" x2="1747.16" y2="1592.77" gradientUnits="userSpaceOnUse">
<stop stop-color="#7ED4EF"/>
<stop offset="0.2294" stop-color="#66BFE6"/>
<stop offset="0.711" stop-color="#298BD0"/>
<stop offset="1" stop-color="#0169C2"/>
</linearGradient>
<linearGradient id="paint22_linear_1050_6353" x1="-120.135" y1="-53.8007" x2="1746.14" y2="1602.09" gradientUnits="userSpaceOnUse">
<stop stop-color="#7ED4EF"/>
<stop offset="0.2294" stop-color="#66BFE6"/>
<stop offset="0.711" stop-color="#298BD0"/>
<stop offset="1" stop-color="#0169C2"/>
</linearGradient>
<linearGradient id="paint23_linear_1050_6353" x1="-131.071" y1="-53.2834" x2="1745.11" y2="1611.4" gradientUnits="userSpaceOnUse">
<stop stop-color="#7ED4EF"/>
<stop offset="0.2294" stop-color="#66BFE6"/>
<stop offset="0.711" stop-color="#298BD0"/>
<stop offset="1" stop-color="#0169C2"/>
</linearGradient>
</defs>
</svg>
