<svg width="1440" height="1569" viewBox="0 0 1440 1569" fill="none" xmlns="http://www.w3.org/2000/svg">
<g clip-path="url(#clip0_944_6282)">
<path opacity="0.54" d="M-97.9716 980.489C-111.102 970.18 -104.542 954.359 -89.0816 945.451C-87.7016 944.653 -86.2616 943.904 -84.7816 943.197C-69.6616 935.975 -49.9616 933.087 -30.7516 931.334C-27.0516 930.996 -23.3316 930.694 -19.6116 930.397C-2.13163 929.007 15.5684 927.696 31.8384 923.52C37.1084 922.173 42.0784 920.559 46.7784 918.704C78.5284 906.122 96.1684 882.771 108.718 860.647C109.628 859.039 110.538 857.426 111.438 855.806C124.828 831.881 140.178 808.222 168.038 792.141C177.548 786.654 187.328 781.161 200.778 778.284C216.758 774.852 235.118 775.359 251.748 776.659C263.088 777.541 274.088 778.756 285.168 779.318C290.378 779.577 295.608 779.692 300.908 779.583C334.658 778.882 368.828 768.428 393.538 753.157C418.278 737.861 434.488 718.239 443.378 697.571" stroke="url(#paint0_linear_944_6282)" stroke-width="0.8669" stroke-miterlimit="10"/>
<path opacity="0.54" d="M-95.5806 983.716C-108.721 973.419 -102.331 957.64 -87.0606 948.642C-85.6906 947.838 -84.2706 947.077 -82.8106 946.363C-67.8406 939.057 -48.2506 936.03 -29.1006 934.144C-25.4106 933.782 -21.7006 933.455 -17.9906 933.135C-0.570639 931.63 17.0794 930.222 33.2994 925.998C38.5494 924.632 43.5094 923.013 48.1894 921.145C79.8694 908.491 97.3594 885.146 109.619 862.979C110.509 861.372 111.389 859.752 112.269 858.133C125.289 834.178 140.109 810.537 166.829 794.015C176.209 788.213 185.819 782.303 199.519 779.227C215.799 775.553 234.699 776.199 251.669 777.77C263.239 778.84 274.419 780.284 285.729 781.058C291.039 781.421 296.389 781.626 301.819 781.596C336.379 781.402 371.679 770.76 396.909 755.06C422.169 739.342 438.419 719.115 447.309 697.91" stroke="url(#paint1_linear_944_6282)" stroke-width="0.8669" stroke-miterlimit="10"/>
<path opacity="0.54" d="M-93.1902 986.943C-106.33 976.664 -100.13 960.915 -85.0402 951.839C-83.6902 951.029 -82.2902 950.261 -80.8302 949.536C-66.0002 942.139 -46.5302 938.973 -27.4402 936.954C-23.7702 936.567 -20.0702 936.217 -16.3702 935.872C0.989807 934.259 18.5998 932.742 34.7598 928.476C39.9898 927.098 44.9298 925.466 49.5998 923.587C81.2098 910.86 98.5498 887.521 110.51 865.312C111.38 863.699 112.24 862.079 113.09 860.459C125.74 836.474 140.01 812.827 165.61 795.882C174.86 789.76 184.3 783.445 198.25 780.17C214.83 776.254 234.27 777.045 251.57 778.888C263.37 780.139 274.73 781.819 286.26 782.804C291.68 783.264 297.13 783.566 302.69 783.614C338.06 783.922 374.49 773.093 400.24 756.964C426.02 740.816 442.3 719.991 451.2 698.248" stroke="url(#paint2_linear_944_6282)" stroke-width="0.8669" stroke-miterlimit="10"/>
<path opacity="0.54" d="M-90.8103 990.171C-103.96 979.903 -97.9403 964.197 -83.0203 955.03C-81.6903 954.208 -80.3003 953.434 -78.8603 952.703C-64.1803 945.216 -44.8203 941.916 -25.8003 939.765C-22.1403 939.354 -18.4503 938.973 -14.7703 938.604C2.52974 936.876 20.0997 935.262 36.2097 930.948C41.4197 929.552 46.3498 927.914 51.0098 926.022C82.5498 913.217 99.7297 889.884 111.4 867.639C112.25 866.026 113.08 864.4 113.91 862.774C126.19 838.759 139.88 815.094 164.39 797.744C173.5 791.295 182.78 784.575 196.97 781.101C213.85 776.949 233.83 777.88 251.46 779.989C263.48 781.421 275.03 783.337 286.78 784.533C292.3 785.095 297.87 785.488 303.56 785.615C339.74 786.425 377.3 775.408 403.57 758.856C429.87 742.285 446.18 720.856 455.09 698.575" stroke="url(#paint3_linear_944_6282)" stroke-width="0.8669" stroke-miterlimit="10"/>
<path opacity="0.54" d="M-88.42 993.404C-101.57 983.154 -95.73 967.484 -81 958.226C-79.68 957.398 -78.31 956.613 -76.88 955.869C-62.35 948.291 -43.1 944.853 -24.14 942.568C-20.49 942.127 -16.82 941.728 -13.15 941.335C4.09004 939.492 21.61 937.782 37.67 933.419C42.86 932.011 47.78 930.355 52.42 928.457C83.89 915.579 100.92 892.253 112.29 869.965C113.12 868.346 113.93 866.72 114.73 865.095C126.64 841.043 139.72 817.341 163.17 799.604C172.14 792.824 181.27 785.711 195.7 782.037C212.88 777.644 233.4 778.719 251.37 781.094C263.62 782.708 275.36 784.865 287.33 786.267C292.96 786.926 298.64 787.415 304.45 787.621C341.44 788.938 380.13 777.734 406.92 760.753C433.74 743.753 450.08 721.726 458.99 698.907" stroke="url(#paint4_linear_944_6282)" stroke-width="0.8669" stroke-miterlimit="10"/>
<path opacity="0.54" d="M-86.0296 996.63C-99.1896 986.393 -93.5297 970.766 -78.9697 961.417C-77.6697 960.583 -76.3097 959.791 -74.8997 959.036C-60.5097 951.373 -41.3797 947.795 -22.4797 945.378C-18.8397 944.913 -15.1897 944.484 -11.5297 944.073C5.65034 942.115 23.1303 940.302 39.1303 935.896C44.3003 934.476 49.2003 932.808 53.8303 930.899C85.2203 917.948 102.11 894.621 113.18 872.298C113.98 870.678 114.77 869.047 115.55 867.421C127.09 843.339 139.54 819.589 161.96 801.478C170.77 794.359 179.76 786.853 194.44 782.979C211.92 778.344 232.98 779.565 251.28 782.212C263.75 784.013 275.68 786.4 287.87 788.013C293.6 788.769 299.39 789.349 305.33 789.639C343.13 791.458 382.95 780.067 410.26 762.662C437.6 745.24 453.97 722.608 462.89 699.251" stroke="url(#paint5_linear_944_6282)" stroke-width="0.8669" stroke-miterlimit="10"/>
<path opacity="0.54" d="M-83.6535 999.858C-96.8135 989.639 -91.3435 974.048 -76.9635 964.614C-75.6835 963.774 -74.3335 962.97 -72.9435 962.209C-58.7035 954.455 -39.6835 950.739 -20.8435 948.189C-17.2235 947.699 -13.5735 947.246 -9.92347 946.805C7.20653 944.738 24.6365 942.822 40.5765 938.368C45.7265 936.93 50.6165 935.256 55.2365 933.341C86.5565 920.317 103.297 896.997 114.077 874.631C114.857 873.005 115.627 871.374 116.377 869.748C127.547 845.636 139.347 821.819 160.747 803.345C169.397 795.882 178.247 787.996 193.167 783.923C210.947 779.052 232.537 780.412 251.177 783.324C263.877 785.306 275.987 787.929 288.407 789.754C294.237 790.612 300.147 791.283 306.217 791.652C344.827 793.972 385.777 782.4 413.607 764.566C441.467 746.715 457.867 723.485 466.797 699.59" stroke="url(#paint6_linear_944_6282)" stroke-width="0.8669" stroke-miterlimit="10"/>
<path opacity="0.54" d="M-81.2627 1003.08C-94.4327 992.878 -89.1327 977.329 -74.9427 967.805C-73.6727 966.953 -72.3427 966.143 -70.9627 965.375C-56.8627 957.531 -37.9627 953.682 -19.1926 950.993C-15.5826 950.479 -11.9527 950.001 -8.31266 949.536C8.75734 947.355 26.1373 945.342 42.0273 940.84C47.1573 939.39 52.0273 937.704 56.6373 935.776C87.8873 922.674 104.477 899.36 114.957 876.957C115.717 875.332 116.457 873.7 117.187 872.062C127.987 847.92 139.097 824.025 159.517 805.207C167.987 797.399 176.717 789.126 191.887 784.853C209.967 779.741 232.097 781.245 251.067 784.424C263.987 786.587 276.287 789.446 288.927 791.482C294.867 792.437 300.877 793.205 307.077 793.652C346.497 796.48 388.577 784.714 416.927 766.458C445.307 748.183 461.737 724.349 470.677 699.916" stroke="url(#paint7_linear_944_6282)" stroke-width="0.8669" stroke-miterlimit="10"/>
<path opacity="0.54" d="M-78.8726 1006.32C-92.0426 996.129 -86.9326 980.61 -72.9126 971.002C-71.6626 970.143 -70.3526 969.328 -68.9826 968.548C-55.0326 960.613 -36.2426 956.631 -17.5326 953.809C-13.9326 953.265 -10.3126 952.763 -6.69256 952.274C10.3174 949.977 27.6574 947.862 43.4874 943.318C48.5974 941.849 53.4574 940.157 58.0474 938.217C89.2274 925.043 105.667 901.734 115.847 879.29C116.587 877.658 117.307 876.027 118.007 874.389C128.437 850.216 138.847 826.243 158.297 807.074C166.577 798.916 175.207 790.268 190.617 785.796C208.997 780.442 231.667 782.091 250.977 785.536C264.127 787.881 276.607 790.981 289.467 793.223C295.507 794.28 301.637 795.139 307.957 795.664C348.187 798.994 391.397 787.047 420.267 768.361C449.167 749.657 465.627 725.225 474.577 700.254" stroke="url(#paint8_linear_944_6282)" stroke-width="0.8669" stroke-miterlimit="10"/>
<path opacity="0.54" d="M-76.4804 1009.55C-89.6504 999.368 -84.7303 983.892 -70.8903 974.198C-69.6503 973.334 -68.3604 972.506 -67.0004 971.721C-53.2004 963.701 -34.5204 959.574 -15.8704 956.619C-12.2804 956.051 -8.68035 955.525 -5.07035 955.011C11.8797 952.6 29.1797 950.388 44.9497 945.795C50.0397 944.315 54.8897 942.611 59.4697 940.659C90.5797 927.412 106.87 904.11 116.75 881.623C117.47 879.991 118.16 878.353 118.84 876.716C128.9 852.513 138.57 828.455 157.09 808.947C165.17 800.432 173.7 791.41 189.35 786.745C208.03 781.155 231.24 782.943 250.88 786.66C264.25 789.186 276.92 792.522 290.01 794.975C296.16 796.13 302.4 797.085 308.85 797.689C349.89 801.526 394.23 789.386 423.62 770.277C453.04 751.15 469.53 726.113 478.48 700.605" stroke="url(#paint9_linear_944_6282)" stroke-width="0.8669" stroke-miterlimit="10"/>
<path opacity="0.54" d="M-74.1016 1012.77C-87.2816 1002.61 -82.5316 987.173 -68.8716 977.389C-67.6516 976.513 -66.3716 975.679 -65.0316 974.888C-51.3716 966.778 -32.8116 962.517 -14.2216 959.429C-10.6516 958.837 -7.05161 958.281 -3.46161 957.749C13.4284 955.223 30.6784 952.914 46.4084 948.273C51.4784 946.781 56.3084 945.058 60.8784 943.1C91.9084 929.775 108.058 906.479 117.638 883.956C118.338 882.318 119.008 880.68 119.658 879.042C129.348 854.809 138.268 830.655 155.868 810.815C163.738 801.943 172.178 792.552 188.078 787.681C207.058 781.85 230.808 783.778 250.778 787.766C264.378 790.479 277.238 794.045 290.538 796.716C296.788 797.967 303.138 799.019 309.718 799.701C351.578 804.04 397.038 791.718 426.948 772.175C456.888 752.625 473.408 726.984 482.368 700.938" stroke="url(#paint10_linear_944_6282)" stroke-width="0.8669" stroke-miterlimit="10"/>
<path opacity="0.54" d="M-71.7103 1016C-84.8903 1005.85 -80.3303 990.455 -66.8503 980.58C-65.6503 979.698 -64.3803 978.858 -63.0603 978.054C-49.5503 969.853 -31.1003 965.454 -12.5703 962.233C-9.01027 961.616 -5.43028 961.036 -1.84028 960.474C14.9897 957.84 32.1997 955.422 47.8697 950.733C52.9197 949.222 57.7397 947.494 62.2897 945.53C93.2497 932.132 109.24 908.841 118.54 886.276C119.21 884.638 119.87 882.995 120.5 881.351C129.82 857.087 137.96 832.842 154.67 812.67C162.31 803.442 170.68 793.676 186.83 788.612C206.11 782.539 230.4 784.611 250.7 788.866C264.53 791.76 277.57 795.562 291.09 798.444C297.45 799.798 303.91 800.94 310.62 801.702C353.29 806.542 399.88 794.033 430.31 774.066C460.77 754.087 477.33 727.848 486.29 701.264" stroke="url(#paint11_linear_944_6282)" stroke-width="0.8669" stroke-miterlimit="10"/>
<path opacity="0.54" d="M-69.3209 1019.23C-82.5109 1009.1 -78.1309 993.742 -64.8309 983.777C-63.6409 982.889 -62.3909 982.037 -61.0809 981.227C-47.7109 972.942 -29.3809 968.403 -10.9209 965.043C-7.37089 964.397 -3.80089 963.798 -0.230888 963.212C16.5391 960.463 33.7091 957.949 49.3191 953.211C54.3491 951.688 59.1491 949.947 63.6891 947.971C94.5791 934.501 110.419 911.211 119.419 888.609C120.069 886.965 120.699 885.321 121.309 883.678C130.249 859.384 137.599 835.048 153.439 814.544C160.849 804.959 169.159 794.825 185.539 789.555C205.119 783.246 229.949 785.458 250.589 789.984C264.639 793.06 277.869 797.097 291.619 800.191C298.079 801.641 304.659 802.88 311.489 803.72C354.969 809.068 402.689 796.372 433.639 775.976C464.619 755.574 481.209 728.724 490.179 701.608" stroke="url(#paint12_linear_944_6282)" stroke-width="0.8669" stroke-miterlimit="10"/>
<path opacity="0.54" d="M-66.9302 1022.46C-80.1202 1012.34 -75.9202 997.018 -62.8002 986.974C-61.6302 986.08 -60.3902 985.215 -59.1002 984.4C-45.8802 976.024 -27.6602 971.346 -9.26015 967.859C-5.72015 967.189 -2.17015 966.56 1.38985 965.95C18.1099 963.085 35.2199 960.475 50.7799 955.688C55.7899 954.147 60.5798 952.401 65.1098 950.413C95.9298 936.864 111.62 913.585 120.32 890.942C120.95 889.298 121.56 887.648 122.14 886.004C130.71 861.674 137.24 837.248 152.23 816.411C159.39 806.464 167.65 795.961 184.28 790.498C204.16 783.947 229.53 786.304 250.5 791.096C264.78 794.353 278.19 798.632 292.16 801.931C298.72 803.478 305.41 804.814 312.37 805.733C356.66 811.582 405.5 798.698 436.98 777.879C468.48 757.049 485.1 729.6 494.08 701.947" stroke="url(#paint13_linear_944_6282)" stroke-width="0.8669" stroke-miterlimit="10"/>
<path opacity="0.54" d="M-64.5532 1025.69C-77.7532 1015.59 -73.7332 1000.3 -60.7932 990.164C-59.6332 989.258 -58.4132 988.394 -57.1432 987.566C-44.0732 979.099 -25.9632 974.289 -7.62318 970.663C-4.10318 969.968 -0.553176 969.315 2.98682 968.681C19.6468 965.702 36.7168 962.994 52.2168 958.16C57.2068 956.607 61.9868 954.848 66.4968 952.848C97.2468 939.226 112.787 915.948 121.187 893.268C121.797 891.618 122.377 889.968 122.937 888.325C131.137 863.964 136.817 839.447 150.987 818.278C157.887 807.974 166.107 797.103 182.987 791.434C203.177 784.641 229.077 787.143 250.377 792.202C264.877 795.646 278.477 800.154 292.677 803.665C299.347 805.315 306.147 806.741 313.237 807.739C358.337 814.09 408.307 801.025 440.307 779.777C472.327 758.523 488.977 730.47 497.957 702.279" stroke="url(#paint14_linear_944_6282)" stroke-width="0.8669" stroke-miterlimit="10"/>
<path opacity="0.54" d="M-62.16 1028.91C-75.36 1018.83 -71.53 1003.58 -58.76 993.355C-57.62 992.443 -56.42 991.567 -55.15 990.733C-42.22 982.175 -24.23 977.226 -5.94996 973.473C-2.43996 972.754 1.09005 972.071 4.62005 971.419C21.22 968.33 38.25 965.514 53.69 960.638C58.66 959.066 63.4201 957.302 67.9201 955.289C98.5901 941.595 113.99 918.323 122.09 895.601C122.68 893.951 123.24 892.295 123.77 890.645C131.6 866.255 136.43 841.653 149.78 820.139C156.4 809.473 164.6 798.233 181.72 792.371C202.21 785.343 228.65 787.984 250.29 793.308C265.02 796.933 278.8 801.677 293.22 805.4C299.99 807.146 306.9 808.663 314.12 809.745C360.03 816.604 411.13 803.345 443.65 781.674C476.18 759.991 492.87 731.341 501.86 702.611" stroke="url(#paint15_linear_944_6282)" stroke-width="0.8669" stroke-miterlimit="10"/>
<path opacity="0.54" d="M-59.7711 1032.15C-72.9811 1022.08 -69.3211 1006.87 -56.7411 996.559C-55.6211 995.64 -54.4311 994.752 -53.1811 993.912C-40.4011 985.27 -22.5211 980.181 -4.31106 976.29C-0.811062 975.546 2.70895 974.839 6.22895 974.156C22.769 970.954 39.749 968.041 55.139 963.116C60.089 961.532 64.8389 959.756 69.3289 957.731C99.9289 943.959 115.179 920.698 122.979 897.934C123.549 896.278 124.079 894.622 124.589 892.972C132.049 868.552 135.999 843.865 148.569 822.013C154.909 810.99 163.099 799.375 180.459 793.314C201.249 786.044 228.229 788.83 250.199 794.426C265.149 798.233 279.119 803.213 293.759 807.147C300.639 808.996 307.659 810.603 315.009 811.764C361.729 819.124 413.959 805.684 446.999 783.584C480.049 761.478 496.769 732.223 505.769 702.956" stroke="url(#paint16_linear_944_6282)" stroke-width="0.8669" stroke-miterlimit="10"/>
<path opacity="0.54" d="M-57.3822 1035.37C-70.5922 1025.32 -67.1222 1010.15 -54.7122 999.749C-53.6022 998.819 -52.4322 997.93 -51.1922 997.072C-38.5522 988.34 -20.7922 983.112 -2.64219 979.088C0.837807 978.314 4.3478 977.589 7.8578 976.882C24.3378 973.564 41.2778 970.555 56.6178 965.581C61.5478 963.986 66.2778 962.191 70.7578 960.166C101.288 946.321 116.388 923.061 123.898 900.26C124.448 898.604 124.958 896.948 125.438 895.293C132.528 870.842 135.588 846.077 147.378 823.874C153.418 812.489 161.608 800.511 179.218 794.25C200.308 786.739 227.828 789.67 250.128 795.532C265.308 799.52 279.468 804.741 294.328 808.881C301.308 810.827 308.448 812.531 315.918 813.77C363.448 821.638 416.808 808.005 450.378 785.476C483.948 762.947 500.698 733.087 509.708 703.282" stroke="url(#paint17_linear_944_6282)" stroke-width="0.8669" stroke-miterlimit="10"/>
<path opacity="0.54" d="M-55.0015 1038.6C-68.2215 1028.56 -64.9215 1013.42 -52.7015 1002.94C-51.6115 1002 -50.4515 1001.1 -49.2315 1000.24C-36.7415 991.415 -19.0915 986.055 -1.00154 981.897C2.46846 981.1 5.96847 980.344 9.45847 979.619C25.8785 976.186 42.7785 973.074 58.0585 968.058C62.9685 966.445 67.6885 964.644 72.1485 962.607C102.608 948.69 117.558 925.436 124.768 902.592C125.288 900.931 125.778 899.275 126.238 897.613C132.958 873.132 135.118 848.294 146.138 825.741C151.878 813.999 160.068 801.647 177.918 795.187C199.308 787.439 227.368 790.509 249.998 796.637C265.398 800.807 279.748 806.264 294.828 810.615C301.908 812.658 309.158 814.458 316.758 815.776C365.098 824.146 419.588 810.325 453.678 787.373C487.768 764.415 504.548 733.957 513.568 703.614" stroke="url(#paint18_linear_944_6282)" stroke-width="0.8669" stroke-miterlimit="10"/>
<path opacity="0.54" d="M-52.612 1041.83C-65.832 1031.8 -62.722 1016.71 -50.682 1006.13C-49.602 1005.19 -48.462 1004.28 -47.262 1003.41C-34.912 994.497 -17.382 988.998 0.647987 984.701C4.10799 983.88 7.58799 983.1 11.068 982.345C27.428 978.797 44.278 975.588 59.508 970.524C64.398 968.898 69.108 967.086 73.558 965.037C103.948 951.047 118.738 927.793 125.658 904.913C126.158 903.251 126.628 901.589 127.058 899.928C133.408 875.416 134.648 850.512 144.918 827.597C150.338 815.498 158.558 802.777 176.648 796.118C198.338 788.128 226.938 791.337 249.908 797.743C265.538 802.1 280.068 807.787 295.378 812.35C302.568 814.495 309.928 816.386 317.658 817.782C366.808 826.654 422.428 812.652 457.038 789.271C491.648 765.89 508.458 734.827 517.488 703.947" stroke="url(#paint19_linear_944_6282)" stroke-width="0.8669" stroke-miterlimit="10"/>
<path opacity="0.54" d="M-50.2213 1045.06C-63.4513 1035.05 -60.5213 1019.99 -48.6513 1009.33C-47.5913 1008.38 -46.4613 1007.47 -45.2713 1006.58C-33.0713 997.586 -15.6513 991.947 2.31867 987.524C5.76867 986.678 9.23868 985.868 12.6987 985.094C29.0087 981.438 45.8087 978.127 60.9787 973.014C65.8487 971.37 70.5387 969.551 74.9787 967.49C105.289 953.422 119.939 930.18 126.559 907.258C127.039 905.59 127.479 903.928 127.889 902.266C133.869 877.725 134.179 852.76 143.709 829.482C148.809 817.027 157.049 803.931 175.389 797.072C197.379 788.842 226.519 792.196 249.819 798.867C265.679 803.406 280.389 809.328 295.919 814.102C303.209 816.344 310.689 818.332 318.539 819.807C368.499 829.186 425.249 814.991 460.379 791.186C495.509 767.376 512.349 735.716 521.379 704.297" stroke="url(#paint20_linear_944_6282)" stroke-width="0.8669" stroke-miterlimit="10"/>
<path opacity="0.54" d="M-47.843 1048.29C-61.073 1038.29 -58.323 1023.28 -46.643 1012.52C-45.603 1011.56 -44.483 1010.64 -43.313 1009.75C-31.263 1000.66 -13.953 994.891 3.94697 990.328C7.37697 989.452 10.837 988.624 14.297 987.82C30.547 984.049 47.307 980.635 62.417 975.48C67.267 973.824 71.947 971.993 76.367 969.92C106.607 955.779 121.107 932.537 127.427 909.579C127.887 907.911 128.307 906.243 128.687 904.581C134.297 880.009 133.667 854.991 142.467 831.338C147.227 818.532 155.507 805.062 174.087 798.003C196.377 789.537 226.057 793.03 249.687 799.967C265.767 804.687 280.667 810.845 296.417 815.837C303.817 818.175 311.397 820.26 319.377 821.813C370.147 831.694 428.027 817.317 463.677 793.084C499.327 768.851 516.197 736.586 525.237 704.63" stroke="url(#paint21_linear_944_6282)" stroke-width="0.8669" stroke-miterlimit="10"/>
<path opacity="0.54" d="M-45.4525 1051.52C-58.6825 1041.54 -56.1225 1026.56 -44.6125 1015.72C-43.5825 1014.75 -42.4925 1013.81 -41.3225 1012.92C-29.4125 1003.74 -12.2225 997.827 5.61752 993.138C9.03752 992.237 12.4875 991.385 15.9275 990.558C32.1175 986.672 48.8275 983.161 63.8875 977.957C68.7275 976.29 73.3775 974.446 77.7975 972.367C107.968 958.154 122.318 934.918 128.348 911.917C128.788 910.243 129.178 908.576 129.538 906.908C134.778 882.3 133.208 857.239 141.278 833.211C145.698 820.055 154.018 806.204 172.848 798.946C195.438 790.238 225.657 793.876 249.617 801.079C265.927 805.98 281.008 812.38 296.988 817.577C304.488 820.019 312.188 822.194 320.298 823.826C371.878 834.208 430.887 819.644 467.057 794.988C503.227 770.325 520.137 737.463 529.177 704.968" stroke="url(#paint22_linear_944_6282)" stroke-width="0.8669" stroke-miterlimit="10"/>
<path opacity="0.54" d="M-43.0634 1054.74C-57.4834 1043.89 -53.3734 1027.13 -39.3534 1016.08C-25.3334 1005.04 -3.7734 998.571 17.5366 993.289C38.8466 988.007 61.0966 983.396 79.2066 974.803C111.487 959.477 125.487 933.86 130.347 909.228C135.217 884.59 132.687 859.486 140.047 835.078C144.117 821.571 152.497 807.346 171.567 799.888C194.457 790.939 225.217 794.722 249.517 802.197C273.817 809.672 295.387 820.484 321.167 825.844C373.557 836.734 433.697 821.982 470.387 796.897C507.077 771.812 524.017 738.345 533.067 705.312" stroke="url(#paint23_linear_944_6282)" stroke-width="0.8669" stroke-miterlimit="10"/>
<path opacity="0.54" d="M1532.96 993.27C1546.09 981.089 1539.53 962.396 1524.07 951.872C1522.69 950.929 1521.25 950.044 1519.77 949.208C1504.65 940.676 1484.96 937.263 1465.75 935.192C1462.05 934.793 1458.33 934.436 1454.61 934.086C1437.13 932.444 1419.43 930.894 1403.17 925.96C1397.9 924.368 1392.93 922.462 1388.23 920.27C1356.48 905.404 1338.84 877.815 1326.29 851.675C1325.38 849.776 1324.47 847.869 1323.58 845.956C1310.19 817.688 1294.84 789.735 1266.98 770.735C1257.47 764.252 1247.69 757.762 1234.25 754.363C1218.27 750.307 1199.91 750.907 1183.28 752.442C1171.94 753.485 1160.94 754.92 1149.87 755.584C1144.66 755.891 1139.43 756.027 1134.13 755.898C1100.38 755.07 1066.21 742.717 1041.51 724.674C1016.77 706.603 1000.56 683.419 991.674 659" stroke="url(#paint24_linear_944_6282)" stroke-width="0.8669" stroke-miterlimit="10"/>
<path opacity="0.54" d="M1530.57 997.083C1543.71 984.916 1537.32 966.273 1522.05 955.642C1520.68 954.692 1519.26 953.792 1517.8 952.95C1502.83 944.318 1483.25 940.74 1464.1 938.513C1460.41 938.084 1456.7 937.699 1452.99 937.32C1435.57 935.542 1417.92 933.879 1401.71 928.888C1396.46 927.274 1391.5 925.361 1386.82 923.154C1355.14 908.203 1337.65 880.621 1325.4 854.431C1324.51 852.532 1323.63 850.618 1322.75 848.705C1309.73 820.402 1294.91 792.47 1268.19 772.949C1258.81 766.094 1249.2 759.111 1235.51 755.477C1219.23 751.136 1200.33 751.9 1183.36 753.756C1171.79 755.02 1160.61 756.726 1149.31 757.64C1144 758.069 1138.65 758.311 1133.22 758.276C1098.66 758.047 1063.37 745.474 1038.14 726.924C1012.88 708.352 996.634 684.454 987.745 659.4" stroke="url(#paint25_linear_944_6282)" stroke-width="0.8669" stroke-miterlimit="10"/>
<path opacity="0.54" d="M1528.18 1000.9C1541.32 988.75 1535.12 970.143 1520.03 959.419C1518.68 958.462 1517.28 957.555 1515.82 956.699C1500.99 947.959 1481.53 944.218 1462.44 941.833C1458.77 941.376 1455.07 940.962 1451.37 940.555C1434.01 938.648 1416.4 936.856 1400.25 931.815C1395.02 930.187 1390.08 928.26 1385.41 926.039C1353.8 911.002 1336.46 883.427 1324.5 857.187C1323.64 855.281 1322.78 853.367 1321.93 851.454C1309.28 823.115 1295.01 795.176 1269.41 775.155C1260.16 767.922 1250.72 760.461 1236.78 756.591C1220.2 751.964 1200.76 752.899 1183.46 755.077C1171.66 756.555 1160.3 758.54 1148.78 759.704C1143.36 760.246 1137.91 760.603 1132.35 760.661C1096.98 761.025 1060.56 748.23 1034.81 729.173C1009.03 710.095 992.753 685.49 983.854 659.8" stroke="url(#paint26_linear_944_6282)" stroke-width="0.8669" stroke-miterlimit="10"/>
<path opacity="0.54" d="M1525.8 1004.71C1538.95 992.577 1532.93 974.02 1518.01 963.189C1516.68 962.217 1515.29 961.304 1513.85 960.44C1499.17 951.593 1479.82 947.695 1460.8 945.153C1457.14 944.667 1453.45 944.217 1449.77 943.782C1432.47 941.74 1414.9 939.833 1398.8 934.735C1393.59 933.086 1388.66 931.151 1384 928.916C1352.46 913.786 1335.28 886.219 1323.61 859.936C1322.76 858.029 1321.94 856.109 1321.11 854.188C1308.83 825.813 1295.14 797.853 1270.63 777.354C1261.52 769.735 1252.24 761.796 1238.05 757.69C1221.18 752.785 1201.2 753.884 1183.57 756.376C1171.55 758.068 1160 760.332 1148.26 761.746C1142.74 762.41 1137.17 762.874 1131.48 763.024C1095.3 763.98 1057.75 750.964 1031.48 731.407C1005.18 711.829 988.874 686.511 979.965 660.185" stroke="url(#paint27_linear_944_6282)" stroke-width="0.8669" stroke-miterlimit="10"/>
<path opacity="0.54" d="M1523.41 1008.53C1536.56 996.419 1530.72 977.905 1515.99 966.966C1514.67 965.988 1513.3 965.06 1511.87 964.181C1497.34 955.228 1478.1 951.165 1459.14 948.466C1455.49 947.945 1451.82 947.474 1448.15 947.009C1430.91 944.832 1413.39 942.811 1397.34 937.656C1392.15 935.992 1387.23 934.036 1382.59 931.794C1351.12 916.578 1334.09 889.018 1322.72 862.685C1321.89 860.772 1321.08 858.851 1320.28 856.93C1308.38 828.513 1295.3 800.509 1271.85 779.553C1262.88 771.542 1253.75 763.138 1239.32 758.797C1222.15 753.606 1201.63 754.877 1183.66 757.683C1171.41 759.59 1159.67 762.139 1147.7 763.795C1142.08 764.573 1136.4 765.152 1130.59 765.394C1093.6 766.951 1054.92 753.713 1028.13 733.65C1001.31 713.565 984.974 687.539 976.065 660.578" stroke="url(#paint28_linear_944_6282)" stroke-width="0.8669" stroke-miterlimit="10"/>
<path opacity="0.54" d="M1521.02 1012.34C1534.18 1000.25 1528.52 981.781 1513.96 970.736C1512.66 969.75 1511.3 968.815 1509.89 967.923C1495.51 958.869 1476.38 954.642 1457.48 951.786C1453.84 951.236 1450.19 950.729 1446.53 950.244C1429.35 947.93 1411.88 945.788 1395.88 940.583C1390.71 938.905 1385.81 936.935 1381.18 934.678C1349.79 919.377 1332.9 891.816 1321.84 865.441C1321.04 863.527 1320.25 861.6 1319.47 859.679C1307.93 831.226 1295.48 803.165 1273.06 781.766C1264.25 773.355 1255.26 764.487 1240.59 759.911C1223.11 754.434 1202.05 755.876 1183.75 759.004C1171.28 761.132 1159.35 763.952 1147.17 765.858C1141.44 766.751 1135.65 767.436 1129.71 767.779C1091.91 769.928 1052.1 756.469 1024.79 735.906C997.454 715.321 981.085 688.581 972.166 660.985" stroke="url(#paint29_linear_944_6282)" stroke-width="0.8669" stroke-miterlimit="10"/>
<path opacity="0.54" d="M1518.64 1016.15C1531.8 1004.08 1526.33 985.659 1511.95 974.513C1510.67 973.52 1509.32 972.571 1507.93 971.671C1493.7 962.51 1474.68 958.119 1455.84 955.106C1452.22 954.528 1448.57 953.992 1444.92 953.471C1427.79 951.029 1410.37 948.766 1394.43 943.503C1389.28 941.804 1384.39 939.826 1379.77 937.563C1348.45 922.176 1331.71 894.623 1320.94 868.197C1320.16 866.276 1319.39 864.349 1318.64 862.428C1307.47 833.939 1295.67 805.8 1274.27 783.973C1265.62 775.155 1256.77 765.837 1241.85 761.025C1224.08 755.27 1202.49 756.876 1183.85 760.318C1171.15 762.66 1159.04 765.758 1146.63 767.915C1140.8 768.929 1134.89 769.721 1128.82 770.157C1090.21 772.898 1049.27 759.225 1021.44 738.155C993.584 717.063 977.186 689.617 968.257 661.385" stroke="url(#paint30_linear_944_6282)" stroke-width="0.8669" stroke-miterlimit="10"/>
<path opacity="0.54" d="M1516.25 1019.97C1529.42 1007.91 1524.12 989.536 1509.93 978.283C1508.66 977.276 1507.33 976.319 1505.95 975.413C1491.85 966.145 1472.96 961.597 1454.19 958.419C1450.58 957.812 1446.95 957.248 1443.31 956.699C1426.24 954.121 1408.86 951.743 1392.98 946.424C1387.85 944.71 1382.98 942.718 1378.37 940.441C1347.12 924.961 1330.53 897.415 1320.05 870.946C1319.29 869.026 1318.55 867.098 1317.82 865.163C1307.03 836.638 1295.92 808.406 1275.5 786.172C1267.03 776.947 1258.3 767.172 1243.13 762.124C1225.06 756.084 1202.93 757.862 1183.96 761.617C1171.04 764.174 1158.74 767.551 1146.1 769.957C1140.17 771.085 1134.16 771.992 1127.96 772.52C1088.54 775.862 1046.47 761.96 1018.12 740.39C989.743 718.798 973.315 690.638 964.376 661.771" stroke="url(#paint31_linear_944_6282)" stroke-width="0.8669" stroke-miterlimit="10"/>
<path opacity="0.54" d="M1513.86 1023.79C1527.03 1011.75 1521.92 993.413 1507.9 982.06C1506.65 981.046 1505.34 980.082 1503.97 979.161C1490.03 969.786 1471.24 965.081 1452.53 961.747C1448.93 961.104 1445.31 960.511 1441.69 959.933C1424.68 957.22 1407.35 954.721 1391.52 949.352C1386.41 947.616 1381.55 945.617 1376.96 943.325C1345.78 927.76 1329.35 900.221 1319.17 873.702C1318.43 871.775 1317.71 869.847 1317.01 867.912C1306.58 839.351 1296.17 811.027 1276.72 788.378C1268.44 778.739 1259.81 768.522 1244.4 763.238C1226.03 756.912 1203.36 758.861 1184.05 762.931C1170.9 765.702 1158.42 769.364 1145.57 772.013C1139.53 773.263 1133.4 774.277 1127.08 774.898C1086.85 778.832 1043.65 764.716 1014.78 742.639C985.885 720.541 969.427 691.673 960.478 662.17" stroke="url(#paint32_linear_944_6282)" stroke-width="0.8669" stroke-miterlimit="10"/>
<path opacity="0.54" d="M1511.47 1027.6C1524.64 1015.58 1519.72 997.29 1505.88 985.837C1504.64 984.816 1503.35 983.838 1501.99 982.91C1488.2 973.435 1469.52 968.558 1450.87 965.067C1447.28 964.396 1443.68 963.774 1440.07 963.167C1423.12 960.319 1405.83 957.705 1390.06 952.279C1384.97 950.53 1380.12 948.516 1375.54 946.21C1344.43 930.559 1328.14 903.027 1318.27 876.458C1317.55 874.531 1316.86 872.596 1316.18 870.661C1306.12 842.065 1296.45 813.64 1277.93 790.592C1269.85 780.531 1261.32 769.871 1245.67 764.359C1227 757.755 1203.79 759.868 1184.15 764.259C1170.78 767.244 1158.11 771.185 1145.03 774.084C1138.88 775.448 1132.64 776.576 1126.19 777.29C1085.15 781.824 1040.82 767.479 1011.43 744.902C982.015 722.304 965.527 692.723 956.578 662.584" stroke="url(#paint33_linear_944_6282)" stroke-width="0.8669" stroke-miterlimit="10"/>
<path opacity="0.54" d="M1509.09 1031.41C1522.27 1019.41 1517.52 1001.17 1503.87 989.607C1502.65 988.572 1501.37 987.586 1500.03 986.651C1486.37 977.069 1467.81 972.035 1449.22 968.387C1445.65 967.687 1442.05 967.03 1438.46 966.402C1421.57 963.417 1404.33 960.69 1388.6 955.206C1383.53 953.443 1378.7 951.408 1374.13 949.094C1343.1 933.35 1326.96 905.825 1317.38 879.214C1316.68 877.279 1316.01 875.344 1315.36 873.409C1305.67 844.778 1296.75 816.239 1279.15 792.798C1271.28 782.316 1262.84 771.221 1246.95 765.466C1227.97 758.576 1204.22 760.853 1184.25 765.566C1170.65 768.772 1157.8 772.984 1144.5 776.14C1138.25 777.618 1131.9 778.861 1125.32 779.667C1083.46 784.794 1038.01 770.235 1008.1 747.144C978.166 724.046 961.648 693.751 952.689 662.977" stroke="url(#paint34_linear_944_6282)" stroke-width="0.8669" stroke-miterlimit="10"/>
<path opacity="0.54" d="M1506.7 1035.23C1519.88 1023.24 1515.32 1005.04 1501.84 993.377C1500.64 992.335 1499.37 991.342 1498.05 990.393C1484.55 980.704 1466.1 975.506 1447.57 971.7C1444.01 970.972 1440.43 970.286 1436.84 969.622C1420.01 966.509 1402.81 963.653 1387.14 958.112C1382.09 956.327 1377.27 954.285 1372.72 951.965C1341.76 936.135 1325.77 908.617 1316.48 881.956C1315.81 880.021 1315.15 878.079 1314.52 876.137C1305.2 847.47 1297.06 818.824 1280.35 794.99C1272.71 784.087 1264.34 772.549 1248.19 766.565C1228.92 759.39 1204.63 761.839 1184.33 766.865C1170.5 770.285 1157.46 774.777 1143.95 778.182C1137.59 779.782 1131.13 781.131 1124.42 782.031C1081.75 787.75 1035.17 772.97 1004.74 749.379C974.285 725.774 957.727 694.772 948.768 663.363" stroke="url(#paint35_linear_944_6282)" stroke-width="0.8669" stroke-miterlimit="10"/>
<path opacity="0.54" d="M1504.31 1039.04C1517.5 1027.08 1513.12 1008.93 1499.82 997.154C1498.63 996.104 1497.38 995.098 1496.07 994.141C1482.71 984.352 1464.38 978.99 1445.92 975.02C1442.37 974.256 1438.8 973.549 1435.23 972.856C1418.46 969.608 1401.3 966.637 1385.69 961.04C1380.66 959.24 1375.86 957.184 1371.32 954.849C1340.43 938.934 1324.59 911.416 1315.6 884.712C1314.95 882.77 1314.32 880.828 1313.71 878.886C1304.77 850.183 1297.42 821.43 1281.58 797.203C1274.17 785.879 1265.86 773.905 1249.48 767.679C1229.91 760.225 1205.08 762.838 1184.44 768.186C1170.39 771.82 1157.16 776.59 1143.42 780.246C1136.96 781.959 1130.38 783.423 1123.55 784.415C1080.07 790.734 1032.36 775.733 1001.41 751.635C970.436 727.53 953.848 695.807 944.879 663.77" stroke="url(#paint36_linear_944_6282)" stroke-width="0.8669" stroke-miterlimit="10"/>
<path opacity="0.54" d="M1501.93 1042.86C1515.11 1030.91 1510.91 1012.8 1497.8 1000.93C1496.63 999.874 1495.39 998.853 1494.1 997.89C1480.88 987.993 1462.66 982.467 1444.26 978.347C1440.72 977.555 1437.17 976.812 1433.61 976.091C1416.9 972.706 1399.79 969.622 1384.23 963.967C1379.22 962.146 1374.43 960.083 1369.9 957.734C1339.08 941.726 1323.4 914.222 1314.7 887.468C1314.07 885.526 1313.46 883.577 1312.88 881.635C1304.31 852.889 1297.78 824.029 1282.79 799.41C1275.63 787.657 1267.37 775.248 1250.74 768.793C1230.87 761.053 1205.5 763.838 1184.53 769.5C1170.25 773.348 1156.85 778.404 1142.88 782.302C1136.32 784.13 1129.63 785.708 1122.67 786.793C1078.38 793.705 1029.55 778.482 998.074 753.885C966.578 729.273 949.959 696.842 940.98 664.169" stroke="url(#paint37_linear_944_6282)" stroke-width="0.8669" stroke-miterlimit="10"/>
<path opacity="0.54" d="M1499.54 1046.67C1512.74 1034.74 1508.72 1016.67 1495.78 1004.7C1494.62 1003.63 1493.41 1002.61 1492.14 1001.63C1479.07 991.628 1460.96 985.944 1442.62 981.66C1439.1 980.839 1435.55 980.068 1432.01 979.318C1415.35 975.798 1398.29 972.599 1382.79 966.887C1377.8 965.052 1373.02 962.974 1368.51 960.611C1337.76 944.517 1322.22 917.014 1313.83 890.217C1313.22 888.268 1312.64 886.319 1312.08 884.376C1303.88 855.595 1298.2 826.627 1284.03 801.616C1277.13 789.442 1268.91 776.597 1252.03 769.9C1231.85 761.874 1205.95 764.83 1184.65 770.806C1170.15 774.876 1156.55 780.203 1142.36 784.351C1135.69 786.3 1128.89 787.985 1121.8 789.164C1076.7 796.668 1026.74 781.231 994.743 756.126C962.727 731.015 946.079 697.87 937.1 664.562" stroke="url(#paint38_linear_944_6282)" stroke-width="0.8669" stroke-miterlimit="10"/>
<path opacity="0.54" d="M1497.16 1050.48C1510.35 1038.57 1506.52 1020.55 1493.76 1008.47C1492.62 1007.39 1491.42 1006.36 1490.15 1005.37C1477.22 995.262 1459.23 989.414 1440.95 984.98C1437.44 984.13 1433.91 983.324 1430.38 982.552C1413.78 978.904 1396.76 975.577 1381.32 969.814C1376.35 967.958 1371.59 965.873 1367.09 963.496C1336.42 947.316 1321.03 919.82 1312.93 892.973C1312.34 891.024 1311.78 889.067 1311.25 887.118C1303.42 858.301 1298.59 829.233 1285.24 803.815C1278.62 791.213 1270.42 777.932 1253.3 771.006C1232.82 762.702 1206.38 765.822 1184.74 772.113C1170.01 776.397 1156.23 782.002 1141.82 786.4C1135.05 788.464 1128.14 790.256 1120.92 791.534C1075.01 799.638 1023.92 783.973 991.404 758.368C958.878 732.75 942.19 698.899 933.201 664.955" stroke="url(#paint39_linear_944_6282)" stroke-width="0.8669" stroke-miterlimit="10"/>
<path opacity="0.54" d="M1494.77 1054.3C1507.97 1042.41 1504.32 1024.44 1491.74 1012.26C1490.62 1011.17 1489.43 1010.12 1488.18 1009.13C1475.4 998.918 1457.52 992.906 1439.31 988.308C1435.81 987.429 1432.29 986.594 1428.77 985.787C1412.24 982.003 1395.26 978.561 1379.87 972.742C1374.92 970.871 1370.17 968.772 1365.68 966.38C1335.08 950.108 1319.84 922.626 1312.04 895.729C1311.47 893.773 1310.94 891.817 1310.43 889.867C1302.97 861.014 1299.02 831.847 1286.45 806.028C1280.11 793.005 1271.92 779.282 1254.56 772.12C1233.78 763.531 1206.8 766.822 1184.83 773.434C1169.88 777.932 1155.92 783.816 1141.28 788.464C1134.4 790.649 1127.38 792.548 1120.03 793.919C1073.32 802.616 1021.09 786.736 988.055 760.625C955.009 734.506 938.291 699.941 929.292 665.362" stroke="url(#paint40_linear_944_6282)" stroke-width="0.8669" stroke-miterlimit="10"/>
<path opacity="0.54" d="M1492.38 1058.12C1505.58 1046.24 1502.11 1028.31 1489.71 1016.03C1488.6 1014.93 1487.43 1013.88 1486.19 1012.86C1473.55 1002.55 1455.79 996.369 1437.64 991.614C1434.16 990.7 1430.65 989.843 1427.14 989.007C1410.66 985.088 1393.73 981.532 1378.39 975.656C1373.46 973.771 1368.73 971.65 1364.25 969.258C1333.72 952.9 1318.63 925.418 1311.12 898.478C1310.57 896.522 1310.06 894.566 1309.58 892.609C1302.49 863.721 1299.43 834.46 1287.64 808.228C1281.6 794.776 1273.41 780.624 1255.8 773.227C1234.72 764.352 1207.2 767.815 1184.9 774.741C1169.72 779.453 1155.56 785.622 1140.71 790.513C1133.73 792.812 1126.59 794.826 1119.12 796.29C1071.59 805.586 1018.24 789.478 984.674 762.86C951.108 736.242 934.36 700.962 925.351 665.748" stroke="url(#paint41_linear_944_6282)" stroke-width="0.8669" stroke-miterlimit="10"/>
<path opacity="0.54" d="M1490 1061.93C1503.22 1050.07 1499.92 1032.18 1487.7 1019.8C1486.61 1018.69 1485.45 1017.62 1484.23 1016.6C1471.74 1006.18 1454.09 999.846 1436 994.934C1432.53 993.991 1429.03 993.099 1425.54 992.242C1409.13 988.186 1392.23 984.509 1376.95 978.583C1372.04 976.676 1367.32 974.549 1362.86 972.142C1332.4 955.699 1317.46 928.224 1310.25 901.234C1309.73 899.271 1309.24 897.314 1308.78 895.351C1302.06 866.426 1299.9 837.081 1288.88 810.434C1283.14 796.561 1274.95 781.966 1257.1 774.334C1235.72 765.18 1207.66 768.807 1185.03 776.047C1169.63 780.974 1155.29 787.421 1140.21 792.562C1133.13 794.976 1125.88 797.103 1118.28 798.66C1069.95 808.549 1015.46 792.22 981.376 765.102C947.29 737.976 930.512 701.99 921.493 666.14" stroke="url(#paint42_linear_944_6282)" stroke-width="0.8669" stroke-miterlimit="10"/>
<path opacity="0.54" d="M1487.61 1065.74C1500.82 1053.9 1497.71 1036.06 1485.68 1023.57C1484.6 1022.45 1483.46 1021.37 1482.26 1020.35C1469.91 1009.82 1452.38 1003.32 1434.35 998.246C1430.89 997.275 1427.41 996.354 1423.93 995.462C1407.57 991.271 1390.73 987.479 1375.5 981.496C1370.61 979.575 1365.9 977.433 1361.45 975.013C1331.06 958.483 1316.28 931.008 1309.36 903.976C1308.86 902.012 1308.39 900.049 1307.96 898.085C1301.61 869.125 1300.37 839.701 1290.1 812.626C1284.68 798.331 1276.46 783.302 1258.37 775.433C1236.68 765.994 1208.09 769.785 1185.12 777.354C1169.49 782.502 1154.96 789.221 1139.66 794.611C1132.47 797.146 1125.11 799.381 1117.38 801.03C1068.23 811.512 1012.62 794.968 978.014 767.343C943.408 739.719 926.6 703.019 917.571 666.533" stroke="url(#paint43_linear_944_6282)" stroke-width="0.8669" stroke-miterlimit="10"/>
<path opacity="0.54" d="M1485.22 1069.56C1498.44 1057.74 1495.52 1039.94 1483.65 1027.35C1482.59 1026.23 1481.46 1025.14 1480.27 1024.1C1468.07 1013.47 1450.65 1006.81 1432.68 1001.58C1429.23 1000.58 1425.76 999.624 1422.3 998.71C1406 994.391 1389.2 990.478 1374.03 984.437C1369.16 982.495 1364.47 980.346 1360.03 977.911C1329.72 961.289 1315.08 933.829 1308.46 906.746C1307.98 904.776 1307.54 902.812 1307.13 900.849C1301.15 871.853 1300.84 842.357 1291.31 814.853C1286.21 800.138 1277.97 784.665 1259.63 776.561C1237.65 766.836 1208.51 770.799 1185.21 778.682C1169.35 784.044 1154.64 791.041 1139.12 796.682C1131.83 799.331 1124.35 801.68 1116.5 803.422C1066.55 814.504 1009.8 797.732 974.676 769.607C939.55 741.475 922.712 704.068 913.683 666.947" stroke="url(#paint44_linear_944_6282)" stroke-width="0.8669" stroke-miterlimit="10"/>
<path opacity="0.54" d="M1482.84 1073.37C1496.06 1061.56 1493.32 1043.82 1481.64 1031.12C1480.6 1029.98 1479.48 1028.89 1478.31 1027.84C1466.26 1017.1 1448.95 1010.28 1431.05 1004.89C1427.62 1003.86 1424.16 1002.88 1420.7 1001.93C1404.46 997.476 1387.7 993.441 1372.59 987.351C1367.74 985.395 1363.06 983.231 1358.64 980.782C1328.4 964.074 1313.91 936.614 1307.59 909.488C1307.13 907.518 1306.71 905.547 1306.33 903.584C1300.72 874.552 1301.35 844.992 1292.55 817.046C1287.79 801.916 1279.51 786.001 1260.93 777.661C1238.64 767.658 1208.97 771.785 1185.34 779.982C1169.26 785.558 1154.36 792.834 1138.62 798.732C1131.22 801.495 1123.64 803.958 1115.66 805.793C1064.89 817.467 1007.02 800.481 971.376 771.849C935.73 743.217 918.862 705.097 909.823 667.34" stroke="url(#paint45_linear_944_6282)" stroke-width="0.8669" stroke-miterlimit="10"/>
<path opacity="0.54" d="M1480.45 1077.19C1493.68 1065.4 1491.12 1047.7 1479.61 1034.89C1478.58 1033.75 1477.49 1032.64 1476.32 1031.58C1464.41 1020.74 1447.22 1013.75 1429.38 1008.21C1425.96 1007.15 1422.51 1006.14 1419.07 1005.17C1402.89 1000.57 1386.18 996.426 1371.12 990.278C1366.28 988.307 1361.63 986.13 1357.21 983.673C1327.05 966.88 1312.7 939.426 1306.67 912.251C1306.23 910.273 1305.84 908.303 1305.48 906.332C1300.24 877.258 1301.81 847.648 1293.74 819.259C1289.32 803.715 1281 787.35 1262.17 778.775C1239.59 768.486 1209.37 772.784 1185.41 781.295C1169.1 787.086 1154.03 794.647 1138.05 800.787C1130.55 803.672 1122.85 806.242 1114.74 808.17C1063.17 820.437 1004.16 803.229 967.997 774.098C931.831 744.959 914.923 706.131 905.884 667.739" stroke="url(#paint46_linear_944_6282)" stroke-width="0.8669" stroke-miterlimit="10"/>
<path opacity="0.54" d="M1478.06 1081C1492.47 1068.18 1488.37 1048.38 1474.35 1035.32C1460.33 1022.28 1438.77 1014.63 1417.46 1008.39C1396.16 1002.15 1373.91 996.704 1355.8 986.551C1323.52 968.444 1309.53 938.177 1304.67 909.074C1299.8 879.964 1302.33 850.304 1294.97 821.465C1290.9 805.507 1282.52 788.7 1263.45 779.889C1240.56 769.314 1209.81 773.784 1185.51 782.616C1161.21 791.448 1139.65 804.222 1113.87 810.555C1061.49 823.422 1001.35 805.993 964.666 776.354C927.981 746.716 911.043 707.174 901.994 668.146" stroke="url(#paint47_linear_944_6282)" stroke-width="0.8669" stroke-miterlimit="10"/>
<path opacity="0.54" d="M415.28 -65.937C402.261 -76.298 375.277 -76.6222 356.998 -69.9429C355.362 -69.3474 353.788 -68.7041 352.271 -68.0265C336.773 -61.1033 326.993 -50.3727 319.156 -39.6298C317.646 -37.5609 316.187 -35.4707 314.739 -33.3791C307.934 -23.55 301.198 -13.572 290.262 -5.17919C286.728 -2.4594 282.848 0.015698 278.653 2.26994C250.234 17.4852 208.32 21.6475 169.7 23.1632C166.895 23.2723 164.079 23.3797 161.257 23.4798C119.541 25.013 77.7356 27.759 44.7499 39.788C33.4934 43.8947 22.1565 48.1571 14.0353 55.2462C4.3628 63.6648 0.357744 74.5048 -1.92941 84.5435C-3.49489 91.388 -4.44046 98.1214 -6.44919 104.73C-7.40078 107.837 -8.5892 110.917 -10.153 113.979C-20.1247 133.477 -45.7814 150.661 -76.6479 161.066C-107.561 171.481 -143.146 175.788 -178.48 175.551" stroke="url(#paint48_linear_944_6282)" stroke-width="0.8669" stroke-miterlimit="10"/>
<path opacity="0.54" d="M419.807 -63.6967C406.811 -74.0604 379.939 -74.4726 361.565 -67.9279C359.922 -67.3398 358.334 -66.7114 356.812 -66.047C341.219 -59.2334 331.246 -48.6034 323.212 -37.9304C321.666 -35.8736 320.171 -33.7957 318.687 -31.7162C311.715 -21.9522 304.837 -12.0287 293.837 -3.6778C290.28 -0.974428 286.392 1.49326 282.183 3.73267C253.667 18.8881 211.802 22.9645 173.19 24.3C170.39 24.3974 167.573 24.4858 164.756 24.5742C123.089 25.8837 81.4514 28.3254 48.0603 39.5739C36.3361 43.5223 24.3779 47.5763 15.8727 54.7588C5.73551 63.2889 1.81077 74.4803 -0.131321 84.7887C-1.45798 91.8164 -2.08406 98.715 -3.81537 105.513C-4.62913 108.705 -5.70427 111.879 -7.17676 115.038C-16.5503 135.141 -42.8026 152.935 -74.4906 163.53C-106.215 174.138 -142.776 178.309 -178.969 177.932" stroke="url(#paint49_linear_944_6282)" stroke-width="0.8669" stroke-miterlimit="10"/>
<path opacity="0.54" d="M424.333 -61.4567C411.365 -71.8157 384.592 -72.3307 366.139 -65.9116C364.492 -65.3367 362.9 -64.7216 361.359 -64.0604C345.657 -57.3522 335.494 -46.8287 327.264 -36.2255C325.684 -34.1868 324.154 -32.121 322.633 -30.0537C315.503 -20.3532 308.462 -10.4816 297.411 -2.17672C293.839 0.511821 289.938 2.96467 285.712 5.19508C257.098 20.2907 215.282 24.2812 176.682 25.4306C173.877 25.5148 171.065 25.5915 168.256 25.6624C126.638 26.7482 85.1347 28.8676 51.3618 39.352C39.1603 43.1406 26.6001 46.9892 17.7109 54.2652C7.10904 62.9069 3.27427 74.4512 1.67987 85.0234C0.582377 92.2328 0.285444 99.2981 -1.16583 106.28C-1.85404 109.562 -2.80103 112.819 -4.18216 116.074C-12.9672 136.781 -39.815 155.185 -72.3246 165.971C-104.871 176.77 -142.395 180.802 -179.449 180.289" stroke="url(#paint50_linear_944_6282)" stroke-width="0.8669" stroke-miterlimit="10"/>
<path opacity="0.54" d="M428.862 -59.2223C415.916 -69.5839 389.256 -70.1929 370.704 -63.8967C369.043 -63.3366 367.443 -62.7289 365.898 -62.0809C350.091 -55.484 339.744 -45.0595 331.32 -34.532C329.704 -32.5054 328.128 -30.4534 326.575 -28.4041C319.277 -18.7687 312.092 -8.94578 300.977 -0.682787C297.381 1.98933 293.473 4.43477 289.23 6.65617C260.509 21.6903 218.745 25.5891 180.163 26.56C177.363 26.6324 174.55 26.6901 171.736 26.7477C130.167 27.6099 88.787 29.3862 54.6534 39.1288C41.9675 42.7501 28.8028 46.3993 19.5322 53.7629C8.47527 62.5177 4.7208 74.4134 3.46444 85.2477C2.59874 92.633 2.62832 99.871 1.45709 107.037C0.90669 110.403 0.072972 113.755 -1.21681 117.106C-9.41337 138.417 -36.8567 157.431 -70.1781 168.409C-103.536 179.4 -142.033 183.291 -179.949 182.643" stroke="url(#paint51_linear_944_6282)" stroke-width="0.8669" stroke-miterlimit="10"/>
<path opacity="0.54" d="M433.397 -56.9802C420.48 -67.3371 393.926 -68.0415 375.279 -61.8799C373.611 -61.3272 371.997 -60.7344 370.435 -60.0954C354.523 -53.6097 343.983 -43.2858 335.362 -32.8282C333.7 -30.8154 332.101 -28.7798 330.511 -26.7426C323.046 -17.1724 315.72 -7.40393 304.54 0.817225C300.93 3.47451 296.996 5.90936 292.749 8.11752C263.931 23.0918 222.215 26.9047 183.644 27.6895C180.84 27.7488 178.032 27.7947 175.226 27.8349C133.696 28.4718 92.4183 29.8829 57.9452 38.9058C44.7653 42.3584 31.0127 45.817 21.3607 53.2683C9.83907 62.1347 6.17457 74.3833 5.25363 85.4856C4.6171 93.0526 4.98282 100.465 4.08198 107.813C3.65713 111.269 2.94897 114.71 1.75316 118.152C-5.84526 140.068 -33.8842 159.692 -68.0271 170.861C-102.207 182.043 -141.667 185.794 -180.442 185.005" stroke="url(#paint52_linear_944_6282)" stroke-width="0.8669" stroke-miterlimit="10"/>
<path opacity="0.54" d="M437.923 -54.7403C425.028 -65.0998 398.589 -65.8981 379.841 -59.8594C378.169 -59.32 376.548 -58.7346 374.972 -58.1104C358.961 -51.7286 348.231 -41.5111 339.414 -31.1234C337.716 -29.1227 336.073 -27.1067 334.457 -25.0801C326.825 -15.575 319.345 -5.85681 308.113 2.31826C304.49 4.96071 300.541 7.38072 296.277 9.57988C267.364 24.4885 225.686 28.2198 187.135 28.8201C184.339 28.8618 181.527 28.8946 178.726 28.9231C137.245 29.3363 96.0551 30.3673 61.2538 38.6913C47.5755 41.9618 33.2323 45.2357 23.1963 52.7805C11.21 61.7584 7.63549 74.36 7.06224 85.7261C6.66715 93.4705 7.34975 101.054 6.72896 108.586C6.43227 112.125 5.84 115.654 4.74519 119.194C-2.26474 141.715 -30.8992 161.948 -65.854 173.309C-100.846 184.683 -141.278 188.294 -180.915 187.369" stroke="url(#paint53_linear_944_6282)" stroke-width="0.8669" stroke-miterlimit="10"/>
<path opacity="0.54" d="M442.451 -52.5061C429.585 -62.8608 403.254 -63.7604 384.419 -57.8488C382.741 -57.3227 381.104 -56.7462 379.523 -56.1354C363.408 -49.8648 352.484 -39.7479 343.47 -29.43C341.739 -27.4474 340.058 -25.4377 338.396 -23.4249C330.603 -13.9774 322.972 -4.31536 311.68 3.81204C308.032 6.43808 304.076 8.85068 299.806 11.0424C270.795 25.8912 229.166 29.5366 190.624 29.9567C187.823 29.9852 185.016 30.0063 182.223 30.0172C140.791 30.2067 99.6654 30.8413 64.5526 38.4754C50.3662 41.5622 35.4518 44.6546 25.0344 52.2871C12.5931 61.3781 9.10151 74.3252 8.86367 85.9594C8.69776 93.8854 9.70949 101.635 9.36612 109.357C9.20725 112.982 8.72824 116.604 7.72479 120.241C1.30334 143.365 -27.917 164.21 -63.6933 175.762C-99.5065 187.327 -140.902 190.798 -181.4 189.738" stroke="url(#paint54_linear_944_6282)" stroke-width="0.8669" stroke-miterlimit="10"/>
<path opacity="0.54" d="M446.979 -50.2655C434.135 -60.6229 407.915 -61.6105 388.985 -55.8335C387.291 -55.3164 385.649 -54.7532 384.062 -54.1497C367.838 -47.9846 356.734 -37.9725 347.516 -27.7319C345.749 -25.7614 344.035 -23.7698 342.337 -21.7691C334.376 -12.3868 326.604 -2.77925 315.247 5.30632C311.586 7.91752 307.616 10.3153 303.329 12.498C274.211 27.2854 232.63 30.8449 194.109 31.0805C191.314 31.0974 188.515 31.1009 185.708 31.0971C144.324 31.0629 103.254 31.2745 67.8487 38.2467C53.1594 41.1382 37.6589 44.0592 26.8575 51.7851C13.9515 60.9877 10.5498 74.2878 10.6501 86.1841C10.7159 94.286 12.0542 102.209 11.9908 110.114C11.9575 113.828 11.6067 117.534 10.6946 121.267C4.87127 144.997 -24.9542 166.451 -61.5425 178.195C-98.1675 189.952 -140.536 193.282 -181.895 192.087" stroke="url(#paint55_linear_944_6282)" stroke-width="0.8669" stroke-miterlimit="10"/>
<path opacity="0.54" d="M451.514 -48.024C438.699 -58.3766 412.578 -59.4671 393.557 -53.8115C391.859 -53.3076 390.213 -52.7576 388.608 -52.1632C372.279 -46.1093 360.992 -36.1962 351.578 -26.0255C349.765 -24.0688 348.014 -22.0893 346.283 -20.1066C338.155 -10.7894 330.229 -1.23212 318.821 6.80736C315.135 9.40214 311.159 11.7925 306.857 13.9604C277.642 28.6879 236.11 32.1615 197.601 32.2111C194.801 32.2147 192.007 32.2066 189.208 32.1853C147.873 31.9274 106.861 31.7101 71.1502 38.0248C55.9511 40.7135 39.8785 43.478 28.6957 51.2915C15.325 60.6057 12.0133 74.2587 12.449 86.423C12.744 94.7066 14.421 102.798 14.6281 110.885C14.7326 114.685 14.495 118.485 13.6769 122.308C8.44207 146.642 -21.9693 168.707 -59.3791 180.642C-96.8257 192.589 -140.157 195.78 -182.378 194.45" stroke="url(#paint56_linear_944_6282)" stroke-width="0.8669" stroke-miterlimit="10"/>
<path opacity="0.54" d="M456.04 -45.7835C443.244 -56.133 417.24 -57.3232 398.132 -51.7947C396.426 -51.2983 394.766 -50.7631 393.155 -50.1761C376.73 -44.2319 365.239 -34.421 355.629 -24.3201C353.78 -22.3756 351.996 -20.4141 350.229 -18.4436C341.933 -9.19146 333.864 0.317103 322.393 8.30891C318.694 10.8889 314.701 13.2702 310.383 15.4291C281.07 30.0968 239.587 33.4845 201.089 33.3481C198.294 33.34 195.498 33.3128 192.705 33.2798C151.418 32.7982 110.466 32.1272 74.4584 37.8108C58.7424 40.2894 42.0978 42.8972 30.5433 50.8C16.7175 60.2273 13.4861 74.2317 14.2695 86.6598C14.7963 95.1192 16.7998 103.383 17.2843 111.66C17.5144 115.549 17.4023 119.439 16.6756 123.358C12.0389 148.298 -18.9777 170.971 -57.1993 183.098C-95.4578 195.238 -139.762 198.287 -182.842 196.816" stroke="url(#paint57_linear_944_6282)" stroke-width="0.8669" stroke-miterlimit="10"/>
<path opacity="0.54" d="M460.569 -43.5493C447.804 -53.8999 421.903 -55.1797 402.697 -49.7799C400.977 -49.2983 399.31 -48.7706 397.694 -48.1968C381.161 -42.358 369.49 -32.652 359.683 -22.621C357.801 -20.6944 355.969 -18.7409 354.178 -16.7868C345.714 -7.59976 337.504 1.85427 325.967 9.81007C322.253 12.3752 318.236 14.7401 313.911 16.8916C284.494 31.492 243.058 34.7997 204.58 34.4788C201.781 34.4575 198.99 34.4186 196.205 34.3681C154.967 33.6628 114.057 32.5291 77.76 37.589C61.5297 39.8516 44.3201 42.3103 32.3719 50.305C18.0815 59.8438 14.9304 74.1995 16.0614 86.8914C16.8271 95.5341 19.1474 103.969 19.9242 112.425C20.2825 116.398 20.296 120.377 19.6606 124.393C15.6097 149.943 -15.9901 173.221 -55.0429 185.538C-94.1133 197.87 -139.391 200.778 -183.332 199.172" stroke="url(#paint58_linear_944_6282)" stroke-width="0.8669" stroke-miterlimit="10"/>
<path opacity="0.54" d="M465.095 -41.3091C452.35 -51.6565 426.566 -53.036 407.262 -47.765C405.538 -47.2966 403.864 -46.7763 402.234 -46.2174C385.596 -40.4898 373.732 -30.8844 363.728 -20.9232C361.81 -19.0089 359.944 -17.0733 358.105 -15.1272C349.484 -6.00365 341.11 3.39854 329.511 11.3067C325.774 13.8554 321.75 16.2129 317.421 18.3511C287.906 32.8917 246.522 36.1076 208.05 35.6124C205.259 35.5735 202.461 35.5273 199.671 35.4635C158.482 34.5345 117.632 32.9222 81.0374 37.3759C64.2981 39.4108 46.5085 41.7304 34.1859 49.8202C19.4308 59.4706 16.3697 74.1792 17.8387 87.1333C18.8336 95.9577 21.4831 104.559 22.5399 113.2C23.0334 117.263 23.1628 121.33 22.6187 125.443C19.1564 151.596 -13.039 175.485 -52.9037 187.993C-92.7956 200.516 -139.039 203.291 -183.839 201.543" stroke="url(#paint59_linear_944_6282)" stroke-width="0.8669" stroke-miterlimit="10"/>
<path opacity="0.54" d="M469.631 -39.0676C456.918 -49.4161 431.239 -50.8911 411.838 -45.7488C410.107 -45.2878 408.419 -44.7824 406.782 -44.2308C390.045 -38.6071 377.99 -29.1081 367.783 -19.2243C365.819 -17.3237 363.928 -15.3987 362.055 -13.4706C353.266 -4.41214 344.748 4.94136 333.088 12.8018C329.337 15.3357 325.299 17.6784 320.953 19.8076C291.341 34.2883 249.996 37.4168 211.544 36.7371C208.749 36.685 205.959 36.6212 203.174 36.5458C162.037 35.3873 121.249 33.2905 84.3523 37.1496C67.104 38.9569 48.7415 41.1449 36.0305 49.3149C20.8204 59.0784 17.8396 74.1384 19.6537 87.3621C20.8803 96.3623 23.8563 105.136 25.1906 113.966C25.8122 118.114 26.0645 122.276 25.6144 126.479C22.7502 153.238 -10.0407 177.736 -50.7269 190.436C-91.4307 203.151 -138.657 205.783 -184.308 203.902" stroke="url(#paint60_linear_944_6282)" stroke-width="0.8669" stroke-miterlimit="10"/>
<path opacity="0.54" d="M474.158 -36.827C461.464 -47.1723 435.89 -48.7427 416.411 -43.726C414.676 -43.2783 412.97 -42.7819 411.329 -42.2436C394.487 -36.7311 382.239 -27.3327 371.845 -17.5171C369.845 -15.6287 367.911 -13.7233 366.002 -11.8073C357.043 -2.80821 348.386 6.48494 336.662 14.3036C332.888 16.821 328.842 19.1563 324.479 21.2765C294.761 35.6958 253.474 38.7399 215.034 37.8742C212.244 37.8104 209.449 37.7335 206.672 37.6405C165.574 36.2568 124.857 33.658 87.652 36.9342C69.8903 38.5007 50.9522 40.5627 37.8668 48.8278C22.192 58.7028 19.3012 74.1158 21.4534 87.6017C22.9092 96.7836 26.224 105.726 27.8286 114.738C28.5784 118.97 28.9563 123.221 28.5975 127.521C26.3218 154.883 -7.06201 179.986 -48.5628 192.883C-90.0881 205.789 -138.277 208.282 -184.79 206.265" stroke="url(#paint61_linear_944_6282)" stroke-width="0.8669" stroke-miterlimit="10"/>
<path opacity="0.54" d="M478.686 -34.5928C466.023 -44.9392 440.555 -46.6051 420.978 -41.7171C419.226 -41.2784 417.526 -40.7936 415.871 -40.2702C398.923 -34.8689 386.492 -25.5696 375.892 -15.8255C373.859 -13.955 371.885 -12.056 369.944 -10.158C360.816 -1.22398 352.016 8.02047 340.231 15.7914C336.442 18.294 332.38 20.6203 328.003 22.7257C298.187 37.0852 256.939 40.0418 218.52 38.9916C215.725 38.9146 212.939 38.8201 210.167 38.7156C169.118 37.1081 128.478 33.9898 90.9581 36.7007C72.6953 38.022 53.1791 39.9641 39.7 48.321C23.5579 58.3135 20.7597 74.0736 23.2499 87.8216C24.9471 97.1809 28.5788 106.294 30.4608 115.496C31.3458 119.819 31.8396 124.158 31.5722 128.554C29.8849 156.521 -4.08474 182.235 -46.407 195.323C-88.7442 208.421 -137.906 210.772 -185.278 208.615" stroke="url(#paint62_linear_944_6282)" stroke-width="0.8669" stroke-miterlimit="10"/>
<path opacity="0.54" d="M483.213 -32.3527C470.569 -42.6959 445.218 -44.4615 425.541 -39.6965C423.785 -39.271 422.071 -38.8011 420.406 -38.2792C403.351 -32.9834 390.729 -23.7905 379.941 -14.1146C377.872 -12.2563 375.856 -10.3769 373.888 -8.48953C364.603 0.380987 355.639 9.57359 343.802 17.2985C339.99 19.7846 335.923 22.0977 331.53 24.1941C301.618 38.4879 260.417 41.3645 222.009 40.1282C219.22 40.0395 216.429 39.9318 213.656 39.8082C172.655 37.977 132.103 34.3408 94.2483 36.4832C75.4799 37.5461 55.3803 39.3798 41.5295 47.826C24.9324 57.9315 22.2144 74.043 25.04 88.0591C26.9665 97.6001 30.9273 106.88 33.0894 116.266C34.1025 120.672 34.7122 125.099 34.5458 129.594C33.4567 158.166 -1.11819 184.488 -44.2524 197.768C-87.4085 211.051 -137.536 213.269 -185.77 210.976" stroke="url(#paint63_linear_944_6282)" stroke-width="0.8669" stroke-miterlimit="10"/>
<path opacity="0.54" d="M487.749 -30.1112C475.137 -40.4555 449.888 -42.3107 430.126 -37.6787C428.365 -37.2665 426.634 -36.8055 424.965 -36.2969C407.814 -31.1108 394.999 -22.0185 384.008 -12.4199C381.903 -10.5738 379.851 -8.70648 377.837 -6.83286C368.384 1.97254 359.279 11.1106 347.378 18.7937C343.552 21.265 339.469 23.569 335.058 25.6564C305.04 39.8888 263.898 42.6811 225.501 41.2588C222.707 41.1569 219.924 41.0316 217.156 40.8963C176.204 38.8414 135.748 34.6699 97.5571 36.2687C78.2928 37.0748 57.5975 38.8044 43.3653 47.3382C26.3035 57.5553 23.6755 74.0197 26.8488 88.2996C29.007 98.0164 33.2944 107.469 35.7365 117.039C36.8848 121.536 37.6104 126.051 37.5354 130.642C37.0348 159.818 1.87399 186.751 -42.0817 200.222C-86.0497 213.697 -137.15 215.775 -186.245 213.347" stroke="url(#paint64_linear_944_6282)" stroke-width="0.8669" stroke-miterlimit="10"/>
<path opacity="0.54" d="M492.274 -27.871C479.682 -38.2121 454.55 -40.167 434.688 -35.6579C432.911 -35.2547 431.185 -34.8054 429.49 -34.3073C412.23 -29.2266 399.225 -20.2407 388.038 -10.712C385.89 -8.88551 383.811 -7.02881 381.761 -5.16737C372.141 3.57293 362.892 12.6623 350.927 20.3035C347.086 22.76 342.979 25.0476 338.572 27.1292C308.456 41.3017 267.353 44.0065 228.974 42.4056C226.186 42.292 223.408 42.1552 220.638 42.0008C179.735 39.7222 139.387 35.0111 100.841 36.063C81.0764 36.599 59.8022 38.2335 45.1859 46.8609C27.6594 57.1895 25.1214 74.0069 28.6327 88.5489C31.0201 98.4474 35.6436 108.074 38.3561 117.826C39.6326 122.407 40.4812 127.018 40.5001 131.699C40.5976 161.48 4.83167 189.022 -39.9482 202.689C-84.7281 216.357 -136.802 218.293 -186.758 215.73" stroke="url(#paint65_linear_944_6282)" stroke-width="0.8669" stroke-miterlimit="10"/>
<path opacity="0.54" d="M496.803 -25.6366C484.242 -35.9788 459.204 -38.0249 439.256 -33.6488C437.474 -33.2588 435.732 -32.8186 434.032 -32.3338C416.667 -27.3643 403.479 -18.4774 392.095 -9.01856C389.911 -7.20421 387.786 -5.36128 385.713 -3.51626C375.925 5.15894 366.523 14.1981 354.506 21.7932C350.641 24.2333 346.528 26.5134 342.106 28.5802C311.893 42.6929 270.839 45.3118 232.471 43.5248C229.681 43.3922 226.908 43.2436 224.134 43.076C183.28 40.5737 143.052 35.3187 104.148 35.8297C83.8929 36.0973 62.0204 37.6335 47.0228 46.3485C29.0412 56.7902 26.5835 73.959 30.4329 88.7632C33.052 98.8376 38.002 108.637 40.9946 118.573C42.3993 123.237 43.3733 127.937 43.4836 132.715C44.1696 163.1 7.80815 191.252 -37.7836 205.112C-83.385 218.97 -136.422 220.767 -187.24 218.068" stroke="url(#paint66_linear_944_6282)" stroke-width="0.8669" stroke-miterlimit="10"/>
<path opacity="0.54" d="M501.33 -23.3962C488.788 -33.7353 463.867 -35.8811 443.822 -31.6337C442.033 -31.2512 440.277 -30.8257 438.573 -30.3542C421.109 -25.4885 407.73 -16.7081 396.14 -7.32069C393.92 -5.51852 391.762 -3.6936 389.643 -1.86233C379.688 6.74776 370.144 15.7324 358.063 23.2856C354.184 25.7109 350.054 27.9821 345.616 30.0398C315.305 44.0927 274.293 46.6183 235.944 44.6527C233.159 44.5084 230.382 44.3466 227.615 44.1614C186.81 41.4355 146.717 35.6265 107.431 35.605C86.6905 35.5925 64.2214 37.0495 48.8424 45.8521C30.3962 56.4054 28.0188 73.9255 32.2229 89.0009C35.0809 99.2586 40.3504 109.223 43.6204 119.348C45.1602 124.104 46.2502 128.892 46.4518 133.766C47.7263 164.755 10.7789 193.518 -35.6343 207.569C-82.0476 221.619 -136.057 223.275 -187.737 220.441" stroke="url(#paint67_linear_944_6282)" stroke-width="0.8669" stroke-miterlimit="10"/>
<path opacity="0.54" d="M505.865 -21.1546C493.355 -31.4947 468.539 -33.736 448.403 -29.61C446.61 -29.2407 444.847 -28.8226 443.126 -28.3601C425.557 -23.6057 411.985 -14.9259 400.208 -5.60675C397.952 -3.81675 395.749 -2.00557 393.606 -0.190723C383.49 8.36168 373.795 17.2902 361.653 24.7958C357.75 27.2046 353.616 29.4625 349.161 31.5113C318.746 45.4969 277.79 47.944 239.451 45.7924C236.662 45.6348 233.893 45.4555 231.132 45.2587C190.375 42.3091 150.43 35.9419 110.759 35.3938C89.5327 35.1011 66.4601 36.4715 50.6971 45.3676C31.7862 56.0325 29.4988 73.9055 34.0409 89.2431C37.1281 99.6824 42.7267 109.814 46.2767 120.123C47.9447 124.962 49.1576 129.846 49.4532 134.81C51.3258 166.405 13.7733 195.776 -33.4519 210.019C-80.6867 224.26 -135.659 225.777 -188.198 222.802" stroke="url(#paint68_linear_944_6282)" stroke-width="0.8669" stroke-miterlimit="10"/>
<path opacity="0.54" d="M510.394 -18.9198C497.903 -29.2568 473.202 -31.592 452.971 -27.6005C451.164 -27.246 449.394 -26.8354 447.668 -26.3861C429.994 -21.7429 416.238 -13.1621 404.258 -3.92028C401.959 -2.14987 399.729 -0.349293 397.538 1.45763C387.254 9.94493 377.406 18.8232 365.212 26.2827C361.296 28.6767 357.144 30.9256 352.675 32.9595C322.163 46.8852 281.246 49.2449 242.928 46.9088C240.144 46.7396 237.371 46.547 234.617 46.3328C193.909 43.1594 154.124 36.2298 114.046 35.1577C92.3496 34.5748 68.6683 35.8702 52.5239 44.854C33.1579 55.632 30.9508 73.8564 35.831 89.4562C39.1499 100.071 45.075 110.376 48.9148 120.87C50.7083 125.799 52.0494 130.766 52.4364 135.827C54.8975 168.025 16.759 198.008 -31.2877 212.442C-79.3344 226.875 -135.28 228.25 -188.68 225.14" stroke="url(#paint69_linear_944_6282)" stroke-width="0.8669" stroke-miterlimit="10"/>
<path opacity="0.54" d="M514.919 -16.6801C502.457 -27.0123 477.864 -29.4488 457.533 -25.5802C455.719 -25.2332 453.937 -24.8432 452.202 -24.3955C434.42 -19.8578 420.474 -11.3834 408.306 -2.20983C405.971 -0.451594 403.706 1.33682 401.481 3.12574C391.03 11.5479 381.041 20.3716 368.782 27.7893C364.849 30.1743 360.686 32.4026 356.207 34.4349C325.598 48.3008 284.73 50.5746 246.421 48.0583C243.632 47.8758 240.867 47.6658 238.109 47.4382C197.44 44.0396 157.834 36.5507 117.349 34.9546C95.182 34.0815 70.8822 35.3004 54.3538 44.3777C34.5232 55.2672 32.406 73.8446 37.6242 89.7065C41.1723 100.503 47.4362 110.976 51.5438 121.658C53.4751 126.672 54.9295 131.733 55.4078 136.891C58.4574 169.693 19.7234 200.286 -29.1352 214.911C-78.0034 229.536 -134.915 230.777 -189.173 227.526" stroke="url(#paint70_linear_944_6282)" stroke-width="0.8669" stroke-miterlimit="10"/>
<path opacity="0.54" d="M519.447 -14.4398C505.898 -25.6958 478.061 -27.6944 456.744 -22.4159C435.436 -17.1359 419.446 -6.26058 405.423 4.78124C391.399 15.8231 378.2 27.589 359.728 35.8961C326.789 50.7008 282.211 52.146 241.604 48.5194C200.984 44.8971 161.562 36.8373 120.655 34.7273C98.0202 33.5581 73.1064 34.7138 56.1966 43.8787C35.9013 54.8798 33.8741 73.8101 39.4373 89.9416C45.0006 106.073 56.6067 121.488 58.4043 137.928C62.052 171.336 22.7225 202.538 -26.9576 217.354C-76.6377 232.171 -134.522 233.272 -189.642 229.885" stroke="url(#paint71_linear_944_6282)" stroke-width="0.8669" stroke-miterlimit="10"/>
</g>
<defs>
<linearGradient id="paint0_linear_944_6282" x1="433.687" y1="690.729" x2="130.212" y2="1136.3" gradientUnits="userSpaceOnUse">
<stop stop-color="#7ED4EF"/>
<stop offset="0.2294" stop-color="#66BFE6"/>
<stop offset="0.711" stop-color="#298BD0"/>
<stop offset="1" stop-color="#0169C2"/>
</linearGradient>
<linearGradient id="paint1_linear_944_6282" x1="437.456" y1="690.975" x2="132.156" y2="1139.22" gradientUnits="userSpaceOnUse">
<stop stop-color="#7ED4EF"/>
<stop offset="0.2294" stop-color="#66BFE6"/>
<stop offset="0.711" stop-color="#298BD0"/>
<stop offset="1" stop-color="#0169C2"/>
</linearGradient>
<linearGradient id="paint2_linear_944_6282" x1="441.174" y1="691.186" x2="134.048" y2="1142.11" gradientUnits="userSpaceOnUse">
<stop stop-color="#7ED4EF"/>
<stop offset="0.2294" stop-color="#66BFE6"/>
<stop offset="0.711" stop-color="#298BD0"/>
<stop offset="1" stop-color="#0169C2"/>
</linearGradient>
<linearGradient id="paint3_linear_944_6282" x1="444.856" y1="691.374" x2="135.905" y2="1144.98" gradientUnits="userSpaceOnUse">
<stop stop-color="#7ED4EF"/>
<stop offset="0.2294" stop-color="#66BFE6"/>
<stop offset="0.711" stop-color="#298BD0"/>
<stop offset="1" stop-color="#0169C2"/>
</linearGradient>
<linearGradient id="paint4_linear_944_6282" x1="448.513" y1="691.544" x2="137.736" y2="1147.83" gradientUnits="userSpaceOnUse">
<stop stop-color="#7ED4EF"/>
<stop offset="0.2294" stop-color="#66BFE6"/>
<stop offset="0.711" stop-color="#298BD0"/>
<stop offset="1" stop-color="#0169C2"/>
</linearGradient>
<linearGradient id="paint5_linear_944_6282" x1="452.15" y1="691.7" x2="139.548" y2="1150.67" gradientUnits="userSpaceOnUse">
<stop stop-color="#7ED4EF"/>
<stop offset="0.2294" stop-color="#66BFE6"/>
<stop offset="0.711" stop-color="#298BD0"/>
<stop offset="1" stop-color="#0169C2"/>
</linearGradient>
<linearGradient id="paint6_linear_944_6282" x1="455.769" y1="691.848" x2="141.342" y2="1153.49" gradientUnits="userSpaceOnUse">
<stop stop-color="#7ED4EF"/>
<stop offset="0.2294" stop-color="#66BFE6"/>
<stop offset="0.711" stop-color="#298BD0"/>
<stop offset="1" stop-color="#0169C2"/>
</linearGradient>
<linearGradient id="paint7_linear_944_6282" x1="459.38" y1="691.986" x2="143.128" y2="1156.31" gradientUnits="userSpaceOnUse">
<stop stop-color="#7ED4EF"/>
<stop offset="0.2294" stop-color="#66BFE6"/>
<stop offset="0.711" stop-color="#298BD0"/>
<stop offset="1" stop-color="#0169C2"/>
</linearGradient>
<linearGradient id="paint8_linear_944_6282" x1="462.981" y1="692.119" x2="144.904" y2="1159.12" gradientUnits="userSpaceOnUse">
<stop stop-color="#7ED4EF"/>
<stop offset="0.2294" stop-color="#66BFE6"/>
<stop offset="0.711" stop-color="#298BD0"/>
<stop offset="1" stop-color="#0169C2"/>
</linearGradient>
<linearGradient id="paint9_linear_944_6282" x1="466.577" y1="692.247" x2="146.675" y2="1161.93" gradientUnits="userSpaceOnUse">
<stop stop-color="#7ED4EF"/>
<stop offset="0.2294" stop-color="#66BFE6"/>
<stop offset="0.711" stop-color="#298BD0"/>
<stop offset="1" stop-color="#0169C2"/>
</linearGradient>
<linearGradient id="paint10_linear_944_6282" x1="470.163" y1="692.37" x2="148.436" y2="1164.73" gradientUnits="userSpaceOnUse">
<stop stop-color="#7ED4EF"/>
<stop offset="0.2294" stop-color="#66BFE6"/>
<stop offset="0.711" stop-color="#298BD0"/>
<stop offset="1" stop-color="#0169C2"/>
</linearGradient>
<linearGradient id="paint11_linear_944_6282" x1="473.746" y1="692.49" x2="150.194" y2="1167.53" gradientUnits="userSpaceOnUse">
<stop stop-color="#7ED4EF"/>
<stop offset="0.2294" stop-color="#66BFE6"/>
<stop offset="0.711" stop-color="#298BD0"/>
<stop offset="1" stop-color="#0169C2"/>
</linearGradient>
<linearGradient id="paint12_linear_944_6282" x1="477.324" y1="692.607" x2="151.946" y2="1170.33" gradientUnits="userSpaceOnUse">
<stop stop-color="#7ED4EF"/>
<stop offset="0.2294" stop-color="#66BFE6"/>
<stop offset="0.711" stop-color="#298BD0"/>
<stop offset="1" stop-color="#0169C2"/>
</linearGradient>
<linearGradient id="paint13_linear_944_6282" x1="480.898" y1="692.721" x2="153.696" y2="1173.12" gradientUnits="userSpaceOnUse">
<stop stop-color="#7ED4EF"/>
<stop offset="0.2294" stop-color="#66BFE6"/>
<stop offset="0.711" stop-color="#298BD0"/>
<stop offset="1" stop-color="#0169C2"/>
</linearGradient>
<linearGradient id="paint14_linear_944_6282" x1="484.466" y1="692.833" x2="155.439" y2="1175.92" gradientUnits="userSpaceOnUse">
<stop stop-color="#7ED4EF"/>
<stop offset="0.2294" stop-color="#66BFE6"/>
<stop offset="0.711" stop-color="#298BD0"/>
<stop offset="1" stop-color="#0169C2"/>
</linearGradient>
<linearGradient id="paint15_linear_944_6282" x1="488.037" y1="692.944" x2="157.185" y2="1178.71" gradientUnits="userSpaceOnUse">
<stop stop-color="#7ED4EF"/>
<stop offset="0.2294" stop-color="#66BFE6"/>
<stop offset="0.711" stop-color="#298BD0"/>
<stop offset="1" stop-color="#0169C2"/>
</linearGradient>
<linearGradient id="paint16_linear_944_6282" x1="491.602" y1="693.053" x2="158.925" y2="1181.49" gradientUnits="userSpaceOnUse">
<stop stop-color="#7ED4EF"/>
<stop offset="0.2294" stop-color="#66BFE6"/>
<stop offset="0.711" stop-color="#298BD0"/>
<stop offset="1" stop-color="#0169C2"/>
</linearGradient>
<linearGradient id="paint17_linear_944_6282" x1="495.164" y1="693.16" x2="160.662" y2="1184.28" gradientUnits="userSpaceOnUse">
<stop stop-color="#7ED4EF"/>
<stop offset="0.2294" stop-color="#66BFE6"/>
<stop offset="0.711" stop-color="#298BD0"/>
<stop offset="1" stop-color="#0169C2"/>
</linearGradient>
<linearGradient id="paint18_linear_944_6282" x1="498.726" y1="693.266" x2="162.4" y2="1187.07" gradientUnits="userSpaceOnUse">
<stop stop-color="#7ED4EF"/>
<stop offset="0.2294" stop-color="#66BFE6"/>
<stop offset="0.711" stop-color="#298BD0"/>
<stop offset="1" stop-color="#0169C2"/>
</linearGradient>
<linearGradient id="paint19_linear_944_6282" x1="502.286" y1="693.371" x2="164.134" y2="1189.85" gradientUnits="userSpaceOnUse">
<stop stop-color="#7ED4EF"/>
<stop offset="0.2294" stop-color="#66BFE6"/>
<stop offset="0.711" stop-color="#298BD0"/>
<stop offset="1" stop-color="#0169C2"/>
</linearGradient>
<linearGradient id="paint20_linear_944_6282" x1="505.845" y1="693.475" x2="165.868" y2="1192.63" gradientUnits="userSpaceOnUse">
<stop stop-color="#7ED4EF"/>
<stop offset="0.2294" stop-color="#66BFE6"/>
<stop offset="0.711" stop-color="#298BD0"/>
<stop offset="1" stop-color="#0169C2"/>
</linearGradient>
<linearGradient id="paint21_linear_944_6282" x1="509.4" y1="693.579" x2="167.599" y2="1195.42" gradientUnits="userSpaceOnUse">
<stop stop-color="#7ED4EF"/>
<stop offset="0.2294" stop-color="#66BFE6"/>
<stop offset="0.711" stop-color="#298BD0"/>
<stop offset="1" stop-color="#0169C2"/>
</linearGradient>
<linearGradient id="paint22_linear_944_6282" x1="512.957" y1="693.681" x2="169.331" y2="1198.2" gradientUnits="userSpaceOnUse">
<stop stop-color="#7ED4EF"/>
<stop offset="0.2294" stop-color="#66BFE6"/>
<stop offset="0.711" stop-color="#298BD0"/>
<stop offset="1" stop-color="#0169C2"/>
</linearGradient>
<linearGradient id="paint23_linear_944_6282" x1="516.51" y1="693.783" x2="171.06" y2="1200.98" gradientUnits="userSpaceOnUse">
<stop stop-color="#7ED4EF"/>
<stop offset="0.2294" stop-color="#66BFE6"/>
<stop offset="0.711" stop-color="#298BD0"/>
<stop offset="1" stop-color="#0169C2"/>
</linearGradient>
<linearGradient id="paint24_linear_944_6282" x1="1001.36" y1="650.916" x2="1377.78" y2="1118.62" gradientUnits="userSpaceOnUse">
<stop stop-color="#7ED4EF"/>
<stop offset="0.2294" stop-color="#66BFE6"/>
<stop offset="0.711" stop-color="#298BD0"/>
<stop offset="1" stop-color="#0169C2"/>
</linearGradient>
<linearGradient id="paint25_linear_944_6282" x1="997.597" y1="651.207" x2="1376.28" y2="1121.73" gradientUnits="userSpaceOnUse">
<stop stop-color="#7ED4EF"/>
<stop offset="0.2294" stop-color="#66BFE6"/>
<stop offset="0.711" stop-color="#298BD0"/>
<stop offset="1" stop-color="#0169C2"/>
</linearGradient>
<linearGradient id="paint26_linear_944_6282" x1="993.879" y1="651.456" x2="1374.83" y2="1124.79" gradientUnits="userSpaceOnUse">
<stop stop-color="#7ED4EF"/>
<stop offset="0.2294" stop-color="#66BFE6"/>
<stop offset="0.711" stop-color="#298BD0"/>
<stop offset="1" stop-color="#0169C2"/>
</linearGradient>
<linearGradient id="paint27_linear_944_6282" x1="990.197" y1="651.677" x2="1373.41" y2="1127.82" gradientUnits="userSpaceOnUse">
<stop stop-color="#7ED4EF"/>
<stop offset="0.2294" stop-color="#66BFE6"/>
<stop offset="0.711" stop-color="#298BD0"/>
<stop offset="1" stop-color="#0169C2"/>
</linearGradient>
<linearGradient id="paint28_linear_944_6282" x1="986.541" y1="651.879" x2="1372.02" y2="1130.84" gradientUnits="userSpaceOnUse">
<stop stop-color="#7ED4EF"/>
<stop offset="0.2294" stop-color="#66BFE6"/>
<stop offset="0.711" stop-color="#298BD0"/>
<stop offset="1" stop-color="#0169C2"/>
</linearGradient>
<linearGradient id="paint29_linear_944_6282" x1="982.905" y1="652.064" x2="1370.64" y2="1133.84" gradientUnits="userSpaceOnUse">
<stop stop-color="#7ED4EF"/>
<stop offset="0.2294" stop-color="#66BFE6"/>
<stop offset="0.711" stop-color="#298BD0"/>
<stop offset="1" stop-color="#0169C2"/>
</linearGradient>
<linearGradient id="paint30_linear_944_6282" x1="979.283" y1="652.237" x2="1369.29" y2="1136.82" gradientUnits="userSpaceOnUse">
<stop stop-color="#7ED4EF"/>
<stop offset="0.2294" stop-color="#66BFE6"/>
<stop offset="0.711" stop-color="#298BD0"/>
<stop offset="1" stop-color="#0169C2"/>
</linearGradient>
<linearGradient id="paint31_linear_944_6282" x1="975.672" y1="652.402" x2="1367.94" y2="1139.8" gradientUnits="userSpaceOnUse">
<stop stop-color="#7ED4EF"/>
<stop offset="0.2294" stop-color="#66BFE6"/>
<stop offset="0.711" stop-color="#298BD0"/>
<stop offset="1" stop-color="#0169C2"/>
</linearGradient>
<linearGradient id="paint32_linear_944_6282" x1="972.073" y1="652.559" x2="1366.6" y2="1142.77" gradientUnits="userSpaceOnUse">
<stop stop-color="#7ED4EF"/>
<stop offset="0.2294" stop-color="#66BFE6"/>
<stop offset="0.711" stop-color="#298BD0"/>
<stop offset="1" stop-color="#0169C2"/>
</linearGradient>
<linearGradient id="paint33_linear_944_6282" x1="968.479" y1="652.709" x2="1365.27" y2="1145.73" gradientUnits="userSpaceOnUse">
<stop stop-color="#7ED4EF"/>
<stop offset="0.2294" stop-color="#66BFE6"/>
<stop offset="0.711" stop-color="#298BD0"/>
<stop offset="1" stop-color="#0169C2"/>
</linearGradient>
<linearGradient id="paint34_linear_944_6282" x1="964.893" y1="652.855" x2="1363.95" y2="1148.69" gradientUnits="userSpaceOnUse">
<stop stop-color="#7ED4EF"/>
<stop offset="0.2294" stop-color="#66BFE6"/>
<stop offset="0.711" stop-color="#298BD0"/>
<stop offset="1" stop-color="#0169C2"/>
</linearGradient>
<linearGradient id="paint35_linear_944_6282" x1="961.31" y1="652.996" x2="1362.63" y2="1151.64" gradientUnits="userSpaceOnUse">
<stop stop-color="#7ED4EF"/>
<stop offset="0.2294" stop-color="#66BFE6"/>
<stop offset="0.711" stop-color="#298BD0"/>
<stop offset="1" stop-color="#0169C2"/>
</linearGradient>
<linearGradient id="paint36_linear_944_6282" x1="957.733" y1="653.134" x2="1361.32" y2="1154.6" gradientUnits="userSpaceOnUse">
<stop stop-color="#7ED4EF"/>
<stop offset="0.2294" stop-color="#66BFE6"/>
<stop offset="0.711" stop-color="#298BD0"/>
<stop offset="1" stop-color="#0169C2"/>
</linearGradient>
<linearGradient id="paint37_linear_944_6282" x1="954.16" y1="653.27" x2="1360.01" y2="1157.54" gradientUnits="userSpaceOnUse">
<stop stop-color="#7ED4EF"/>
<stop offset="0.2294" stop-color="#66BFE6"/>
<stop offset="0.711" stop-color="#298BD0"/>
<stop offset="1" stop-color="#0169C2"/>
</linearGradient>
<linearGradient id="paint38_linear_944_6282" x1="950.589" y1="653.402" x2="1358.7" y2="1160.49" gradientUnits="userSpaceOnUse">
<stop stop-color="#7ED4EF"/>
<stop offset="0.2294" stop-color="#66BFE6"/>
<stop offset="0.711" stop-color="#298BD0"/>
<stop offset="1" stop-color="#0169C2"/>
</linearGradient>
<linearGradient id="paint39_linear_944_6282" x1="947.022" y1="653.532" x2="1357.4" y2="1163.43" gradientUnits="userSpaceOnUse">
<stop stop-color="#7ED4EF"/>
<stop offset="0.2294" stop-color="#66BFE6"/>
<stop offset="0.711" stop-color="#298BD0"/>
<stop offset="1" stop-color="#0169C2"/>
</linearGradient>
<linearGradient id="paint40_linear_944_6282" x1="943.458" y1="653.661" x2="1356.1" y2="1166.37" gradientUnits="userSpaceOnUse">
<stop stop-color="#7ED4EF"/>
<stop offset="0.2294" stop-color="#66BFE6"/>
<stop offset="0.711" stop-color="#298BD0"/>
<stop offset="1" stop-color="#0169C2"/>
</linearGradient>
<linearGradient id="paint41_linear_944_6282" x1="939.893" y1="653.788" x2="1354.8" y2="1169.31" gradientUnits="userSpaceOnUse">
<stop stop-color="#7ED4EF"/>
<stop offset="0.2294" stop-color="#66BFE6"/>
<stop offset="0.711" stop-color="#298BD0"/>
<stop offset="1" stop-color="#0169C2"/>
</linearGradient>
<linearGradient id="paint42_linear_944_6282" x1="936.333" y1="653.914" x2="1353.5" y2="1172.25" gradientUnits="userSpaceOnUse">
<stop stop-color="#7ED4EF"/>
<stop offset="0.2294" stop-color="#66BFE6"/>
<stop offset="0.711" stop-color="#298BD0"/>
<stop offset="1" stop-color="#0169C2"/>
</linearGradient>
<linearGradient id="paint43_linear_944_6282" x1="932.772" y1="654.038" x2="1352.2" y2="1175.19" gradientUnits="userSpaceOnUse">
<stop stop-color="#7ED4EF"/>
<stop offset="0.2294" stop-color="#66BFE6"/>
<stop offset="0.711" stop-color="#298BD0"/>
<stop offset="1" stop-color="#0169C2"/>
</linearGradient>
<linearGradient id="paint44_linear_944_6282" x1="929.215" y1="654.161" x2="1350.91" y2="1178.12" gradientUnits="userSpaceOnUse">
<stop stop-color="#7ED4EF"/>
<stop offset="0.2294" stop-color="#66BFE6"/>
<stop offset="0.711" stop-color="#298BD0"/>
<stop offset="1" stop-color="#0169C2"/>
</linearGradient>
<linearGradient id="paint45_linear_944_6282" x1="925.658" y1="654.283" x2="1349.61" y2="1181.06" gradientUnits="userSpaceOnUse">
<stop stop-color="#7ED4EF"/>
<stop offset="0.2294" stop-color="#66BFE6"/>
<stop offset="0.711" stop-color="#298BD0"/>
<stop offset="1" stop-color="#0169C2"/>
</linearGradient>
<linearGradient id="paint46_linear_944_6282" x1="922.104" y1="654.403" x2="1348.32" y2="1183.99" gradientUnits="userSpaceOnUse">
<stop stop-color="#7ED4EF"/>
<stop offset="0.2294" stop-color="#66BFE6"/>
<stop offset="0.711" stop-color="#298BD0"/>
<stop offset="1" stop-color="#0169C2"/>
</linearGradient>
<linearGradient id="paint47_linear_944_6282" x1="918.548" y1="654.524" x2="1347.03" y2="1186.92" gradientUnits="userSpaceOnUse">
<stop stop-color="#7ED4EF"/>
<stop offset="0.2294" stop-color="#66BFE6"/>
<stop offset="0.711" stop-color="#298BD0"/>
<stop offset="1" stop-color="#0169C2"/>
</linearGradient>
<linearGradient id="paint48_linear_944_6282" x1="-186.864" y1="168.105" x2="207.04" y2="-258.63" gradientUnits="userSpaceOnUse">
<stop stop-color="#7ED4EF"/>
<stop offset="0.2294" stop-color="#66BFE6"/>
<stop offset="0.711" stop-color="#298BD0"/>
<stop offset="1" stop-color="#0169C2"/>
</linearGradient>
<linearGradient id="paint49_linear_944_6282" x1="-187.458" y1="170.367" x2="208.815" y2="-258.935" gradientUnits="userSpaceOnUse">
<stop stop-color="#7ED4EF"/>
<stop offset="0.2294" stop-color="#66BFE6"/>
<stop offset="0.711" stop-color="#298BD0"/>
<stop offset="1" stop-color="#0169C2"/>
</linearGradient>
<linearGradient id="paint50_linear_944_6282" x1="-188.096" y1="172.59" x2="210.546" y2="-259.278" gradientUnits="userSpaceOnUse">
<stop stop-color="#7ED4EF"/>
<stop offset="0.2294" stop-color="#66BFE6"/>
<stop offset="0.711" stop-color="#298BD0"/>
<stop offset="1" stop-color="#0169C2"/>
</linearGradient>
<linearGradient id="paint51_linear_944_6282" x1="-188.763" y1="174.786" x2="212.248" y2="-259.649" gradientUnits="userSpaceOnUse">
<stop stop-color="#7ED4EF"/>
<stop offset="0.2294" stop-color="#66BFE6"/>
<stop offset="0.711" stop-color="#298BD0"/>
<stop offset="1" stop-color="#0169C2"/>
</linearGradient>
<linearGradient id="paint52_linear_944_6282" x1="-189.451" y1="176.963" x2="213.929" y2="-260.038" gradientUnits="userSpaceOnUse">
<stop stop-color="#7ED4EF"/>
<stop offset="0.2294" stop-color="#66BFE6"/>
<stop offset="0.711" stop-color="#298BD0"/>
<stop offset="1" stop-color="#0169C2"/>
</linearGradient>
<linearGradient id="paint53_linear_944_6282" x1="-190.155" y1="179.125" x2="215.595" y2="-260.443" gradientUnits="userSpaceOnUse">
<stop stop-color="#7ED4EF"/>
<stop offset="0.2294" stop-color="#66BFE6"/>
<stop offset="0.711" stop-color="#298BD0"/>
<stop offset="1" stop-color="#0169C2"/>
</linearGradient>
<linearGradient id="paint54_linear_944_6282" x1="-190.871" y1="181.276" x2="217.248" y2="-260.858" gradientUnits="userSpaceOnUse">
<stop stop-color="#7ED4EF"/>
<stop offset="0.2294" stop-color="#66BFE6"/>
<stop offset="0.711" stop-color="#298BD0"/>
<stop offset="1" stop-color="#0169C2"/>
</linearGradient>
<linearGradient id="paint55_linear_944_6282" x1="-191.594" y1="183.419" x2="218.893" y2="-261.282" gradientUnits="userSpaceOnUse">
<stop stop-color="#7ED4EF"/>
<stop offset="0.2294" stop-color="#66BFE6"/>
<stop offset="0.711" stop-color="#298BD0"/>
<stop offset="1" stop-color="#0169C2"/>
</linearGradient>
<linearGradient id="paint56_linear_944_6282" x1="-192.327" y1="185.553" x2="220.529" y2="-261.714" gradientUnits="userSpaceOnUse">
<stop stop-color="#7ED4EF"/>
<stop offset="0.2294" stop-color="#66BFE6"/>
<stop offset="0.711" stop-color="#298BD0"/>
<stop offset="1" stop-color="#0169C2"/>
</linearGradient>
<linearGradient id="paint57_linear_944_6282" x1="-193.067" y1="187.683" x2="222.158" y2="-262.151" gradientUnits="userSpaceOnUse">
<stop stop-color="#7ED4EF"/>
<stop offset="0.2294" stop-color="#66BFE6"/>
<stop offset="0.711" stop-color="#298BD0"/>
<stop offset="1" stop-color="#0169C2"/>
</linearGradient>
<linearGradient id="paint58_linear_944_6282" x1="-193.811" y1="189.807" x2="223.783" y2="-262.593" gradientUnits="userSpaceOnUse">
<stop stop-color="#7ED4EF"/>
<stop offset="0.2294" stop-color="#66BFE6"/>
<stop offset="0.711" stop-color="#298BD0"/>
<stop offset="1" stop-color="#0169C2"/>
</linearGradient>
<linearGradient id="paint59_linear_944_6282" x1="-194.559" y1="191.927" x2="225.403" y2="-263.039" gradientUnits="userSpaceOnUse">
<stop stop-color="#7ED4EF"/>
<stop offset="0.2294" stop-color="#66BFE6"/>
<stop offset="0.711" stop-color="#298BD0"/>
<stop offset="1" stop-color="#0169C2"/>
</linearGradient>
<linearGradient id="paint60_linear_944_6282" x1="-195.31" y1="194.044" x2="227.021" y2="-263.488" gradientUnits="userSpaceOnUse">
<stop stop-color="#7ED4EF"/>
<stop offset="0.2294" stop-color="#66BFE6"/>
<stop offset="0.711" stop-color="#298BD0"/>
<stop offset="1" stop-color="#0169C2"/>
</linearGradient>
<linearGradient id="paint61_linear_944_6282" x1="-196.064" y1="196.159" x2="228.636" y2="-263.94" gradientUnits="userSpaceOnUse">
<stop stop-color="#7ED4EF"/>
<stop offset="0.2294" stop-color="#66BFE6"/>
<stop offset="0.711" stop-color="#298BD0"/>
<stop offset="1" stop-color="#0169C2"/>
</linearGradient>
<linearGradient id="paint62_linear_944_6282" x1="-196.822" y1="198.27" x2="230.246" y2="-264.395" gradientUnits="userSpaceOnUse">
<stop stop-color="#7ED4EF"/>
<stop offset="0.2294" stop-color="#66BFE6"/>
<stop offset="0.711" stop-color="#298BD0"/>
<stop offset="1" stop-color="#0169C2"/>
</linearGradient>
<linearGradient id="paint63_linear_944_6282" x1="-197.581" y1="200.38" x2="231.856" y2="-264.851" gradientUnits="userSpaceOnUse">
<stop stop-color="#7ED4EF"/>
<stop offset="0.2294" stop-color="#66BFE6"/>
<stop offset="0.711" stop-color="#298BD0"/>
<stop offset="1" stop-color="#0169C2"/>
</linearGradient>
<linearGradient id="paint64_linear_944_6282" x1="-198.343" y1="202.487" x2="233.463" y2="-265.31" gradientUnits="userSpaceOnUse">
<stop stop-color="#7ED4EF"/>
<stop offset="0.2294" stop-color="#66BFE6"/>
<stop offset="0.711" stop-color="#298BD0"/>
<stop offset="1" stop-color="#0169C2"/>
</linearGradient>
<linearGradient id="paint65_linear_944_6282" x1="-199.106" y1="204.594" x2="235.069" y2="-265.769" gradientUnits="userSpaceOnUse">
<stop stop-color="#7ED4EF"/>
<stop offset="0.2294" stop-color="#66BFE6"/>
<stop offset="0.711" stop-color="#298BD0"/>
<stop offset="1" stop-color="#0169C2"/>
</linearGradient>
<linearGradient id="paint66_linear_944_6282" x1="-199.871" y1="206.698" x2="236.673" y2="-266.231" gradientUnits="userSpaceOnUse">
<stop stop-color="#7ED4EF"/>
<stop offset="0.2294" stop-color="#66BFE6"/>
<stop offset="0.711" stop-color="#298BD0"/>
<stop offset="1" stop-color="#0169C2"/>
</linearGradient>
<linearGradient id="paint67_linear_944_6282" x1="-200.636" y1="208.802" x2="238.276" y2="-266.693" gradientUnits="userSpaceOnUse">
<stop stop-color="#7ED4EF"/>
<stop offset="0.2294" stop-color="#66BFE6"/>
<stop offset="0.711" stop-color="#298BD0"/>
<stop offset="1" stop-color="#0169C2"/>
</linearGradient>
<linearGradient id="paint68_linear_944_6282" x1="-201.404" y1="210.904" x2="239.877" y2="-267.157" gradientUnits="userSpaceOnUse">
<stop stop-color="#7ED4EF"/>
<stop offset="0.2294" stop-color="#66BFE6"/>
<stop offset="0.711" stop-color="#298BD0"/>
<stop offset="1" stop-color="#0169C2"/>
</linearGradient>
<linearGradient id="paint69_linear_944_6282" x1="-202.172" y1="213.006" x2="241.477" y2="-267.621" gradientUnits="userSpaceOnUse">
<stop stop-color="#7ED4EF"/>
<stop offset="0.2294" stop-color="#66BFE6"/>
<stop offset="0.711" stop-color="#298BD0"/>
<stop offset="1" stop-color="#0169C2"/>
</linearGradient>
<linearGradient id="paint70_linear_944_6282" x1="-202.942" y1="215.106" x2="243.076" y2="-268.087" gradientUnits="userSpaceOnUse">
<stop stop-color="#7ED4EF"/>
<stop offset="0.2294" stop-color="#66BFE6"/>
<stop offset="0.711" stop-color="#298BD0"/>
<stop offset="1" stop-color="#0169C2"/>
</linearGradient>
<linearGradient id="paint71_linear_944_6282" x1="-203.711" y1="217.206" x2="244.676" y2="-268.553" gradientUnits="userSpaceOnUse">
<stop stop-color="#7ED4EF"/>
<stop offset="0.2294" stop-color="#66BFE6"/>
<stop offset="0.711" stop-color="#298BD0"/>
<stop offset="1" stop-color="#0169C2"/>
</linearGradient>
<clipPath id="clip0_944_6282">
<rect width="1440" height="1569" fill="white"/>
</clipPath>
</defs>
</svg>
