<svg width="1440" height="2593" viewBox="0 0 1440 2593" fill="none" xmlns="http://www.w3.org/2000/svg">
<path opacity="0.54" d="M-37.755 2528.84C-73.6774 2482.17 -55.7299 2410.54 -13.4329 2370.21C-9.65734 2366.6 -5.71764 2363.21 -1.6685 2360.01C39.6983 2327.31 93.5956 2314.24 146.152 2306.3C156.275 2304.77 166.453 2303.4 176.63 2302.06C224.454 2295.77 272.879 2289.83 317.392 2270.93C331.811 2264.83 345.408 2257.52 358.267 2249.12C445.132 2192.16 493.393 2086.44 527.728 1986.28C530.218 1979.01 532.708 1971.7 535.17 1964.37C571.804 1856.05 613.8 1748.94 690.022 1676.14C716.04 1651.3 742.798 1626.43 779.595 1613.41C823.315 1597.87 873.546 1600.17 919.044 1606.05C950.069 1610.04 980.164 1615.54 1010.48 1618.09C1024.73 1619.26 1039.04 1619.78 1053.54 1619.29C1145.88 1616.12 1239.36 1568.78 1306.97 1499.65C1374.65 1430.4 1419 1341.57 1443.33 1248" stroke="url(#paint0_linear_815_6334)" stroke-width="2.37175" stroke-miterlimit="10"/>
<path opacity="0.54" d="M-31.214 2543.45C-67.1638 2496.83 -49.6813 2425.4 -7.90413 2384.66C-4.15595 2381.02 -0.270966 2377.57 3.72345 2374.34C44.6799 2341.27 98.2762 2327.56 150.669 2319.02C160.764 2317.38 170.914 2315.9 181.065 2314.45C228.724 2307.64 277.013 2301.27 321.389 2282.14C335.752 2275.96 349.323 2268.63 362.127 2260.17C448.8 2202.88 496.651 2097.2 530.193 1996.84C532.628 1989.57 535.036 1982.23 537.443 1974.9C573.065 1866.45 613.611 1759.42 686.714 1684.62C712.377 1658.36 738.669 1631.6 776.151 1617.68C820.691 1601.04 872.4 1603.97 918.828 1611.08C950.482 1615.92 981.07 1622.46 1012.01 1625.96C1026.54 1627.61 1041.18 1628.54 1056.03 1628.4C1150.59 1627.52 1247.16 1579.35 1316.19 1508.27C1385.3 1437.11 1429.76 1345.54 1454.08 1249.53" stroke="url(#paint1_linear_815_6334)" stroke-width="2.37175" stroke-miterlimit="10"/>
<path opacity="0.54" d="M-24.6823 2558.06C-60.632 2511.52 -43.6694 2440.22 -2.38469 2399.13C1.30878 2395.47 5.13904 2391.99 9.13345 2388.71C49.7069 2355.22 102.975 2340.88 155.203 2331.75C165.244 2330 175.367 2328.41 185.49 2326.85C232.985 2319.54 281.164 2312.68 325.376 2293.36C339.685 2287.12 353.2 2279.74 365.977 2271.23C452.459 2213.61 499.899 2107.95 532.621 2007.4C535.001 2000.1 537.354 1992.77 539.679 1985.44C574.289 1876.85 613.33 1769.79 683.369 1693.08C708.676 1665.36 734.503 1636.77 772.669 1621.94C818.03 1604.22 871.216 1607.8 918.547 1616.14C950.831 1621.81 981.911 1629.41 1013.46 1633.87C1028.28 1635.95 1043.19 1637.32 1058.41 1637.54C1155.18 1638.93 1254.84 1589.91 1325.29 1516.89C1395.83 1443.78 1440.37 1349.5 1464.72 1251.06" stroke="url(#paint2_linear_815_6334)" stroke-width="2.37175" stroke-miterlimit="10"/>
<path opacity="0.54" d="M-18.1678 2572.67C-54.1449 2526.19 -37.6748 2455.08 3.14485 2413.58C6.7836 2409.86 10.5865 2406.35 14.5262 2403.04C54.6892 2369.15 107.656 2354.21 159.693 2344.47C169.707 2342.61 179.802 2340.88 189.87 2339.21C237.201 2331.39 285.271 2324.09 329.346 2304.55C343.6 2298.23 357.088 2290.82 369.838 2282.25C456.128 2224.28 503.131 2118.65 535.059 2017.94C537.384 2010.63 539.655 2003.27 541.926 1995.91C575.523 1887.19 612.977 1780.05 680.034 1701.5C704.958 1672.31 730.347 1641.89 769.17 1626.16C815.352 1607.36 870.015 1611.57 918.249 1621.12C951.135 1627.61 982.734 1636.28 1014.88 1641.7C1029.98 1644.24 1045.22 1646.02 1060.79 1646.59C1159.77 1650.26 1262.53 1600.38 1334.41 1525.45C1406.36 1450.43 1450.98 1353.41 1475.36 1252.54" stroke="url(#paint3_linear_815_6334)" stroke-width="2.37175" stroke-miterlimit="10"/>
<path opacity="0.54" d="M-11.6248 2587.31C-47.6019 2540.9 -31.6242 2469.96 8.67559 2428.05C12.287 2424.3 16.0352 2420.74 19.9475 2417.38C59.7002 2383.07 112.366 2367.5 164.239 2357.16C174.225 2355.16 184.266 2353.36 194.306 2351.58C241.473 2343.24 289.406 2335.49 333.345 2315.74C347.544 2309.37 361.005 2301.87 373.7 2293.28C459.798 2234.98 506.391 2129.37 537.498 2028.47C539.769 2021.14 541.985 2013.78 544.174 2006.42C576.758 1897.53 612.544 1790.23 676.701 1709.93C701.242 1679.23 726.22 1647.03 765.7 1630.4C812.702 1610.51 868.843 1615.38 918.007 1626.13C951.522 1633.43 983.641 1643.2 1016.39 1649.55C1031.79 1652.53 1047.33 1654.75 1063.23 1655.68C1164.43 1661.64 1270.28 1610.92 1343.58 1534.04C1416.95 1457.08 1461.66 1357.35 1486.03 1254.05" stroke="url(#paint4_linear_815_6334)" stroke-width="2.37175" stroke-miterlimit="10"/>
<path opacity="0.54" d="M-5.0877 2601.91C-41.0922 2555.57 -25.607 2484.82 14.2278 2442.49C17.7844 2438.72 21.5053 2435.13 25.3629 2431.71C64.7325 2397.02 117.07 2380.83 168.779 2369.88C178.737 2367.78 188.724 2365.83 198.737 2363.97C245.74 2355.11 293.563 2346.9 337.338 2326.96C351.482 2320.53 364.888 2312.98 377.555 2304.33C463.435 2245.7 509.645 2140.09 539.931 2039.03C542.12 2031.7 544.281 2024.31 546.415 2016.95C577.988 1907.93 612.05 1800.41 673.388 1718.41C697.492 1686.18 722.087 1652.2 762.25 1634.66C810.074 1613.68 867.692 1619.21 917.759 1631.19C951.876 1639.34 984.515 1650.15 1017.87 1657.45C1033.54 1660.87 1049.38 1663.5 1065.63 1664.81C1169.05 1673.05 1278 1621.48 1352.71 1542.68C1427.51 1463.81 1472.3 1361.35 1496.7 1255.6" stroke="url(#paint5_linear_815_6334)" stroke-width="2.37175" stroke-miterlimit="10"/>
<path opacity="0.54" d="M1.41939 2616.52C-34.5851 2570.26 -19.6197 2499.67 19.7226 2456.97C23.2245 2453.16 26.918 2449.53 30.7209 2446.08C69.6801 2410.98 121.717 2394.15 173.261 2382.6C183.165 2380.39 193.151 2378.34 203.137 2376.34C250.003 2366.98 297.69 2358.31 341.3 2338.15C355.39 2331.64 368.769 2324.06 381.409 2315.38C467.097 2256.43 512.896 2150.85 542.389 2049.59C544.523 2042.23 546.63 2034.84 548.682 2027.48C579.242 1918.32 611.525 1810.5 670.074 1726.86C693.739 1693.08 717.952 1657.37 758.772 1638.93C807.416 1616.88 866.484 1623.04 917.481 1636.22C952.227 1645.2 985.359 1657.07 1019.34 1665.33C1035.29 1669.22 1051.46 1672.26 1068.07 1673.92C1173.7 1684.43 1285.73 1632.04 1361.87 1551.3C1438.1 1470.48 1482.96 1365.31 1507.4 1257.14" stroke="url(#paint6_linear_815_6334)" stroke-width="2.37175" stroke-miterlimit="10"/>
<path opacity="0.54" d="M7.95784 2631.13C-28.074 2584.93 -13.5737 2514.53 25.2487 2471.41C28.7233 2467.55 32.3621 2463.89 36.1376 2460.41C74.7138 2424.9 126.422 2407.47 177.775 2395.3C187.652 2392.97 197.583 2390.81 207.542 2388.71C254.244 2378.83 301.794 2369.72 345.267 2349.34C359.302 2342.77 372.626 2335.14 385.239 2326.41C470.736 2267.1 516.124 2161.54 544.796 2060.12C546.876 2052.76 548.9 2045.38 550.897 2037.96C580.445 1928.66 610.841 1820.49 666.708 1735.29C689.881 1699.94 713.766 1662.49 755.269 1643.15C804.734 1620 865.28 1626.81 917.18 1641.2C952.528 1651 986.179 1663.94 1020.76 1673.16C1037.01 1677.48 1053.46 1680.96 1070.42 1682.98C1178.27 1695.78 1293.39 1642.52 1370.96 1559.86C1448.6 1477.13 1493.55 1369.23 1518.01 1258.61" stroke="url(#paint7_linear_815_6334)" stroke-width="2.37175" stroke-miterlimit="10"/>
<path opacity="0.54" d="M14.4943 2645.77C-21.5375 2599.64 -7.55703 2529.39 30.8003 2485.89C34.2202 2482 37.8042 2478.31 41.5524 2474.78C79.7182 2438.86 131.126 2420.83 182.315 2408.05C192.164 2405.59 202.068 2403.32 211.972 2401.1C258.509 2390.7 305.95 2381.13 349.259 2360.55C363.24 2353.91 376.536 2346.25 389.094 2337.46C474.399 2277.82 519.378 2172.3 547.229 2070.69C549.254 2063.3 551.223 2055.91 553.139 2048.5C581.674 1939.06 610.155 1830.53 663.368 1743.74C686.021 1706.81 709.632 1667.66 751.792 1647.41C802.078 1623.17 864.101 1630.64 916.931 1646.24C952.909 1656.85 987.053 1670.89 1022.24 1681.04C1038.76 1685.83 1055.53 1689.71 1072.82 1692.09C1182.89 1707.17 1301.11 1653.08 1380.09 1568.48C1459.16 1483.81 1504.19 1373.19 1528.68 1260.15" stroke="url(#paint8_linear_815_6334)" stroke-width="2.37175" stroke-miterlimit="10"/>
<path opacity="0.54" d="M21.0366 2660.38C-14.9952 2614.31 -1.53453 2544.24 36.3303 2500.36C39.7229 2496.45 43.2522 2492.7 46.973 2489.14C84.7284 2452.84 135.835 2434.15 186.86 2420.77C196.682 2418.2 206.531 2415.82 216.407 2413.49C262.781 2402.58 310.112 2392.56 353.257 2371.77C367.183 2365.07 380.452 2357.35 392.982 2348.52C478.096 2288.55 522.664 2183.05 549.695 2081.25C551.665 2073.86 553.552 2066.45 555.413 2059.03C582.936 1949.46 609.392 1840.54 660.061 1752.23C682.167 1713.68 705.504 1672.83 748.321 1651.71C799.428 1626.4 862.928 1634.5 916.661 1651.33C953.24 1662.76 987.904 1677.87 1023.72 1688.97C1040.54 1694.2 1057.61 1698.52 1075.26 1701.26C1187.54 1718.63 1308.85 1663.67 1389.26 1577.16C1469.75 1490.57 1514.87 1377.22 1539.35 1261.73" stroke="url(#paint9_linear_815_6334)" stroke-width="2.37175" stroke-miterlimit="10"/>
<path opacity="0.54" d="M27.5497 2674.99C-8.50947 2629 4.48605 2559.1 41.8585 2514.8C45.1963 2510.84 48.6982 2507.06 52.3643 2503.48C89.7367 2466.76 140.515 2447.47 191.375 2433.49C201.143 2430.81 210.992 2428.29 220.814 2425.89C267.023 2414.45 314.217 2404 357.253 2382.99C371.124 2376.23 384.339 2368.43 396.842 2359.57C481.737 2299.24 525.921 2193.77 552.131 2091.81C554.047 2084.39 555.88 2076.98 557.658 2069.56C584.169 1959.85 608.573 1850.5 656.725 1760.68C678.256 1720.52 701.347 1678 744.848 1655.95C796.776 1629.55 861.753 1638.28 916.389 1656.33C953.597 1668.62 988.781 1684.76 1025.17 1696.85C1042.27 1702.51 1059.64 1707.28 1077.64 1710.37C1192.17 1730.01 1316.54 1674.23 1398.37 1585.75C1480.29 1497.24 1525.48 1381.16 1550 1263.24" stroke="url(#paint10_linear_815_6334)" stroke-width="2.37175" stroke-miterlimit="10"/>
<path opacity="0.54" d="M34.0886 2689.6C-1.9706 2643.66 10.5051 2573.95 47.3851 2529.25C50.6681 2525.26 54.1427 2521.45 57.7541 2517.81C94.7162 2480.69 145.194 2460.77 195.89 2446.19C205.63 2443.4 215.424 2440.77 225.246 2438.23C271.291 2426.3 318.376 2415.35 361.248 2394.12C375.064 2387.28 388.251 2379.46 400.699 2370.57C485.403 2309.91 529.15 2204.47 554.594 2102.31C556.427 2094.9 558.233 2087.46 559.956 2080.01C585.455 1970.17 607.725 1860.4 653.442 1769.08C674.344 1727.3 697.244 1683.09 741.429 1660.16C794.177 1632.67 860.632 1642.05 916.171 1661.31C954.008 1674.42 989.684 1691.63 1026.67 1704.68C1044.07 1710.8 1061.75 1715.98 1080.11 1719.42C1196.85 1741.34 1324.31 1684.7 1407.57 1594.31C1490.9 1503.86 1536.21 1385.07 1560.72 1264.72" stroke="url(#paint11_linear_815_6334)" stroke-width="2.37175" stroke-miterlimit="10"/>
<path opacity="0.54" d="M40.6318 2704.24C4.54523 2658.39 16.5285 2588.84 52.916 2543.72C56.1717 2539.7 59.5916 2535.84 63.1756 2532.18C99.7546 2494.67 149.904 2474.12 200.408 2458.91C210.121 2455.98 219.888 2453.27 229.655 2450.62C275.536 2438.17 322.512 2426.79 365.219 2405.34C378.981 2398.45 392.113 2390.57 404.534 2381.62C489.046 2320.64 532.383 2215.2 557.006 2112.87C558.784 2105.43 560.508 2097.99 562.177 2090.55C586.636 1980.57 606.744 1870.39 650.081 1777.56C670.354 1734.17 693.09 1688.29 737.904 1664.43C791.473 1635.87 859.405 1645.88 915.874 1666.37C954.313 1680.3 990.509 1698.58 1028.13 1712.58C1045.8 1719.15 1063.8 1724.76 1082.49 1728.56C1201.45 1752.77 1332 1695.29 1416.68 1602.96C1501.44 1510.59 1546.83 1389.04 1571.37 1266.28" stroke="url(#paint12_linear_815_6334)" stroke-width="2.37175" stroke-miterlimit="10"/>
<path opacity="0.54" d="M47.169 2718.85C11.0825 2673.05 22.5732 2603.67 58.4683 2558.2C61.6693 2554.15 65.0618 2550.24 68.5911 2546.54C104.76 2508.62 154.608 2487.45 204.948 2471.66C214.634 2468.62 224.346 2465.78 234.086 2463.01C279.83 2450.05 326.641 2438.23 369.212 2416.56C382.919 2409.58 396.024 2401.68 408.417 2392.67C492.738 2331.34 535.664 2225.95 559.467 2123.43C561.19 2115.99 562.859 2108.52 564.446 2101.08C587.893 1990.94 605.758 1880.35 646.769 1786.02C666.358 1740.98 688.957 1693.43 734.455 1668.7C788.844 1639.04 858.254 1649.71 915.626 1671.41C954.695 1686.16 991.383 1705.53 1029.6 1720.46C1047.55 1727.47 1065.85 1733.51 1084.9 1737.67C1206.07 1764.16 1339.69 1705.83 1425.82 1611.58C1512 1517.27 1557.47 1393 1582.04 1267.81" stroke="url(#paint13_linear_815_6334)" stroke-width="2.37175" stroke-miterlimit="10"/>
<path opacity="0.54" d="M53.678 2733.46C17.5641 2687.74 28.5625 2618.52 63.965 2572.64C67.1387 2568.54 70.4765 2564.63 73.9511 2560.88C109.709 2522.55 159.256 2500.77 209.433 2484.35C219.063 2481.21 228.776 2478.25 238.461 2475.38C284.041 2461.89 330.743 2449.64 373.149 2427.75C386.801 2420.72 399.879 2412.76 412.218 2403.7C496.347 2342.03 538.863 2236.65 561.844 2133.97C563.513 2126.5 565.1 2119.03 566.632 2111.59C589.067 2001.3 604.607 1890.31 643.374 1794.47C662.252 1747.82 684.741 1698.6 730.923 1672.94C786.161 1642.19 857.021 1653.52 915.295 1676.42C954.966 1692.01 992.174 1712.42 1031.02 1728.32C1049.27 1735.78 1067.88 1742.24 1087.27 1746.76C1210.66 1775.51 1347.38 1716.36 1434.93 1620.16C1522.53 1523.94 1568.08 1396.94 1592.65 1269.31" stroke="url(#paint14_linear_815_6334)" stroke-width="2.37175" stroke-miterlimit="10"/>
<path opacity="0.54" d="M60.2171 2748.07C24.1032 2702.4 34.5817 2633.38 69.5192 2587.09C72.6381 2582.96 75.9212 2578.99 79.3958 2575.21C114.771 2536.47 163.99 2514.07 214.002 2497.08C223.605 2493.82 233.263 2490.73 242.921 2487.77C288.337 2473.79 334.929 2461.04 377.171 2438.96C390.769 2431.85 403.792 2423.86 416.103 2414.75C500.013 2352.76 542.146 2247.4 564.307 2144.53C565.921 2137.06 567.453 2129.56 568.903 2122.09C590.325 2011.67 603.54 1900.29 640.064 1802.89C658.176 1754.61 680.61 1703.72 727.449 1677.18C783.507 1645.36 855.845 1657.32 915.049 1681.42C955.349 1697.84 993.05 1719.31 1032.5 1736.17C1051.02 1744.07 1069.93 1750.94 1089.68 1755.84C1215.29 1786.89 1355.09 1726.86 1444.06 1628.75C1533.06 1530.59 1578.72 1400.88 1603.32 1270.82" stroke="url(#paint15_linear_815_6334)" stroke-width="2.37175" stroke-miterlimit="10"/>
<path opacity="0.54" d="M66.7541 2762.71C30.6128 2717.12 40.6262 2648.26 75.0438 2601.59C78.108 2597.43 81.3638 2593.41 84.7836 2589.6C119.748 2550.48 168.666 2527.44 218.487 2509.83C228.063 2506.46 237.693 2503.26 247.324 2500.17C292.575 2485.67 339.031 2472.48 381.136 2450.18C394.679 2443.01 407.675 2434.97 419.959 2425.81C503.677 2363.45 545.4 2258.15 566.74 2155.09C568.299 2147.59 569.749 2140.1 571.145 2132.63C591.555 2022.07 602.361 1910.31 636.752 1811.38C654.097 1761.47 676.504 1708.89 724 1681.45C780.879 1648.54 854.694 1661.15 914.801 1686.48C955.703 1703.72 993.924 1726.26 1033.98 1744.07C1052.8 1752.45 1072.01 1759.72 1092.12 1764.98C1219.94 1798.3 1362.83 1737.45 1453.23 1637.4C1543.65 1537.32 1589.39 1404.88 1614.02 1272.38" stroke="url(#paint16_linear_815_6334)" stroke-width="2.37175" stroke-miterlimit="10"/>
<path opacity="0.54" d="M73.2948 2777.31C37.1535 2731.79 46.6471 2663.12 80.5997 2616.03C83.6365 2611.82 86.8375 2607.8 90.23 2603.91C124.812 2564.38 173.401 2540.71 223.058 2522.49C232.579 2518.99 242.182 2515.71 251.785 2512.51C296.873 2497.49 343.219 2483.86 385.188 2461.35C398.676 2454.12 411.616 2446 423.873 2436.83C507.4 2374.15 548.712 2268.85 569.259 2165.62C570.764 2158.13 572.159 2150.63 573.472 2143.13C592.87 2032.44 601.242 1920.32 633.498 1819.8C650.023 1768.26 672.43 1714.03 720.609 1685.69C778.309 1651.68 853.601 1664.95 914.612 1691.49C956.143 1709.55 994.883 1733.19 1035.54 1751.93C1054.64 1760.74 1074.17 1768.45 1094.61 1774.06C1224.64 1809.68 1370.63 1747.96 1462.48 1645.96C1554.32 1543.97 1600.15 1408.79 1624.8 1273.85" stroke="url(#paint17_linear_815_6334)" stroke-width="2.37175" stroke-miterlimit="10"/>
<path opacity="0.54" d="M79.8061 2791.92C43.6375 2746.48 52.6659 2677.95 86.0986 2630.48C89.0808 2626.24 92.2544 2622.16 95.5922 2618.25C129.764 2578.3 178.052 2554.04 227.545 2535.21C237.038 2531.6 246.614 2528.18 256.162 2524.9C301.086 2509.36 347.323 2495.27 389.127 2472.56C402.56 2465.26 415.474 2457.1 427.676 2447.88C511.011 2384.88 551.913 2279.6 571.639 2176.18C573.062 2168.66 574.402 2161.16 575.661 2153.64C594.046 2042.81 599.956 1930.36 630.105 1828.26C645.809 1775.1 668.216 1719.18 717.052 1689.93C775.573 1654.86 852.343 1668.75 914.256 1696.5C956.389 1715.37 995.649 1740.08 1036.91 1759.78C1056.28 1769.02 1076.11 1777.18 1096.9 1783.14C1229.16 1821.03 1378.24 1758.46 1471.5 1654.55C1564.77 1550.62 1610.68 1412.73 1635.36 1275.36" stroke="url(#paint18_linear_815_6334)" stroke-width="2.37175" stroke-miterlimit="10"/>
<path opacity="0.54" d="M86.3476 2806.53C50.1789 2761.14 58.6876 2692.8 91.6278 2644.92C94.5826 2640.66 97.7015 2636.52 100.985 2632.58C134.773 2592.26 182.733 2567.36 232.062 2547.91C241.528 2544.19 251.049 2540.66 260.57 2537.24C305.329 2521.18 351.429 2506.65 393.097 2483.72C406.475 2476.36 419.362 2468.16 431.536 2458.88C514.68 2395.55 555.144 2290.27 574.077 2186.69C575.445 2179.16 576.731 2171.64 577.907 2164.12C595.28 2053.15 598.672 1940.4 626.77 1836.66C641.599 1781.88 664.088 1724.29 713.58 1694.14C772.922 1657.97 851.169 1672.5 914.012 1701.5C956.775 1721.23 996.527 1746.97 1038.41 1767.63C1058.09 1777.34 1078.22 1785.91 1099.37 1792.22C1233.84 1832.39 1386.01 1769 1480.7 1663.15C1575.39 1557.29 1621.38 1416.67 1646.08 1276.86" stroke="url(#paint19_linear_815_6334)" stroke-width="2.37175" stroke-miterlimit="10"/>
<path opacity="0.54" d="M92.8834 2821.17C56.6874 2775.86 64.7036 2707.68 97.1788 2659.42C100.079 2655.13 103.17 2650.97 106.426 2646.98C139.804 2606.24 187.464 2580.71 236.628 2560.68C246.067 2556.85 255.56 2553.19 265.026 2549.69C309.649 2533.13 355.612 2518.14 397.116 2495C410.439 2487.55 423.271 2479.32 435.418 2469.99C518.343 2406.3 558.424 2301.08 576.536 2197.3C577.849 2189.75 579.053 2182.23 580.175 2174.7C596.535 2063.6 597.384 1950.58 623.457 1845.19C637.41 1788.81 659.954 1729.52 710.13 1698.47C770.293 1661.2 850.017 1676.39 913.763 1706.59C957.155 1727.14 997.4 1753.95 1039.89 1775.56C1059.83 1785.71 1080.3 1794.71 1101.77 1801.39C1238.46 1843.85 1393.72 1779.59 1489.83 1671.82C1585.95 1564.02 1632.02 1420.69 1656.72 1278.45" stroke="url(#paint20_linear_815_6334)" stroke-width="2.37175" stroke-miterlimit="10"/>
<path opacity="0.54" d="M99.395 2835.78C63.199 2790.53 70.7227 2722.54 102.678 2673.87C105.523 2669.52 108.588 2665.33 111.789 2661.31C144.756 2620.16 192.115 2594.04 241.087 2573.38C250.471 2569.41 259.938 2565.67 269.404 2562.03C313.862 2544.95 359.716 2529.5 401.055 2506.16C414.325 2498.66 427.129 2490.37 439.221 2480.99C521.955 2416.97 561.625 2311.75 578.916 2207.81C580.175 2200.26 581.324 2192.71 582.364 2185.18C597.712 2073.94 595.988 1960.68 620.064 1853.59C633.087 1795.62 655.74 1734.64 706.574 1702.68C767.557 1664.35 848.758 1680.16 913.408 1711.57C957.401 1732.94 998.166 1760.82 1041.26 1783.42C1061.5 1794 1082.24 1803.44 1104.07 1810.47C1242.97 1855.21 1401.33 1790.12 1498.86 1680.41C1596.4 1570.7 1642.55 1424.63 1667.29 1279.96" stroke="url(#paint21_linear_815_6334)" stroke-width="2.37175" stroke-miterlimit="10"/>
<path opacity="0.54" d="M105.934 2850.39C69.7384 2805.22 76.7423 2737.4 108.233 2688.32C111.051 2683.94 114.033 2679.7 117.234 2675.65C149.818 2634.09 196.848 2607.33 245.657 2586.1C255.014 2582.03 264.452 2578.17 273.864 2574.42C318.158 2556.83 363.875 2540.93 405.078 2517.38C418.32 2509.83 431.042 2501.48 443.134 2492.07C525.676 2427.72 564.937 2322.53 581.434 2218.4C582.638 2210.82 583.705 2203.27 584.69 2195.72C599.026 2084.31 594.73 1970.85 616.809 1862.07C628.902 1802.51 651.665 1739.81 703.182 1706.95C764.986 1667.52 847.664 1683.99 913.217 1716.61C957.839 1738.79 999.097 1767.77 1042.82 1791.3C1063.34 1802.35 1084.4 1812.2 1106.59 1819.59C1247.71 1866.59 1409.15 1800.65 1508.11 1689.03C1607.07 1577.38 1653.33 1428.6 1678.07 1281.49" stroke="url(#paint22_linear_815_6334)" stroke-width="2.37175" stroke-miterlimit="10"/>
<path opacity="0.54" d="M112.475 2865C73.0238 2815.86 84.2684 2740 122.626 2689.98C160.983 2640 219.969 2610.7 278.271 2586.79C336.573 2562.87 397.447 2542 446.994 2503.1C535.309 2433.71 573.612 2317.74 586.908 2206.22C600.232 2094.68 593.31 1981.03 613.446 1870.53C624.582 1809.38 647.508 1744.98 699.682 1711.22C762.307 1670.7 846.463 1687.82 912.945 1721.67C979.428 1755.51 1038.44 1804.46 1108.97 1828.72C1252.31 1878.02 1416.84 1811.24 1517.22 1697.67C1617.6 1584.11 1663.95 1432.59 1688.71 1283.05" stroke="url(#paint23_linear_815_6334)" stroke-width="2.37175" stroke-miterlimit="10"/>
<path opacity="0.54" d="M1659.63 997.804C1697.91 948.069 1678.78 871.748 1633.71 828.777C1629.69 824.929 1625.49 821.314 1621.18 817.903C1577.1 783.066 1519.67 769.131 1463.67 760.677C1452.88 759.045 1442.03 757.587 1431.19 756.158C1380.23 749.453 1328.63 743.127 1281.2 722.983C1265.84 716.482 1251.35 708.698 1237.65 699.748C1145.09 639.053 1093.66 526.408 1057.08 419.68C1054.42 411.926 1051.77 404.142 1049.15 396.329C1010.11 280.914 965.362 166.782 884.143 89.2075C856.419 62.737 827.908 36.2374 788.697 22.3608C742.112 5.8022 688.588 8.251 640.107 14.5188C607.048 18.7751 574.98 24.6347 542.679 27.3459C527.491 28.5994 512.244 29.1533 496.793 28.6286C398.404 25.2469 298.79 -25.1869 226.754 -98.8553C154.631 -172.64 107.374 -267.298 81.4578 -367" stroke="url(#paint24_linear_815_6334)" stroke-width="2.41971" stroke-miterlimit="10"/>
<path opacity="0.54" d="M1652.66 1013.37C1690.96 963.694 1672.33 887.577 1627.82 844.169C1623.82 840.292 1619.69 836.619 1615.43 833.179C1571.79 797.933 1514.68 783.328 1458.85 774.232C1448.09 772.483 1437.28 770.909 1426.46 769.364C1375.68 762.105 1324.22 755.312 1276.94 734.935C1261.63 728.346 1247.17 720.533 1233.53 711.525C1141.18 650.48 1090.19 537.864 1054.45 430.932C1051.85 423.178 1049.29 415.365 1046.72 407.552C1008.77 291.992 965.561 177.947 887.666 98.244C860.321 70.2576 832.305 41.7465 792.366 26.9079C744.906 9.18316 689.808 12.3025 640.336 19.8821C606.606 25.0421 574.014 32.0096 541.043 35.7411C525.563 37.4902 509.966 38.4815 494.136 38.3357C393.385 37.4028 290.477 -13.9348 216.925 -89.673C143.286 -165.499 95.9131 -263.072 69.9966 -365.368" stroke="url(#paint25_linear_815_6334)" stroke-width="2.41971" stroke-miterlimit="10"/>
<path opacity="0.54" d="M1645.69 1028.94C1683.99 979.35 1665.92 903.379 1621.93 859.592C1617.99 855.686 1613.91 851.983 1609.66 848.485C1566.42 812.802 1509.66 797.526 1454.01 787.789C1443.31 785.924 1432.53 784.233 1421.74 782.571C1371.13 774.787 1319.79 767.47 1272.68 746.888C1257.44 740.242 1243.03 732.371 1229.42 723.304C1137.27 661.909 1086.72 549.322 1051.85 442.186C1049.32 434.403 1046.81 426.59 1044.33 418.777C1007.45 303.071 965.852 188.997 891.222 107.253C864.256 77.7219 836.736 47.2576 796.068 31.4569C747.733 12.5661 691.061 16.3851 640.627 25.2766C606.227 31.3112 573.11 39.4156 539.497 44.1675C523.696 46.383 507.808 47.8407 491.599 48.0739C388.487 49.5607 282.284 -2.68066 207.217 -80.4887C132.062 -158.384 84.6012 -258.844 58.6555 -363.734" stroke="url(#paint26_linear_815_6334)" stroke-width="2.41971" stroke-miterlimit="10"/>
<path opacity="0.54" d="M1638.75 1044.51C1677.09 994.976 1659.54 919.208 1616.04 874.984C1612.16 871.019 1608.11 867.288 1603.91 863.76C1561.12 827.64 1504.68 811.723 1449.23 801.345C1438.56 799.362 1427.8 797.526 1417.07 795.748C1366.64 787.41 1315.42 779.626 1268.46 758.811C1253.27 752.077 1238.89 744.177 1225.31 735.052C1133.36 673.278 1083.28 560.72 1049.26 453.41C1046.78 445.626 1044.36 437.784 1041.94 429.942C1006.14 314.09 966.231 199.929 894.779 116.232C868.221 85.1262 841.167 52.7086 799.8 35.9459C750.59 15.9181 692.344 20.4076 640.948 30.5818C605.906 37.491 572.235 46.7323 537.981 52.5045C521.889 55.2157 505.651 57.1106 489.063 57.7228C383.589 61.6293 274.093 8.48425 197.509 -71.3645C120.838 -151.301 73.2901 -254.675 47.3152 -362.161" stroke="url(#paint27_linear_815_6334)" stroke-width="2.41971" stroke-miterlimit="10"/>
<path opacity="0.54" d="M1631.78 1060.1C1670.12 1010.66 1653.1 935.067 1610.15 890.405C1606.31 886.412 1602.31 882.622 1598.14 879.036C1555.78 842.479 1499.67 825.891 1444.39 814.871C1433.75 812.743 1423.05 810.819 1412.35 808.924C1362.09 800.033 1311.02 791.783 1264.2 770.734C1249.07 763.942 1234.73 755.954 1221.2 746.8C1129.46 684.676 1079.81 572.148 1046.66 464.633C1044.25 456.82 1041.88 448.978 1039.55 441.136C1004.83 325.109 966.699 210.773 898.337 125.211C872.187 92.5014 845.571 58.1889 803.504 40.4642C753.42 19.2703 693.599 24.4595 641.212 35.9164C605.5 43.7001 571.275 54.1076 536.379 60.871C519.966 64.0486 503.408 66.41 486.47 67.4011C378.635 73.7564 265.844 19.7076 187.745 -62.2109C109.558 -144.217 61.9224 -250.478 35.9475 -360.558" stroke="url(#paint28_linear_815_6334)" stroke-width="2.41971" stroke-miterlimit="10"/>
<path opacity="0.54" d="M1624.81 1075.67C1663.18 1026.28 1646.68 950.897 1604.23 905.798C1600.44 901.775 1596.48 897.956 1592.37 894.312C1550.42 857.346 1494.65 840.088 1439.55 828.427C1428.94 826.182 1418.3 824.112 1407.63 822.13C1357.54 812.685 1306.58 803.939 1259.94 782.687C1244.87 775.836 1230.58 767.79 1217.09 758.577C1125.58 696.104 1076.34 583.575 1044.07 475.886C1041.73 468.073 1039.43 460.202 1037.16 452.36C1003.52 336.187 967.221 221.618 901.861 134.248C876.177 99.906 849.969 63.6986 807.173 45.0118C756.215 22.6519 694.82 28.5407 641.471 41.3095C605.117 49.9969 570.338 61.5122 534.802 69.2959C518.097 72.94 501.218 75.7386 483.901 77.1379C373.705 85.9128 257.62 30.9604 178.004 -52.9988C98.3011 -137.045 50.5783 -246.222 24.5743 -358.896" stroke="url(#paint29_linear_815_6334)" stroke-width="2.41971" stroke-miterlimit="10"/>
<path opacity="0.54" d="M1617.89 1091.24C1656.25 1041.94 1640.31 966.726 1598.39 921.219C1594.65 917.166 1590.72 913.289 1586.67 909.616C1545.15 872.213 1489.71 854.284 1434.78 841.982C1424.23 839.621 1413.59 837.434 1402.95 835.306C1353.01 825.336 1302.2 816.095 1255.73 794.609C1240.71 787.671 1226.46 779.596 1212.99 770.354C1121.68 707.531 1072.88 595.031 1041.46 487.138C1039.18 479.296 1036.94 471.425 1034.75 463.583C1002.19 347.264 967.788 232.374 905.402 143.255C880.185 107.252 854.385 69.2077 810.889 49.5589C759.056 26.062 696.116 32.6213 641.776 46.6728C604.752 56.2349 569.448 68.8871 533.241 77.6911C516.245 81.8308 499.016 85.0667 481.32 86.845C368.762 98.0395 249.383 42.2125 168.252 -43.8165C87.0327 -129.933 39.2226 -241.995 13.1894 -357.264" stroke="url(#paint30_linear_815_6334)" stroke-width="2.41971" stroke-miterlimit="10"/>
<path opacity="0.54" d="M1610.92 1106.8C1649.31 1057.56 1633.86 982.556 1592.49 936.611C1588.79 932.501 1584.91 928.594 1580.89 924.892C1539.79 887.052 1484.69 868.482 1429.97 855.509C1419.44 853.031 1408.86 850.728 1398.25 848.483C1348.49 837.959 1297.82 828.251 1251.5 806.533C1236.54 799.536 1222.34 791.403 1208.91 782.103C1117.8 718.9 1069.44 606.43 1038.89 498.362C1036.67 490.52 1034.52 482.648 1032.39 474.748C1000.9 358.284 968.514 243.015 908.984 152.234C884.292 114.569 858.842 74.6593 814.618 54.0485C761.91 29.3854 697.395 36.6444 642.093 51.9786C604.428 62.4152 568.571 76.2044 531.722 86.0288C514.405 90.6349 496.885 94.3372 478.81 96.4945C363.891 110.138 241.217 53.3779 158.57 -34.6918C75.835 -122.849 27.9375 -237.826 1.8752 -355.69" stroke="url(#paint31_linear_815_6334)" stroke-width="2.41971" stroke-miterlimit="10"/>
<path opacity="0.54" d="M1603.95 1122.4C1642.34 1073.25 1627.45 998.386 1586.57 952.034C1582.93 947.894 1579.11 943.958 1575.12 940.198C1534.45 901.921 1479.67 882.709 1425.13 869.095C1414.63 866.471 1404.08 864.052 1393.53 861.69C1343.94 850.612 1293.39 840.409 1247.24 818.486C1232.34 811.402 1218.17 803.239 1204.79 793.882C1113.9 730.329 1065.97 617.888 1036.29 509.615C1034.14 501.744 1032.04 493.873 1030 485.973C999.589 369.363 969.242 253.715 912.54 161.243C888.402 121.887 863.243 80.1699 818.319 58.597C764.737 32.7679 698.648 40.7266 642.355 57.3435C604.019 68.6547 567.637 83.6099 530.147 94.4255C512.539 99.5271 494.668 103.667 476.244 106.203C358.963 122.266 232.995 64.6316 148.832 -25.5079C64.5813 -115.735 16.5962 -233.598 -9.49524 -354.057" stroke="url(#paint32_linear_815_6334)" stroke-width="2.41971" stroke-miterlimit="10"/>
<path opacity="0.54" d="M1596.98 1137.97C1635.37 1088.88 1621.03 1014.22 1580.68 967.455C1577.07 963.286 1573.31 959.292 1569.34 955.502C1529.11 916.817 1474.65 896.906 1420.28 882.65C1409.82 879.91 1399.32 877.374 1388.8 874.896C1339.39 863.264 1288.95 852.594 1242.98 830.438C1228.14 823.296 1214 815.075 1200.65 805.659C1109.96 741.756 1062.47 629.344 1033.66 520.868C1031.56 512.997 1029.55 505.096 1027.57 497.196C998.243 380.44 970.053 264.384 916.062 170.28C892.507 129.204 867.64 85.6793 822.016 63.1736C767.56 36.2075 699.897 44.8366 642.641 62.7654C603.664 74.9511 566.728 91.0433 528.567 102.879C510.639 108.447 492.447 113.053 473.644 115.969C354.002 134.481 224.74 75.9132 139.061 -16.267C53.2942 -108.535 5.22176 -229.314 -20.8697 -352.366" stroke="url(#paint33_linear_815_6334)" stroke-width="2.41971" stroke-miterlimit="10"/>
<path opacity="0.54" d="M1590.04 1153.54C1628.46 1104.53 1614.61 1030.05 1574.79 982.847C1571.24 978.62 1567.5 974.597 1563.6 970.778C1523.78 931.656 1469.67 911.103 1415.47 896.206C1405.07 893.349 1394.57 890.667 1384.11 888.102C1334.87 875.916 1284.58 864.78 1238.72 842.391C1223.94 835.19 1209.86 826.882 1196.54 817.436C1106.08 753.155 1059 640.772 1031.07 532.121C1029.03 524.22 1027.08 516.32 1025.18 508.42C996.932 391.518 970.928 274.996 919.619 179.288C896.676 136.492 872.072 91.1892 825.719 67.6923C770.388 39.5601 701.15 48.8598 642.933 68.1004C603.286 81.1899 565.795 98.3899 527.023 111.275C508.802 117.31 490.29 122.382 471.108 125.677C349.076 146.608 216.548 87.1662 129.353 -7.113C42.0707 -101.421 -6.08928 -225.115 -32.2099 -350.763" stroke="url(#paint34_linear_815_6334)" stroke-width="2.41971" stroke-miterlimit="10"/>
<path opacity="0.54" d="M1583.07 1169.1C1621.49 1120.16 1608.2 1045.87 1568.9 998.24C1565.4 993.983 1561.7 989.931 1557.85 986.054C1518.47 946.494 1464.68 925.271 1410.66 909.733C1400.28 906.759 1389.85 903.96 1379.38 901.249C1330.32 888.539 1280.15 876.878 1234.46 854.255C1219.74 846.967 1205.69 838.63 1192.43 829.155C1102.17 764.524 1055.56 652.17 1028.44 543.315C1026.49 535.414 1024.57 527.485 1022.73 519.556C995.559 402.508 971.829 285.548 923.115 188.237C900.843 143.722 876.442 96.6111 829.361 72.1813C773.155 42.883 702.343 52.8823 643.164 73.4057C602.846 87.3697 564.831 105.707 525.417 119.612C506.876 126.143 488.043 131.652 468.482 135.326C344.088 158.677 208.267 98.3311 119.556 2.01119C30.7573 -94.367 -17.5191 -220.947 -43.6398 -349.189" stroke="url(#paint35_linear_815_6334)" stroke-width="2.41971" stroke-miterlimit="10"/>
<path opacity="0.54" d="M1576.1 1184.7C1614.56 1135.84 1601.79 1061.74 1563.01 1013.66C1559.55 1009.38 1555.9 1005.27 1552.08 1001.36C1513.11 961.393 1459.67 939.499 1405.85 923.29C1395.5 920.171 1385.1 917.285 1374.69 914.457C1325.8 901.193 1275.75 889.065 1230.24 866.21C1215.58 858.863 1201.58 850.468 1188.35 840.935C1098.29 775.954 1052.12 663.6 1025.88 554.57C1023.99 546.64 1022.15 538.711 1020.37 530.781C994.308 413.588 972.881 296.191 926.703 197.277C905.101 151.041 880.875 102.152 833.124 76.731C776.043 46.2958 703.657 56.9656 643.487 78.8008C602.527 93.6394 563.959 113.113 523.874 128.039C505.041 135.036 485.859 141.012 465.948 145.064C339.193 170.864 200.077 109.615 109.85 11.2253C19.5357 -87.1935 -28.8281 -216.718 -54.9779 -347.525" stroke="url(#paint36_linear_815_6334)" stroke-width="2.41971" stroke-miterlimit="10"/>
<path opacity="0.54" d="M1569.13 1200.27C1607.59 1151.47 1595.34 1077.54 1557.09 1029.08C1553.68 1024.77 1550.07 1020.6 1546.31 1016.67C1507.77 976.26 1454.65 953.696 1401.01 936.875C1390.69 933.639 1380.34 930.607 1369.96 927.663C1321.22 913.844 1271.34 901.25 1225.98 878.162C1211.37 870.728 1197.41 862.303 1184.2 852.711C1094.36 787.352 1048.62 675.056 1023.25 565.822C1021.42 557.892 1019.64 549.934 1017.95 542.004C992.964 424.636 973.928 306.802 930.228 206.284C909.355 158.299 885.275 107.632 836.794 81.278C778.839 49.6767 704.879 61.0462 643.747 84.1641C602.117 99.8773 563.023 120.517 522.297 136.435C503.173 143.898 483.67 150.34 463.38 154.772C334.264 182.991 191.883 120.838 100.111 20.4076C8.28048 -80.0811 -40.171 -212.492 -66.3499 -345.894" stroke="url(#paint37_linear_815_6334)" stroke-width="2.41971" stroke-miterlimit="10"/>
<path opacity="0.54" d="M1562.21 1215.84C1600.69 1167.12 1588.97 1093.37 1551.25 1044.48C1547.86 1040.1 1544.31 1035.94 1540.6 1031.94C1502.5 991.098 1449.71 967.893 1396.24 950.402C1385.98 947.049 1375.63 943.901 1365.31 940.84C1316.74 926.467 1266.98 913.407 1221.79 890.085C1207.25 882.593 1193.31 874.109 1180.16 864.46C1090.52 798.75 1045.22 686.455 1020.73 577.045C1018.95 569.087 1017.26 561.128 1015.63 553.199C991.721 435.685 975.162 317.413 933.853 215.292C913.738 165.587 889.775 113.142 840.565 85.7968C781.706 53.0294 706.202 65.0985 644.107 89.4991C601.836 106.116 562.188 127.864 520.792 144.801C501.347 152.76 481.523 159.64 460.854 164.45C329.376 195.089 183.701 132.062 90.4132 29.5616C-2.93309 -72.9678 -51.4721 -208.294 -77.651 -344.29" stroke="url(#paint38_linear_815_6334)" stroke-width="2.41971" stroke-miterlimit="10"/>
<path opacity="0.54" d="M1555.23 1231.4C1593.71 1182.75 1582.54 1109.19 1545.32 1059.87C1541.99 1055.47 1538.49 1051.24 1534.79 1047.22C1497.1 1005.94 1444.65 982.06 1391.36 963.956C1381.13 960.487 1370.84 957.193 1360.55 954.044C1312.15 939.147 1262.51 925.562 1217.5 902.036C1203.01 894.457 1189.13 885.944 1176.01 876.236C1086.6 810.177 1041.71 697.911 1018.09 588.297C1016.37 580.339 1014.74 572.351 1013.2 564.392C990.369 446.733 976.288 328.053 937.37 224.27C918.071 172.816 894.166 118.592 844.257 90.3141C784.523 56.4097 707.444 69.1493 644.358 94.8327C601.416 112.324 561.244 135.209 519.206 153.167C499.47 161.592 479.326 168.909 458.277 174.128C324.438 207.216 175.469 143.255 80.6649 38.7141C-14.1681 -65.885 -62.8235 -204.097 -89.0316 -342.688" stroke="url(#paint39_linear_815_6334)" stroke-width="2.41971" stroke-miterlimit="10"/>
<path opacity="0.54" d="M1548.27 1247C1586.78 1198.43 1576.11 1125.05 1539.43 1075.32C1536.17 1070.89 1532.7 1066.6 1529.05 1062.55C1491.8 1020.86 1439.67 996.317 1386.59 977.543C1376.38 973.957 1366.12 970.546 1355.86 967.252C1307.64 951.801 1258.14 937.75 1213.27 913.99C1198.84 906.352 1185 897.782 1171.91 888.015C1082.7 821.577 1038.24 709.369 1015.5 599.551C1013.84 591.564 1012.3 583.576 1010.81 575.617C989.063 457.812 977.548 338.724 940.903 233.308C922.42 180.134 898.544 124.103 847.936 94.8633C787.327 59.7928 708.674 73.2321 644.626 100.227C601.043 118.593 560.317 142.615 517.638 161.593C497.581 170.514 477.116 178.269 455.689 183.866C319.488 219.374 167.225 154.538 70.9047 47.9278C-25.4443 -58.7121 -74.1873 -199.839 -100.425 -341.025" stroke="url(#paint40_linear_815_6334)" stroke-width="2.41971" stroke-miterlimit="10"/>
<path opacity="0.54" d="M1541.3 1262.57C1579.81 1214.06 1569.69 1140.88 1533.51 1090.71C1530.28 1086.22 1526.87 1081.94 1523.25 1077.8C1486.4 1035.67 1434.63 1010.46 1381.72 991.04C1371.57 987.309 1361.34 983.811 1351.11 980.4C1303.06 964.395 1253.68 949.877 1208.96 925.884C1194.59 918.188 1180.8 909.53 1167.74 899.764C1078.74 832.975 1034.72 720.767 1012.82 610.775C1011.22 602.787 1009.73 594.8 1008.33 586.812C987.664 468.861 978.743 349.394 944.372 242.288C926.764 187.364 902.888 129.584 851.551 99.3819C790.068 63.1453 709.84 77.2843 644.83 105.562C600.577 124.803 559.297 149.991 515.976 169.96C495.628 179.347 474.813 187.568 453.036 193.545C314.474 231.501 158.916 165.733 61.0513 57.0525C-36.8136 -51.628 -85.6441 -195.671 -111.911 -339.451" stroke="url(#paint41_linear_815_6334)" stroke-width="2.41971" stroke-miterlimit="10"/>
<path opacity="0.54" d="M1534.36 1278.13C1572.9 1229.71 1563.28 1156.68 1527.66 1106.1C1524.48 1101.59 1521.1 1097.24 1517.54 1093.07C1481.13 1050.51 1429.67 1024.65 1376.94 1004.6C1366.82 1000.75 1356.62 997.103 1346.44 993.605C1298.57 977.047 1249.31 962.033 1204.76 937.836C1190.45 930.053 1176.69 921.365 1163.69 911.541C1074.89 844.403 1031.3 732.224 1010.29 622.027C1008.77 614.011 1007.34 606.023 1006 598.006C986.41 479.909 980.113 360.092 947.987 251.295C931.253 194.652 907.377 135.064 855.34 103.9C792.983 66.5266 711.181 81.3361 645.209 110.897C600.314 131.012 558.48 157.337 514.518 178.326C493.878 188.18 472.743 196.867 450.587 203.223C309.664 243.599 150.812 176.927 51.4307 66.206C-47.9502 -44.5444 -96.8681 -191.473 -123.164 -337.848" stroke="url(#paint42_linear_815_6334)" stroke-width="2.41971" stroke-miterlimit="10"/>
<path opacity="0.54" d="M1527.39 1293.7C1565.93 1245.34 1556.87 1172.51 1521.77 1121.5C1518.62 1116.95 1515.29 1112.55 1511.8 1108.35C1475.79 1065.38 1424.69 1038.85 1372.13 1018.12C1362.04 1014.16 1351.9 1010.4 1341.75 1006.75C1294.06 989.64 1244.93 974.16 1200.54 949.73C1186.28 941.888 1172.55 933.142 1159.58 923.259C1070.98 855.771 1027.86 743.593 1007.69 633.221C1006.23 625.204 1004.86 617.187 1003.61 609.17C985.098 490.928 981.483 370.791 951.544 260.244C935.743 201.881 911.78 140.515 859.043 108.389C795.811 69.8492 712.435 85.3292 645.472 116.231C599.906 137.25 557.548 164.682 512.915 186.692C491.955 197.042 470.498 206.166 447.963 212.901C304.679 255.696 142.533 188.15 41.636 75.359C-59.2608 -37.432 -108.266 -187.276 -134.591 -336.245" stroke="url(#paint43_linear_815_6334)" stroke-width="2.41971" stroke-miterlimit="10"/>
<path opacity="0.54" d="M1520.42 1309.3C1558.99 1261.02 1550.45 1188.37 1515.85 1136.95C1512.76 1132.37 1509.46 1127.94 1505.99 1123.68C1470.43 1080.28 1419.64 1053.08 1367.26 1031.74C1357.2 1027.66 1347.08 1023.75 1337 1020.02C1289.45 1002.38 1240.47 986.404 1196.25 961.741C1182.05 953.812 1168.38 945.037 1155.44 935.096C1067.07 867.229 1024.37 755.108 1005.07 644.533C1003.67 636.487 1002.39 628.47 1001.19 620.453C983.757 502.065 982.853 381.636 955.07 269.34C940.203 209.257 916.181 146.084 862.715 112.995C798.609 73.2898 713.659 89.4694 645.733 121.654C599.497 143.547 556.614 172.117 511.34 195.147C490.088 205.963 468.282 215.554 445.397 222.667C299.751 267.912 134.311 199.433 31.8983 84.6009C-70.5144 -30.2599 -119.607 -182.99 -145.932 -334.554" stroke="url(#paint44_linear_815_6334)" stroke-width="2.41971" stroke-miterlimit="10"/>
<path opacity="0.54" d="M1513.49 1324.87C1552.06 1276.65 1544.04 1204.2 1509.99 1152.34C1506.96 1147.71 1503.7 1143.25 1500.29 1138.96C1465.16 1095.11 1414.69 1067.27 1362.51 1045.26C1352.51 1041.04 1342.42 1037.04 1332.34 1033.17C1284.97 1014.97 1236.11 998.503 1192.06 973.636C1177.92 965.649 1164.27 956.815 1151.39 946.816C1063.23 878.599 1020.96 766.479 1002.54 655.728C1001.19 647.682 999.97 639.636 998.863 631.619C982.508 513.085 984.345 392.394 958.69 278.291C944.814 216.517 920.676 151.536 866.51 117.486C801.529 76.6429 715.005 93.4931 646.117 126.96C599.24 149.728 555.803 179.435 509.888 203.515C488.315 214.797 466.217 224.854 442.954 232.346C294.946 280.011 126.212 210.657 22.283 93.7555C-81.6456 -23.1461 -130.826 -178.791 -157.18 -332.95" stroke="url(#paint45_linear_815_6334)" stroke-width="2.41971" stroke-miterlimit="10"/>
<path opacity="0.54" d="M1506.52 1340.43C1545.09 1292.3 1537.63 1220.03 1504.07 1167.73C1501.07 1163.07 1497.89 1158.55 1494.48 1154.24C1459.76 1109.95 1409.65 1081.44 1357.64 1058.82C1347.67 1054.48 1337.61 1050.37 1327.58 1046.37C1280.38 1027.63 1231.67 1010.69 1187.77 985.589C1173.66 977.543 1160.1 968.652 1147.22 958.623C1059.26 890.057 1017.43 777.965 999.85 667.011C998.567 658.936 997.43 650.89 996.38 642.844C981.104 524.135 985.681 403.239 962.155 287.329C949.27 223.864 925.015 157.046 870.121 122.034C804.265 80.0254 716.167 97.5752 646.317 132.325C598.77 155.968 554.807 186.84 508.222 211.911C486.357 223.689 463.91 234.184 440.267 242.055C289.899 292.139 117.87 221.881 12.4253 102.939C-93.0193 -16.0321 -142.316 -174.563 -168.67 -331.316" stroke="url(#paint46_linear_815_6334)" stroke-width="2.41971" stroke-miterlimit="10"/>
<path opacity="0.54" d="M1499.56 1356C1541.6 1303.64 1529.62 1222.8 1488.74 1169.51C1447.87 1116.25 1385.02 1085.03 1322.9 1059.55C1260.77 1034.07 1195.91 1011.83 1143.11 970.371C1049.01 896.44 1008.19 772.863 994.026 654.037C979.828 535.182 987.204 414.083 965.748 296.336C953.883 231.18 929.453 162.555 873.859 126.581C807.129 83.406 717.456 101.656 646.615 137.717C575.775 173.779 512.893 225.933 437.738 251.791C285.008 304.324 109.685 233.162 2.72403 112.15C-104.236 -8.86168 -153.621 -170.308 -180.004 -329.656" stroke="url(#paint47_linear_815_6334)" stroke-width="2.41971" stroke-miterlimit="10"/>
<defs>
<linearGradient id="paint0_linear_815_6334" x1="1416.81" y1="1217.02" x2="-49.1706" y2="2517.75" gradientUnits="userSpaceOnUse">
<stop stop-color="#7ED4EF"/>
<stop offset="0.2294" stop-color="#66BFE6"/>
<stop offset="0.711" stop-color="#298BD0"/>
<stop offset="1" stop-color="#0169C2"/>
</linearGradient>
<linearGradient id="paint1_linear_815_6334" x1="1427.12" y1="1218.14" x2="-47.6761" y2="2526.68" gradientUnits="userSpaceOnUse">
<stop stop-color="#7ED4EF"/>
<stop offset="0.2294" stop-color="#66BFE6"/>
<stop offset="0.711" stop-color="#298BD0"/>
<stop offset="1" stop-color="#0169C2"/>
</linearGradient>
<linearGradient id="paint2_linear_815_6334" x1="1437.29" y1="1219.09" x2="-46.3303" y2="2535.46" gradientUnits="userSpaceOnUse">
<stop stop-color="#7ED4EF"/>
<stop offset="0.2294" stop-color="#66BFE6"/>
<stop offset="0.711" stop-color="#298BD0"/>
<stop offset="1" stop-color="#0169C2"/>
</linearGradient>
<linearGradient id="paint3_linear_815_6334" x1="1447.36" y1="1219.94" x2="-45.0711" y2="2544.14" gradientUnits="userSpaceOnUse">
<stop stop-color="#7ED4EF"/>
<stop offset="0.2294" stop-color="#66BFE6"/>
<stop offset="0.711" stop-color="#298BD0"/>
<stop offset="1" stop-color="#0169C2"/>
</linearGradient>
<linearGradient id="paint4_linear_815_6334" x1="1457.37" y1="1220.71" x2="-43.8804" y2="2552.73" gradientUnits="userSpaceOnUse">
<stop stop-color="#7ED4EF"/>
<stop offset="0.2294" stop-color="#66BFE6"/>
<stop offset="0.711" stop-color="#298BD0"/>
<stop offset="1" stop-color="#0169C2"/>
</linearGradient>
<linearGradient id="paint5_linear_815_6334" x1="1467.32" y1="1221.42" x2="-42.7485" y2="2561.26" gradientUnits="userSpaceOnUse">
<stop stop-color="#7ED4EF"/>
<stop offset="0.2294" stop-color="#66BFE6"/>
<stop offset="0.711" stop-color="#298BD0"/>
<stop offset="1" stop-color="#0169C2"/>
</linearGradient>
<linearGradient id="paint6_linear_815_6334" x1="1477.22" y1="1222.09" x2="-41.6592" y2="2569.75" gradientUnits="userSpaceOnUse">
<stop stop-color="#7ED4EF"/>
<stop offset="0.2294" stop-color="#66BFE6"/>
<stop offset="0.711" stop-color="#298BD0"/>
<stop offset="1" stop-color="#0169C2"/>
</linearGradient>
<linearGradient id="paint7_linear_815_6334" x1="1487.1" y1="1222.72" x2="-40.5979" y2="2578.2" gradientUnits="userSpaceOnUse">
<stop stop-color="#7ED4EF"/>
<stop offset="0.2294" stop-color="#66BFE6"/>
<stop offset="0.711" stop-color="#298BD0"/>
<stop offset="1" stop-color="#0169C2"/>
</linearGradient>
<linearGradient id="paint8_linear_815_6334" x1="1496.95" y1="1223.32" x2="-39.5637" y2="2586.62" gradientUnits="userSpaceOnUse">
<stop stop-color="#7ED4EF"/>
<stop offset="0.2294" stop-color="#66BFE6"/>
<stop offset="0.711" stop-color="#298BD0"/>
<stop offset="1" stop-color="#0169C2"/>
</linearGradient>
<linearGradient id="paint9_linear_815_6334" x1="1506.79" y1="1223.89" x2="-38.545" y2="2595.02" gradientUnits="userSpaceOnUse">
<stop stop-color="#7ED4EF"/>
<stop offset="0.2294" stop-color="#66BFE6"/>
<stop offset="0.711" stop-color="#298BD0"/>
<stop offset="1" stop-color="#0169C2"/>
</linearGradient>
<linearGradient id="paint10_linear_815_6334" x1="1516.6" y1="1224.45" x2="-37.5449" y2="2603.4" gradientUnits="userSpaceOnUse">
<stop stop-color="#7ED4EF"/>
<stop offset="0.2294" stop-color="#66BFE6"/>
<stop offset="0.711" stop-color="#298BD0"/>
<stop offset="1" stop-color="#0169C2"/>
</linearGradient>
<linearGradient id="paint11_linear_815_6334" x1="1526.4" y1="1224.99" x2="-36.5606" y2="2611.77" gradientUnits="userSpaceOnUse">
<stop stop-color="#7ED4EF"/>
<stop offset="0.2294" stop-color="#66BFE6"/>
<stop offset="0.711" stop-color="#298BD0"/>
<stop offset="1" stop-color="#0169C2"/>
</linearGradient>
<linearGradient id="paint12_linear_815_6334" x1="1536.2" y1="1225.53" x2="-35.5837" y2="2620.12" gradientUnits="userSpaceOnUse">
<stop stop-color="#7ED4EF"/>
<stop offset="0.2294" stop-color="#66BFE6"/>
<stop offset="0.711" stop-color="#298BD0"/>
<stop offset="1" stop-color="#0169C2"/>
</linearGradient>
<linearGradient id="paint13_linear_815_6334" x1="1545.97" y1="1226.04" x2="-34.6229" y2="2628.46" gradientUnits="userSpaceOnUse">
<stop stop-color="#7ED4EF"/>
<stop offset="0.2294" stop-color="#66BFE6"/>
<stop offset="0.711" stop-color="#298BD0"/>
<stop offset="1" stop-color="#0169C2"/>
</linearGradient>
<linearGradient id="paint14_linear_815_6334" x1="1555.74" y1="1226.55" x2="-33.6718" y2="2636.79" gradientUnits="userSpaceOnUse">
<stop stop-color="#7ED4EF"/>
<stop offset="0.2294" stop-color="#66BFE6"/>
<stop offset="0.711" stop-color="#298BD0"/>
<stop offset="1" stop-color="#0169C2"/>
</linearGradient>
<linearGradient id="paint15_linear_815_6334" x1="1565.5" y1="1227.05" x2="-32.7255" y2="2645.11" gradientUnits="userSpaceOnUse">
<stop stop-color="#7ED4EF"/>
<stop offset="0.2294" stop-color="#66BFE6"/>
<stop offset="0.711" stop-color="#298BD0"/>
<stop offset="1" stop-color="#0169C2"/>
</linearGradient>
<linearGradient id="paint16_linear_815_6334" x1="1575.26" y1="1227.54" x2="-31.7877" y2="2653.43" gradientUnits="userSpaceOnUse">
<stop stop-color="#7ED4EF"/>
<stop offset="0.2294" stop-color="#66BFE6"/>
<stop offset="0.711" stop-color="#298BD0"/>
<stop offset="1" stop-color="#0169C2"/>
</linearGradient>
<linearGradient id="paint17_linear_815_6334" x1="1585.01" y1="1228.03" x2="-30.8515" y2="2661.73" gradientUnits="userSpaceOnUse">
<stop stop-color="#7ED4EF"/>
<stop offset="0.2294" stop-color="#66BFE6"/>
<stop offset="0.711" stop-color="#298BD0"/>
<stop offset="1" stop-color="#0169C2"/>
</linearGradient>
<linearGradient id="paint18_linear_815_6334" x1="1594.75" y1="1228.51" x2="-29.9231" y2="2670.04" gradientUnits="userSpaceOnUse">
<stop stop-color="#7ED4EF"/>
<stop offset="0.2294" stop-color="#66BFE6"/>
<stop offset="0.711" stop-color="#298BD0"/>
<stop offset="1" stop-color="#0169C2"/>
</linearGradient>
<linearGradient id="paint19_linear_815_6334" x1="1604.49" y1="1228.99" x2="-28.9959" y2="2678.33" gradientUnits="userSpaceOnUse">
<stop stop-color="#7ED4EF"/>
<stop offset="0.2294" stop-color="#66BFE6"/>
<stop offset="0.711" stop-color="#298BD0"/>
<stop offset="1" stop-color="#0169C2"/>
</linearGradient>
<linearGradient id="paint20_linear_815_6334" x1="1614.23" y1="1229.46" x2="-28.0786" y2="2686.62" gradientUnits="userSpaceOnUse">
<stop stop-color="#7ED4EF"/>
<stop offset="0.2294" stop-color="#66BFE6"/>
<stop offset="0.711" stop-color="#298BD0"/>
<stop offset="1" stop-color="#0169C2"/>
</linearGradient>
<linearGradient id="paint21_linear_815_6334" x1="1623.96" y1="1229.92" x2="-27.1618" y2="2694.91" gradientUnits="userSpaceOnUse">
<stop stop-color="#7ED4EF"/>
<stop offset="0.2294" stop-color="#66BFE6"/>
<stop offset="0.711" stop-color="#298BD0"/>
<stop offset="1" stop-color="#0169C2"/>
</linearGradient>
<linearGradient id="paint22_linear_815_6334" x1="1633.69" y1="1230.39" x2="-26.2475" y2="2703.2" gradientUnits="userSpaceOnUse">
<stop stop-color="#7ED4EF"/>
<stop offset="0.2294" stop-color="#66BFE6"/>
<stop offset="0.711" stop-color="#298BD0"/>
<stop offset="1" stop-color="#0169C2"/>
</linearGradient>
<linearGradient id="paint23_linear_815_6334" x1="1643.41" y1="1230.85" x2="-25.3344" y2="2711.48" gradientUnits="userSpaceOnUse">
<stop stop-color="#7ED4EF"/>
<stop offset="0.2294" stop-color="#66BFE6"/>
<stop offset="0.711" stop-color="#298BD0"/>
<stop offset="1" stop-color="#0169C2"/>
</linearGradient>
<linearGradient id="paint24_linear_815_6334" x1="109.71" y1="-400.007" x2="1671.79" y2="985.983" gradientUnits="userSpaceOnUse">
<stop stop-color="#7ED4EF"/>
<stop offset="0.2294" stop-color="#66BFE6"/>
<stop offset="0.711" stop-color="#298BD0"/>
<stop offset="1" stop-color="#0169C2"/>
</linearGradient>
<linearGradient id="paint25_linear_815_6334" x1="98.7201" y1="-398.82" x2="1670.2" y2="995.505" gradientUnits="userSpaceOnUse">
<stop stop-color="#7ED4EF"/>
<stop offset="0.2294" stop-color="#66BFE6"/>
<stop offset="0.711" stop-color="#298BD0"/>
<stop offset="1" stop-color="#0169C2"/>
</linearGradient>
<linearGradient id="paint26_linear_815_6334" x1="87.8827" y1="-397.8" x2="1668.76" y2="1004.86" gradientUnits="userSpaceOnUse">
<stop stop-color="#7ED4EF"/>
<stop offset="0.2294" stop-color="#66BFE6"/>
<stop offset="0.711" stop-color="#298BD0"/>
<stop offset="1" stop-color="#0169C2"/>
</linearGradient>
<linearGradient id="paint27_linear_815_6334" x1="77.1488" y1="-396.897" x2="1667.42" y2="1014.1" gradientUnits="userSpaceOnUse">
<stop stop-color="#7ED4EF"/>
<stop offset="0.2294" stop-color="#66BFE6"/>
<stop offset="0.711" stop-color="#298BD0"/>
<stop offset="1" stop-color="#0169C2"/>
</linearGradient>
<linearGradient id="paint28_linear_815_6334" x1="66.4915" y1="-396.078" x2="1666.15" y2="1023.26" gradientUnits="userSpaceOnUse">
<stop stop-color="#7ED4EF"/>
<stop offset="0.2294" stop-color="#66BFE6"/>
<stop offset="0.711" stop-color="#298BD0"/>
<stop offset="1" stop-color="#0169C2"/>
</linearGradient>
<linearGradient id="paint29_linear_815_6334" x1="55.885" y1="-395.321" x2="1664.94" y2="1032.35" gradientUnits="userSpaceOnUse">
<stop stop-color="#7ED4EF"/>
<stop offset="0.2294" stop-color="#66BFE6"/>
<stop offset="0.711" stop-color="#298BD0"/>
<stop offset="1" stop-color="#0169C2"/>
</linearGradient>
<linearGradient id="paint30_linear_815_6334" x1="45.3385" y1="-394.613" x2="1663.79" y2="1041.39" gradientUnits="userSpaceOnUse">
<stop stop-color="#7ED4EF"/>
<stop offset="0.2294" stop-color="#66BFE6"/>
<stop offset="0.711" stop-color="#298BD0"/>
<stop offset="1" stop-color="#0169C2"/>
</linearGradient>
<linearGradient id="paint31_linear_815_6334" x1="34.8102" y1="-393.942" x2="1662.66" y2="1050.4" gradientUnits="userSpaceOnUse">
<stop stop-color="#7ED4EF"/>
<stop offset="0.2294" stop-color="#66BFE6"/>
<stop offset="0.711" stop-color="#298BD0"/>
<stop offset="1" stop-color="#0169C2"/>
</linearGradient>
<linearGradient id="paint32_linear_815_6334" x1="24.3106" y1="-393.301" x2="1661.55" y2="1059.37" gradientUnits="userSpaceOnUse">
<stop stop-color="#7ED4EF"/>
<stop offset="0.2294" stop-color="#66BFE6"/>
<stop offset="0.711" stop-color="#298BD0"/>
<stop offset="1" stop-color="#0169C2"/>
</linearGradient>
<linearGradient id="paint33_linear_815_6334" x1="13.8294" y1="-392.686" x2="1660.46" y2="1068.32" gradientUnits="userSpaceOnUse">
<stop stop-color="#7ED4EF"/>
<stop offset="0.2294" stop-color="#66BFE6"/>
<stop offset="0.711" stop-color="#298BD0"/>
<stop offset="1" stop-color="#0169C2"/>
</linearGradient>
<linearGradient id="paint34_linear_815_6334" x1="3.37148" y1="-392.092" x2="1659.4" y2="1077.25" gradientUnits="userSpaceOnUse">
<stop stop-color="#7ED4EF"/>
<stop offset="0.2294" stop-color="#66BFE6"/>
<stop offset="0.711" stop-color="#298BD0"/>
<stop offset="1" stop-color="#0169C2"/>
</linearGradient>
<linearGradient id="paint35_linear_815_6334" x1="-7.0732" y1="-391.514" x2="1658.35" y2="1086.17" gradientUnits="userSpaceOnUse">
<stop stop-color="#7ED4EF"/>
<stop offset="0.2294" stop-color="#66BFE6"/>
<stop offset="0.711" stop-color="#298BD0"/>
<stop offset="1" stop-color="#0169C2"/>
</linearGradient>
<linearGradient id="paint36_linear_815_6334" x1="-17.501" y1="-390.948" x2="1657.32" y2="1095.07" gradientUnits="userSpaceOnUse">
<stop stop-color="#7ED4EF"/>
<stop offset="0.2294" stop-color="#66BFE6"/>
<stop offset="0.711" stop-color="#298BD0"/>
<stop offset="1" stop-color="#0169C2"/>
</linearGradient>
<linearGradient id="paint37_linear_815_6334" x1="-27.9224" y1="-390.397" x2="1656.29" y2="1103.95" gradientUnits="userSpaceOnUse">
<stop stop-color="#7ED4EF"/>
<stop offset="0.2294" stop-color="#66BFE6"/>
<stop offset="0.711" stop-color="#298BD0"/>
<stop offset="1" stop-color="#0169C2"/>
</linearGradient>
<linearGradient id="paint38_linear_815_6334" x1="-38.3219" y1="-389.855" x2="1655.28" y2="1112.83" gradientUnits="userSpaceOnUse">
<stop stop-color="#7ED4EF"/>
<stop offset="0.2294" stop-color="#66BFE6"/>
<stop offset="0.711" stop-color="#298BD0"/>
<stop offset="1" stop-color="#0169C2"/>
</linearGradient>
<linearGradient id="paint39_linear_815_6334" x1="-48.7344" y1="-389.324" x2="1654.26" y2="1121.7" gradientUnits="userSpaceOnUse">
<stop stop-color="#7ED4EF"/>
<stop offset="0.2294" stop-color="#66BFE6"/>
<stop offset="0.711" stop-color="#298BD0"/>
<stop offset="1" stop-color="#0169C2"/>
</linearGradient>
<linearGradient id="paint40_linear_815_6334" x1="-59.1232" y1="-388.798" x2="1653.27" y2="1130.56" gradientUnits="userSpaceOnUse">
<stop stop-color="#7ED4EF"/>
<stop offset="0.2294" stop-color="#66BFE6"/>
<stop offset="0.711" stop-color="#298BD0"/>
<stop offset="1" stop-color="#0169C2"/>
</linearGradient>
<linearGradient id="paint41_linear_815_6334" x1="-69.5115" y1="-388.279" x2="1652.27" y2="1139.41" gradientUnits="userSpaceOnUse">
<stop stop-color="#7ED4EF"/>
<stop offset="0.2294" stop-color="#66BFE6"/>
<stop offset="0.711" stop-color="#298BD0"/>
<stop offset="1" stop-color="#0169C2"/>
</linearGradient>
<linearGradient id="paint42_linear_815_6334" x1="-79.8946" y1="-387.767" x2="1651.28" y2="1148.26" gradientUnits="userSpaceOnUse">
<stop stop-color="#7ED4EF"/>
<stop offset="0.2294" stop-color="#66BFE6"/>
<stop offset="0.711" stop-color="#298BD0"/>
<stop offset="1" stop-color="#0169C2"/>
</linearGradient>
<linearGradient id="paint43_linear_815_6334" x1="-90.2724" y1="-387.262" x2="1650.3" y2="1157.09" gradientUnits="userSpaceOnUse">
<stop stop-color="#7ED4EF"/>
<stop offset="0.2294" stop-color="#66BFE6"/>
<stop offset="0.711" stop-color="#298BD0"/>
<stop offset="1" stop-color="#0169C2"/>
</linearGradient>
<linearGradient id="paint44_linear_815_6334" x1="-100.647" y1="-386.759" x2="1649.32" y2="1165.93" gradientUnits="userSpaceOnUse">
<stop stop-color="#7ED4EF"/>
<stop offset="0.2294" stop-color="#66BFE6"/>
<stop offset="0.711" stop-color="#298BD0"/>
<stop offset="1" stop-color="#0169C2"/>
</linearGradient>
<linearGradient id="paint45_linear_815_6334" x1="-111.012" y1="-386.261" x2="1648.34" y2="1174.76" gradientUnits="userSpaceOnUse">
<stop stop-color="#7ED4EF"/>
<stop offset="0.2294" stop-color="#66BFE6"/>
<stop offset="0.711" stop-color="#298BD0"/>
<stop offset="1" stop-color="#0169C2"/>
</linearGradient>
<linearGradient id="paint46_linear_815_6334" x1="-121.382" y1="-385.766" x2="1647.37" y2="1183.59" gradientUnits="userSpaceOnUse">
<stop stop-color="#7ED4EF"/>
<stop offset="0.2294" stop-color="#66BFE6"/>
<stop offset="0.711" stop-color="#298BD0"/>
<stop offset="1" stop-color="#0169C2"/>
</linearGradient>
<linearGradient id="paint47_linear_815_6334" x1="-131.738" y1="-385.276" x2="1646.4" y2="1192.42" gradientUnits="userSpaceOnUse">
<stop stop-color="#7ED4EF"/>
<stop offset="0.2294" stop-color="#66BFE6"/>
<stop offset="0.711" stop-color="#298BD0"/>
<stop offset="1" stop-color="#0169C2"/>
</linearGradient>
</defs>
</svg>
