<svg width="31" height="31" viewBox="0 0 31 31" fill="none" xmlns="http://www.w3.org/2000/svg">
<path d="M27.552 11.936C28.4053 11.936 29.0667 12.192 29.536 12.704C30.0053 13.1733 30.24 13.792 30.24 14.56V15.904C30.24 16.672 30.0053 17.2907 29.536 17.76C29.0667 18.2293 28.4053 18.464 27.552 18.464H18.464V27.616C18.464 28.4267 18.2293 29.088 17.76 29.6C17.2907 30.0693 16.672 30.304 15.904 30.304H14.496C13.728 30.2613 13.1093 30.0053 12.64 29.536C12.1707 29.0667 11.936 28.4267 11.936 27.616V18.464H2.784C1.93067 18.464 1.26933 18.2293 0.8 17.76C0.330667 17.2907 0.0960002 16.672 0.0960002 15.904V14.56C0.0960002 13.792 0.330667 13.1733 0.8 12.704C1.26933 12.192 1.93067 11.936 2.784 11.936H11.936V2.848C11.936 1.99466 12.1707 1.33333 12.64 0.863998C13.1093 0.351997 13.728 0.0959969 14.496 0.0959969H15.904C16.672 0.138666 17.2907 0.394666 17.76 0.863998C18.2293 1.33333 18.464 1.99466 18.464 2.848V11.936H27.552Z" fill="#0052B0"/>
</svg>
